%TF.GenerationSoftware,KiCad,Pcbnew,7.0.7*%
%TF.CreationDate,2024-02-03T16:55:10+08:00*%
%TF.ProjectId,lekirbot,6c656b69-7262-46f7-942e-6b696361645f,rev?*%
%TF.SameCoordinates,Original*%
%TF.FileFunction,Profile,NP*%
%FSLAX46Y46*%
G04 Gerber Fmt 4.6, Leading zero omitted, Abs format (unit mm)*
G04 Created by KiCad (PCBNEW 7.0.7) date 2024-02-03 16:55:10*
%MOMM*%
%LPD*%
G01*
G04 APERTURE LIST*
%TA.AperFunction,Profile*%
%ADD10C,0.050000*%
%TD*%
G04 APERTURE END LIST*
D10*
X64770357Y-51374043D02*
G75*
G03*
X56703440Y-43374323I-7999957J43D01*
G01*
X56770400Y-122758000D02*
X45436200Y-122758000D01*
X136575800Y-135758000D02*
X136575800Y-174198000D01*
X32436200Y-174198000D02*
G75*
G03*
X45436200Y-187198000I13000000J0D01*
G01*
X122352200Y-128244400D02*
G75*
G03*
X122352200Y-128244400I-127000J0D01*
G01*
X37435800Y-18796000D02*
X131575800Y-18796000D01*
X123575800Y-187198000D02*
X45436200Y-187198000D01*
X136575800Y-23796000D02*
G75*
G03*
X131575800Y-18796000I-5000000J0D01*
G01*
X37435800Y-18796000D02*
G75*
G03*
X32435800Y-23796000I0J-5000000D01*
G01*
X136575800Y-135758000D02*
G75*
G03*
X123575800Y-122758000I-13000000J0D01*
G01*
X104343600Y-114758000D02*
X104343600Y-51374297D01*
X45436200Y-122758000D02*
G75*
G03*
X32436200Y-135758000I0J-13000000D01*
G01*
X123575800Y-187198000D02*
G75*
G03*
X136575800Y-174198000I0J13000000D01*
G01*
X104343600Y-114758000D02*
G75*
G03*
X112343600Y-122758000I8000000J0D01*
G01*
X136575800Y-23796000D02*
X136575800Y-38535600D01*
X32435800Y-38535600D02*
X32435800Y-23796000D01*
X120193201Y-125602800D02*
G75*
G03*
X120193201Y-125602800I-1J0D01*
G01*
X37435800Y-43535600D02*
X56703440Y-43374323D01*
X112410812Y-43374582D02*
G75*
G03*
X104343600Y-51374297I-67212J-7999718D01*
G01*
X56770400Y-122758000D02*
G75*
G03*
X64770400Y-114758000I0J8000000D01*
G01*
X112410812Y-43374579D02*
X131575800Y-43535600D01*
X64770400Y-114758000D02*
X64770400Y-51374043D01*
X131575800Y-43535600D02*
G75*
G03*
X136575800Y-38535600I0J5000000D01*
G01*
X32435800Y-38535600D02*
G75*
G03*
X37435800Y-43535600I5000000J0D01*
G01*
X123575800Y-122758000D02*
X112343600Y-122758000D01*
X32436200Y-174198000D02*
X32436200Y-135758000D01*
M02*
