%TF.GenerationSoftware,KiCad,Pcbnew,7.0.7*%
%TF.CreationDate,2024-02-03T16:57:13+08:00*%
%TF.ProjectId,lekirbot,6c656b69-7262-46f7-942e-6b696361645f,rev?*%
%TF.SameCoordinates,Original*%
%TF.FileFunction,Soldermask,Top*%
%TF.FilePolarity,Negative*%
%FSLAX46Y46*%
G04 Gerber Fmt 4.6, Leading zero omitted, Abs format (unit mm)*
G04 Created by KiCad (PCBNEW 7.0.7) date 2024-02-03 16:57:13*
%MOMM*%
%LPD*%
G01*
G04 APERTURE LIST*
G04 Aperture macros list*
%AMRoundRect*
0 Rectangle with rounded corners*
0 $1 Rounding radius*
0 $2 $3 $4 $5 $6 $7 $8 $9 X,Y pos of 4 corners*
0 Add a 4 corners polygon primitive as box body*
4,1,4,$2,$3,$4,$5,$6,$7,$8,$9,$2,$3,0*
0 Add four circle primitives for the rounded corners*
1,1,$1+$1,$2,$3*
1,1,$1+$1,$4,$5*
1,1,$1+$1,$6,$7*
1,1,$1+$1,$8,$9*
0 Add four rect primitives between the rounded corners*
20,1,$1+$1,$2,$3,$4,$5,0*
20,1,$1+$1,$4,$5,$6,$7,0*
20,1,$1+$1,$6,$7,$8,$9,0*
20,1,$1+$1,$8,$9,$2,$3,0*%
%AMFreePoly0*
4,1,25,0.375350,0.844196,0.387473,0.833842,0.833842,0.387473,0.862349,0.331525,0.863600,0.315631,0.863600,-0.315631,0.844196,-0.375350,0.833842,-0.387473,0.387473,-0.833842,0.331525,-0.862349,0.315631,-0.863600,-0.315631,-0.863600,-0.375350,-0.844196,-0.387473,-0.833842,-0.833842,-0.387473,-0.862349,-0.331525,-0.863600,-0.315631,-0.863600,0.315631,-0.844196,0.375350,-0.833842,0.387473,
-0.387473,0.833842,-0.331525,0.862349,-0.315631,0.863600,0.315631,0.863600,0.375350,0.844196,0.375350,0.844196,$1*%
%AMFreePoly1*
4,1,25,0.501602,1.148996,0.513725,1.138642,1.138642,0.513725,1.167149,0.457777,1.168400,0.441883,1.168400,-0.441883,1.148996,-0.501602,1.138642,-0.513725,0.513725,-1.138642,0.457777,-1.167149,0.441883,-1.168400,-0.441883,-1.168400,-0.501602,-1.148996,-0.513725,-1.138642,-1.138642,-0.513725,-1.167149,-0.457777,-1.168400,-0.441883,-1.168400,0.441883,-1.148996,0.501602,-1.138642,0.513725,
-0.513725,1.138642,-0.457777,1.167149,-0.441883,1.168400,0.441883,1.168400,0.501602,1.148996,0.501602,1.148996,$1*%
G04 Aperture macros list end*
%ADD10RoundRect,0.101600X-0.550000X-0.500000X0.550000X-0.500000X0.550000X0.500000X-0.550000X0.500000X0*%
%ADD11R,1.700000X1.700000*%
%ADD12O,1.700000X1.700000*%
%ADD13C,3.200000*%
%ADD14C,2.082800*%
%ADD15RoundRect,0.101600X-0.800000X-0.901500X0.800000X-0.901500X0.800000X0.901500X-0.800000X0.901500X0*%
%ADD16C,2.000000*%
%ADD17C,1.778000*%
%ADD18RoundRect,0.101600X0.654000X-0.654000X0.654000X0.654000X-0.654000X0.654000X-0.654000X-0.654000X0*%
%ADD19C,1.511200*%
%ADD20FreePoly0,90.000000*%
%ADD21FreePoly1,90.000000*%
G04 APERTURE END LIST*
D10*
%TO.C,R1*%
X109095200Y-27965200D03*
X110795200Y-27965200D03*
%TD*%
%TO.C,R2*%
X96430400Y-27965200D03*
X98130400Y-27965200D03*
%TD*%
D11*
%TO.C,J3*%
X80620000Y-32080000D03*
D12*
X83160000Y-32080000D03*
X85700000Y-32080000D03*
X88240000Y-32080000D03*
%TD*%
D13*
%TO.C,H3*%
X46240700Y-178734600D03*
%TD*%
D14*
%TO.C,J1*%
X122987200Y-127736400D03*
X120447200Y-127736400D03*
X117907200Y-127736400D03*
%TD*%
D15*
%TO.C,D2*%
X95657200Y-21107200D03*
X98501200Y-21107200D03*
%TD*%
D14*
%TO.C,M1A0*%
X57912000Y-165945700D03*
%TD*%
%TO.C,J2*%
X51968800Y-127914200D03*
X49428800Y-127914200D03*
X46888800Y-127914200D03*
%TD*%
D13*
%TO.C,H4*%
X46240700Y-160776800D03*
%TD*%
D15*
%TO.C,D1*%
X108230200Y-21107200D03*
X111074200Y-21107200D03*
%TD*%
D16*
%TO.C,SW1*%
X54308000Y-139086000D03*
X60808000Y-139086000D03*
X54308000Y-143586000D03*
X60808000Y-143586000D03*
%TD*%
D15*
%TO.C,D4*%
X70511200Y-21107200D03*
X73355200Y-21107200D03*
%TD*%
D13*
%TO.C,H5*%
X127051200Y-31165600D03*
%TD*%
D14*
%TO.C,LDR0*%
X110084000Y-143078000D03*
X112624000Y-143078000D03*
%TD*%
%TO.C,BATT0*%
X86081000Y-171018000D03*
X83541000Y-171018000D03*
%TD*%
D15*
%TO.C,D3*%
X83084200Y-21107200D03*
X85928200Y-21107200D03*
%TD*%
D10*
%TO.C,R5*%
X58435800Y-27965200D03*
X60135800Y-27965200D03*
%TD*%
D17*
%TO.C,ARDUINO_NANO1*%
X76810000Y-185928000D03*
X92050000Y-185928000D03*
X76810000Y-145288000D03*
X92050000Y-145288000D03*
D18*
X92050000Y-183388000D03*
D19*
X92050000Y-180848000D03*
X92050000Y-178308000D03*
X92050000Y-175768000D03*
X92050000Y-173228000D03*
X92050000Y-170688000D03*
X92050000Y-168148000D03*
X92050000Y-165608000D03*
X92050000Y-163068000D03*
X92050000Y-160528000D03*
X92050000Y-157988000D03*
X92050000Y-155448000D03*
X92050000Y-152908000D03*
X92050000Y-150368000D03*
X92050000Y-147828000D03*
X76810000Y-147828000D03*
X76810000Y-150368000D03*
X76810000Y-152908000D03*
X76810000Y-155448000D03*
X76810000Y-157988000D03*
X76810000Y-160528000D03*
X76810000Y-163068000D03*
X76810000Y-165608000D03*
X76810000Y-168148000D03*
X76810000Y-170688000D03*
X76810000Y-173228000D03*
X76810000Y-175768000D03*
X76810000Y-178308000D03*
X76810000Y-180848000D03*
X76810000Y-183388000D03*
%TD*%
D13*
%TO.C,H8*%
X73812800Y-51358600D03*
%TD*%
D10*
%TO.C,R3*%
X83765500Y-27965200D03*
X85465500Y-27965200D03*
%TD*%
D20*
%TO.C,S2X0*%
X82334500Y-184480000D03*
X84557000Y-184480000D03*
X86779500Y-184480000D03*
D21*
X79807000Y-184492500D03*
X89307000Y-184467500D03*
%TD*%
D14*
%TO.C,M1B0*%
X57912000Y-173692700D03*
%TD*%
D13*
%TO.C,H10*%
X94564600Y-114706200D03*
%TD*%
%TO.C,H7*%
X94488400Y-51409400D03*
%TD*%
%TO.C,H9*%
X73787400Y-114782400D03*
%TD*%
D14*
%TO.C,M2A0*%
X111252000Y-165945700D03*
%TD*%
%TO.C,M2B0*%
X111252000Y-173692700D03*
%TD*%
D13*
%TO.C,H6*%
X41910400Y-31241800D03*
%TD*%
%TO.C,H1*%
X122262900Y-178734600D03*
%TD*%
D15*
%TO.C,D5*%
X57938200Y-21107200D03*
X60782200Y-21107200D03*
%TD*%
D10*
%TO.C,R4*%
X71100700Y-27965200D03*
X72800700Y-27965200D03*
%TD*%
D13*
%TO.C,H2*%
X122262900Y-160776800D03*
%TD*%
M02*
