%TF.GenerationSoftware,KiCad,Pcbnew,7.0.7*%
%TF.CreationDate,2024-02-04T10:16:06+08:00*%
%TF.ProjectId,lekirbot,6c656b69-7262-46f7-942e-6b696361645f,rev?*%
%TF.SameCoordinates,Original*%
%TF.FileFunction,Drillmap*%
%TF.FilePolarity,Positive*%
%FSLAX45Y45*%
G04 Gerber Fmt 4.5, Leading zero omitted, Abs format (unit mm)*
G04 Created by KiCad (PCBNEW 7.0.7) date 2024-02-04 10:16:06*
%MOMM*%
%LPD*%
G01*
G04 APERTURE LIST*
%ADD10C,0.050000*%
%ADD11C,0.200000*%
%ADD12C,0.177800*%
%ADD13C,0.320000*%
G04 APERTURE END LIST*
D10*
X6477036Y-5137404D02*
G75*
G03*
X5670344Y-4337432I-799996J4D01*
G01*
X5677040Y-12275800D02*
X4543620Y-12275800D01*
X13657580Y-13575800D02*
X13657580Y-17419800D01*
X3243620Y-17419800D02*
G75*
G03*
X4543620Y-18719800I1300000J0D01*
G01*
X12235220Y-12824440D02*
G75*
G03*
X12235220Y-12824440I-12700J0D01*
G01*
X3743580Y-1879600D02*
X13157580Y-1879600D01*
X12357580Y-18719800D02*
X4543620Y-18719800D01*
X13657580Y-2379600D02*
G75*
G03*
X13157580Y-1879600I-500000J0D01*
G01*
X3743580Y-1879600D02*
G75*
G03*
X3243580Y-2379600I0J-500000D01*
G01*
X13657580Y-13575800D02*
G75*
G03*
X12357580Y-12275800I-1300000J0D01*
G01*
X10434360Y-11475800D02*
X10434360Y-5137430D01*
X4543620Y-12275800D02*
G75*
G03*
X3243620Y-13575800I0J-1300000D01*
G01*
X12357580Y-18719800D02*
G75*
G03*
X13657580Y-17419800I0J1300000D01*
G01*
X10434360Y-11475800D02*
G75*
G03*
X11234360Y-12275800I800000J0D01*
G01*
X13657580Y-2379600D02*
X13657580Y-3853560D01*
X3243580Y-3853560D02*
X3243580Y-2379600D01*
X12019320Y-12560280D02*
G75*
G03*
X12019320Y-12560280I0J0D01*
G01*
X3743580Y-4353560D02*
X5670344Y-4337432D01*
X11241081Y-4337458D02*
G75*
G03*
X10434360Y-5137430I-6721J-799972D01*
G01*
X5677040Y-12275800D02*
G75*
G03*
X6477040Y-11475800I0J800000D01*
G01*
X11241081Y-4337458D02*
X13157580Y-4353560D01*
X6477040Y-11475800D02*
X6477040Y-5137404D01*
X13157580Y-4353560D02*
G75*
G03*
X13657580Y-3853560I0J500000D01*
G01*
X3243580Y-3853560D02*
G75*
G03*
X3743580Y-4353560I500000J0D01*
G01*
X12357580Y-12275800D02*
X11234360Y-12275800D01*
X3243620Y-17419800D02*
X3243620Y-13575800D01*
D11*
D12*
X7592100Y-14439900D02*
X7769900Y-14617700D01*
X7769900Y-14439900D02*
X7592100Y-14617700D01*
X7592100Y-18503900D02*
X7769900Y-18681700D01*
X7769900Y-18503900D02*
X7592100Y-18681700D01*
X9116100Y-14439900D02*
X9293900Y-14617700D01*
X9293900Y-14439900D02*
X9116100Y-14617700D01*
X9116100Y-18503900D02*
X9293900Y-18681700D01*
X9293900Y-18503900D02*
X9116100Y-18681700D01*
D13*
X4351040Y-3124180D02*
G75*
G03*
X4351040Y-3124180I-160000J0D01*
G01*
X4784070Y-16077680D02*
G75*
G03*
X4784070Y-16077680I-160000J0D01*
G01*
X4784070Y-17873460D02*
G75*
G03*
X4784070Y-17873460I-160000J0D01*
G01*
X7538740Y-11478240D02*
G75*
G03*
X7538740Y-11478240I-160000J0D01*
G01*
X7541280Y-5135860D02*
G75*
G03*
X7541280Y-5135860I-160000J0D01*
G01*
X9608840Y-5140940D02*
G75*
G03*
X9608840Y-5140940I-160000J0D01*
G01*
X9616460Y-11470620D02*
G75*
G03*
X9616460Y-11470620I-160000J0D01*
G01*
X12386290Y-16077680D02*
G75*
G03*
X12386290Y-16077680I-160000J0D01*
G01*
X12386290Y-17873460D02*
G75*
G03*
X12386290Y-17873460I-160000J0D01*
G01*
X12865120Y-3116560D02*
G75*
G03*
X12865120Y-3116560I-160000J0D01*
G01*
D11*
X3501857Y-19033784D02*
X3501857Y-18833784D01*
X3501857Y-18833784D02*
X3549476Y-18833784D01*
X3549476Y-18833784D02*
X3578047Y-18843308D01*
X3578047Y-18843308D02*
X3597095Y-18862355D01*
X3597095Y-18862355D02*
X3606619Y-18881403D01*
X3606619Y-18881403D02*
X3616142Y-18919498D01*
X3616142Y-18919498D02*
X3616142Y-18948070D01*
X3616142Y-18948070D02*
X3606619Y-18986165D01*
X3606619Y-18986165D02*
X3597095Y-19005212D01*
X3597095Y-19005212D02*
X3578047Y-19024260D01*
X3578047Y-19024260D02*
X3549476Y-19033784D01*
X3549476Y-19033784D02*
X3501857Y-19033784D01*
X3701857Y-19033784D02*
X3701857Y-18900450D01*
X3701857Y-18938546D02*
X3711381Y-18919498D01*
X3711381Y-18919498D02*
X3720904Y-18909974D01*
X3720904Y-18909974D02*
X3739952Y-18900450D01*
X3739952Y-18900450D02*
X3759000Y-18900450D01*
X3825666Y-19033784D02*
X3825666Y-18900450D01*
X3825666Y-18833784D02*
X3816142Y-18843308D01*
X3816142Y-18843308D02*
X3825666Y-18852831D01*
X3825666Y-18852831D02*
X3835190Y-18843308D01*
X3835190Y-18843308D02*
X3825666Y-18833784D01*
X3825666Y-18833784D02*
X3825666Y-18852831D01*
X3949476Y-19033784D02*
X3930428Y-19024260D01*
X3930428Y-19024260D02*
X3920904Y-19005212D01*
X3920904Y-19005212D02*
X3920904Y-18833784D01*
X4054238Y-19033784D02*
X4035190Y-19024260D01*
X4035190Y-19024260D02*
X4025666Y-19005212D01*
X4025666Y-19005212D02*
X4025666Y-18833784D01*
X4282809Y-19033784D02*
X4282809Y-18833784D01*
X4282809Y-18833784D02*
X4349476Y-18976641D01*
X4349476Y-18976641D02*
X4416143Y-18833784D01*
X4416143Y-18833784D02*
X4416143Y-19033784D01*
X4597095Y-19033784D02*
X4597095Y-18929022D01*
X4597095Y-18929022D02*
X4587571Y-18909974D01*
X4587571Y-18909974D02*
X4568524Y-18900450D01*
X4568524Y-18900450D02*
X4530428Y-18900450D01*
X4530428Y-18900450D02*
X4511381Y-18909974D01*
X4597095Y-19024260D02*
X4578047Y-19033784D01*
X4578047Y-19033784D02*
X4530428Y-19033784D01*
X4530428Y-19033784D02*
X4511381Y-19024260D01*
X4511381Y-19024260D02*
X4501857Y-19005212D01*
X4501857Y-19005212D02*
X4501857Y-18986165D01*
X4501857Y-18986165D02*
X4511381Y-18967117D01*
X4511381Y-18967117D02*
X4530428Y-18957593D01*
X4530428Y-18957593D02*
X4578047Y-18957593D01*
X4578047Y-18957593D02*
X4597095Y-18948070D01*
X4692333Y-18900450D02*
X4692333Y-19100450D01*
X4692333Y-18909974D02*
X4711381Y-18900450D01*
X4711381Y-18900450D02*
X4749476Y-18900450D01*
X4749476Y-18900450D02*
X4768524Y-18909974D01*
X4768524Y-18909974D02*
X4778047Y-18919498D01*
X4778047Y-18919498D02*
X4787571Y-18938546D01*
X4787571Y-18938546D02*
X4787571Y-18995689D01*
X4787571Y-18995689D02*
X4778047Y-19014736D01*
X4778047Y-19014736D02*
X4768524Y-19024260D01*
X4768524Y-19024260D02*
X4749476Y-19033784D01*
X4749476Y-19033784D02*
X4711381Y-19033784D01*
X4711381Y-19033784D02*
X4692333Y-19024260D01*
X4873285Y-19014736D02*
X4882809Y-19024260D01*
X4882809Y-19024260D02*
X4873285Y-19033784D01*
X4873285Y-19033784D02*
X4863762Y-19024260D01*
X4863762Y-19024260D02*
X4873285Y-19014736D01*
X4873285Y-19014736D02*
X4873285Y-19033784D01*
X4873285Y-18909974D02*
X4882809Y-18919498D01*
X4882809Y-18919498D02*
X4873285Y-18929022D01*
X4873285Y-18929022D02*
X4863762Y-18919498D01*
X4863762Y-18919498D02*
X4873285Y-18909974D01*
X4873285Y-18909974D02*
X4873285Y-18929022D01*
D12*
X3063280Y-19273400D02*
X3241080Y-19451200D01*
X3241080Y-19273400D02*
X3063280Y-19451200D01*
D11*
X3606619Y-19453784D02*
X3492333Y-19453784D01*
X3549476Y-19453784D02*
X3549476Y-19253784D01*
X3549476Y-19253784D02*
X3530428Y-19282355D01*
X3530428Y-19282355D02*
X3511381Y-19301403D01*
X3511381Y-19301403D02*
X3492333Y-19310927D01*
X3692333Y-19434736D02*
X3701857Y-19444260D01*
X3701857Y-19444260D02*
X3692333Y-19453784D01*
X3692333Y-19453784D02*
X3682809Y-19444260D01*
X3682809Y-19444260D02*
X3692333Y-19434736D01*
X3692333Y-19434736D02*
X3692333Y-19453784D01*
X3768523Y-19253784D02*
X3901857Y-19253784D01*
X3901857Y-19253784D02*
X3816142Y-19453784D01*
X3959000Y-19253784D02*
X4092333Y-19253784D01*
X4092333Y-19253784D02*
X4006619Y-19453784D01*
X4197095Y-19339498D02*
X4178047Y-19329974D01*
X4178047Y-19329974D02*
X4168523Y-19320450D01*
X4168523Y-19320450D02*
X4159000Y-19301403D01*
X4159000Y-19301403D02*
X4159000Y-19291879D01*
X4159000Y-19291879D02*
X4168523Y-19272831D01*
X4168523Y-19272831D02*
X4178047Y-19263308D01*
X4178047Y-19263308D02*
X4197095Y-19253784D01*
X4197095Y-19253784D02*
X4235190Y-19253784D01*
X4235190Y-19253784D02*
X4254238Y-19263308D01*
X4254238Y-19263308D02*
X4263762Y-19272831D01*
X4263762Y-19272831D02*
X4273285Y-19291879D01*
X4273285Y-19291879D02*
X4273285Y-19301403D01*
X4273285Y-19301403D02*
X4263762Y-19320450D01*
X4263762Y-19320450D02*
X4254238Y-19329974D01*
X4254238Y-19329974D02*
X4235190Y-19339498D01*
X4235190Y-19339498D02*
X4197095Y-19339498D01*
X4197095Y-19339498D02*
X4178047Y-19349022D01*
X4178047Y-19349022D02*
X4168523Y-19358546D01*
X4168523Y-19358546D02*
X4159000Y-19377593D01*
X4159000Y-19377593D02*
X4159000Y-19415689D01*
X4159000Y-19415689D02*
X4168523Y-19434736D01*
X4168523Y-19434736D02*
X4178047Y-19444260D01*
X4178047Y-19444260D02*
X4197095Y-19453784D01*
X4197095Y-19453784D02*
X4235190Y-19453784D01*
X4235190Y-19453784D02*
X4254238Y-19444260D01*
X4254238Y-19444260D02*
X4263762Y-19434736D01*
X4263762Y-19434736D02*
X4273285Y-19415689D01*
X4273285Y-19415689D02*
X4273285Y-19377593D01*
X4273285Y-19377593D02*
X4263762Y-19358546D01*
X4263762Y-19358546D02*
X4254238Y-19349022D01*
X4254238Y-19349022D02*
X4235190Y-19339498D01*
X4359000Y-19453784D02*
X4359000Y-19320450D01*
X4359000Y-19339498D02*
X4368524Y-19329974D01*
X4368524Y-19329974D02*
X4387571Y-19320450D01*
X4387571Y-19320450D02*
X4416143Y-19320450D01*
X4416143Y-19320450D02*
X4435190Y-19329974D01*
X4435190Y-19329974D02*
X4444714Y-19349022D01*
X4444714Y-19349022D02*
X4444714Y-19453784D01*
X4444714Y-19349022D02*
X4454238Y-19329974D01*
X4454238Y-19329974D02*
X4473285Y-19320450D01*
X4473285Y-19320450D02*
X4501857Y-19320450D01*
X4501857Y-19320450D02*
X4520905Y-19329974D01*
X4520905Y-19329974D02*
X4530428Y-19349022D01*
X4530428Y-19349022D02*
X4530428Y-19453784D01*
X4625666Y-19453784D02*
X4625666Y-19320450D01*
X4625666Y-19339498D02*
X4635190Y-19329974D01*
X4635190Y-19329974D02*
X4654238Y-19320450D01*
X4654238Y-19320450D02*
X4682809Y-19320450D01*
X4682809Y-19320450D02*
X4701857Y-19329974D01*
X4701857Y-19329974D02*
X4711381Y-19349022D01*
X4711381Y-19349022D02*
X4711381Y-19453784D01*
X4711381Y-19349022D02*
X4720905Y-19329974D01*
X4720905Y-19329974D02*
X4739952Y-19320450D01*
X4739952Y-19320450D02*
X4768524Y-19320450D01*
X4768524Y-19320450D02*
X4787571Y-19329974D01*
X4787571Y-19329974D02*
X4797095Y-19349022D01*
X4797095Y-19349022D02*
X4797095Y-19453784D01*
X5187571Y-19244260D02*
X5016143Y-19501403D01*
X5444714Y-19253784D02*
X5463762Y-19253784D01*
X5463762Y-19253784D02*
X5482809Y-19263308D01*
X5482809Y-19263308D02*
X5492333Y-19272831D01*
X5492333Y-19272831D02*
X5501857Y-19291879D01*
X5501857Y-19291879D02*
X5511381Y-19329974D01*
X5511381Y-19329974D02*
X5511381Y-19377593D01*
X5511381Y-19377593D02*
X5501857Y-19415689D01*
X5501857Y-19415689D02*
X5492333Y-19434736D01*
X5492333Y-19434736D02*
X5482809Y-19444260D01*
X5482809Y-19444260D02*
X5463762Y-19453784D01*
X5463762Y-19453784D02*
X5444714Y-19453784D01*
X5444714Y-19453784D02*
X5425667Y-19444260D01*
X5425667Y-19444260D02*
X5416143Y-19434736D01*
X5416143Y-19434736D02*
X5406619Y-19415689D01*
X5406619Y-19415689D02*
X5397095Y-19377593D01*
X5397095Y-19377593D02*
X5397095Y-19329974D01*
X5397095Y-19329974D02*
X5406619Y-19291879D01*
X5406619Y-19291879D02*
X5416143Y-19272831D01*
X5416143Y-19272831D02*
X5425667Y-19263308D01*
X5425667Y-19263308D02*
X5444714Y-19253784D01*
X5597095Y-19434736D02*
X5606619Y-19444260D01*
X5606619Y-19444260D02*
X5597095Y-19453784D01*
X5597095Y-19453784D02*
X5587571Y-19444260D01*
X5587571Y-19444260D02*
X5597095Y-19434736D01*
X5597095Y-19434736D02*
X5597095Y-19453784D01*
X5730428Y-19253784D02*
X5749476Y-19253784D01*
X5749476Y-19253784D02*
X5768524Y-19263308D01*
X5768524Y-19263308D02*
X5778047Y-19272831D01*
X5778047Y-19272831D02*
X5787571Y-19291879D01*
X5787571Y-19291879D02*
X5797095Y-19329974D01*
X5797095Y-19329974D02*
X5797095Y-19377593D01*
X5797095Y-19377593D02*
X5787571Y-19415689D01*
X5787571Y-19415689D02*
X5778047Y-19434736D01*
X5778047Y-19434736D02*
X5768524Y-19444260D01*
X5768524Y-19444260D02*
X5749476Y-19453784D01*
X5749476Y-19453784D02*
X5730428Y-19453784D01*
X5730428Y-19453784D02*
X5711381Y-19444260D01*
X5711381Y-19444260D02*
X5701857Y-19434736D01*
X5701857Y-19434736D02*
X5692333Y-19415689D01*
X5692333Y-19415689D02*
X5682809Y-19377593D01*
X5682809Y-19377593D02*
X5682809Y-19329974D01*
X5682809Y-19329974D02*
X5692333Y-19291879D01*
X5692333Y-19291879D02*
X5701857Y-19272831D01*
X5701857Y-19272831D02*
X5711381Y-19263308D01*
X5711381Y-19263308D02*
X5730428Y-19253784D01*
X5863762Y-19253784D02*
X5997095Y-19253784D01*
X5997095Y-19253784D02*
X5911381Y-19453784D01*
X6111381Y-19253784D02*
X6130428Y-19253784D01*
X6130428Y-19253784D02*
X6149476Y-19263308D01*
X6149476Y-19263308D02*
X6159000Y-19272831D01*
X6159000Y-19272831D02*
X6168524Y-19291879D01*
X6168524Y-19291879D02*
X6178047Y-19329974D01*
X6178047Y-19329974D02*
X6178047Y-19377593D01*
X6178047Y-19377593D02*
X6168524Y-19415689D01*
X6168524Y-19415689D02*
X6159000Y-19434736D01*
X6159000Y-19434736D02*
X6149476Y-19444260D01*
X6149476Y-19444260D02*
X6130428Y-19453784D01*
X6130428Y-19453784D02*
X6111381Y-19453784D01*
X6111381Y-19453784D02*
X6092333Y-19444260D01*
X6092333Y-19444260D02*
X6082809Y-19434736D01*
X6082809Y-19434736D02*
X6073286Y-19415689D01*
X6073286Y-19415689D02*
X6063762Y-19377593D01*
X6063762Y-19377593D02*
X6063762Y-19329974D01*
X6063762Y-19329974D02*
X6073286Y-19291879D01*
X6073286Y-19291879D02*
X6082809Y-19272831D01*
X6082809Y-19272831D02*
X6092333Y-19263308D01*
X6092333Y-19263308D02*
X6111381Y-19253784D01*
X6301857Y-19253784D02*
X6320905Y-19253784D01*
X6320905Y-19253784D02*
X6339952Y-19263308D01*
X6339952Y-19263308D02*
X6349476Y-19272831D01*
X6349476Y-19272831D02*
X6359000Y-19291879D01*
X6359000Y-19291879D02*
X6368524Y-19329974D01*
X6368524Y-19329974D02*
X6368524Y-19377593D01*
X6368524Y-19377593D02*
X6359000Y-19415689D01*
X6359000Y-19415689D02*
X6349476Y-19434736D01*
X6349476Y-19434736D02*
X6339952Y-19444260D01*
X6339952Y-19444260D02*
X6320905Y-19453784D01*
X6320905Y-19453784D02*
X6301857Y-19453784D01*
X6301857Y-19453784D02*
X6282809Y-19444260D01*
X6282809Y-19444260D02*
X6273286Y-19434736D01*
X6273286Y-19434736D02*
X6263762Y-19415689D01*
X6263762Y-19415689D02*
X6254238Y-19377593D01*
X6254238Y-19377593D02*
X6254238Y-19329974D01*
X6254238Y-19329974D02*
X6263762Y-19291879D01*
X6263762Y-19291879D02*
X6273286Y-19272831D01*
X6273286Y-19272831D02*
X6282809Y-19263308D01*
X6282809Y-19263308D02*
X6301857Y-19253784D01*
X6444714Y-19253784D02*
X6444714Y-19291879D01*
X6520905Y-19253784D02*
X6520905Y-19291879D01*
X6816143Y-19529974D02*
X6806619Y-19520450D01*
X6806619Y-19520450D02*
X6787571Y-19491879D01*
X6787571Y-19491879D02*
X6778048Y-19472831D01*
X6778048Y-19472831D02*
X6768524Y-19444260D01*
X6768524Y-19444260D02*
X6759000Y-19396641D01*
X6759000Y-19396641D02*
X6759000Y-19358546D01*
X6759000Y-19358546D02*
X6768524Y-19310927D01*
X6768524Y-19310927D02*
X6778048Y-19282355D01*
X6778048Y-19282355D02*
X6787571Y-19263308D01*
X6787571Y-19263308D02*
X6806619Y-19234736D01*
X6806619Y-19234736D02*
X6816143Y-19225212D01*
X6978048Y-19320450D02*
X6978048Y-19453784D01*
X6930428Y-19244260D02*
X6882809Y-19387117D01*
X6882809Y-19387117D02*
X7006619Y-19387117D01*
X7235190Y-19453784D02*
X7235190Y-19253784D01*
X7320905Y-19453784D02*
X7320905Y-19349022D01*
X7320905Y-19349022D02*
X7311381Y-19329974D01*
X7311381Y-19329974D02*
X7292333Y-19320450D01*
X7292333Y-19320450D02*
X7263762Y-19320450D01*
X7263762Y-19320450D02*
X7244714Y-19329974D01*
X7244714Y-19329974D02*
X7235190Y-19339498D01*
X7444714Y-19453784D02*
X7425667Y-19444260D01*
X7425667Y-19444260D02*
X7416143Y-19434736D01*
X7416143Y-19434736D02*
X7406619Y-19415689D01*
X7406619Y-19415689D02*
X7406619Y-19358546D01*
X7406619Y-19358546D02*
X7416143Y-19339498D01*
X7416143Y-19339498D02*
X7425667Y-19329974D01*
X7425667Y-19329974D02*
X7444714Y-19320450D01*
X7444714Y-19320450D02*
X7473286Y-19320450D01*
X7473286Y-19320450D02*
X7492333Y-19329974D01*
X7492333Y-19329974D02*
X7501857Y-19339498D01*
X7501857Y-19339498D02*
X7511381Y-19358546D01*
X7511381Y-19358546D02*
X7511381Y-19415689D01*
X7511381Y-19415689D02*
X7501857Y-19434736D01*
X7501857Y-19434736D02*
X7492333Y-19444260D01*
X7492333Y-19444260D02*
X7473286Y-19453784D01*
X7473286Y-19453784D02*
X7444714Y-19453784D01*
X7625667Y-19453784D02*
X7606619Y-19444260D01*
X7606619Y-19444260D02*
X7597095Y-19425212D01*
X7597095Y-19425212D02*
X7597095Y-19253784D01*
X7778048Y-19444260D02*
X7759000Y-19453784D01*
X7759000Y-19453784D02*
X7720905Y-19453784D01*
X7720905Y-19453784D02*
X7701857Y-19444260D01*
X7701857Y-19444260D02*
X7692333Y-19425212D01*
X7692333Y-19425212D02*
X7692333Y-19349022D01*
X7692333Y-19349022D02*
X7701857Y-19329974D01*
X7701857Y-19329974D02*
X7720905Y-19320450D01*
X7720905Y-19320450D02*
X7759000Y-19320450D01*
X7759000Y-19320450D02*
X7778048Y-19329974D01*
X7778048Y-19329974D02*
X7787571Y-19349022D01*
X7787571Y-19349022D02*
X7787571Y-19368070D01*
X7787571Y-19368070D02*
X7692333Y-19387117D01*
X7863762Y-19444260D02*
X7882810Y-19453784D01*
X7882810Y-19453784D02*
X7920905Y-19453784D01*
X7920905Y-19453784D02*
X7939952Y-19444260D01*
X7939952Y-19444260D02*
X7949476Y-19425212D01*
X7949476Y-19425212D02*
X7949476Y-19415689D01*
X7949476Y-19415689D02*
X7939952Y-19396641D01*
X7939952Y-19396641D02*
X7920905Y-19387117D01*
X7920905Y-19387117D02*
X7892333Y-19387117D01*
X7892333Y-19387117D02*
X7873286Y-19377593D01*
X7873286Y-19377593D02*
X7863762Y-19358546D01*
X7863762Y-19358546D02*
X7863762Y-19349022D01*
X7863762Y-19349022D02*
X7873286Y-19329974D01*
X7873286Y-19329974D02*
X7892333Y-19320450D01*
X7892333Y-19320450D02*
X7920905Y-19320450D01*
X7920905Y-19320450D02*
X7939952Y-19329974D01*
X8016143Y-19529974D02*
X8025667Y-19520450D01*
X8025667Y-19520450D02*
X8044714Y-19491879D01*
X8044714Y-19491879D02*
X8054238Y-19472831D01*
X8054238Y-19472831D02*
X8063762Y-19444260D01*
X8063762Y-19444260D02*
X8073286Y-19396641D01*
X8073286Y-19396641D02*
X8073286Y-19358546D01*
X8073286Y-19358546D02*
X8063762Y-19310927D01*
X8063762Y-19310927D02*
X8054238Y-19282355D01*
X8054238Y-19282355D02*
X8044714Y-19263308D01*
X8044714Y-19263308D02*
X8025667Y-19234736D01*
X8025667Y-19234736D02*
X8016143Y-19225212D01*
X8378048Y-19529974D02*
X8368524Y-19520450D01*
X8368524Y-19520450D02*
X8349476Y-19491879D01*
X8349476Y-19491879D02*
X8339952Y-19472831D01*
X8339952Y-19472831D02*
X8330429Y-19444260D01*
X8330429Y-19444260D02*
X8320905Y-19396641D01*
X8320905Y-19396641D02*
X8320905Y-19358546D01*
X8320905Y-19358546D02*
X8330429Y-19310927D01*
X8330429Y-19310927D02*
X8339952Y-19282355D01*
X8339952Y-19282355D02*
X8349476Y-19263308D01*
X8349476Y-19263308D02*
X8368524Y-19234736D01*
X8368524Y-19234736D02*
X8378048Y-19225212D01*
X8454238Y-19320450D02*
X8454238Y-19453784D01*
X8454238Y-19339498D02*
X8463762Y-19329974D01*
X8463762Y-19329974D02*
X8482810Y-19320450D01*
X8482810Y-19320450D02*
X8511381Y-19320450D01*
X8511381Y-19320450D02*
X8530429Y-19329974D01*
X8530429Y-19329974D02*
X8539953Y-19349022D01*
X8539953Y-19349022D02*
X8539953Y-19453784D01*
X8663762Y-19453784D02*
X8644714Y-19444260D01*
X8644714Y-19444260D02*
X8635191Y-19434736D01*
X8635191Y-19434736D02*
X8625667Y-19415689D01*
X8625667Y-19415689D02*
X8625667Y-19358546D01*
X8625667Y-19358546D02*
X8635191Y-19339498D01*
X8635191Y-19339498D02*
X8644714Y-19329974D01*
X8644714Y-19329974D02*
X8663762Y-19320450D01*
X8663762Y-19320450D02*
X8692334Y-19320450D01*
X8692334Y-19320450D02*
X8711381Y-19329974D01*
X8711381Y-19329974D02*
X8720905Y-19339498D01*
X8720905Y-19339498D02*
X8730429Y-19358546D01*
X8730429Y-19358546D02*
X8730429Y-19415689D01*
X8730429Y-19415689D02*
X8720905Y-19434736D01*
X8720905Y-19434736D02*
X8711381Y-19444260D01*
X8711381Y-19444260D02*
X8692334Y-19453784D01*
X8692334Y-19453784D02*
X8663762Y-19453784D01*
X8787572Y-19320450D02*
X8863762Y-19320450D01*
X8816143Y-19253784D02*
X8816143Y-19425212D01*
X8816143Y-19425212D02*
X8825667Y-19444260D01*
X8825667Y-19444260D02*
X8844714Y-19453784D01*
X8844714Y-19453784D02*
X8863762Y-19453784D01*
X9082810Y-19320450D02*
X9082810Y-19520450D01*
X9082810Y-19329974D02*
X9101857Y-19320450D01*
X9101857Y-19320450D02*
X9139953Y-19320450D01*
X9139953Y-19320450D02*
X9159000Y-19329974D01*
X9159000Y-19329974D02*
X9168524Y-19339498D01*
X9168524Y-19339498D02*
X9178048Y-19358546D01*
X9178048Y-19358546D02*
X9178048Y-19415689D01*
X9178048Y-19415689D02*
X9168524Y-19434736D01*
X9168524Y-19434736D02*
X9159000Y-19444260D01*
X9159000Y-19444260D02*
X9139953Y-19453784D01*
X9139953Y-19453784D02*
X9101857Y-19453784D01*
X9101857Y-19453784D02*
X9082810Y-19444260D01*
X9292334Y-19453784D02*
X9273286Y-19444260D01*
X9273286Y-19444260D02*
X9263762Y-19425212D01*
X9263762Y-19425212D02*
X9263762Y-19253784D01*
X9454238Y-19453784D02*
X9454238Y-19349022D01*
X9454238Y-19349022D02*
X9444715Y-19329974D01*
X9444715Y-19329974D02*
X9425667Y-19320450D01*
X9425667Y-19320450D02*
X9387572Y-19320450D01*
X9387572Y-19320450D02*
X9368524Y-19329974D01*
X9454238Y-19444260D02*
X9435191Y-19453784D01*
X9435191Y-19453784D02*
X9387572Y-19453784D01*
X9387572Y-19453784D02*
X9368524Y-19444260D01*
X9368524Y-19444260D02*
X9359000Y-19425212D01*
X9359000Y-19425212D02*
X9359000Y-19406165D01*
X9359000Y-19406165D02*
X9368524Y-19387117D01*
X9368524Y-19387117D02*
X9387572Y-19377593D01*
X9387572Y-19377593D02*
X9435191Y-19377593D01*
X9435191Y-19377593D02*
X9454238Y-19368070D01*
X9520905Y-19320450D02*
X9597095Y-19320450D01*
X9549476Y-19253784D02*
X9549476Y-19425212D01*
X9549476Y-19425212D02*
X9559000Y-19444260D01*
X9559000Y-19444260D02*
X9578048Y-19453784D01*
X9578048Y-19453784D02*
X9597095Y-19453784D01*
X9739953Y-19444260D02*
X9720905Y-19453784D01*
X9720905Y-19453784D02*
X9682810Y-19453784D01*
X9682810Y-19453784D02*
X9663762Y-19444260D01*
X9663762Y-19444260D02*
X9654238Y-19425212D01*
X9654238Y-19425212D02*
X9654238Y-19349022D01*
X9654238Y-19349022D02*
X9663762Y-19329974D01*
X9663762Y-19329974D02*
X9682810Y-19320450D01*
X9682810Y-19320450D02*
X9720905Y-19320450D01*
X9720905Y-19320450D02*
X9739953Y-19329974D01*
X9739953Y-19329974D02*
X9749476Y-19349022D01*
X9749476Y-19349022D02*
X9749476Y-19368070D01*
X9749476Y-19368070D02*
X9654238Y-19387117D01*
X9920905Y-19453784D02*
X9920905Y-19253784D01*
X9920905Y-19444260D02*
X9901857Y-19453784D01*
X9901857Y-19453784D02*
X9863762Y-19453784D01*
X9863762Y-19453784D02*
X9844715Y-19444260D01*
X9844715Y-19444260D02*
X9835191Y-19434736D01*
X9835191Y-19434736D02*
X9825667Y-19415689D01*
X9825667Y-19415689D02*
X9825667Y-19358546D01*
X9825667Y-19358546D02*
X9835191Y-19339498D01*
X9835191Y-19339498D02*
X9844715Y-19329974D01*
X9844715Y-19329974D02*
X9863762Y-19320450D01*
X9863762Y-19320450D02*
X9901857Y-19320450D01*
X9901857Y-19320450D02*
X9920905Y-19329974D01*
X9997096Y-19529974D02*
X10006619Y-19520450D01*
X10006619Y-19520450D02*
X10025667Y-19491879D01*
X10025667Y-19491879D02*
X10035191Y-19472831D01*
X10035191Y-19472831D02*
X10044715Y-19444260D01*
X10044715Y-19444260D02*
X10054238Y-19396641D01*
X10054238Y-19396641D02*
X10054238Y-19358546D01*
X10054238Y-19358546D02*
X10044715Y-19310927D01*
X10044715Y-19310927D02*
X10035191Y-19282355D01*
X10035191Y-19282355D02*
X10025667Y-19263308D01*
X10025667Y-19263308D02*
X10006619Y-19234736D01*
X10006619Y-19234736D02*
X9997096Y-19225212D01*
X3241080Y-19660100D02*
G75*
G03*
X3241080Y-19660100I-100000J0D01*
G01*
X3482809Y-19551584D02*
X3606619Y-19551584D01*
X3606619Y-19551584D02*
X3539952Y-19627774D01*
X3539952Y-19627774D02*
X3568523Y-19627774D01*
X3568523Y-19627774D02*
X3587571Y-19637298D01*
X3587571Y-19637298D02*
X3597095Y-19646822D01*
X3597095Y-19646822D02*
X3606619Y-19665870D01*
X3606619Y-19665870D02*
X3606619Y-19713489D01*
X3606619Y-19713489D02*
X3597095Y-19732536D01*
X3597095Y-19732536D02*
X3587571Y-19742060D01*
X3587571Y-19742060D02*
X3568523Y-19751584D01*
X3568523Y-19751584D02*
X3511381Y-19751584D01*
X3511381Y-19751584D02*
X3492333Y-19742060D01*
X3492333Y-19742060D02*
X3482809Y-19732536D01*
X3692333Y-19732536D02*
X3701857Y-19742060D01*
X3701857Y-19742060D02*
X3692333Y-19751584D01*
X3692333Y-19751584D02*
X3682809Y-19742060D01*
X3682809Y-19742060D02*
X3692333Y-19732536D01*
X3692333Y-19732536D02*
X3692333Y-19751584D01*
X3778047Y-19570631D02*
X3787571Y-19561108D01*
X3787571Y-19561108D02*
X3806619Y-19551584D01*
X3806619Y-19551584D02*
X3854238Y-19551584D01*
X3854238Y-19551584D02*
X3873285Y-19561108D01*
X3873285Y-19561108D02*
X3882809Y-19570631D01*
X3882809Y-19570631D02*
X3892333Y-19589679D01*
X3892333Y-19589679D02*
X3892333Y-19608727D01*
X3892333Y-19608727D02*
X3882809Y-19637298D01*
X3882809Y-19637298D02*
X3768523Y-19751584D01*
X3768523Y-19751584D02*
X3892333Y-19751584D01*
X4016142Y-19551584D02*
X4035190Y-19551584D01*
X4035190Y-19551584D02*
X4054238Y-19561108D01*
X4054238Y-19561108D02*
X4063762Y-19570631D01*
X4063762Y-19570631D02*
X4073285Y-19589679D01*
X4073285Y-19589679D02*
X4082809Y-19627774D01*
X4082809Y-19627774D02*
X4082809Y-19675393D01*
X4082809Y-19675393D02*
X4073285Y-19713489D01*
X4073285Y-19713489D02*
X4063762Y-19732536D01*
X4063762Y-19732536D02*
X4054238Y-19742060D01*
X4054238Y-19742060D02*
X4035190Y-19751584D01*
X4035190Y-19751584D02*
X4016142Y-19751584D01*
X4016142Y-19751584D02*
X3997095Y-19742060D01*
X3997095Y-19742060D02*
X3987571Y-19732536D01*
X3987571Y-19732536D02*
X3978047Y-19713489D01*
X3978047Y-19713489D02*
X3968523Y-19675393D01*
X3968523Y-19675393D02*
X3968523Y-19627774D01*
X3968523Y-19627774D02*
X3978047Y-19589679D01*
X3978047Y-19589679D02*
X3987571Y-19570631D01*
X3987571Y-19570631D02*
X3997095Y-19561108D01*
X3997095Y-19561108D02*
X4016142Y-19551584D01*
X4206619Y-19551584D02*
X4225666Y-19551584D01*
X4225666Y-19551584D02*
X4244714Y-19561108D01*
X4244714Y-19561108D02*
X4254238Y-19570631D01*
X4254238Y-19570631D02*
X4263762Y-19589679D01*
X4263762Y-19589679D02*
X4273285Y-19627774D01*
X4273285Y-19627774D02*
X4273285Y-19675393D01*
X4273285Y-19675393D02*
X4263762Y-19713489D01*
X4263762Y-19713489D02*
X4254238Y-19732536D01*
X4254238Y-19732536D02*
X4244714Y-19742060D01*
X4244714Y-19742060D02*
X4225666Y-19751584D01*
X4225666Y-19751584D02*
X4206619Y-19751584D01*
X4206619Y-19751584D02*
X4187571Y-19742060D01*
X4187571Y-19742060D02*
X4178047Y-19732536D01*
X4178047Y-19732536D02*
X4168523Y-19713489D01*
X4168523Y-19713489D02*
X4159000Y-19675393D01*
X4159000Y-19675393D02*
X4159000Y-19627774D01*
X4159000Y-19627774D02*
X4168523Y-19589679D01*
X4168523Y-19589679D02*
X4178047Y-19570631D01*
X4178047Y-19570631D02*
X4187571Y-19561108D01*
X4187571Y-19561108D02*
X4206619Y-19551584D01*
X4359000Y-19751584D02*
X4359000Y-19618250D01*
X4359000Y-19637298D02*
X4368524Y-19627774D01*
X4368524Y-19627774D02*
X4387571Y-19618250D01*
X4387571Y-19618250D02*
X4416143Y-19618250D01*
X4416143Y-19618250D02*
X4435190Y-19627774D01*
X4435190Y-19627774D02*
X4444714Y-19646822D01*
X4444714Y-19646822D02*
X4444714Y-19751584D01*
X4444714Y-19646822D02*
X4454238Y-19627774D01*
X4454238Y-19627774D02*
X4473285Y-19618250D01*
X4473285Y-19618250D02*
X4501857Y-19618250D01*
X4501857Y-19618250D02*
X4520905Y-19627774D01*
X4520905Y-19627774D02*
X4530428Y-19646822D01*
X4530428Y-19646822D02*
X4530428Y-19751584D01*
X4625666Y-19751584D02*
X4625666Y-19618250D01*
X4625666Y-19637298D02*
X4635190Y-19627774D01*
X4635190Y-19627774D02*
X4654238Y-19618250D01*
X4654238Y-19618250D02*
X4682809Y-19618250D01*
X4682809Y-19618250D02*
X4701857Y-19627774D01*
X4701857Y-19627774D02*
X4711381Y-19646822D01*
X4711381Y-19646822D02*
X4711381Y-19751584D01*
X4711381Y-19646822D02*
X4720905Y-19627774D01*
X4720905Y-19627774D02*
X4739952Y-19618250D01*
X4739952Y-19618250D02*
X4768524Y-19618250D01*
X4768524Y-19618250D02*
X4787571Y-19627774D01*
X4787571Y-19627774D02*
X4797095Y-19646822D01*
X4797095Y-19646822D02*
X4797095Y-19751584D01*
X5187571Y-19542060D02*
X5016143Y-19799203D01*
X5444714Y-19551584D02*
X5463762Y-19551584D01*
X5463762Y-19551584D02*
X5482809Y-19561108D01*
X5482809Y-19561108D02*
X5492333Y-19570631D01*
X5492333Y-19570631D02*
X5501857Y-19589679D01*
X5501857Y-19589679D02*
X5511381Y-19627774D01*
X5511381Y-19627774D02*
X5511381Y-19675393D01*
X5511381Y-19675393D02*
X5501857Y-19713489D01*
X5501857Y-19713489D02*
X5492333Y-19732536D01*
X5492333Y-19732536D02*
X5482809Y-19742060D01*
X5482809Y-19742060D02*
X5463762Y-19751584D01*
X5463762Y-19751584D02*
X5444714Y-19751584D01*
X5444714Y-19751584D02*
X5425667Y-19742060D01*
X5425667Y-19742060D02*
X5416143Y-19732536D01*
X5416143Y-19732536D02*
X5406619Y-19713489D01*
X5406619Y-19713489D02*
X5397095Y-19675393D01*
X5397095Y-19675393D02*
X5397095Y-19627774D01*
X5397095Y-19627774D02*
X5406619Y-19589679D01*
X5406619Y-19589679D02*
X5416143Y-19570631D01*
X5416143Y-19570631D02*
X5425667Y-19561108D01*
X5425667Y-19561108D02*
X5444714Y-19551584D01*
X5597095Y-19732536D02*
X5606619Y-19742060D01*
X5606619Y-19742060D02*
X5597095Y-19751584D01*
X5597095Y-19751584D02*
X5587571Y-19742060D01*
X5587571Y-19742060D02*
X5597095Y-19732536D01*
X5597095Y-19732536D02*
X5597095Y-19751584D01*
X5797095Y-19751584D02*
X5682809Y-19751584D01*
X5739952Y-19751584D02*
X5739952Y-19551584D01*
X5739952Y-19551584D02*
X5720905Y-19580155D01*
X5720905Y-19580155D02*
X5701857Y-19599203D01*
X5701857Y-19599203D02*
X5682809Y-19608727D01*
X5873286Y-19570631D02*
X5882809Y-19561108D01*
X5882809Y-19561108D02*
X5901857Y-19551584D01*
X5901857Y-19551584D02*
X5949476Y-19551584D01*
X5949476Y-19551584D02*
X5968524Y-19561108D01*
X5968524Y-19561108D02*
X5978047Y-19570631D01*
X5978047Y-19570631D02*
X5987571Y-19589679D01*
X5987571Y-19589679D02*
X5987571Y-19608727D01*
X5987571Y-19608727D02*
X5978047Y-19637298D01*
X5978047Y-19637298D02*
X5863762Y-19751584D01*
X5863762Y-19751584D02*
X5987571Y-19751584D01*
X6159000Y-19551584D02*
X6120905Y-19551584D01*
X6120905Y-19551584D02*
X6101857Y-19561108D01*
X6101857Y-19561108D02*
X6092333Y-19570631D01*
X6092333Y-19570631D02*
X6073286Y-19599203D01*
X6073286Y-19599203D02*
X6063762Y-19637298D01*
X6063762Y-19637298D02*
X6063762Y-19713489D01*
X6063762Y-19713489D02*
X6073286Y-19732536D01*
X6073286Y-19732536D02*
X6082809Y-19742060D01*
X6082809Y-19742060D02*
X6101857Y-19751584D01*
X6101857Y-19751584D02*
X6139952Y-19751584D01*
X6139952Y-19751584D02*
X6159000Y-19742060D01*
X6159000Y-19742060D02*
X6168524Y-19732536D01*
X6168524Y-19732536D02*
X6178047Y-19713489D01*
X6178047Y-19713489D02*
X6178047Y-19665870D01*
X6178047Y-19665870D02*
X6168524Y-19646822D01*
X6168524Y-19646822D02*
X6159000Y-19637298D01*
X6159000Y-19637298D02*
X6139952Y-19627774D01*
X6139952Y-19627774D02*
X6101857Y-19627774D01*
X6101857Y-19627774D02*
X6082809Y-19637298D01*
X6082809Y-19637298D02*
X6073286Y-19646822D01*
X6073286Y-19646822D02*
X6063762Y-19665870D01*
X6301857Y-19551584D02*
X6320905Y-19551584D01*
X6320905Y-19551584D02*
X6339952Y-19561108D01*
X6339952Y-19561108D02*
X6349476Y-19570631D01*
X6349476Y-19570631D02*
X6359000Y-19589679D01*
X6359000Y-19589679D02*
X6368524Y-19627774D01*
X6368524Y-19627774D02*
X6368524Y-19675393D01*
X6368524Y-19675393D02*
X6359000Y-19713489D01*
X6359000Y-19713489D02*
X6349476Y-19732536D01*
X6349476Y-19732536D02*
X6339952Y-19742060D01*
X6339952Y-19742060D02*
X6320905Y-19751584D01*
X6320905Y-19751584D02*
X6301857Y-19751584D01*
X6301857Y-19751584D02*
X6282809Y-19742060D01*
X6282809Y-19742060D02*
X6273286Y-19732536D01*
X6273286Y-19732536D02*
X6263762Y-19713489D01*
X6263762Y-19713489D02*
X6254238Y-19675393D01*
X6254238Y-19675393D02*
X6254238Y-19627774D01*
X6254238Y-19627774D02*
X6263762Y-19589679D01*
X6263762Y-19589679D02*
X6273286Y-19570631D01*
X6273286Y-19570631D02*
X6282809Y-19561108D01*
X6282809Y-19561108D02*
X6301857Y-19551584D01*
X6444714Y-19551584D02*
X6444714Y-19589679D01*
X6520905Y-19551584D02*
X6520905Y-19589679D01*
X6816143Y-19827774D02*
X6806619Y-19818250D01*
X6806619Y-19818250D02*
X6787571Y-19789679D01*
X6787571Y-19789679D02*
X6778048Y-19770631D01*
X6778048Y-19770631D02*
X6768524Y-19742060D01*
X6768524Y-19742060D02*
X6759000Y-19694441D01*
X6759000Y-19694441D02*
X6759000Y-19656346D01*
X6759000Y-19656346D02*
X6768524Y-19608727D01*
X6768524Y-19608727D02*
X6778048Y-19580155D01*
X6778048Y-19580155D02*
X6787571Y-19561108D01*
X6787571Y-19561108D02*
X6806619Y-19532536D01*
X6806619Y-19532536D02*
X6816143Y-19523012D01*
X6997095Y-19751584D02*
X6882809Y-19751584D01*
X6939952Y-19751584D02*
X6939952Y-19551584D01*
X6939952Y-19551584D02*
X6920905Y-19580155D01*
X6920905Y-19580155D02*
X6901857Y-19599203D01*
X6901857Y-19599203D02*
X6882809Y-19608727D01*
X7120905Y-19551584D02*
X7139952Y-19551584D01*
X7139952Y-19551584D02*
X7159000Y-19561108D01*
X7159000Y-19561108D02*
X7168524Y-19570631D01*
X7168524Y-19570631D02*
X7178048Y-19589679D01*
X7178048Y-19589679D02*
X7187571Y-19627774D01*
X7187571Y-19627774D02*
X7187571Y-19675393D01*
X7187571Y-19675393D02*
X7178048Y-19713489D01*
X7178048Y-19713489D02*
X7168524Y-19732536D01*
X7168524Y-19732536D02*
X7159000Y-19742060D01*
X7159000Y-19742060D02*
X7139952Y-19751584D01*
X7139952Y-19751584D02*
X7120905Y-19751584D01*
X7120905Y-19751584D02*
X7101857Y-19742060D01*
X7101857Y-19742060D02*
X7092333Y-19732536D01*
X7092333Y-19732536D02*
X7082809Y-19713489D01*
X7082809Y-19713489D02*
X7073286Y-19675393D01*
X7073286Y-19675393D02*
X7073286Y-19627774D01*
X7073286Y-19627774D02*
X7082809Y-19589679D01*
X7082809Y-19589679D02*
X7092333Y-19570631D01*
X7092333Y-19570631D02*
X7101857Y-19561108D01*
X7101857Y-19561108D02*
X7120905Y-19551584D01*
X7425667Y-19751584D02*
X7425667Y-19551584D01*
X7511381Y-19751584D02*
X7511381Y-19646822D01*
X7511381Y-19646822D02*
X7501857Y-19627774D01*
X7501857Y-19627774D02*
X7482810Y-19618250D01*
X7482810Y-19618250D02*
X7454238Y-19618250D01*
X7454238Y-19618250D02*
X7435190Y-19627774D01*
X7435190Y-19627774D02*
X7425667Y-19637298D01*
X7635190Y-19751584D02*
X7616143Y-19742060D01*
X7616143Y-19742060D02*
X7606619Y-19732536D01*
X7606619Y-19732536D02*
X7597095Y-19713489D01*
X7597095Y-19713489D02*
X7597095Y-19656346D01*
X7597095Y-19656346D02*
X7606619Y-19637298D01*
X7606619Y-19637298D02*
X7616143Y-19627774D01*
X7616143Y-19627774D02*
X7635190Y-19618250D01*
X7635190Y-19618250D02*
X7663762Y-19618250D01*
X7663762Y-19618250D02*
X7682810Y-19627774D01*
X7682810Y-19627774D02*
X7692333Y-19637298D01*
X7692333Y-19637298D02*
X7701857Y-19656346D01*
X7701857Y-19656346D02*
X7701857Y-19713489D01*
X7701857Y-19713489D02*
X7692333Y-19732536D01*
X7692333Y-19732536D02*
X7682810Y-19742060D01*
X7682810Y-19742060D02*
X7663762Y-19751584D01*
X7663762Y-19751584D02*
X7635190Y-19751584D01*
X7816143Y-19751584D02*
X7797095Y-19742060D01*
X7797095Y-19742060D02*
X7787571Y-19723012D01*
X7787571Y-19723012D02*
X7787571Y-19551584D01*
X7968524Y-19742060D02*
X7949476Y-19751584D01*
X7949476Y-19751584D02*
X7911381Y-19751584D01*
X7911381Y-19751584D02*
X7892333Y-19742060D01*
X7892333Y-19742060D02*
X7882810Y-19723012D01*
X7882810Y-19723012D02*
X7882810Y-19646822D01*
X7882810Y-19646822D02*
X7892333Y-19627774D01*
X7892333Y-19627774D02*
X7911381Y-19618250D01*
X7911381Y-19618250D02*
X7949476Y-19618250D01*
X7949476Y-19618250D02*
X7968524Y-19627774D01*
X7968524Y-19627774D02*
X7978048Y-19646822D01*
X7978048Y-19646822D02*
X7978048Y-19665870D01*
X7978048Y-19665870D02*
X7882810Y-19684917D01*
X8054238Y-19742060D02*
X8073286Y-19751584D01*
X8073286Y-19751584D02*
X8111381Y-19751584D01*
X8111381Y-19751584D02*
X8130429Y-19742060D01*
X8130429Y-19742060D02*
X8139952Y-19723012D01*
X8139952Y-19723012D02*
X8139952Y-19713489D01*
X8139952Y-19713489D02*
X8130429Y-19694441D01*
X8130429Y-19694441D02*
X8111381Y-19684917D01*
X8111381Y-19684917D02*
X8082810Y-19684917D01*
X8082810Y-19684917D02*
X8063762Y-19675393D01*
X8063762Y-19675393D02*
X8054238Y-19656346D01*
X8054238Y-19656346D02*
X8054238Y-19646822D01*
X8054238Y-19646822D02*
X8063762Y-19627774D01*
X8063762Y-19627774D02*
X8082810Y-19618250D01*
X8082810Y-19618250D02*
X8111381Y-19618250D01*
X8111381Y-19618250D02*
X8130429Y-19627774D01*
X8206619Y-19827774D02*
X8216143Y-19818250D01*
X8216143Y-19818250D02*
X8235191Y-19789679D01*
X8235191Y-19789679D02*
X8244714Y-19770631D01*
X8244714Y-19770631D02*
X8254238Y-19742060D01*
X8254238Y-19742060D02*
X8263762Y-19694441D01*
X8263762Y-19694441D02*
X8263762Y-19656346D01*
X8263762Y-19656346D02*
X8254238Y-19608727D01*
X8254238Y-19608727D02*
X8244714Y-19580155D01*
X8244714Y-19580155D02*
X8235191Y-19561108D01*
X8235191Y-19561108D02*
X8216143Y-19532536D01*
X8216143Y-19532536D02*
X8206619Y-19523012D01*
X8568524Y-19827774D02*
X8559000Y-19818250D01*
X8559000Y-19818250D02*
X8539953Y-19789679D01*
X8539953Y-19789679D02*
X8530429Y-19770631D01*
X8530429Y-19770631D02*
X8520905Y-19742060D01*
X8520905Y-19742060D02*
X8511381Y-19694441D01*
X8511381Y-19694441D02*
X8511381Y-19656346D01*
X8511381Y-19656346D02*
X8520905Y-19608727D01*
X8520905Y-19608727D02*
X8530429Y-19580155D01*
X8530429Y-19580155D02*
X8539953Y-19561108D01*
X8539953Y-19561108D02*
X8559000Y-19532536D01*
X8559000Y-19532536D02*
X8568524Y-19523012D01*
X8644714Y-19618250D02*
X8644714Y-19751584D01*
X8644714Y-19637298D02*
X8654238Y-19627774D01*
X8654238Y-19627774D02*
X8673286Y-19618250D01*
X8673286Y-19618250D02*
X8701857Y-19618250D01*
X8701857Y-19618250D02*
X8720905Y-19627774D01*
X8720905Y-19627774D02*
X8730429Y-19646822D01*
X8730429Y-19646822D02*
X8730429Y-19751584D01*
X8854238Y-19751584D02*
X8835191Y-19742060D01*
X8835191Y-19742060D02*
X8825667Y-19732536D01*
X8825667Y-19732536D02*
X8816143Y-19713489D01*
X8816143Y-19713489D02*
X8816143Y-19656346D01*
X8816143Y-19656346D02*
X8825667Y-19637298D01*
X8825667Y-19637298D02*
X8835191Y-19627774D01*
X8835191Y-19627774D02*
X8854238Y-19618250D01*
X8854238Y-19618250D02*
X8882810Y-19618250D01*
X8882810Y-19618250D02*
X8901857Y-19627774D01*
X8901857Y-19627774D02*
X8911381Y-19637298D01*
X8911381Y-19637298D02*
X8920905Y-19656346D01*
X8920905Y-19656346D02*
X8920905Y-19713489D01*
X8920905Y-19713489D02*
X8911381Y-19732536D01*
X8911381Y-19732536D02*
X8901857Y-19742060D01*
X8901857Y-19742060D02*
X8882810Y-19751584D01*
X8882810Y-19751584D02*
X8854238Y-19751584D01*
X8978048Y-19618250D02*
X9054238Y-19618250D01*
X9006619Y-19551584D02*
X9006619Y-19723012D01*
X9006619Y-19723012D02*
X9016143Y-19742060D01*
X9016143Y-19742060D02*
X9035191Y-19751584D01*
X9035191Y-19751584D02*
X9054238Y-19751584D01*
X9273286Y-19618250D02*
X9273286Y-19818250D01*
X9273286Y-19627774D02*
X9292334Y-19618250D01*
X9292334Y-19618250D02*
X9330429Y-19618250D01*
X9330429Y-19618250D02*
X9349476Y-19627774D01*
X9349476Y-19627774D02*
X9359000Y-19637298D01*
X9359000Y-19637298D02*
X9368524Y-19656346D01*
X9368524Y-19656346D02*
X9368524Y-19713489D01*
X9368524Y-19713489D02*
X9359000Y-19732536D01*
X9359000Y-19732536D02*
X9349476Y-19742060D01*
X9349476Y-19742060D02*
X9330429Y-19751584D01*
X9330429Y-19751584D02*
X9292334Y-19751584D01*
X9292334Y-19751584D02*
X9273286Y-19742060D01*
X9482810Y-19751584D02*
X9463762Y-19742060D01*
X9463762Y-19742060D02*
X9454238Y-19723012D01*
X9454238Y-19723012D02*
X9454238Y-19551584D01*
X9644715Y-19751584D02*
X9644715Y-19646822D01*
X9644715Y-19646822D02*
X9635191Y-19627774D01*
X9635191Y-19627774D02*
X9616143Y-19618250D01*
X9616143Y-19618250D02*
X9578048Y-19618250D01*
X9578048Y-19618250D02*
X9559000Y-19627774D01*
X9644715Y-19742060D02*
X9625667Y-19751584D01*
X9625667Y-19751584D02*
X9578048Y-19751584D01*
X9578048Y-19751584D02*
X9559000Y-19742060D01*
X9559000Y-19742060D02*
X9549476Y-19723012D01*
X9549476Y-19723012D02*
X9549476Y-19703965D01*
X9549476Y-19703965D02*
X9559000Y-19684917D01*
X9559000Y-19684917D02*
X9578048Y-19675393D01*
X9578048Y-19675393D02*
X9625667Y-19675393D01*
X9625667Y-19675393D02*
X9644715Y-19665870D01*
X9711381Y-19618250D02*
X9787572Y-19618250D01*
X9739953Y-19551584D02*
X9739953Y-19723012D01*
X9739953Y-19723012D02*
X9749476Y-19742060D01*
X9749476Y-19742060D02*
X9768524Y-19751584D01*
X9768524Y-19751584D02*
X9787572Y-19751584D01*
X9930429Y-19742060D02*
X9911381Y-19751584D01*
X9911381Y-19751584D02*
X9873286Y-19751584D01*
X9873286Y-19751584D02*
X9854238Y-19742060D01*
X9854238Y-19742060D02*
X9844715Y-19723012D01*
X9844715Y-19723012D02*
X9844715Y-19646822D01*
X9844715Y-19646822D02*
X9854238Y-19627774D01*
X9854238Y-19627774D02*
X9873286Y-19618250D01*
X9873286Y-19618250D02*
X9911381Y-19618250D01*
X9911381Y-19618250D02*
X9930429Y-19627774D01*
X9930429Y-19627774D02*
X9939953Y-19646822D01*
X9939953Y-19646822D02*
X9939953Y-19665870D01*
X9939953Y-19665870D02*
X9844715Y-19684917D01*
X10111381Y-19751584D02*
X10111381Y-19551584D01*
X10111381Y-19742060D02*
X10092334Y-19751584D01*
X10092334Y-19751584D02*
X10054238Y-19751584D01*
X10054238Y-19751584D02*
X10035191Y-19742060D01*
X10035191Y-19742060D02*
X10025667Y-19732536D01*
X10025667Y-19732536D02*
X10016143Y-19713489D01*
X10016143Y-19713489D02*
X10016143Y-19656346D01*
X10016143Y-19656346D02*
X10025667Y-19637298D01*
X10025667Y-19637298D02*
X10035191Y-19627774D01*
X10035191Y-19627774D02*
X10054238Y-19618250D01*
X10054238Y-19618250D02*
X10092334Y-19618250D01*
X10092334Y-19618250D02*
X10111381Y-19627774D01*
X10187572Y-19827774D02*
X10197096Y-19818250D01*
X10197096Y-19818250D02*
X10216143Y-19789679D01*
X10216143Y-19789679D02*
X10225667Y-19770631D01*
X10225667Y-19770631D02*
X10235191Y-19742060D01*
X10235191Y-19742060D02*
X10244715Y-19694441D01*
X10244715Y-19694441D02*
X10244715Y-19656346D01*
X10244715Y-19656346D02*
X10235191Y-19608727D01*
X10235191Y-19608727D02*
X10225667Y-19580155D01*
X10225667Y-19580155D02*
X10216143Y-19561108D01*
X10216143Y-19561108D02*
X10197096Y-19532536D01*
X10197096Y-19532536D02*
X10187572Y-19523012D01*
M02*
