M48
; DRILL file {KiCad 7.0.7} date 2024 March 05, Tuesday 14:42:58
; FORMAT={-:-/ absolute / metric / decimal}
; #@! TF.CreationDate,2024-03-05T14:42:58+08:00
; #@! TF.GenerationSoftware,Kicad,Pcbnew,7.0.7
; #@! TF.FileFunction,Plated,1,2,PTH
FMAT,2
METRIC
; #@! TA.AperFunction,Plated,PTH,ViaDrill
T1C0.300
; #@! TA.AperFunction,Plated,PTH,ViaDrill
T2C0.600
; #@! TA.AperFunction,Plated,PTH,ComponentDrill
T3C0.800
; #@! TA.AperFunction,Plated,PTH,ViaDrill
T4C1.000
; #@! TA.AperFunction,Plated,PTH,ComponentDrill
T5C1.000
; #@! TA.AperFunction,Plated,PTH,ComponentDrill
T6C1.016
; #@! TA.AperFunction,Plated,PTH,ComponentDrill
T7C1.100
; #@! TA.AperFunction,Plated,PTH,ComponentDrill
T8C1.320
; #@! TA.AperFunction,Plated,PTH,ComponentDrill
T9C1.422
%
G90
G05
T1
X85.954Y-66.624
X86.716Y-66.624
X87.478Y-66.624
X88.24Y-66.624
X89.002Y-66.624
X89.764Y-66.624
X91.034Y-66.624
X94.59Y-65.354
X95.352Y-65.354
X96.114Y-65.354
X96.876Y-65.354
X97.638Y-65.354
T2
X65.888Y-158.572
X69.952Y-167.208
X70.714Y-52.4
X74.278Y-49.987
X80.874Y-46.05
X95.352Y-167.462
X96.622Y-81.356
X98.654Y-62.814
X102.718Y-163.652
X106.274Y-45.796
X106.274Y-136.982
X118.72Y-44.78
X139.04Y-131.14
T3
X84.836Y-149.547
X84.836Y-152.087
X84.836Y-154.627
X84.836Y-157.167
X84.836Y-159.707
X84.836Y-162.247
X84.836Y-164.787
X84.836Y-167.327
X84.836Y-169.867
X84.836Y-172.407
X84.836Y-174.947
X84.836Y-177.487
X84.836Y-180.027
X84.836Y-182.567
X84.836Y-185.107
X100.076Y-149.547
X100.076Y-152.087
X100.076Y-154.627
X100.076Y-157.167
X100.076Y-159.707
X100.076Y-162.247
X100.076Y-164.787
X100.076Y-167.327
X100.076Y-169.867
X100.076Y-172.407
X100.076Y-174.947
X100.076Y-177.487
X100.076Y-180.027
X100.076Y-182.567
X100.076Y-185.107
T4
X80.874Y-150.444
X91.385Y-144.699
X109.83Y-65.1
T5
X88.646Y-46.557
X91.186Y-46.557
X93.726Y-46.557
X96.266Y-46.557
T6
X54.915Y-129.633
X57.455Y-129.633
X59.995Y-129.633
X65.938Y-167.665
X65.938Y-175.412
X90.361Y-186.199
X91.567Y-172.737
X92.583Y-186.199
X94.107Y-172.737
X94.806Y-186.199
X118.11Y-144.797
X119.278Y-167.665
X119.278Y-175.412
X120.65Y-144.797
X125.934Y-129.455
X128.474Y-129.455
X131.014Y-129.455
T7
X62.334Y-140.805
X62.334Y-145.305
X68.834Y-140.805
X68.834Y-145.305
T8
X84.43Y-124.155
X84.43Y-126.695
X84.43Y-129.235
X84.43Y-131.775
X84.43Y-134.315
X84.43Y-136.855
X84.43Y-139.395
X84.43Y-141.935
X99.67Y-124.155
X99.67Y-126.695
X99.67Y-129.235
X99.67Y-131.775
X99.67Y-134.315
X99.67Y-136.855
X99.67Y-139.395
X99.67Y-141.935
T9
X87.833Y-186.211
X97.333Y-186.186
T0
M30
