%TF.GenerationSoftware,KiCad,Pcbnew,7.0.7*%
%TF.CreationDate,2024-02-09T12:41:04+08:00*%
%TF.ProjectId,lekirbotv2,6c656b69-7262-46f7-9476-322e6b696361,rev?*%
%TF.SameCoordinates,Original*%
%TF.FileFunction,Drillmap*%
%TF.FilePolarity,Positive*%
%FSLAX45Y45*%
G04 Gerber Fmt 4.5, Leading zero omitted, Abs format (unit mm)*
G04 Created by KiCad (PCBNEW 7.0.7) date 2024-02-09 12:41:04*
%MOMM*%
%LPD*%
G01*
G04 APERTURE LIST*
%ADD10C,0.050000*%
%ADD11C,0.200000*%
%ADD12C,0.030000*%
%ADD13C,0.060000*%
%ADD14C,0.080000*%
%ADD15C,0.100000*%
%ADD16C,0.101600*%
%ADD17C,0.110000*%
%ADD18C,0.132000*%
%ADD19C,0.142240*%
G04 APERTURE END LIST*
D10*
X7279680Y-6585104D02*
G75*
G03*
X6472984Y-5785132I-800003J-3D01*
G01*
X6479680Y-12447685D02*
X5346260Y-12447685D01*
X14460220Y-13747685D02*
X14460220Y-17591685D01*
X4046260Y-17591685D02*
G75*
G03*
X5346260Y-18891685I1300000J0D01*
G01*
X4546220Y-3327300D02*
X13960220Y-3327300D01*
X13160220Y-18891685D02*
X5346260Y-18891685D01*
X7279680Y-10320000D02*
X7279680Y-6585104D01*
X14460220Y-3827300D02*
G75*
G03*
X13960220Y-3327300I-500000J0D01*
G01*
X4546220Y-3327300D02*
G75*
G03*
X4046220Y-3827300I0J-500000D01*
G01*
X14460225Y-13747685D02*
G75*
G03*
X13160220Y-12447685I-1300005J-5D01*
G01*
X11237000Y-10320000D02*
X11237000Y-11647685D01*
X5346260Y-12447685D02*
G75*
G03*
X4046260Y-13747685I0J-1300000D01*
G01*
X13160220Y-18891685D02*
G75*
G03*
X14460220Y-17591685I0J1300000D01*
G01*
X11237005Y-11647685D02*
G75*
G03*
X12037000Y-12447685I799995J-5D01*
G01*
X14460220Y-3827300D02*
X14460220Y-5301260D01*
X4046220Y-5301260D02*
X4046220Y-3827300D01*
X12821960Y-12732165D02*
G75*
G03*
X12821960Y-12732165I0J0D01*
G01*
X4546220Y-5801260D02*
X6472984Y-5785132D01*
X12043721Y-5785158D02*
G75*
G03*
X11237000Y-6585130I-6721J-799972D01*
G01*
X6479680Y-12447685D02*
G75*
G03*
X7279680Y-11647685I0J800000D01*
G01*
X12043721Y-5785158D02*
X13960220Y-5801260D01*
X13960220Y-5801260D02*
G75*
G03*
X14460220Y-5301260I0J500000D01*
G01*
X7279680Y-10320000D02*
X7279680Y-11647685D01*
X4046220Y-5301260D02*
G75*
G03*
X4546220Y-5801260I500000J0D01*
G01*
X13160220Y-12447685D02*
X12037000Y-12447685D01*
X4046260Y-17591685D02*
X4046260Y-13747685D01*
X11237000Y-10320000D02*
X11237000Y-6585130D01*
D11*
D12*
X8580400Y-6647400D02*
X8610400Y-6677400D01*
X8610400Y-6647400D02*
X8580400Y-6677400D01*
X8656600Y-6647400D02*
X8686600Y-6677400D01*
X8686600Y-6647400D02*
X8656600Y-6677400D01*
X8732800Y-6647400D02*
X8762800Y-6677400D01*
X8762800Y-6647400D02*
X8732800Y-6677400D01*
X8809000Y-6647400D02*
X8839000Y-6677400D01*
X8839000Y-6647400D02*
X8809000Y-6677400D01*
X8885200Y-6647400D02*
X8915200Y-6677400D01*
X8915200Y-6647400D02*
X8885200Y-6677400D01*
X8961400Y-6647400D02*
X8991400Y-6677400D01*
X8991400Y-6647400D02*
X8961400Y-6677400D01*
X9088400Y-6647400D02*
X9118400Y-6677400D01*
X9118400Y-6647400D02*
X9088400Y-6677400D01*
X9444000Y-6520400D02*
X9474000Y-6550400D01*
X9474000Y-6520400D02*
X9444000Y-6550400D01*
X9520200Y-6520400D02*
X9550200Y-6550400D01*
X9550200Y-6520400D02*
X9520200Y-6550400D01*
X9596400Y-6520400D02*
X9626400Y-6550400D01*
X9626400Y-6520400D02*
X9596400Y-6550400D01*
X9672600Y-6520400D02*
X9702600Y-6550400D01*
X9702600Y-6520400D02*
X9672600Y-6550400D01*
X9748800Y-6520400D02*
X9778800Y-6550400D01*
X9778800Y-6520400D02*
X9748800Y-6550400D01*
D13*
X6618800Y-15857200D02*
G75*
G03*
X6618800Y-15857200I-30000J0D01*
G01*
X7025200Y-16720800D02*
G75*
G03*
X7025200Y-16720800I-30000J0D01*
G01*
X7101400Y-5240000D02*
G75*
G03*
X7101400Y-5240000I-30000J0D01*
G01*
X7457850Y-4998700D02*
G75*
G03*
X7457850Y-4998700I-30000J0D01*
G01*
X8117400Y-4605000D02*
G75*
G03*
X8117400Y-4605000I-30000J0D01*
G01*
X9565200Y-16746200D02*
G75*
G03*
X9565200Y-16746200I-30000J0D01*
G01*
X9692200Y-8135600D02*
G75*
G03*
X9692200Y-8135600I-30000J0D01*
G01*
X9895400Y-6281400D02*
G75*
G03*
X9895400Y-6281400I-30000J0D01*
G01*
X10301800Y-16365200D02*
G75*
G03*
X10301800Y-16365200I-30000J0D01*
G01*
X10657400Y-4579600D02*
G75*
G03*
X10657400Y-4579600I-30000J0D01*
G01*
X10657400Y-13698200D02*
G75*
G03*
X10657400Y-13698200I-30000J0D01*
G01*
X11902000Y-4478000D02*
G75*
G03*
X11902000Y-4478000I-30000J0D01*
G01*
X13934000Y-13114000D02*
G75*
G03*
X13934000Y-13114000I-30000J0D01*
G01*
D14*
X8483640Y-14914685D02*
X8483640Y-14994685D01*
X8443640Y-14954685D02*
X8523640Y-14954685D01*
X8483640Y-15168685D02*
X8483640Y-15248685D01*
X8443640Y-15208685D02*
X8523640Y-15208685D01*
X8483640Y-15422685D02*
X8483640Y-15502685D01*
X8443640Y-15462685D02*
X8523640Y-15462685D01*
X8483640Y-15676685D02*
X8483640Y-15756685D01*
X8443640Y-15716685D02*
X8523640Y-15716685D01*
X8483640Y-15930685D02*
X8483640Y-16010685D01*
X8443640Y-15970685D02*
X8523640Y-15970685D01*
X8483640Y-16184685D02*
X8483640Y-16264685D01*
X8443640Y-16224685D02*
X8523640Y-16224685D01*
X8483640Y-16438685D02*
X8483640Y-16518685D01*
X8443640Y-16478685D02*
X8523640Y-16478685D01*
X8483640Y-16692685D02*
X8483640Y-16772685D01*
X8443640Y-16732685D02*
X8523640Y-16732685D01*
X8483640Y-16946685D02*
X8483640Y-17026685D01*
X8443640Y-16986685D02*
X8523640Y-16986685D01*
X8483640Y-17200685D02*
X8483640Y-17280685D01*
X8443640Y-17240685D02*
X8523640Y-17240685D01*
X8483640Y-17454685D02*
X8483640Y-17534685D01*
X8443640Y-17494685D02*
X8523640Y-17494685D01*
X8483640Y-17708685D02*
X8483640Y-17788685D01*
X8443640Y-17748685D02*
X8523640Y-17748685D01*
X8483640Y-17962685D02*
X8483640Y-18042685D01*
X8443640Y-18002685D02*
X8523640Y-18002685D01*
X8483640Y-18216685D02*
X8483640Y-18296685D01*
X8443640Y-18256685D02*
X8523640Y-18256685D01*
X8483640Y-18470685D02*
X8483640Y-18550685D01*
X8443640Y-18510685D02*
X8523640Y-18510685D01*
X10007640Y-14914685D02*
X10007640Y-14994685D01*
X9967640Y-14954685D02*
X10047640Y-14954685D01*
X10007640Y-15168685D02*
X10007640Y-15248685D01*
X9967640Y-15208685D02*
X10047640Y-15208685D01*
X10007640Y-15422685D02*
X10007640Y-15502685D01*
X9967640Y-15462685D02*
X10047640Y-15462685D01*
X10007640Y-15676685D02*
X10007640Y-15756685D01*
X9967640Y-15716685D02*
X10047640Y-15716685D01*
X10007640Y-15930685D02*
X10007640Y-16010685D01*
X9967640Y-15970685D02*
X10047640Y-15970685D01*
X10007640Y-16184685D02*
X10007640Y-16264685D01*
X9967640Y-16224685D02*
X10047640Y-16224685D01*
X10007640Y-16438685D02*
X10007640Y-16518685D01*
X9967640Y-16478685D02*
X10047640Y-16478685D01*
X10007640Y-16692685D02*
X10007640Y-16772685D01*
X9967640Y-16732685D02*
X10047640Y-16732685D01*
X10007640Y-16946685D02*
X10007640Y-17026685D01*
X9967640Y-16986685D02*
X10047640Y-16986685D01*
X10007640Y-17200685D02*
X10007640Y-17280685D01*
X9967640Y-17240685D02*
X10047640Y-17240685D01*
X10007640Y-17454685D02*
X10007640Y-17534685D01*
X9967640Y-17494685D02*
X10047640Y-17494685D01*
X10007640Y-17708685D02*
X10007640Y-17788685D01*
X9967640Y-17748685D02*
X10047640Y-17748685D01*
X10007640Y-17962685D02*
X10007640Y-18042685D01*
X9967640Y-18002685D02*
X10047640Y-18002685D01*
X10007640Y-18216685D02*
X10007640Y-18296685D01*
X9967640Y-18256685D02*
X10047640Y-18256685D01*
X10007640Y-18470685D02*
X10007640Y-18550685D01*
X9967640Y-18510685D02*
X10047640Y-18510685D01*
D15*
X8122756Y-15079756D02*
X8122756Y-15009044D01*
X8052044Y-15009044D01*
X8052044Y-15079756D01*
X8122756Y-15079756D01*
X9173882Y-14505282D02*
X9173882Y-14434571D01*
X9103171Y-14434571D01*
X9103171Y-14505282D01*
X9173882Y-14505282D01*
X11018356Y-6545356D02*
X11018356Y-6474644D01*
X10947644Y-6474644D01*
X10947644Y-6545356D01*
X11018356Y-6545356D01*
X8864640Y-4705700D02*
X8914640Y-4655700D01*
X8864640Y-4605700D01*
X8814640Y-4655700D01*
X8864640Y-4705700D01*
X9118640Y-4705700D02*
X9168640Y-4655700D01*
X9118640Y-4605700D01*
X9068640Y-4655700D01*
X9118640Y-4705700D01*
X9372640Y-4705700D02*
X9422640Y-4655700D01*
X9372640Y-4605700D01*
X9322640Y-4655700D01*
X9372640Y-4705700D01*
X9626640Y-4705700D02*
X9676640Y-4655700D01*
X9626640Y-4605700D01*
X9576640Y-4655700D01*
X9626640Y-4705700D01*
D16*
X5440720Y-12912505D02*
X5542320Y-13014105D01*
X5542320Y-12912505D02*
X5440720Y-13014105D01*
X5542320Y-12963305D02*
G75*
G03*
X5542320Y-12963305I-50800J0D01*
G01*
X5694720Y-12912505D02*
X5796320Y-13014105D01*
X5796320Y-12912505D02*
X5694720Y-13014105D01*
X5796320Y-12963305D02*
G75*
G03*
X5796320Y-12963305I-50800J0D01*
G01*
X5948720Y-12912505D02*
X6050320Y-13014105D01*
X6050320Y-12912505D02*
X5948720Y-13014105D01*
X6050320Y-12963305D02*
G75*
G03*
X6050320Y-12963305I-50800J0D01*
G01*
X6543040Y-16715655D02*
X6644640Y-16817255D01*
X6644640Y-16715655D02*
X6543040Y-16817255D01*
X6644640Y-16766455D02*
G75*
G03*
X6644640Y-16766455I-50800J0D01*
G01*
X6543040Y-17490355D02*
X6644640Y-17591955D01*
X6644640Y-17490355D02*
X6543040Y-17591955D01*
X6644640Y-17541155D02*
G75*
G03*
X6644640Y-17541155I-50800J0D01*
G01*
X8985290Y-18569085D02*
X9086890Y-18670685D01*
X9086890Y-18569085D02*
X8985290Y-18670685D01*
X9086890Y-18619885D02*
G75*
G03*
X9086890Y-18619885I-50800J0D01*
G01*
X9105940Y-17222885D02*
X9207540Y-17324485D01*
X9207540Y-17222885D02*
X9105940Y-17324485D01*
X9207540Y-17273685D02*
G75*
G03*
X9207540Y-17273685I-50800J0D01*
G01*
X9207540Y-18569085D02*
X9309140Y-18670685D01*
X9309140Y-18569085D02*
X9207540Y-18670685D01*
X9309140Y-18619885D02*
G75*
G03*
X9309140Y-18619885I-50800J0D01*
G01*
X9359940Y-17222885D02*
X9461540Y-17324485D01*
X9461540Y-17222885D02*
X9359940Y-17324485D01*
X9461540Y-17273685D02*
G75*
G03*
X9461540Y-17273685I-50800J0D01*
G01*
X9429790Y-18569085D02*
X9531390Y-18670685D01*
X9531390Y-18569085D02*
X9429790Y-18670685D01*
X9531390Y-18619885D02*
G75*
G03*
X9531390Y-18619885I-50800J0D01*
G01*
X11760240Y-14428885D02*
X11861840Y-14530485D01*
X11861840Y-14428885D02*
X11760240Y-14530485D01*
X11861840Y-14479685D02*
G75*
G03*
X11861840Y-14479685I-50800J0D01*
G01*
X11877040Y-16715655D02*
X11978640Y-16817255D01*
X11978640Y-16715655D02*
X11877040Y-16817255D01*
X11978640Y-16766455D02*
G75*
G03*
X11978640Y-16766455I-50800J0D01*
G01*
X11877040Y-17490355D02*
X11978640Y-17591955D01*
X11978640Y-17490355D02*
X11877040Y-17591955D01*
X11978640Y-17541155D02*
G75*
G03*
X11978640Y-17541155I-50800J0D01*
G01*
X12014240Y-14428885D02*
X12115840Y-14530485D01*
X12115840Y-14428885D02*
X12014240Y-14530485D01*
X12115840Y-14479685D02*
G75*
G03*
X12115840Y-14479685I-50800J0D01*
G01*
X12542560Y-12894725D02*
X12644160Y-12996325D01*
X12644160Y-12894725D02*
X12542560Y-12996325D01*
X12644160Y-12945525D02*
G75*
G03*
X12644160Y-12945525I-50800J0D01*
G01*
X12796560Y-12894725D02*
X12898160Y-12996325D01*
X12898160Y-12894725D02*
X12796560Y-12996325D01*
X12898160Y-12945525D02*
G75*
G03*
X12898160Y-12945525I-50800J0D01*
G01*
X13050560Y-12894725D02*
X13152160Y-12996325D01*
X13152160Y-12894725D02*
X13050560Y-12996325D01*
X13152160Y-12945525D02*
G75*
G03*
X13152160Y-12945525I-50800J0D01*
G01*
D17*
X6178440Y-14025485D02*
X6288440Y-14135485D01*
X6288440Y-14025485D02*
X6178440Y-14135485D01*
X6233440Y-14025485D02*
X6233440Y-14135485D01*
X6178440Y-14080485D02*
X6288440Y-14080485D01*
X6178440Y-14475485D02*
X6288440Y-14585485D01*
X6288440Y-14475485D02*
X6178440Y-14585485D01*
X6233440Y-14475485D02*
X6233440Y-14585485D01*
X6178440Y-14530485D02*
X6288440Y-14530485D01*
X6828440Y-14025485D02*
X6938440Y-14135485D01*
X6938440Y-14025485D02*
X6828440Y-14135485D01*
X6883440Y-14025485D02*
X6883440Y-14135485D01*
X6828440Y-14080485D02*
X6938440Y-14080485D01*
X6828440Y-14475485D02*
X6938440Y-14585485D01*
X6938440Y-14475485D02*
X6828440Y-14585485D01*
X6883440Y-14475485D02*
X6883440Y-14585485D01*
X6828440Y-14530485D02*
X6938440Y-14530485D01*
D18*
X8377000Y-12349500D02*
X8509000Y-12481500D01*
X8509000Y-12349500D02*
X8377000Y-12481500D01*
X8489670Y-12462169D02*
X8489670Y-12368830D01*
X8396331Y-12368830D01*
X8396331Y-12462169D01*
X8489670Y-12462169D01*
X8377000Y-12603500D02*
X8509000Y-12735500D01*
X8509000Y-12603500D02*
X8377000Y-12735500D01*
X8489670Y-12716169D02*
X8489670Y-12622830D01*
X8396331Y-12622830D01*
X8396331Y-12716169D01*
X8489670Y-12716169D01*
X8377000Y-12857500D02*
X8509000Y-12989500D01*
X8509000Y-12857500D02*
X8377000Y-12989500D01*
X8489670Y-12970169D02*
X8489670Y-12876830D01*
X8396331Y-12876830D01*
X8396331Y-12970169D01*
X8489670Y-12970169D01*
X8377000Y-13111500D02*
X8509000Y-13243500D01*
X8509000Y-13111500D02*
X8377000Y-13243500D01*
X8489670Y-13224169D02*
X8489670Y-13130830D01*
X8396331Y-13130830D01*
X8396331Y-13224169D01*
X8489670Y-13224169D01*
X8377000Y-13365500D02*
X8509000Y-13497500D01*
X8509000Y-13365500D02*
X8377000Y-13497500D01*
X8489670Y-13478169D02*
X8489670Y-13384830D01*
X8396331Y-13384830D01*
X8396331Y-13478169D01*
X8489670Y-13478169D01*
X8377000Y-13619500D02*
X8509000Y-13751500D01*
X8509000Y-13619500D02*
X8377000Y-13751500D01*
X8489670Y-13732169D02*
X8489670Y-13638830D01*
X8396331Y-13638830D01*
X8396331Y-13732169D01*
X8489670Y-13732169D01*
X8377000Y-13873500D02*
X8509000Y-14005500D01*
X8509000Y-13873500D02*
X8377000Y-14005500D01*
X8489670Y-13986169D02*
X8489670Y-13892830D01*
X8396331Y-13892830D01*
X8396331Y-13986169D01*
X8489670Y-13986169D01*
X8377000Y-14127500D02*
X8509000Y-14259500D01*
X8509000Y-14127500D02*
X8377000Y-14259500D01*
X8489670Y-14240169D02*
X8489670Y-14146830D01*
X8396331Y-14146830D01*
X8396331Y-14240169D01*
X8489670Y-14240169D01*
X9901000Y-12349500D02*
X10033000Y-12481500D01*
X10033000Y-12349500D02*
X9901000Y-12481500D01*
X10013670Y-12462169D02*
X10013670Y-12368830D01*
X9920331Y-12368830D01*
X9920331Y-12462169D01*
X10013670Y-12462169D01*
X9901000Y-12603500D02*
X10033000Y-12735500D01*
X10033000Y-12603500D02*
X9901000Y-12735500D01*
X10013670Y-12716169D02*
X10013670Y-12622830D01*
X9920331Y-12622830D01*
X9920331Y-12716169D01*
X10013670Y-12716169D01*
X9901000Y-12857500D02*
X10033000Y-12989500D01*
X10033000Y-12857500D02*
X9901000Y-12989500D01*
X10013670Y-12970169D02*
X10013670Y-12876830D01*
X9920331Y-12876830D01*
X9920331Y-12970169D01*
X10013670Y-12970169D01*
X9901000Y-13111500D02*
X10033000Y-13243500D01*
X10033000Y-13111500D02*
X9901000Y-13243500D01*
X10013670Y-13224169D02*
X10013670Y-13130830D01*
X9920331Y-13130830D01*
X9920331Y-13224169D01*
X10013670Y-13224169D01*
X9901000Y-13365500D02*
X10033000Y-13497500D01*
X10033000Y-13365500D02*
X9901000Y-13497500D01*
X10013670Y-13478169D02*
X10013670Y-13384830D01*
X9920331Y-13384830D01*
X9920331Y-13478169D01*
X10013670Y-13478169D01*
X9901000Y-13619500D02*
X10033000Y-13751500D01*
X10033000Y-13619500D02*
X9901000Y-13751500D01*
X10013670Y-13732169D02*
X10013670Y-13638830D01*
X9920331Y-13638830D01*
X9920331Y-13732169D01*
X10013670Y-13732169D01*
X9901000Y-13873500D02*
X10033000Y-14005500D01*
X10033000Y-13873500D02*
X9901000Y-14005500D01*
X10013670Y-13986169D02*
X10013670Y-13892830D01*
X9920331Y-13892830D01*
X9920331Y-13986169D01*
X10013670Y-13986169D01*
X9901000Y-14127500D02*
X10033000Y-14259500D01*
X10033000Y-14127500D02*
X9901000Y-14259500D01*
X10013670Y-14240169D02*
X10013670Y-14146830D01*
X9920331Y-14146830D01*
X9920331Y-14240169D01*
X10013670Y-14240169D01*
D19*
X8712220Y-18550015D02*
X8854460Y-18692255D01*
X8854460Y-18550015D02*
X8712220Y-18692255D01*
X8783340Y-18692255D02*
X8854460Y-18621135D01*
X8783340Y-18550015D01*
X8712220Y-18621135D01*
X8783340Y-18692255D01*
X9662220Y-18547515D02*
X9804460Y-18689755D01*
X9804460Y-18547515D02*
X9662220Y-18689755D01*
X9733340Y-18689755D02*
X9804460Y-18618635D01*
X9733340Y-18547515D01*
X9662220Y-18618635D01*
X9733340Y-18689755D01*
D11*
X4304497Y-19205669D02*
X4304497Y-19005669D01*
X4304497Y-19005669D02*
X4352116Y-19005669D01*
X4352116Y-19005669D02*
X4380687Y-19015193D01*
X4380687Y-19015193D02*
X4399735Y-19034240D01*
X4399735Y-19034240D02*
X4409259Y-19053288D01*
X4409259Y-19053288D02*
X4418783Y-19091383D01*
X4418783Y-19091383D02*
X4418783Y-19119955D01*
X4418783Y-19119955D02*
X4409259Y-19158050D01*
X4409259Y-19158050D02*
X4399735Y-19177097D01*
X4399735Y-19177097D02*
X4380687Y-19196145D01*
X4380687Y-19196145D02*
X4352116Y-19205669D01*
X4352116Y-19205669D02*
X4304497Y-19205669D01*
X4504497Y-19205669D02*
X4504497Y-19072336D01*
X4504497Y-19110431D02*
X4514021Y-19091383D01*
X4514021Y-19091383D02*
X4523544Y-19081859D01*
X4523544Y-19081859D02*
X4542592Y-19072336D01*
X4542592Y-19072336D02*
X4561640Y-19072336D01*
X4628306Y-19205669D02*
X4628306Y-19072336D01*
X4628306Y-19005669D02*
X4618783Y-19015193D01*
X4618783Y-19015193D02*
X4628306Y-19024717D01*
X4628306Y-19024717D02*
X4637830Y-19015193D01*
X4637830Y-19015193D02*
X4628306Y-19005669D01*
X4628306Y-19005669D02*
X4628306Y-19024717D01*
X4752116Y-19205669D02*
X4733068Y-19196145D01*
X4733068Y-19196145D02*
X4723544Y-19177097D01*
X4723544Y-19177097D02*
X4723544Y-19005669D01*
X4856878Y-19205669D02*
X4837830Y-19196145D01*
X4837830Y-19196145D02*
X4828306Y-19177097D01*
X4828306Y-19177097D02*
X4828306Y-19005669D01*
X5085449Y-19205669D02*
X5085449Y-19005669D01*
X5085449Y-19005669D02*
X5152116Y-19148526D01*
X5152116Y-19148526D02*
X5218783Y-19005669D01*
X5218783Y-19005669D02*
X5218783Y-19205669D01*
X5399735Y-19205669D02*
X5399735Y-19100907D01*
X5399735Y-19100907D02*
X5390211Y-19081859D01*
X5390211Y-19081859D02*
X5371164Y-19072336D01*
X5371164Y-19072336D02*
X5333068Y-19072336D01*
X5333068Y-19072336D02*
X5314021Y-19081859D01*
X5399735Y-19196145D02*
X5380687Y-19205669D01*
X5380687Y-19205669D02*
X5333068Y-19205669D01*
X5333068Y-19205669D02*
X5314021Y-19196145D01*
X5314021Y-19196145D02*
X5304497Y-19177097D01*
X5304497Y-19177097D02*
X5304497Y-19158050D01*
X5304497Y-19158050D02*
X5314021Y-19139002D01*
X5314021Y-19139002D02*
X5333068Y-19129478D01*
X5333068Y-19129478D02*
X5380687Y-19129478D01*
X5380687Y-19129478D02*
X5399735Y-19119955D01*
X5494973Y-19072336D02*
X5494973Y-19272336D01*
X5494973Y-19081859D02*
X5514021Y-19072336D01*
X5514021Y-19072336D02*
X5552116Y-19072336D01*
X5552116Y-19072336D02*
X5571164Y-19081859D01*
X5571164Y-19081859D02*
X5580687Y-19091383D01*
X5580687Y-19091383D02*
X5590211Y-19110431D01*
X5590211Y-19110431D02*
X5590211Y-19167574D01*
X5590211Y-19167574D02*
X5580687Y-19186621D01*
X5580687Y-19186621D02*
X5571164Y-19196145D01*
X5571164Y-19196145D02*
X5552116Y-19205669D01*
X5552116Y-19205669D02*
X5514021Y-19205669D01*
X5514021Y-19205669D02*
X5494973Y-19196145D01*
X5675925Y-19186621D02*
X5685449Y-19196145D01*
X5685449Y-19196145D02*
X5675925Y-19205669D01*
X5675925Y-19205669D02*
X5666402Y-19196145D01*
X5666402Y-19196145D02*
X5675925Y-19186621D01*
X5675925Y-19186621D02*
X5675925Y-19205669D01*
X5675925Y-19081859D02*
X5685449Y-19091383D01*
X5685449Y-19091383D02*
X5675925Y-19100907D01*
X5675925Y-19100907D02*
X5666402Y-19091383D01*
X5666402Y-19091383D02*
X5675925Y-19081859D01*
X5675925Y-19081859D02*
X5675925Y-19100907D01*
D12*
X4013720Y-19519185D02*
X4043720Y-19549185D01*
X4043720Y-19519185D02*
X4013720Y-19549185D01*
D11*
X4342592Y-19425669D02*
X4361640Y-19425669D01*
X4361640Y-19425669D02*
X4380687Y-19435193D01*
X4380687Y-19435193D02*
X4390211Y-19444717D01*
X4390211Y-19444717D02*
X4399735Y-19463764D01*
X4399735Y-19463764D02*
X4409259Y-19501859D01*
X4409259Y-19501859D02*
X4409259Y-19549478D01*
X4409259Y-19549478D02*
X4399735Y-19587574D01*
X4399735Y-19587574D02*
X4390211Y-19606621D01*
X4390211Y-19606621D02*
X4380687Y-19616145D01*
X4380687Y-19616145D02*
X4361640Y-19625669D01*
X4361640Y-19625669D02*
X4342592Y-19625669D01*
X4342592Y-19625669D02*
X4323544Y-19616145D01*
X4323544Y-19616145D02*
X4314021Y-19606621D01*
X4314021Y-19606621D02*
X4304497Y-19587574D01*
X4304497Y-19587574D02*
X4294973Y-19549478D01*
X4294973Y-19549478D02*
X4294973Y-19501859D01*
X4294973Y-19501859D02*
X4304497Y-19463764D01*
X4304497Y-19463764D02*
X4314021Y-19444717D01*
X4314021Y-19444717D02*
X4323544Y-19435193D01*
X4323544Y-19435193D02*
X4342592Y-19425669D01*
X4494973Y-19606621D02*
X4504497Y-19616145D01*
X4504497Y-19616145D02*
X4494973Y-19625669D01*
X4494973Y-19625669D02*
X4485449Y-19616145D01*
X4485449Y-19616145D02*
X4494973Y-19606621D01*
X4494973Y-19606621D02*
X4494973Y-19625669D01*
X4571164Y-19425669D02*
X4694973Y-19425669D01*
X4694973Y-19425669D02*
X4628306Y-19501859D01*
X4628306Y-19501859D02*
X4656878Y-19501859D01*
X4656878Y-19501859D02*
X4675925Y-19511383D01*
X4675925Y-19511383D02*
X4685449Y-19520907D01*
X4685449Y-19520907D02*
X4694973Y-19539955D01*
X4694973Y-19539955D02*
X4694973Y-19587574D01*
X4694973Y-19587574D02*
X4685449Y-19606621D01*
X4685449Y-19606621D02*
X4675925Y-19616145D01*
X4675925Y-19616145D02*
X4656878Y-19625669D01*
X4656878Y-19625669D02*
X4599735Y-19625669D01*
X4599735Y-19625669D02*
X4580687Y-19616145D01*
X4580687Y-19616145D02*
X4571164Y-19606621D01*
X4818783Y-19425669D02*
X4837830Y-19425669D01*
X4837830Y-19425669D02*
X4856878Y-19435193D01*
X4856878Y-19435193D02*
X4866402Y-19444717D01*
X4866402Y-19444717D02*
X4875925Y-19463764D01*
X4875925Y-19463764D02*
X4885449Y-19501859D01*
X4885449Y-19501859D02*
X4885449Y-19549478D01*
X4885449Y-19549478D02*
X4875925Y-19587574D01*
X4875925Y-19587574D02*
X4866402Y-19606621D01*
X4866402Y-19606621D02*
X4856878Y-19616145D01*
X4856878Y-19616145D02*
X4837830Y-19625669D01*
X4837830Y-19625669D02*
X4818783Y-19625669D01*
X4818783Y-19625669D02*
X4799735Y-19616145D01*
X4799735Y-19616145D02*
X4790211Y-19606621D01*
X4790211Y-19606621D02*
X4780687Y-19587574D01*
X4780687Y-19587574D02*
X4771164Y-19549478D01*
X4771164Y-19549478D02*
X4771164Y-19501859D01*
X4771164Y-19501859D02*
X4780687Y-19463764D01*
X4780687Y-19463764D02*
X4790211Y-19444717D01*
X4790211Y-19444717D02*
X4799735Y-19435193D01*
X4799735Y-19435193D02*
X4818783Y-19425669D01*
X5009259Y-19425669D02*
X5028306Y-19425669D01*
X5028306Y-19425669D02*
X5047354Y-19435193D01*
X5047354Y-19435193D02*
X5056878Y-19444717D01*
X5056878Y-19444717D02*
X5066402Y-19463764D01*
X5066402Y-19463764D02*
X5075925Y-19501859D01*
X5075925Y-19501859D02*
X5075925Y-19549478D01*
X5075925Y-19549478D02*
X5066402Y-19587574D01*
X5066402Y-19587574D02*
X5056878Y-19606621D01*
X5056878Y-19606621D02*
X5047354Y-19616145D01*
X5047354Y-19616145D02*
X5028306Y-19625669D01*
X5028306Y-19625669D02*
X5009259Y-19625669D01*
X5009259Y-19625669D02*
X4990211Y-19616145D01*
X4990211Y-19616145D02*
X4980687Y-19606621D01*
X4980687Y-19606621D02*
X4971164Y-19587574D01*
X4971164Y-19587574D02*
X4961640Y-19549478D01*
X4961640Y-19549478D02*
X4961640Y-19501859D01*
X4961640Y-19501859D02*
X4971164Y-19463764D01*
X4971164Y-19463764D02*
X4980687Y-19444717D01*
X4980687Y-19444717D02*
X4990211Y-19435193D01*
X4990211Y-19435193D02*
X5009259Y-19425669D01*
X5161640Y-19625669D02*
X5161640Y-19492336D01*
X5161640Y-19511383D02*
X5171164Y-19501859D01*
X5171164Y-19501859D02*
X5190211Y-19492336D01*
X5190211Y-19492336D02*
X5218783Y-19492336D01*
X5218783Y-19492336D02*
X5237830Y-19501859D01*
X5237830Y-19501859D02*
X5247354Y-19520907D01*
X5247354Y-19520907D02*
X5247354Y-19625669D01*
X5247354Y-19520907D02*
X5256878Y-19501859D01*
X5256878Y-19501859D02*
X5275925Y-19492336D01*
X5275925Y-19492336D02*
X5304497Y-19492336D01*
X5304497Y-19492336D02*
X5323545Y-19501859D01*
X5323545Y-19501859D02*
X5333068Y-19520907D01*
X5333068Y-19520907D02*
X5333068Y-19625669D01*
X5428306Y-19625669D02*
X5428306Y-19492336D01*
X5428306Y-19511383D02*
X5437830Y-19501859D01*
X5437830Y-19501859D02*
X5456878Y-19492336D01*
X5456878Y-19492336D02*
X5485449Y-19492336D01*
X5485449Y-19492336D02*
X5504497Y-19501859D01*
X5504497Y-19501859D02*
X5514021Y-19520907D01*
X5514021Y-19520907D02*
X5514021Y-19625669D01*
X5514021Y-19520907D02*
X5523545Y-19501859D01*
X5523545Y-19501859D02*
X5542592Y-19492336D01*
X5542592Y-19492336D02*
X5571164Y-19492336D01*
X5571164Y-19492336D02*
X5590211Y-19501859D01*
X5590211Y-19501859D02*
X5599735Y-19520907D01*
X5599735Y-19520907D02*
X5599735Y-19625669D01*
X5990211Y-19416145D02*
X5818783Y-19673288D01*
X6247354Y-19425669D02*
X6266402Y-19425669D01*
X6266402Y-19425669D02*
X6285449Y-19435193D01*
X6285449Y-19435193D02*
X6294973Y-19444717D01*
X6294973Y-19444717D02*
X6304497Y-19463764D01*
X6304497Y-19463764D02*
X6314021Y-19501859D01*
X6314021Y-19501859D02*
X6314021Y-19549478D01*
X6314021Y-19549478D02*
X6304497Y-19587574D01*
X6304497Y-19587574D02*
X6294973Y-19606621D01*
X6294973Y-19606621D02*
X6285449Y-19616145D01*
X6285449Y-19616145D02*
X6266402Y-19625669D01*
X6266402Y-19625669D02*
X6247354Y-19625669D01*
X6247354Y-19625669D02*
X6228306Y-19616145D01*
X6228306Y-19616145D02*
X6218783Y-19606621D01*
X6218783Y-19606621D02*
X6209259Y-19587574D01*
X6209259Y-19587574D02*
X6199735Y-19549478D01*
X6199735Y-19549478D02*
X6199735Y-19501859D01*
X6199735Y-19501859D02*
X6209259Y-19463764D01*
X6209259Y-19463764D02*
X6218783Y-19444717D01*
X6218783Y-19444717D02*
X6228306Y-19435193D01*
X6228306Y-19435193D02*
X6247354Y-19425669D01*
X6399735Y-19606621D02*
X6409259Y-19616145D01*
X6409259Y-19616145D02*
X6399735Y-19625669D01*
X6399735Y-19625669D02*
X6390211Y-19616145D01*
X6390211Y-19616145D02*
X6399735Y-19606621D01*
X6399735Y-19606621D02*
X6399735Y-19625669D01*
X6533068Y-19425669D02*
X6552116Y-19425669D01*
X6552116Y-19425669D02*
X6571164Y-19435193D01*
X6571164Y-19435193D02*
X6580687Y-19444717D01*
X6580687Y-19444717D02*
X6590211Y-19463764D01*
X6590211Y-19463764D02*
X6599735Y-19501859D01*
X6599735Y-19501859D02*
X6599735Y-19549478D01*
X6599735Y-19549478D02*
X6590211Y-19587574D01*
X6590211Y-19587574D02*
X6580687Y-19606621D01*
X6580687Y-19606621D02*
X6571164Y-19616145D01*
X6571164Y-19616145D02*
X6552116Y-19625669D01*
X6552116Y-19625669D02*
X6533068Y-19625669D01*
X6533068Y-19625669D02*
X6514021Y-19616145D01*
X6514021Y-19616145D02*
X6504497Y-19606621D01*
X6504497Y-19606621D02*
X6494973Y-19587574D01*
X6494973Y-19587574D02*
X6485449Y-19549478D01*
X6485449Y-19549478D02*
X6485449Y-19501859D01*
X6485449Y-19501859D02*
X6494973Y-19463764D01*
X6494973Y-19463764D02*
X6504497Y-19444717D01*
X6504497Y-19444717D02*
X6514021Y-19435193D01*
X6514021Y-19435193D02*
X6533068Y-19425669D01*
X6790211Y-19625669D02*
X6675926Y-19625669D01*
X6733068Y-19625669D02*
X6733068Y-19425669D01*
X6733068Y-19425669D02*
X6714021Y-19454240D01*
X6714021Y-19454240D02*
X6694973Y-19473288D01*
X6694973Y-19473288D02*
X6675926Y-19482812D01*
X6980687Y-19625669D02*
X6866402Y-19625669D01*
X6923545Y-19625669D02*
X6923545Y-19425669D01*
X6923545Y-19425669D02*
X6904497Y-19454240D01*
X6904497Y-19454240D02*
X6885449Y-19473288D01*
X6885449Y-19473288D02*
X6866402Y-19482812D01*
X7094973Y-19511383D02*
X7075926Y-19501859D01*
X7075926Y-19501859D02*
X7066402Y-19492336D01*
X7066402Y-19492336D02*
X7056878Y-19473288D01*
X7056878Y-19473288D02*
X7056878Y-19463764D01*
X7056878Y-19463764D02*
X7066402Y-19444717D01*
X7066402Y-19444717D02*
X7075926Y-19435193D01*
X7075926Y-19435193D02*
X7094973Y-19425669D01*
X7094973Y-19425669D02*
X7133068Y-19425669D01*
X7133068Y-19425669D02*
X7152116Y-19435193D01*
X7152116Y-19435193D02*
X7161640Y-19444717D01*
X7161640Y-19444717D02*
X7171164Y-19463764D01*
X7171164Y-19463764D02*
X7171164Y-19473288D01*
X7171164Y-19473288D02*
X7161640Y-19492336D01*
X7161640Y-19492336D02*
X7152116Y-19501859D01*
X7152116Y-19501859D02*
X7133068Y-19511383D01*
X7133068Y-19511383D02*
X7094973Y-19511383D01*
X7094973Y-19511383D02*
X7075926Y-19520907D01*
X7075926Y-19520907D02*
X7066402Y-19530431D01*
X7066402Y-19530431D02*
X7056878Y-19549478D01*
X7056878Y-19549478D02*
X7056878Y-19587574D01*
X7056878Y-19587574D02*
X7066402Y-19606621D01*
X7066402Y-19606621D02*
X7075926Y-19616145D01*
X7075926Y-19616145D02*
X7094973Y-19625669D01*
X7094973Y-19625669D02*
X7133068Y-19625669D01*
X7133068Y-19625669D02*
X7152116Y-19616145D01*
X7152116Y-19616145D02*
X7161640Y-19606621D01*
X7161640Y-19606621D02*
X7171164Y-19587574D01*
X7171164Y-19587574D02*
X7171164Y-19549478D01*
X7171164Y-19549478D02*
X7161640Y-19530431D01*
X7161640Y-19530431D02*
X7152116Y-19520907D01*
X7152116Y-19520907D02*
X7133068Y-19511383D01*
X7247354Y-19425669D02*
X7247354Y-19463764D01*
X7323545Y-19425669D02*
X7323545Y-19463764D01*
X7618783Y-19701859D02*
X7609259Y-19692336D01*
X7609259Y-19692336D02*
X7590211Y-19663764D01*
X7590211Y-19663764D02*
X7580688Y-19644717D01*
X7580688Y-19644717D02*
X7571164Y-19616145D01*
X7571164Y-19616145D02*
X7561640Y-19568526D01*
X7561640Y-19568526D02*
X7561640Y-19530431D01*
X7561640Y-19530431D02*
X7571164Y-19482812D01*
X7571164Y-19482812D02*
X7580688Y-19454240D01*
X7580688Y-19454240D02*
X7590211Y-19435193D01*
X7590211Y-19435193D02*
X7609259Y-19406621D01*
X7609259Y-19406621D02*
X7618783Y-19397097D01*
X7799735Y-19625669D02*
X7685449Y-19625669D01*
X7742592Y-19625669D02*
X7742592Y-19425669D01*
X7742592Y-19425669D02*
X7723545Y-19454240D01*
X7723545Y-19454240D02*
X7704497Y-19473288D01*
X7704497Y-19473288D02*
X7685449Y-19482812D01*
X7875926Y-19444717D02*
X7885449Y-19435193D01*
X7885449Y-19435193D02*
X7904497Y-19425669D01*
X7904497Y-19425669D02*
X7952116Y-19425669D01*
X7952116Y-19425669D02*
X7971164Y-19435193D01*
X7971164Y-19435193D02*
X7980688Y-19444717D01*
X7980688Y-19444717D02*
X7990211Y-19463764D01*
X7990211Y-19463764D02*
X7990211Y-19482812D01*
X7990211Y-19482812D02*
X7980688Y-19511383D01*
X7980688Y-19511383D02*
X7866402Y-19625669D01*
X7866402Y-19625669D02*
X7990211Y-19625669D01*
X8228307Y-19625669D02*
X8228307Y-19425669D01*
X8314021Y-19625669D02*
X8314021Y-19520907D01*
X8314021Y-19520907D02*
X8304497Y-19501859D01*
X8304497Y-19501859D02*
X8285450Y-19492336D01*
X8285450Y-19492336D02*
X8256878Y-19492336D01*
X8256878Y-19492336D02*
X8237830Y-19501859D01*
X8237830Y-19501859D02*
X8228307Y-19511383D01*
X8437831Y-19625669D02*
X8418783Y-19616145D01*
X8418783Y-19616145D02*
X8409259Y-19606621D01*
X8409259Y-19606621D02*
X8399735Y-19587574D01*
X8399735Y-19587574D02*
X8399735Y-19530431D01*
X8399735Y-19530431D02*
X8409259Y-19511383D01*
X8409259Y-19511383D02*
X8418783Y-19501859D01*
X8418783Y-19501859D02*
X8437831Y-19492336D01*
X8437831Y-19492336D02*
X8466402Y-19492336D01*
X8466402Y-19492336D02*
X8485450Y-19501859D01*
X8485450Y-19501859D02*
X8494973Y-19511383D01*
X8494973Y-19511383D02*
X8504497Y-19530431D01*
X8504497Y-19530431D02*
X8504497Y-19587574D01*
X8504497Y-19587574D02*
X8494973Y-19606621D01*
X8494973Y-19606621D02*
X8485450Y-19616145D01*
X8485450Y-19616145D02*
X8466402Y-19625669D01*
X8466402Y-19625669D02*
X8437831Y-19625669D01*
X8618783Y-19625669D02*
X8599735Y-19616145D01*
X8599735Y-19616145D02*
X8590212Y-19597097D01*
X8590212Y-19597097D02*
X8590212Y-19425669D01*
X8771164Y-19616145D02*
X8752116Y-19625669D01*
X8752116Y-19625669D02*
X8714021Y-19625669D01*
X8714021Y-19625669D02*
X8694973Y-19616145D01*
X8694973Y-19616145D02*
X8685450Y-19597097D01*
X8685450Y-19597097D02*
X8685450Y-19520907D01*
X8685450Y-19520907D02*
X8694973Y-19501859D01*
X8694973Y-19501859D02*
X8714021Y-19492336D01*
X8714021Y-19492336D02*
X8752116Y-19492336D01*
X8752116Y-19492336D02*
X8771164Y-19501859D01*
X8771164Y-19501859D02*
X8780688Y-19520907D01*
X8780688Y-19520907D02*
X8780688Y-19539955D01*
X8780688Y-19539955D02*
X8685450Y-19559002D01*
X8856878Y-19616145D02*
X8875926Y-19625669D01*
X8875926Y-19625669D02*
X8914021Y-19625669D01*
X8914021Y-19625669D02*
X8933069Y-19616145D01*
X8933069Y-19616145D02*
X8942593Y-19597097D01*
X8942593Y-19597097D02*
X8942593Y-19587574D01*
X8942593Y-19587574D02*
X8933069Y-19568526D01*
X8933069Y-19568526D02*
X8914021Y-19559002D01*
X8914021Y-19559002D02*
X8885450Y-19559002D01*
X8885450Y-19559002D02*
X8866402Y-19549478D01*
X8866402Y-19549478D02*
X8856878Y-19530431D01*
X8856878Y-19530431D02*
X8856878Y-19520907D01*
X8856878Y-19520907D02*
X8866402Y-19501859D01*
X8866402Y-19501859D02*
X8885450Y-19492336D01*
X8885450Y-19492336D02*
X8914021Y-19492336D01*
X8914021Y-19492336D02*
X8933069Y-19501859D01*
X9009259Y-19701859D02*
X9018783Y-19692336D01*
X9018783Y-19692336D02*
X9037831Y-19663764D01*
X9037831Y-19663764D02*
X9047354Y-19644717D01*
X9047354Y-19644717D02*
X9056878Y-19616145D01*
X9056878Y-19616145D02*
X9066402Y-19568526D01*
X9066402Y-19568526D02*
X9066402Y-19530431D01*
X9066402Y-19530431D02*
X9056878Y-19482812D01*
X9056878Y-19482812D02*
X9047354Y-19454240D01*
X9047354Y-19454240D02*
X9037831Y-19435193D01*
X9037831Y-19435193D02*
X9018783Y-19406621D01*
X9018783Y-19406621D02*
X9009259Y-19397097D01*
D13*
X4043720Y-19798185D02*
G75*
G03*
X4043720Y-19798185I-30000J0D01*
G01*
D11*
X4342592Y-19689669D02*
X4361640Y-19689669D01*
X4361640Y-19689669D02*
X4380687Y-19699193D01*
X4380687Y-19699193D02*
X4390211Y-19708717D01*
X4390211Y-19708717D02*
X4399735Y-19727764D01*
X4399735Y-19727764D02*
X4409259Y-19765859D01*
X4409259Y-19765859D02*
X4409259Y-19813478D01*
X4409259Y-19813478D02*
X4399735Y-19851574D01*
X4399735Y-19851574D02*
X4390211Y-19870621D01*
X4390211Y-19870621D02*
X4380687Y-19880145D01*
X4380687Y-19880145D02*
X4361640Y-19889669D01*
X4361640Y-19889669D02*
X4342592Y-19889669D01*
X4342592Y-19889669D02*
X4323544Y-19880145D01*
X4323544Y-19880145D02*
X4314021Y-19870621D01*
X4314021Y-19870621D02*
X4304497Y-19851574D01*
X4304497Y-19851574D02*
X4294973Y-19813478D01*
X4294973Y-19813478D02*
X4294973Y-19765859D01*
X4294973Y-19765859D02*
X4304497Y-19727764D01*
X4304497Y-19727764D02*
X4314021Y-19708717D01*
X4314021Y-19708717D02*
X4323544Y-19699193D01*
X4323544Y-19699193D02*
X4342592Y-19689669D01*
X4494973Y-19870621D02*
X4504497Y-19880145D01*
X4504497Y-19880145D02*
X4494973Y-19889669D01*
X4494973Y-19889669D02*
X4485449Y-19880145D01*
X4485449Y-19880145D02*
X4494973Y-19870621D01*
X4494973Y-19870621D02*
X4494973Y-19889669D01*
X4675925Y-19689669D02*
X4637830Y-19689669D01*
X4637830Y-19689669D02*
X4618783Y-19699193D01*
X4618783Y-19699193D02*
X4609259Y-19708717D01*
X4609259Y-19708717D02*
X4590211Y-19737288D01*
X4590211Y-19737288D02*
X4580687Y-19775383D01*
X4580687Y-19775383D02*
X4580687Y-19851574D01*
X4580687Y-19851574D02*
X4590211Y-19870621D01*
X4590211Y-19870621D02*
X4599735Y-19880145D01*
X4599735Y-19880145D02*
X4618783Y-19889669D01*
X4618783Y-19889669D02*
X4656878Y-19889669D01*
X4656878Y-19889669D02*
X4675925Y-19880145D01*
X4675925Y-19880145D02*
X4685449Y-19870621D01*
X4685449Y-19870621D02*
X4694973Y-19851574D01*
X4694973Y-19851574D02*
X4694973Y-19803955D01*
X4694973Y-19803955D02*
X4685449Y-19784907D01*
X4685449Y-19784907D02*
X4675925Y-19775383D01*
X4675925Y-19775383D02*
X4656878Y-19765859D01*
X4656878Y-19765859D02*
X4618783Y-19765859D01*
X4618783Y-19765859D02*
X4599735Y-19775383D01*
X4599735Y-19775383D02*
X4590211Y-19784907D01*
X4590211Y-19784907D02*
X4580687Y-19803955D01*
X4818783Y-19689669D02*
X4837830Y-19689669D01*
X4837830Y-19689669D02*
X4856878Y-19699193D01*
X4856878Y-19699193D02*
X4866402Y-19708717D01*
X4866402Y-19708717D02*
X4875925Y-19727764D01*
X4875925Y-19727764D02*
X4885449Y-19765859D01*
X4885449Y-19765859D02*
X4885449Y-19813478D01*
X4885449Y-19813478D02*
X4875925Y-19851574D01*
X4875925Y-19851574D02*
X4866402Y-19870621D01*
X4866402Y-19870621D02*
X4856878Y-19880145D01*
X4856878Y-19880145D02*
X4837830Y-19889669D01*
X4837830Y-19889669D02*
X4818783Y-19889669D01*
X4818783Y-19889669D02*
X4799735Y-19880145D01*
X4799735Y-19880145D02*
X4790211Y-19870621D01*
X4790211Y-19870621D02*
X4780687Y-19851574D01*
X4780687Y-19851574D02*
X4771164Y-19813478D01*
X4771164Y-19813478D02*
X4771164Y-19765859D01*
X4771164Y-19765859D02*
X4780687Y-19727764D01*
X4780687Y-19727764D02*
X4790211Y-19708717D01*
X4790211Y-19708717D02*
X4799735Y-19699193D01*
X4799735Y-19699193D02*
X4818783Y-19689669D01*
X5009259Y-19689669D02*
X5028306Y-19689669D01*
X5028306Y-19689669D02*
X5047354Y-19699193D01*
X5047354Y-19699193D02*
X5056878Y-19708717D01*
X5056878Y-19708717D02*
X5066402Y-19727764D01*
X5066402Y-19727764D02*
X5075925Y-19765859D01*
X5075925Y-19765859D02*
X5075925Y-19813478D01*
X5075925Y-19813478D02*
X5066402Y-19851574D01*
X5066402Y-19851574D02*
X5056878Y-19870621D01*
X5056878Y-19870621D02*
X5047354Y-19880145D01*
X5047354Y-19880145D02*
X5028306Y-19889669D01*
X5028306Y-19889669D02*
X5009259Y-19889669D01*
X5009259Y-19889669D02*
X4990211Y-19880145D01*
X4990211Y-19880145D02*
X4980687Y-19870621D01*
X4980687Y-19870621D02*
X4971164Y-19851574D01*
X4971164Y-19851574D02*
X4961640Y-19813478D01*
X4961640Y-19813478D02*
X4961640Y-19765859D01*
X4961640Y-19765859D02*
X4971164Y-19727764D01*
X4971164Y-19727764D02*
X4980687Y-19708717D01*
X4980687Y-19708717D02*
X4990211Y-19699193D01*
X4990211Y-19699193D02*
X5009259Y-19689669D01*
X5161640Y-19889669D02*
X5161640Y-19756336D01*
X5161640Y-19775383D02*
X5171164Y-19765859D01*
X5171164Y-19765859D02*
X5190211Y-19756336D01*
X5190211Y-19756336D02*
X5218783Y-19756336D01*
X5218783Y-19756336D02*
X5237830Y-19765859D01*
X5237830Y-19765859D02*
X5247354Y-19784907D01*
X5247354Y-19784907D02*
X5247354Y-19889669D01*
X5247354Y-19784907D02*
X5256878Y-19765859D01*
X5256878Y-19765859D02*
X5275925Y-19756336D01*
X5275925Y-19756336D02*
X5304497Y-19756336D01*
X5304497Y-19756336D02*
X5323545Y-19765859D01*
X5323545Y-19765859D02*
X5333068Y-19784907D01*
X5333068Y-19784907D02*
X5333068Y-19889669D01*
X5428306Y-19889669D02*
X5428306Y-19756336D01*
X5428306Y-19775383D02*
X5437830Y-19765859D01*
X5437830Y-19765859D02*
X5456878Y-19756336D01*
X5456878Y-19756336D02*
X5485449Y-19756336D01*
X5485449Y-19756336D02*
X5504497Y-19765859D01*
X5504497Y-19765859D02*
X5514021Y-19784907D01*
X5514021Y-19784907D02*
X5514021Y-19889669D01*
X5514021Y-19784907D02*
X5523545Y-19765859D01*
X5523545Y-19765859D02*
X5542592Y-19756336D01*
X5542592Y-19756336D02*
X5571164Y-19756336D01*
X5571164Y-19756336D02*
X5590211Y-19765859D01*
X5590211Y-19765859D02*
X5599735Y-19784907D01*
X5599735Y-19784907D02*
X5599735Y-19889669D01*
X5990211Y-19680145D02*
X5818783Y-19937288D01*
X6247354Y-19689669D02*
X6266402Y-19689669D01*
X6266402Y-19689669D02*
X6285449Y-19699193D01*
X6285449Y-19699193D02*
X6294973Y-19708717D01*
X6294973Y-19708717D02*
X6304497Y-19727764D01*
X6304497Y-19727764D02*
X6314021Y-19765859D01*
X6314021Y-19765859D02*
X6314021Y-19813478D01*
X6314021Y-19813478D02*
X6304497Y-19851574D01*
X6304497Y-19851574D02*
X6294973Y-19870621D01*
X6294973Y-19870621D02*
X6285449Y-19880145D01*
X6285449Y-19880145D02*
X6266402Y-19889669D01*
X6266402Y-19889669D02*
X6247354Y-19889669D01*
X6247354Y-19889669D02*
X6228306Y-19880145D01*
X6228306Y-19880145D02*
X6218783Y-19870621D01*
X6218783Y-19870621D02*
X6209259Y-19851574D01*
X6209259Y-19851574D02*
X6199735Y-19813478D01*
X6199735Y-19813478D02*
X6199735Y-19765859D01*
X6199735Y-19765859D02*
X6209259Y-19727764D01*
X6209259Y-19727764D02*
X6218783Y-19708717D01*
X6218783Y-19708717D02*
X6228306Y-19699193D01*
X6228306Y-19699193D02*
X6247354Y-19689669D01*
X6399735Y-19870621D02*
X6409259Y-19880145D01*
X6409259Y-19880145D02*
X6399735Y-19889669D01*
X6399735Y-19889669D02*
X6390211Y-19880145D01*
X6390211Y-19880145D02*
X6399735Y-19870621D01*
X6399735Y-19870621D02*
X6399735Y-19889669D01*
X6533068Y-19689669D02*
X6552116Y-19689669D01*
X6552116Y-19689669D02*
X6571164Y-19699193D01*
X6571164Y-19699193D02*
X6580687Y-19708717D01*
X6580687Y-19708717D02*
X6590211Y-19727764D01*
X6590211Y-19727764D02*
X6599735Y-19765859D01*
X6599735Y-19765859D02*
X6599735Y-19813478D01*
X6599735Y-19813478D02*
X6590211Y-19851574D01*
X6590211Y-19851574D02*
X6580687Y-19870621D01*
X6580687Y-19870621D02*
X6571164Y-19880145D01*
X6571164Y-19880145D02*
X6552116Y-19889669D01*
X6552116Y-19889669D02*
X6533068Y-19889669D01*
X6533068Y-19889669D02*
X6514021Y-19880145D01*
X6514021Y-19880145D02*
X6504497Y-19870621D01*
X6504497Y-19870621D02*
X6494973Y-19851574D01*
X6494973Y-19851574D02*
X6485449Y-19813478D01*
X6485449Y-19813478D02*
X6485449Y-19765859D01*
X6485449Y-19765859D02*
X6494973Y-19727764D01*
X6494973Y-19727764D02*
X6504497Y-19708717D01*
X6504497Y-19708717D02*
X6514021Y-19699193D01*
X6514021Y-19699193D02*
X6533068Y-19689669D01*
X6675926Y-19708717D02*
X6685449Y-19699193D01*
X6685449Y-19699193D02*
X6704497Y-19689669D01*
X6704497Y-19689669D02*
X6752116Y-19689669D01*
X6752116Y-19689669D02*
X6771164Y-19699193D01*
X6771164Y-19699193D02*
X6780687Y-19708717D01*
X6780687Y-19708717D02*
X6790211Y-19727764D01*
X6790211Y-19727764D02*
X6790211Y-19746812D01*
X6790211Y-19746812D02*
X6780687Y-19775383D01*
X6780687Y-19775383D02*
X6666402Y-19889669D01*
X6666402Y-19889669D02*
X6790211Y-19889669D01*
X6856878Y-19689669D02*
X6980687Y-19689669D01*
X6980687Y-19689669D02*
X6914021Y-19765859D01*
X6914021Y-19765859D02*
X6942592Y-19765859D01*
X6942592Y-19765859D02*
X6961640Y-19775383D01*
X6961640Y-19775383D02*
X6971164Y-19784907D01*
X6971164Y-19784907D02*
X6980687Y-19803955D01*
X6980687Y-19803955D02*
X6980687Y-19851574D01*
X6980687Y-19851574D02*
X6971164Y-19870621D01*
X6971164Y-19870621D02*
X6961640Y-19880145D01*
X6961640Y-19880145D02*
X6942592Y-19889669D01*
X6942592Y-19889669D02*
X6885449Y-19889669D01*
X6885449Y-19889669D02*
X6866402Y-19880145D01*
X6866402Y-19880145D02*
X6856878Y-19870621D01*
X7152116Y-19689669D02*
X7114021Y-19689669D01*
X7114021Y-19689669D02*
X7094973Y-19699193D01*
X7094973Y-19699193D02*
X7085449Y-19708717D01*
X7085449Y-19708717D02*
X7066402Y-19737288D01*
X7066402Y-19737288D02*
X7056878Y-19775383D01*
X7056878Y-19775383D02*
X7056878Y-19851574D01*
X7056878Y-19851574D02*
X7066402Y-19870621D01*
X7066402Y-19870621D02*
X7075926Y-19880145D01*
X7075926Y-19880145D02*
X7094973Y-19889669D01*
X7094973Y-19889669D02*
X7133068Y-19889669D01*
X7133068Y-19889669D02*
X7152116Y-19880145D01*
X7152116Y-19880145D02*
X7161640Y-19870621D01*
X7161640Y-19870621D02*
X7171164Y-19851574D01*
X7171164Y-19851574D02*
X7171164Y-19803955D01*
X7171164Y-19803955D02*
X7161640Y-19784907D01*
X7161640Y-19784907D02*
X7152116Y-19775383D01*
X7152116Y-19775383D02*
X7133068Y-19765859D01*
X7133068Y-19765859D02*
X7094973Y-19765859D01*
X7094973Y-19765859D02*
X7075926Y-19775383D01*
X7075926Y-19775383D02*
X7066402Y-19784907D01*
X7066402Y-19784907D02*
X7056878Y-19803955D01*
X7247354Y-19689669D02*
X7247354Y-19727764D01*
X7323545Y-19689669D02*
X7323545Y-19727764D01*
X7618783Y-19965859D02*
X7609259Y-19956336D01*
X7609259Y-19956336D02*
X7590211Y-19927764D01*
X7590211Y-19927764D02*
X7580688Y-19908717D01*
X7580688Y-19908717D02*
X7571164Y-19880145D01*
X7571164Y-19880145D02*
X7561640Y-19832526D01*
X7561640Y-19832526D02*
X7561640Y-19794431D01*
X7561640Y-19794431D02*
X7571164Y-19746812D01*
X7571164Y-19746812D02*
X7580688Y-19718240D01*
X7580688Y-19718240D02*
X7590211Y-19699193D01*
X7590211Y-19699193D02*
X7609259Y-19670621D01*
X7609259Y-19670621D02*
X7618783Y-19661097D01*
X7799735Y-19889669D02*
X7685449Y-19889669D01*
X7742592Y-19889669D02*
X7742592Y-19689669D01*
X7742592Y-19689669D02*
X7723545Y-19718240D01*
X7723545Y-19718240D02*
X7704497Y-19737288D01*
X7704497Y-19737288D02*
X7685449Y-19746812D01*
X7866402Y-19689669D02*
X7990211Y-19689669D01*
X7990211Y-19689669D02*
X7923545Y-19765859D01*
X7923545Y-19765859D02*
X7952116Y-19765859D01*
X7952116Y-19765859D02*
X7971164Y-19775383D01*
X7971164Y-19775383D02*
X7980688Y-19784907D01*
X7980688Y-19784907D02*
X7990211Y-19803955D01*
X7990211Y-19803955D02*
X7990211Y-19851574D01*
X7990211Y-19851574D02*
X7980688Y-19870621D01*
X7980688Y-19870621D02*
X7971164Y-19880145D01*
X7971164Y-19880145D02*
X7952116Y-19889669D01*
X7952116Y-19889669D02*
X7894973Y-19889669D01*
X7894973Y-19889669D02*
X7875926Y-19880145D01*
X7875926Y-19880145D02*
X7866402Y-19870621D01*
X8228307Y-19889669D02*
X8228307Y-19689669D01*
X8314021Y-19889669D02*
X8314021Y-19784907D01*
X8314021Y-19784907D02*
X8304497Y-19765859D01*
X8304497Y-19765859D02*
X8285450Y-19756336D01*
X8285450Y-19756336D02*
X8256878Y-19756336D01*
X8256878Y-19756336D02*
X8237830Y-19765859D01*
X8237830Y-19765859D02*
X8228307Y-19775383D01*
X8437831Y-19889669D02*
X8418783Y-19880145D01*
X8418783Y-19880145D02*
X8409259Y-19870621D01*
X8409259Y-19870621D02*
X8399735Y-19851574D01*
X8399735Y-19851574D02*
X8399735Y-19794431D01*
X8399735Y-19794431D02*
X8409259Y-19775383D01*
X8409259Y-19775383D02*
X8418783Y-19765859D01*
X8418783Y-19765859D02*
X8437831Y-19756336D01*
X8437831Y-19756336D02*
X8466402Y-19756336D01*
X8466402Y-19756336D02*
X8485450Y-19765859D01*
X8485450Y-19765859D02*
X8494973Y-19775383D01*
X8494973Y-19775383D02*
X8504497Y-19794431D01*
X8504497Y-19794431D02*
X8504497Y-19851574D01*
X8504497Y-19851574D02*
X8494973Y-19870621D01*
X8494973Y-19870621D02*
X8485450Y-19880145D01*
X8485450Y-19880145D02*
X8466402Y-19889669D01*
X8466402Y-19889669D02*
X8437831Y-19889669D01*
X8618783Y-19889669D02*
X8599735Y-19880145D01*
X8599735Y-19880145D02*
X8590212Y-19861097D01*
X8590212Y-19861097D02*
X8590212Y-19689669D01*
X8771164Y-19880145D02*
X8752116Y-19889669D01*
X8752116Y-19889669D02*
X8714021Y-19889669D01*
X8714021Y-19889669D02*
X8694973Y-19880145D01*
X8694973Y-19880145D02*
X8685450Y-19861097D01*
X8685450Y-19861097D02*
X8685450Y-19784907D01*
X8685450Y-19784907D02*
X8694973Y-19765859D01*
X8694973Y-19765859D02*
X8714021Y-19756336D01*
X8714021Y-19756336D02*
X8752116Y-19756336D01*
X8752116Y-19756336D02*
X8771164Y-19765859D01*
X8771164Y-19765859D02*
X8780688Y-19784907D01*
X8780688Y-19784907D02*
X8780688Y-19803955D01*
X8780688Y-19803955D02*
X8685450Y-19823002D01*
X8856878Y-19880145D02*
X8875926Y-19889669D01*
X8875926Y-19889669D02*
X8914021Y-19889669D01*
X8914021Y-19889669D02*
X8933069Y-19880145D01*
X8933069Y-19880145D02*
X8942593Y-19861097D01*
X8942593Y-19861097D02*
X8942593Y-19851574D01*
X8942593Y-19851574D02*
X8933069Y-19832526D01*
X8933069Y-19832526D02*
X8914021Y-19823002D01*
X8914021Y-19823002D02*
X8885450Y-19823002D01*
X8885450Y-19823002D02*
X8866402Y-19813478D01*
X8866402Y-19813478D02*
X8856878Y-19794431D01*
X8856878Y-19794431D02*
X8856878Y-19784907D01*
X8856878Y-19784907D02*
X8866402Y-19765859D01*
X8866402Y-19765859D02*
X8885450Y-19756336D01*
X8885450Y-19756336D02*
X8914021Y-19756336D01*
X8914021Y-19756336D02*
X8933069Y-19765859D01*
X9009259Y-19965859D02*
X9018783Y-19956336D01*
X9018783Y-19956336D02*
X9037831Y-19927764D01*
X9037831Y-19927764D02*
X9047354Y-19908717D01*
X9047354Y-19908717D02*
X9056878Y-19880145D01*
X9056878Y-19880145D02*
X9066402Y-19832526D01*
X9066402Y-19832526D02*
X9066402Y-19794431D01*
X9066402Y-19794431D02*
X9056878Y-19746812D01*
X9056878Y-19746812D02*
X9047354Y-19718240D01*
X9047354Y-19718240D02*
X9037831Y-19699193D01*
X9037831Y-19699193D02*
X9018783Y-19670621D01*
X9018783Y-19670621D02*
X9009259Y-19661097D01*
D14*
X4003720Y-20022185D02*
X4003720Y-20102185D01*
X3963720Y-20062185D02*
X4043720Y-20062185D01*
D11*
X4342592Y-19953669D02*
X4361640Y-19953669D01*
X4361640Y-19953669D02*
X4380687Y-19963193D01*
X4380687Y-19963193D02*
X4390211Y-19972717D01*
X4390211Y-19972717D02*
X4399735Y-19991764D01*
X4399735Y-19991764D02*
X4409259Y-20029859D01*
X4409259Y-20029859D02*
X4409259Y-20077478D01*
X4409259Y-20077478D02*
X4399735Y-20115574D01*
X4399735Y-20115574D02*
X4390211Y-20134621D01*
X4390211Y-20134621D02*
X4380687Y-20144145D01*
X4380687Y-20144145D02*
X4361640Y-20153669D01*
X4361640Y-20153669D02*
X4342592Y-20153669D01*
X4342592Y-20153669D02*
X4323544Y-20144145D01*
X4323544Y-20144145D02*
X4314021Y-20134621D01*
X4314021Y-20134621D02*
X4304497Y-20115574D01*
X4304497Y-20115574D02*
X4294973Y-20077478D01*
X4294973Y-20077478D02*
X4294973Y-20029859D01*
X4294973Y-20029859D02*
X4304497Y-19991764D01*
X4304497Y-19991764D02*
X4314021Y-19972717D01*
X4314021Y-19972717D02*
X4323544Y-19963193D01*
X4323544Y-19963193D02*
X4342592Y-19953669D01*
X4494973Y-20134621D02*
X4504497Y-20144145D01*
X4504497Y-20144145D02*
X4494973Y-20153669D01*
X4494973Y-20153669D02*
X4485449Y-20144145D01*
X4485449Y-20144145D02*
X4494973Y-20134621D01*
X4494973Y-20134621D02*
X4494973Y-20153669D01*
X4618783Y-20039383D02*
X4599735Y-20029859D01*
X4599735Y-20029859D02*
X4590211Y-20020336D01*
X4590211Y-20020336D02*
X4580687Y-20001288D01*
X4580687Y-20001288D02*
X4580687Y-19991764D01*
X4580687Y-19991764D02*
X4590211Y-19972717D01*
X4590211Y-19972717D02*
X4599735Y-19963193D01*
X4599735Y-19963193D02*
X4618783Y-19953669D01*
X4618783Y-19953669D02*
X4656878Y-19953669D01*
X4656878Y-19953669D02*
X4675925Y-19963193D01*
X4675925Y-19963193D02*
X4685449Y-19972717D01*
X4685449Y-19972717D02*
X4694973Y-19991764D01*
X4694973Y-19991764D02*
X4694973Y-20001288D01*
X4694973Y-20001288D02*
X4685449Y-20020336D01*
X4685449Y-20020336D02*
X4675925Y-20029859D01*
X4675925Y-20029859D02*
X4656878Y-20039383D01*
X4656878Y-20039383D02*
X4618783Y-20039383D01*
X4618783Y-20039383D02*
X4599735Y-20048907D01*
X4599735Y-20048907D02*
X4590211Y-20058431D01*
X4590211Y-20058431D02*
X4580687Y-20077478D01*
X4580687Y-20077478D02*
X4580687Y-20115574D01*
X4580687Y-20115574D02*
X4590211Y-20134621D01*
X4590211Y-20134621D02*
X4599735Y-20144145D01*
X4599735Y-20144145D02*
X4618783Y-20153669D01*
X4618783Y-20153669D02*
X4656878Y-20153669D01*
X4656878Y-20153669D02*
X4675925Y-20144145D01*
X4675925Y-20144145D02*
X4685449Y-20134621D01*
X4685449Y-20134621D02*
X4694973Y-20115574D01*
X4694973Y-20115574D02*
X4694973Y-20077478D01*
X4694973Y-20077478D02*
X4685449Y-20058431D01*
X4685449Y-20058431D02*
X4675925Y-20048907D01*
X4675925Y-20048907D02*
X4656878Y-20039383D01*
X4818783Y-19953669D02*
X4837830Y-19953669D01*
X4837830Y-19953669D02*
X4856878Y-19963193D01*
X4856878Y-19963193D02*
X4866402Y-19972717D01*
X4866402Y-19972717D02*
X4875925Y-19991764D01*
X4875925Y-19991764D02*
X4885449Y-20029859D01*
X4885449Y-20029859D02*
X4885449Y-20077478D01*
X4885449Y-20077478D02*
X4875925Y-20115574D01*
X4875925Y-20115574D02*
X4866402Y-20134621D01*
X4866402Y-20134621D02*
X4856878Y-20144145D01*
X4856878Y-20144145D02*
X4837830Y-20153669D01*
X4837830Y-20153669D02*
X4818783Y-20153669D01*
X4818783Y-20153669D02*
X4799735Y-20144145D01*
X4799735Y-20144145D02*
X4790211Y-20134621D01*
X4790211Y-20134621D02*
X4780687Y-20115574D01*
X4780687Y-20115574D02*
X4771164Y-20077478D01*
X4771164Y-20077478D02*
X4771164Y-20029859D01*
X4771164Y-20029859D02*
X4780687Y-19991764D01*
X4780687Y-19991764D02*
X4790211Y-19972717D01*
X4790211Y-19972717D02*
X4799735Y-19963193D01*
X4799735Y-19963193D02*
X4818783Y-19953669D01*
X5009259Y-19953669D02*
X5028306Y-19953669D01*
X5028306Y-19953669D02*
X5047354Y-19963193D01*
X5047354Y-19963193D02*
X5056878Y-19972717D01*
X5056878Y-19972717D02*
X5066402Y-19991764D01*
X5066402Y-19991764D02*
X5075925Y-20029859D01*
X5075925Y-20029859D02*
X5075925Y-20077478D01*
X5075925Y-20077478D02*
X5066402Y-20115574D01*
X5066402Y-20115574D02*
X5056878Y-20134621D01*
X5056878Y-20134621D02*
X5047354Y-20144145D01*
X5047354Y-20144145D02*
X5028306Y-20153669D01*
X5028306Y-20153669D02*
X5009259Y-20153669D01*
X5009259Y-20153669D02*
X4990211Y-20144145D01*
X4990211Y-20144145D02*
X4980687Y-20134621D01*
X4980687Y-20134621D02*
X4971164Y-20115574D01*
X4971164Y-20115574D02*
X4961640Y-20077478D01*
X4961640Y-20077478D02*
X4961640Y-20029859D01*
X4961640Y-20029859D02*
X4971164Y-19991764D01*
X4971164Y-19991764D02*
X4980687Y-19972717D01*
X4980687Y-19972717D02*
X4990211Y-19963193D01*
X4990211Y-19963193D02*
X5009259Y-19953669D01*
X5161640Y-20153669D02*
X5161640Y-20020336D01*
X5161640Y-20039383D02*
X5171164Y-20029859D01*
X5171164Y-20029859D02*
X5190211Y-20020336D01*
X5190211Y-20020336D02*
X5218783Y-20020336D01*
X5218783Y-20020336D02*
X5237830Y-20029859D01*
X5237830Y-20029859D02*
X5247354Y-20048907D01*
X5247354Y-20048907D02*
X5247354Y-20153669D01*
X5247354Y-20048907D02*
X5256878Y-20029859D01*
X5256878Y-20029859D02*
X5275925Y-20020336D01*
X5275925Y-20020336D02*
X5304497Y-20020336D01*
X5304497Y-20020336D02*
X5323545Y-20029859D01*
X5323545Y-20029859D02*
X5333068Y-20048907D01*
X5333068Y-20048907D02*
X5333068Y-20153669D01*
X5428306Y-20153669D02*
X5428306Y-20020336D01*
X5428306Y-20039383D02*
X5437830Y-20029859D01*
X5437830Y-20029859D02*
X5456878Y-20020336D01*
X5456878Y-20020336D02*
X5485449Y-20020336D01*
X5485449Y-20020336D02*
X5504497Y-20029859D01*
X5504497Y-20029859D02*
X5514021Y-20048907D01*
X5514021Y-20048907D02*
X5514021Y-20153669D01*
X5514021Y-20048907D02*
X5523545Y-20029859D01*
X5523545Y-20029859D02*
X5542592Y-20020336D01*
X5542592Y-20020336D02*
X5571164Y-20020336D01*
X5571164Y-20020336D02*
X5590211Y-20029859D01*
X5590211Y-20029859D02*
X5599735Y-20048907D01*
X5599735Y-20048907D02*
X5599735Y-20153669D01*
X5990211Y-19944145D02*
X5818783Y-20201288D01*
X6247354Y-19953669D02*
X6266402Y-19953669D01*
X6266402Y-19953669D02*
X6285449Y-19963193D01*
X6285449Y-19963193D02*
X6294973Y-19972717D01*
X6294973Y-19972717D02*
X6304497Y-19991764D01*
X6304497Y-19991764D02*
X6314021Y-20029859D01*
X6314021Y-20029859D02*
X6314021Y-20077478D01*
X6314021Y-20077478D02*
X6304497Y-20115574D01*
X6304497Y-20115574D02*
X6294973Y-20134621D01*
X6294973Y-20134621D02*
X6285449Y-20144145D01*
X6285449Y-20144145D02*
X6266402Y-20153669D01*
X6266402Y-20153669D02*
X6247354Y-20153669D01*
X6247354Y-20153669D02*
X6228306Y-20144145D01*
X6228306Y-20144145D02*
X6218783Y-20134621D01*
X6218783Y-20134621D02*
X6209259Y-20115574D01*
X6209259Y-20115574D02*
X6199735Y-20077478D01*
X6199735Y-20077478D02*
X6199735Y-20029859D01*
X6199735Y-20029859D02*
X6209259Y-19991764D01*
X6209259Y-19991764D02*
X6218783Y-19972717D01*
X6218783Y-19972717D02*
X6228306Y-19963193D01*
X6228306Y-19963193D02*
X6247354Y-19953669D01*
X6399735Y-20134621D02*
X6409259Y-20144145D01*
X6409259Y-20144145D02*
X6399735Y-20153669D01*
X6399735Y-20153669D02*
X6390211Y-20144145D01*
X6390211Y-20144145D02*
X6399735Y-20134621D01*
X6399735Y-20134621D02*
X6399735Y-20153669D01*
X6533068Y-19953669D02*
X6552116Y-19953669D01*
X6552116Y-19953669D02*
X6571164Y-19963193D01*
X6571164Y-19963193D02*
X6580687Y-19972717D01*
X6580687Y-19972717D02*
X6590211Y-19991764D01*
X6590211Y-19991764D02*
X6599735Y-20029859D01*
X6599735Y-20029859D02*
X6599735Y-20077478D01*
X6599735Y-20077478D02*
X6590211Y-20115574D01*
X6590211Y-20115574D02*
X6580687Y-20134621D01*
X6580687Y-20134621D02*
X6571164Y-20144145D01*
X6571164Y-20144145D02*
X6552116Y-20153669D01*
X6552116Y-20153669D02*
X6533068Y-20153669D01*
X6533068Y-20153669D02*
X6514021Y-20144145D01*
X6514021Y-20144145D02*
X6504497Y-20134621D01*
X6504497Y-20134621D02*
X6494973Y-20115574D01*
X6494973Y-20115574D02*
X6485449Y-20077478D01*
X6485449Y-20077478D02*
X6485449Y-20029859D01*
X6485449Y-20029859D02*
X6494973Y-19991764D01*
X6494973Y-19991764D02*
X6504497Y-19972717D01*
X6504497Y-19972717D02*
X6514021Y-19963193D01*
X6514021Y-19963193D02*
X6533068Y-19953669D01*
X6666402Y-19953669D02*
X6790211Y-19953669D01*
X6790211Y-19953669D02*
X6723545Y-20029859D01*
X6723545Y-20029859D02*
X6752116Y-20029859D01*
X6752116Y-20029859D02*
X6771164Y-20039383D01*
X6771164Y-20039383D02*
X6780687Y-20048907D01*
X6780687Y-20048907D02*
X6790211Y-20067955D01*
X6790211Y-20067955D02*
X6790211Y-20115574D01*
X6790211Y-20115574D02*
X6780687Y-20134621D01*
X6780687Y-20134621D02*
X6771164Y-20144145D01*
X6771164Y-20144145D02*
X6752116Y-20153669D01*
X6752116Y-20153669D02*
X6694973Y-20153669D01*
X6694973Y-20153669D02*
X6675926Y-20144145D01*
X6675926Y-20144145D02*
X6666402Y-20134621D01*
X6980687Y-20153669D02*
X6866402Y-20153669D01*
X6923545Y-20153669D02*
X6923545Y-19953669D01*
X6923545Y-19953669D02*
X6904497Y-19982240D01*
X6904497Y-19982240D02*
X6885449Y-20001288D01*
X6885449Y-20001288D02*
X6866402Y-20010812D01*
X7161640Y-19953669D02*
X7066402Y-19953669D01*
X7066402Y-19953669D02*
X7056878Y-20048907D01*
X7056878Y-20048907D02*
X7066402Y-20039383D01*
X7066402Y-20039383D02*
X7085449Y-20029859D01*
X7085449Y-20029859D02*
X7133068Y-20029859D01*
X7133068Y-20029859D02*
X7152116Y-20039383D01*
X7152116Y-20039383D02*
X7161640Y-20048907D01*
X7161640Y-20048907D02*
X7171164Y-20067955D01*
X7171164Y-20067955D02*
X7171164Y-20115574D01*
X7171164Y-20115574D02*
X7161640Y-20134621D01*
X7161640Y-20134621D02*
X7152116Y-20144145D01*
X7152116Y-20144145D02*
X7133068Y-20153669D01*
X7133068Y-20153669D02*
X7085449Y-20153669D01*
X7085449Y-20153669D02*
X7066402Y-20144145D01*
X7066402Y-20144145D02*
X7056878Y-20134621D01*
X7247354Y-19953669D02*
X7247354Y-19991764D01*
X7323545Y-19953669D02*
X7323545Y-19991764D01*
X7618783Y-20229859D02*
X7609259Y-20220336D01*
X7609259Y-20220336D02*
X7590211Y-20191764D01*
X7590211Y-20191764D02*
X7580688Y-20172717D01*
X7580688Y-20172717D02*
X7571164Y-20144145D01*
X7571164Y-20144145D02*
X7561640Y-20096526D01*
X7561640Y-20096526D02*
X7561640Y-20058431D01*
X7561640Y-20058431D02*
X7571164Y-20010812D01*
X7571164Y-20010812D02*
X7580688Y-19982240D01*
X7580688Y-19982240D02*
X7590211Y-19963193D01*
X7590211Y-19963193D02*
X7609259Y-19934621D01*
X7609259Y-19934621D02*
X7618783Y-19925097D01*
X7675926Y-19953669D02*
X7799735Y-19953669D01*
X7799735Y-19953669D02*
X7733068Y-20029859D01*
X7733068Y-20029859D02*
X7761640Y-20029859D01*
X7761640Y-20029859D02*
X7780688Y-20039383D01*
X7780688Y-20039383D02*
X7790211Y-20048907D01*
X7790211Y-20048907D02*
X7799735Y-20067955D01*
X7799735Y-20067955D02*
X7799735Y-20115574D01*
X7799735Y-20115574D02*
X7790211Y-20134621D01*
X7790211Y-20134621D02*
X7780688Y-20144145D01*
X7780688Y-20144145D02*
X7761640Y-20153669D01*
X7761640Y-20153669D02*
X7704497Y-20153669D01*
X7704497Y-20153669D02*
X7685449Y-20144145D01*
X7685449Y-20144145D02*
X7675926Y-20134621D01*
X7923545Y-19953669D02*
X7942592Y-19953669D01*
X7942592Y-19953669D02*
X7961640Y-19963193D01*
X7961640Y-19963193D02*
X7971164Y-19972717D01*
X7971164Y-19972717D02*
X7980688Y-19991764D01*
X7980688Y-19991764D02*
X7990211Y-20029859D01*
X7990211Y-20029859D02*
X7990211Y-20077478D01*
X7990211Y-20077478D02*
X7980688Y-20115574D01*
X7980688Y-20115574D02*
X7971164Y-20134621D01*
X7971164Y-20134621D02*
X7961640Y-20144145D01*
X7961640Y-20144145D02*
X7942592Y-20153669D01*
X7942592Y-20153669D02*
X7923545Y-20153669D01*
X7923545Y-20153669D02*
X7904497Y-20144145D01*
X7904497Y-20144145D02*
X7894973Y-20134621D01*
X7894973Y-20134621D02*
X7885449Y-20115574D01*
X7885449Y-20115574D02*
X7875926Y-20077478D01*
X7875926Y-20077478D02*
X7875926Y-20029859D01*
X7875926Y-20029859D02*
X7885449Y-19991764D01*
X7885449Y-19991764D02*
X7894973Y-19972717D01*
X7894973Y-19972717D02*
X7904497Y-19963193D01*
X7904497Y-19963193D02*
X7923545Y-19953669D01*
X8228307Y-20153669D02*
X8228307Y-19953669D01*
X8314021Y-20153669D02*
X8314021Y-20048907D01*
X8314021Y-20048907D02*
X8304497Y-20029859D01*
X8304497Y-20029859D02*
X8285450Y-20020336D01*
X8285450Y-20020336D02*
X8256878Y-20020336D01*
X8256878Y-20020336D02*
X8237830Y-20029859D01*
X8237830Y-20029859D02*
X8228307Y-20039383D01*
X8437831Y-20153669D02*
X8418783Y-20144145D01*
X8418783Y-20144145D02*
X8409259Y-20134621D01*
X8409259Y-20134621D02*
X8399735Y-20115574D01*
X8399735Y-20115574D02*
X8399735Y-20058431D01*
X8399735Y-20058431D02*
X8409259Y-20039383D01*
X8409259Y-20039383D02*
X8418783Y-20029859D01*
X8418783Y-20029859D02*
X8437831Y-20020336D01*
X8437831Y-20020336D02*
X8466402Y-20020336D01*
X8466402Y-20020336D02*
X8485450Y-20029859D01*
X8485450Y-20029859D02*
X8494973Y-20039383D01*
X8494973Y-20039383D02*
X8504497Y-20058431D01*
X8504497Y-20058431D02*
X8504497Y-20115574D01*
X8504497Y-20115574D02*
X8494973Y-20134621D01*
X8494973Y-20134621D02*
X8485450Y-20144145D01*
X8485450Y-20144145D02*
X8466402Y-20153669D01*
X8466402Y-20153669D02*
X8437831Y-20153669D01*
X8618783Y-20153669D02*
X8599735Y-20144145D01*
X8599735Y-20144145D02*
X8590212Y-20125097D01*
X8590212Y-20125097D02*
X8590212Y-19953669D01*
X8771164Y-20144145D02*
X8752116Y-20153669D01*
X8752116Y-20153669D02*
X8714021Y-20153669D01*
X8714021Y-20153669D02*
X8694973Y-20144145D01*
X8694973Y-20144145D02*
X8685450Y-20125097D01*
X8685450Y-20125097D02*
X8685450Y-20048907D01*
X8685450Y-20048907D02*
X8694973Y-20029859D01*
X8694973Y-20029859D02*
X8714021Y-20020336D01*
X8714021Y-20020336D02*
X8752116Y-20020336D01*
X8752116Y-20020336D02*
X8771164Y-20029859D01*
X8771164Y-20029859D02*
X8780688Y-20048907D01*
X8780688Y-20048907D02*
X8780688Y-20067955D01*
X8780688Y-20067955D02*
X8685450Y-20087002D01*
X8856878Y-20144145D02*
X8875926Y-20153669D01*
X8875926Y-20153669D02*
X8914021Y-20153669D01*
X8914021Y-20153669D02*
X8933069Y-20144145D01*
X8933069Y-20144145D02*
X8942593Y-20125097D01*
X8942593Y-20125097D02*
X8942593Y-20115574D01*
X8942593Y-20115574D02*
X8933069Y-20096526D01*
X8933069Y-20096526D02*
X8914021Y-20087002D01*
X8914021Y-20087002D02*
X8885450Y-20087002D01*
X8885450Y-20087002D02*
X8866402Y-20077478D01*
X8866402Y-20077478D02*
X8856878Y-20058431D01*
X8856878Y-20058431D02*
X8856878Y-20048907D01*
X8856878Y-20048907D02*
X8866402Y-20029859D01*
X8866402Y-20029859D02*
X8885450Y-20020336D01*
X8885450Y-20020336D02*
X8914021Y-20020336D01*
X8914021Y-20020336D02*
X8933069Y-20029859D01*
X9009259Y-20229859D02*
X9018783Y-20220336D01*
X9018783Y-20220336D02*
X9037831Y-20191764D01*
X9037831Y-20191764D02*
X9047354Y-20172717D01*
X9047354Y-20172717D02*
X9056878Y-20144145D01*
X9056878Y-20144145D02*
X9066402Y-20096526D01*
X9066402Y-20096526D02*
X9066402Y-20058431D01*
X9066402Y-20058431D02*
X9056878Y-20010812D01*
X9056878Y-20010812D02*
X9047354Y-19982240D01*
X9047354Y-19982240D02*
X9037831Y-19963193D01*
X9037831Y-19963193D02*
X9018783Y-19934621D01*
X9018783Y-19934621D02*
X9009259Y-19925097D01*
D15*
X4029076Y-20361541D02*
X4029076Y-20290829D01*
X3958364Y-20290829D01*
X3958364Y-20361541D01*
X4029076Y-20361541D01*
D11*
X4409259Y-20417669D02*
X4294973Y-20417669D01*
X4352116Y-20417669D02*
X4352116Y-20217669D01*
X4352116Y-20217669D02*
X4333068Y-20246240D01*
X4333068Y-20246240D02*
X4314021Y-20265288D01*
X4314021Y-20265288D02*
X4294973Y-20274812D01*
X4494973Y-20398621D02*
X4504497Y-20408145D01*
X4504497Y-20408145D02*
X4494973Y-20417669D01*
X4494973Y-20417669D02*
X4485449Y-20408145D01*
X4485449Y-20408145D02*
X4494973Y-20398621D01*
X4494973Y-20398621D02*
X4494973Y-20417669D01*
X4628306Y-20217669D02*
X4647354Y-20217669D01*
X4647354Y-20217669D02*
X4666402Y-20227193D01*
X4666402Y-20227193D02*
X4675925Y-20236717D01*
X4675925Y-20236717D02*
X4685449Y-20255764D01*
X4685449Y-20255764D02*
X4694973Y-20293859D01*
X4694973Y-20293859D02*
X4694973Y-20341478D01*
X4694973Y-20341478D02*
X4685449Y-20379574D01*
X4685449Y-20379574D02*
X4675925Y-20398621D01*
X4675925Y-20398621D02*
X4666402Y-20408145D01*
X4666402Y-20408145D02*
X4647354Y-20417669D01*
X4647354Y-20417669D02*
X4628306Y-20417669D01*
X4628306Y-20417669D02*
X4609259Y-20408145D01*
X4609259Y-20408145D02*
X4599735Y-20398621D01*
X4599735Y-20398621D02*
X4590211Y-20379574D01*
X4590211Y-20379574D02*
X4580687Y-20341478D01*
X4580687Y-20341478D02*
X4580687Y-20293859D01*
X4580687Y-20293859D02*
X4590211Y-20255764D01*
X4590211Y-20255764D02*
X4599735Y-20236717D01*
X4599735Y-20236717D02*
X4609259Y-20227193D01*
X4609259Y-20227193D02*
X4628306Y-20217669D01*
X4818783Y-20217669D02*
X4837830Y-20217669D01*
X4837830Y-20217669D02*
X4856878Y-20227193D01*
X4856878Y-20227193D02*
X4866402Y-20236717D01*
X4866402Y-20236717D02*
X4875925Y-20255764D01*
X4875925Y-20255764D02*
X4885449Y-20293859D01*
X4885449Y-20293859D02*
X4885449Y-20341478D01*
X4885449Y-20341478D02*
X4875925Y-20379574D01*
X4875925Y-20379574D02*
X4866402Y-20398621D01*
X4866402Y-20398621D02*
X4856878Y-20408145D01*
X4856878Y-20408145D02*
X4837830Y-20417669D01*
X4837830Y-20417669D02*
X4818783Y-20417669D01*
X4818783Y-20417669D02*
X4799735Y-20408145D01*
X4799735Y-20408145D02*
X4790211Y-20398621D01*
X4790211Y-20398621D02*
X4780687Y-20379574D01*
X4780687Y-20379574D02*
X4771164Y-20341478D01*
X4771164Y-20341478D02*
X4771164Y-20293859D01*
X4771164Y-20293859D02*
X4780687Y-20255764D01*
X4780687Y-20255764D02*
X4790211Y-20236717D01*
X4790211Y-20236717D02*
X4799735Y-20227193D01*
X4799735Y-20227193D02*
X4818783Y-20217669D01*
X5009259Y-20217669D02*
X5028306Y-20217669D01*
X5028306Y-20217669D02*
X5047354Y-20227193D01*
X5047354Y-20227193D02*
X5056878Y-20236717D01*
X5056878Y-20236717D02*
X5066402Y-20255764D01*
X5066402Y-20255764D02*
X5075925Y-20293859D01*
X5075925Y-20293859D02*
X5075925Y-20341478D01*
X5075925Y-20341478D02*
X5066402Y-20379574D01*
X5066402Y-20379574D02*
X5056878Y-20398621D01*
X5056878Y-20398621D02*
X5047354Y-20408145D01*
X5047354Y-20408145D02*
X5028306Y-20417669D01*
X5028306Y-20417669D02*
X5009259Y-20417669D01*
X5009259Y-20417669D02*
X4990211Y-20408145D01*
X4990211Y-20408145D02*
X4980687Y-20398621D01*
X4980687Y-20398621D02*
X4971164Y-20379574D01*
X4971164Y-20379574D02*
X4961640Y-20341478D01*
X4961640Y-20341478D02*
X4961640Y-20293859D01*
X4961640Y-20293859D02*
X4971164Y-20255764D01*
X4971164Y-20255764D02*
X4980687Y-20236717D01*
X4980687Y-20236717D02*
X4990211Y-20227193D01*
X4990211Y-20227193D02*
X5009259Y-20217669D01*
X5161640Y-20417669D02*
X5161640Y-20284336D01*
X5161640Y-20303383D02*
X5171164Y-20293859D01*
X5171164Y-20293859D02*
X5190211Y-20284336D01*
X5190211Y-20284336D02*
X5218783Y-20284336D01*
X5218783Y-20284336D02*
X5237830Y-20293859D01*
X5237830Y-20293859D02*
X5247354Y-20312907D01*
X5247354Y-20312907D02*
X5247354Y-20417669D01*
X5247354Y-20312907D02*
X5256878Y-20293859D01*
X5256878Y-20293859D02*
X5275925Y-20284336D01*
X5275925Y-20284336D02*
X5304497Y-20284336D01*
X5304497Y-20284336D02*
X5323545Y-20293859D01*
X5323545Y-20293859D02*
X5333068Y-20312907D01*
X5333068Y-20312907D02*
X5333068Y-20417669D01*
X5428306Y-20417669D02*
X5428306Y-20284336D01*
X5428306Y-20303383D02*
X5437830Y-20293859D01*
X5437830Y-20293859D02*
X5456878Y-20284336D01*
X5456878Y-20284336D02*
X5485449Y-20284336D01*
X5485449Y-20284336D02*
X5504497Y-20293859D01*
X5504497Y-20293859D02*
X5514021Y-20312907D01*
X5514021Y-20312907D02*
X5514021Y-20417669D01*
X5514021Y-20312907D02*
X5523545Y-20293859D01*
X5523545Y-20293859D02*
X5542592Y-20284336D01*
X5542592Y-20284336D02*
X5571164Y-20284336D01*
X5571164Y-20284336D02*
X5590211Y-20293859D01*
X5590211Y-20293859D02*
X5599735Y-20312907D01*
X5599735Y-20312907D02*
X5599735Y-20417669D01*
X5990211Y-20208145D02*
X5818783Y-20465288D01*
X6247354Y-20217669D02*
X6266402Y-20217669D01*
X6266402Y-20217669D02*
X6285449Y-20227193D01*
X6285449Y-20227193D02*
X6294973Y-20236717D01*
X6294973Y-20236717D02*
X6304497Y-20255764D01*
X6304497Y-20255764D02*
X6314021Y-20293859D01*
X6314021Y-20293859D02*
X6314021Y-20341478D01*
X6314021Y-20341478D02*
X6304497Y-20379574D01*
X6304497Y-20379574D02*
X6294973Y-20398621D01*
X6294973Y-20398621D02*
X6285449Y-20408145D01*
X6285449Y-20408145D02*
X6266402Y-20417669D01*
X6266402Y-20417669D02*
X6247354Y-20417669D01*
X6247354Y-20417669D02*
X6228306Y-20408145D01*
X6228306Y-20408145D02*
X6218783Y-20398621D01*
X6218783Y-20398621D02*
X6209259Y-20379574D01*
X6209259Y-20379574D02*
X6199735Y-20341478D01*
X6199735Y-20341478D02*
X6199735Y-20293859D01*
X6199735Y-20293859D02*
X6209259Y-20255764D01*
X6209259Y-20255764D02*
X6218783Y-20236717D01*
X6218783Y-20236717D02*
X6228306Y-20227193D01*
X6228306Y-20227193D02*
X6247354Y-20217669D01*
X6399735Y-20398621D02*
X6409259Y-20408145D01*
X6409259Y-20408145D02*
X6399735Y-20417669D01*
X6399735Y-20417669D02*
X6390211Y-20408145D01*
X6390211Y-20408145D02*
X6399735Y-20398621D01*
X6399735Y-20398621D02*
X6399735Y-20417669D01*
X6533068Y-20217669D02*
X6552116Y-20217669D01*
X6552116Y-20217669D02*
X6571164Y-20227193D01*
X6571164Y-20227193D02*
X6580687Y-20236717D01*
X6580687Y-20236717D02*
X6590211Y-20255764D01*
X6590211Y-20255764D02*
X6599735Y-20293859D01*
X6599735Y-20293859D02*
X6599735Y-20341478D01*
X6599735Y-20341478D02*
X6590211Y-20379574D01*
X6590211Y-20379574D02*
X6580687Y-20398621D01*
X6580687Y-20398621D02*
X6571164Y-20408145D01*
X6571164Y-20408145D02*
X6552116Y-20417669D01*
X6552116Y-20417669D02*
X6533068Y-20417669D01*
X6533068Y-20417669D02*
X6514021Y-20408145D01*
X6514021Y-20408145D02*
X6504497Y-20398621D01*
X6504497Y-20398621D02*
X6494973Y-20379574D01*
X6494973Y-20379574D02*
X6485449Y-20341478D01*
X6485449Y-20341478D02*
X6485449Y-20293859D01*
X6485449Y-20293859D02*
X6494973Y-20255764D01*
X6494973Y-20255764D02*
X6504497Y-20236717D01*
X6504497Y-20236717D02*
X6514021Y-20227193D01*
X6514021Y-20227193D02*
X6533068Y-20217669D01*
X6666402Y-20217669D02*
X6790211Y-20217669D01*
X6790211Y-20217669D02*
X6723545Y-20293859D01*
X6723545Y-20293859D02*
X6752116Y-20293859D01*
X6752116Y-20293859D02*
X6771164Y-20303383D01*
X6771164Y-20303383D02*
X6780687Y-20312907D01*
X6780687Y-20312907D02*
X6790211Y-20331955D01*
X6790211Y-20331955D02*
X6790211Y-20379574D01*
X6790211Y-20379574D02*
X6780687Y-20398621D01*
X6780687Y-20398621D02*
X6771164Y-20408145D01*
X6771164Y-20408145D02*
X6752116Y-20417669D01*
X6752116Y-20417669D02*
X6694973Y-20417669D01*
X6694973Y-20417669D02*
X6675926Y-20408145D01*
X6675926Y-20408145D02*
X6666402Y-20398621D01*
X6885449Y-20417669D02*
X6923545Y-20417669D01*
X6923545Y-20417669D02*
X6942592Y-20408145D01*
X6942592Y-20408145D02*
X6952116Y-20398621D01*
X6952116Y-20398621D02*
X6971164Y-20370050D01*
X6971164Y-20370050D02*
X6980687Y-20331955D01*
X6980687Y-20331955D02*
X6980687Y-20255764D01*
X6980687Y-20255764D02*
X6971164Y-20236717D01*
X6971164Y-20236717D02*
X6961640Y-20227193D01*
X6961640Y-20227193D02*
X6942592Y-20217669D01*
X6942592Y-20217669D02*
X6904497Y-20217669D01*
X6904497Y-20217669D02*
X6885449Y-20227193D01*
X6885449Y-20227193D02*
X6875926Y-20236717D01*
X6875926Y-20236717D02*
X6866402Y-20255764D01*
X6866402Y-20255764D02*
X6866402Y-20303383D01*
X6866402Y-20303383D02*
X6875926Y-20322431D01*
X6875926Y-20322431D02*
X6885449Y-20331955D01*
X6885449Y-20331955D02*
X6904497Y-20341478D01*
X6904497Y-20341478D02*
X6942592Y-20341478D01*
X6942592Y-20341478D02*
X6961640Y-20331955D01*
X6961640Y-20331955D02*
X6971164Y-20322431D01*
X6971164Y-20322431D02*
X6980687Y-20303383D01*
X7152116Y-20284336D02*
X7152116Y-20417669D01*
X7104497Y-20208145D02*
X7056878Y-20351002D01*
X7056878Y-20351002D02*
X7180687Y-20351002D01*
X7247354Y-20217669D02*
X7247354Y-20255764D01*
X7323545Y-20217669D02*
X7323545Y-20255764D01*
X7618783Y-20493859D02*
X7609259Y-20484336D01*
X7609259Y-20484336D02*
X7590211Y-20455764D01*
X7590211Y-20455764D02*
X7580688Y-20436717D01*
X7580688Y-20436717D02*
X7571164Y-20408145D01*
X7571164Y-20408145D02*
X7561640Y-20360526D01*
X7561640Y-20360526D02*
X7561640Y-20322431D01*
X7561640Y-20322431D02*
X7571164Y-20274812D01*
X7571164Y-20274812D02*
X7580688Y-20246240D01*
X7580688Y-20246240D02*
X7590211Y-20227193D01*
X7590211Y-20227193D02*
X7609259Y-20198621D01*
X7609259Y-20198621D02*
X7618783Y-20189097D01*
X7675926Y-20217669D02*
X7799735Y-20217669D01*
X7799735Y-20217669D02*
X7733068Y-20293859D01*
X7733068Y-20293859D02*
X7761640Y-20293859D01*
X7761640Y-20293859D02*
X7780688Y-20303383D01*
X7780688Y-20303383D02*
X7790211Y-20312907D01*
X7790211Y-20312907D02*
X7799735Y-20331955D01*
X7799735Y-20331955D02*
X7799735Y-20379574D01*
X7799735Y-20379574D02*
X7790211Y-20398621D01*
X7790211Y-20398621D02*
X7780688Y-20408145D01*
X7780688Y-20408145D02*
X7761640Y-20417669D01*
X7761640Y-20417669D02*
X7704497Y-20417669D01*
X7704497Y-20417669D02*
X7685449Y-20408145D01*
X7685449Y-20408145D02*
X7675926Y-20398621D01*
X8037830Y-20417669D02*
X8037830Y-20217669D01*
X8123545Y-20417669D02*
X8123545Y-20312907D01*
X8123545Y-20312907D02*
X8114021Y-20293859D01*
X8114021Y-20293859D02*
X8094973Y-20284336D01*
X8094973Y-20284336D02*
X8066402Y-20284336D01*
X8066402Y-20284336D02*
X8047354Y-20293859D01*
X8047354Y-20293859D02*
X8037830Y-20303383D01*
X8247354Y-20417669D02*
X8228307Y-20408145D01*
X8228307Y-20408145D02*
X8218783Y-20398621D01*
X8218783Y-20398621D02*
X8209259Y-20379574D01*
X8209259Y-20379574D02*
X8209259Y-20322431D01*
X8209259Y-20322431D02*
X8218783Y-20303383D01*
X8218783Y-20303383D02*
X8228307Y-20293859D01*
X8228307Y-20293859D02*
X8247354Y-20284336D01*
X8247354Y-20284336D02*
X8275926Y-20284336D01*
X8275926Y-20284336D02*
X8294973Y-20293859D01*
X8294973Y-20293859D02*
X8304497Y-20303383D01*
X8304497Y-20303383D02*
X8314021Y-20322431D01*
X8314021Y-20322431D02*
X8314021Y-20379574D01*
X8314021Y-20379574D02*
X8304497Y-20398621D01*
X8304497Y-20398621D02*
X8294973Y-20408145D01*
X8294973Y-20408145D02*
X8275926Y-20417669D01*
X8275926Y-20417669D02*
X8247354Y-20417669D01*
X8428307Y-20417669D02*
X8409259Y-20408145D01*
X8409259Y-20408145D02*
X8399735Y-20389097D01*
X8399735Y-20389097D02*
X8399735Y-20217669D01*
X8580688Y-20408145D02*
X8561640Y-20417669D01*
X8561640Y-20417669D02*
X8523545Y-20417669D01*
X8523545Y-20417669D02*
X8504497Y-20408145D01*
X8504497Y-20408145D02*
X8494973Y-20389097D01*
X8494973Y-20389097D02*
X8494973Y-20312907D01*
X8494973Y-20312907D02*
X8504497Y-20293859D01*
X8504497Y-20293859D02*
X8523545Y-20284336D01*
X8523545Y-20284336D02*
X8561640Y-20284336D01*
X8561640Y-20284336D02*
X8580688Y-20293859D01*
X8580688Y-20293859D02*
X8590212Y-20312907D01*
X8590212Y-20312907D02*
X8590212Y-20331955D01*
X8590212Y-20331955D02*
X8494973Y-20351002D01*
X8666402Y-20408145D02*
X8685450Y-20417669D01*
X8685450Y-20417669D02*
X8723545Y-20417669D01*
X8723545Y-20417669D02*
X8742593Y-20408145D01*
X8742593Y-20408145D02*
X8752116Y-20389097D01*
X8752116Y-20389097D02*
X8752116Y-20379574D01*
X8752116Y-20379574D02*
X8742593Y-20360526D01*
X8742593Y-20360526D02*
X8723545Y-20351002D01*
X8723545Y-20351002D02*
X8694973Y-20351002D01*
X8694973Y-20351002D02*
X8675926Y-20341478D01*
X8675926Y-20341478D02*
X8666402Y-20322431D01*
X8666402Y-20322431D02*
X8666402Y-20312907D01*
X8666402Y-20312907D02*
X8675926Y-20293859D01*
X8675926Y-20293859D02*
X8694973Y-20284336D01*
X8694973Y-20284336D02*
X8723545Y-20284336D01*
X8723545Y-20284336D02*
X8742593Y-20293859D01*
X8818783Y-20493859D02*
X8828307Y-20484336D01*
X8828307Y-20484336D02*
X8847354Y-20455764D01*
X8847354Y-20455764D02*
X8856878Y-20436717D01*
X8856878Y-20436717D02*
X8866402Y-20408145D01*
X8866402Y-20408145D02*
X8875926Y-20360526D01*
X8875926Y-20360526D02*
X8875926Y-20322431D01*
X8875926Y-20322431D02*
X8866402Y-20274812D01*
X8866402Y-20274812D02*
X8856878Y-20246240D01*
X8856878Y-20246240D02*
X8847354Y-20227193D01*
X8847354Y-20227193D02*
X8828307Y-20198621D01*
X8828307Y-20198621D02*
X8818783Y-20189097D01*
D15*
X3993720Y-20640185D02*
X4043720Y-20590185D01*
X3993720Y-20540185D01*
X3943720Y-20590185D01*
X3993720Y-20640185D01*
D11*
X4409259Y-20681669D02*
X4294973Y-20681669D01*
X4352116Y-20681669D02*
X4352116Y-20481669D01*
X4352116Y-20481669D02*
X4333068Y-20510240D01*
X4333068Y-20510240D02*
X4314021Y-20529288D01*
X4314021Y-20529288D02*
X4294973Y-20538812D01*
X4494973Y-20662621D02*
X4504497Y-20672145D01*
X4504497Y-20672145D02*
X4494973Y-20681669D01*
X4494973Y-20681669D02*
X4485449Y-20672145D01*
X4485449Y-20672145D02*
X4494973Y-20662621D01*
X4494973Y-20662621D02*
X4494973Y-20681669D01*
X4628306Y-20481669D02*
X4647354Y-20481669D01*
X4647354Y-20481669D02*
X4666402Y-20491193D01*
X4666402Y-20491193D02*
X4675925Y-20500717D01*
X4675925Y-20500717D02*
X4685449Y-20519764D01*
X4685449Y-20519764D02*
X4694973Y-20557859D01*
X4694973Y-20557859D02*
X4694973Y-20605478D01*
X4694973Y-20605478D02*
X4685449Y-20643574D01*
X4685449Y-20643574D02*
X4675925Y-20662621D01*
X4675925Y-20662621D02*
X4666402Y-20672145D01*
X4666402Y-20672145D02*
X4647354Y-20681669D01*
X4647354Y-20681669D02*
X4628306Y-20681669D01*
X4628306Y-20681669D02*
X4609259Y-20672145D01*
X4609259Y-20672145D02*
X4599735Y-20662621D01*
X4599735Y-20662621D02*
X4590211Y-20643574D01*
X4590211Y-20643574D02*
X4580687Y-20605478D01*
X4580687Y-20605478D02*
X4580687Y-20557859D01*
X4580687Y-20557859D02*
X4590211Y-20519764D01*
X4590211Y-20519764D02*
X4599735Y-20500717D01*
X4599735Y-20500717D02*
X4609259Y-20491193D01*
X4609259Y-20491193D02*
X4628306Y-20481669D01*
X4818783Y-20481669D02*
X4837830Y-20481669D01*
X4837830Y-20481669D02*
X4856878Y-20491193D01*
X4856878Y-20491193D02*
X4866402Y-20500717D01*
X4866402Y-20500717D02*
X4875925Y-20519764D01*
X4875925Y-20519764D02*
X4885449Y-20557859D01*
X4885449Y-20557859D02*
X4885449Y-20605478D01*
X4885449Y-20605478D02*
X4875925Y-20643574D01*
X4875925Y-20643574D02*
X4866402Y-20662621D01*
X4866402Y-20662621D02*
X4856878Y-20672145D01*
X4856878Y-20672145D02*
X4837830Y-20681669D01*
X4837830Y-20681669D02*
X4818783Y-20681669D01*
X4818783Y-20681669D02*
X4799735Y-20672145D01*
X4799735Y-20672145D02*
X4790211Y-20662621D01*
X4790211Y-20662621D02*
X4780687Y-20643574D01*
X4780687Y-20643574D02*
X4771164Y-20605478D01*
X4771164Y-20605478D02*
X4771164Y-20557859D01*
X4771164Y-20557859D02*
X4780687Y-20519764D01*
X4780687Y-20519764D02*
X4790211Y-20500717D01*
X4790211Y-20500717D02*
X4799735Y-20491193D01*
X4799735Y-20491193D02*
X4818783Y-20481669D01*
X5009259Y-20481669D02*
X5028306Y-20481669D01*
X5028306Y-20481669D02*
X5047354Y-20491193D01*
X5047354Y-20491193D02*
X5056878Y-20500717D01*
X5056878Y-20500717D02*
X5066402Y-20519764D01*
X5066402Y-20519764D02*
X5075925Y-20557859D01*
X5075925Y-20557859D02*
X5075925Y-20605478D01*
X5075925Y-20605478D02*
X5066402Y-20643574D01*
X5066402Y-20643574D02*
X5056878Y-20662621D01*
X5056878Y-20662621D02*
X5047354Y-20672145D01*
X5047354Y-20672145D02*
X5028306Y-20681669D01*
X5028306Y-20681669D02*
X5009259Y-20681669D01*
X5009259Y-20681669D02*
X4990211Y-20672145D01*
X4990211Y-20672145D02*
X4980687Y-20662621D01*
X4980687Y-20662621D02*
X4971164Y-20643574D01*
X4971164Y-20643574D02*
X4961640Y-20605478D01*
X4961640Y-20605478D02*
X4961640Y-20557859D01*
X4961640Y-20557859D02*
X4971164Y-20519764D01*
X4971164Y-20519764D02*
X4980687Y-20500717D01*
X4980687Y-20500717D02*
X4990211Y-20491193D01*
X4990211Y-20491193D02*
X5009259Y-20481669D01*
X5161640Y-20681669D02*
X5161640Y-20548336D01*
X5161640Y-20567383D02*
X5171164Y-20557859D01*
X5171164Y-20557859D02*
X5190211Y-20548336D01*
X5190211Y-20548336D02*
X5218783Y-20548336D01*
X5218783Y-20548336D02*
X5237830Y-20557859D01*
X5237830Y-20557859D02*
X5247354Y-20576907D01*
X5247354Y-20576907D02*
X5247354Y-20681669D01*
X5247354Y-20576907D02*
X5256878Y-20557859D01*
X5256878Y-20557859D02*
X5275925Y-20548336D01*
X5275925Y-20548336D02*
X5304497Y-20548336D01*
X5304497Y-20548336D02*
X5323545Y-20557859D01*
X5323545Y-20557859D02*
X5333068Y-20576907D01*
X5333068Y-20576907D02*
X5333068Y-20681669D01*
X5428306Y-20681669D02*
X5428306Y-20548336D01*
X5428306Y-20567383D02*
X5437830Y-20557859D01*
X5437830Y-20557859D02*
X5456878Y-20548336D01*
X5456878Y-20548336D02*
X5485449Y-20548336D01*
X5485449Y-20548336D02*
X5504497Y-20557859D01*
X5504497Y-20557859D02*
X5514021Y-20576907D01*
X5514021Y-20576907D02*
X5514021Y-20681669D01*
X5514021Y-20576907D02*
X5523545Y-20557859D01*
X5523545Y-20557859D02*
X5542592Y-20548336D01*
X5542592Y-20548336D02*
X5571164Y-20548336D01*
X5571164Y-20548336D02*
X5590211Y-20557859D01*
X5590211Y-20557859D02*
X5599735Y-20576907D01*
X5599735Y-20576907D02*
X5599735Y-20681669D01*
X5990211Y-20472145D02*
X5818783Y-20729288D01*
X6247354Y-20481669D02*
X6266402Y-20481669D01*
X6266402Y-20481669D02*
X6285449Y-20491193D01*
X6285449Y-20491193D02*
X6294973Y-20500717D01*
X6294973Y-20500717D02*
X6304497Y-20519764D01*
X6304497Y-20519764D02*
X6314021Y-20557859D01*
X6314021Y-20557859D02*
X6314021Y-20605478D01*
X6314021Y-20605478D02*
X6304497Y-20643574D01*
X6304497Y-20643574D02*
X6294973Y-20662621D01*
X6294973Y-20662621D02*
X6285449Y-20672145D01*
X6285449Y-20672145D02*
X6266402Y-20681669D01*
X6266402Y-20681669D02*
X6247354Y-20681669D01*
X6247354Y-20681669D02*
X6228306Y-20672145D01*
X6228306Y-20672145D02*
X6218783Y-20662621D01*
X6218783Y-20662621D02*
X6209259Y-20643574D01*
X6209259Y-20643574D02*
X6199735Y-20605478D01*
X6199735Y-20605478D02*
X6199735Y-20557859D01*
X6199735Y-20557859D02*
X6209259Y-20519764D01*
X6209259Y-20519764D02*
X6218783Y-20500717D01*
X6218783Y-20500717D02*
X6228306Y-20491193D01*
X6228306Y-20491193D02*
X6247354Y-20481669D01*
X6399735Y-20662621D02*
X6409259Y-20672145D01*
X6409259Y-20672145D02*
X6399735Y-20681669D01*
X6399735Y-20681669D02*
X6390211Y-20672145D01*
X6390211Y-20672145D02*
X6399735Y-20662621D01*
X6399735Y-20662621D02*
X6399735Y-20681669D01*
X6533068Y-20481669D02*
X6552116Y-20481669D01*
X6552116Y-20481669D02*
X6571164Y-20491193D01*
X6571164Y-20491193D02*
X6580687Y-20500717D01*
X6580687Y-20500717D02*
X6590211Y-20519764D01*
X6590211Y-20519764D02*
X6599735Y-20557859D01*
X6599735Y-20557859D02*
X6599735Y-20605478D01*
X6599735Y-20605478D02*
X6590211Y-20643574D01*
X6590211Y-20643574D02*
X6580687Y-20662621D01*
X6580687Y-20662621D02*
X6571164Y-20672145D01*
X6571164Y-20672145D02*
X6552116Y-20681669D01*
X6552116Y-20681669D02*
X6533068Y-20681669D01*
X6533068Y-20681669D02*
X6514021Y-20672145D01*
X6514021Y-20672145D02*
X6504497Y-20662621D01*
X6504497Y-20662621D02*
X6494973Y-20643574D01*
X6494973Y-20643574D02*
X6485449Y-20605478D01*
X6485449Y-20605478D02*
X6485449Y-20557859D01*
X6485449Y-20557859D02*
X6494973Y-20519764D01*
X6494973Y-20519764D02*
X6504497Y-20500717D01*
X6504497Y-20500717D02*
X6514021Y-20491193D01*
X6514021Y-20491193D02*
X6533068Y-20481669D01*
X6666402Y-20481669D02*
X6790211Y-20481669D01*
X6790211Y-20481669D02*
X6723545Y-20557859D01*
X6723545Y-20557859D02*
X6752116Y-20557859D01*
X6752116Y-20557859D02*
X6771164Y-20567383D01*
X6771164Y-20567383D02*
X6780687Y-20576907D01*
X6780687Y-20576907D02*
X6790211Y-20595955D01*
X6790211Y-20595955D02*
X6790211Y-20643574D01*
X6790211Y-20643574D02*
X6780687Y-20662621D01*
X6780687Y-20662621D02*
X6771164Y-20672145D01*
X6771164Y-20672145D02*
X6752116Y-20681669D01*
X6752116Y-20681669D02*
X6694973Y-20681669D01*
X6694973Y-20681669D02*
X6675926Y-20672145D01*
X6675926Y-20672145D02*
X6666402Y-20662621D01*
X6885449Y-20681669D02*
X6923545Y-20681669D01*
X6923545Y-20681669D02*
X6942592Y-20672145D01*
X6942592Y-20672145D02*
X6952116Y-20662621D01*
X6952116Y-20662621D02*
X6971164Y-20634050D01*
X6971164Y-20634050D02*
X6980687Y-20595955D01*
X6980687Y-20595955D02*
X6980687Y-20519764D01*
X6980687Y-20519764D02*
X6971164Y-20500717D01*
X6971164Y-20500717D02*
X6961640Y-20491193D01*
X6961640Y-20491193D02*
X6942592Y-20481669D01*
X6942592Y-20481669D02*
X6904497Y-20481669D01*
X6904497Y-20481669D02*
X6885449Y-20491193D01*
X6885449Y-20491193D02*
X6875926Y-20500717D01*
X6875926Y-20500717D02*
X6866402Y-20519764D01*
X6866402Y-20519764D02*
X6866402Y-20567383D01*
X6866402Y-20567383D02*
X6875926Y-20586431D01*
X6875926Y-20586431D02*
X6885449Y-20595955D01*
X6885449Y-20595955D02*
X6904497Y-20605478D01*
X6904497Y-20605478D02*
X6942592Y-20605478D01*
X6942592Y-20605478D02*
X6961640Y-20595955D01*
X6961640Y-20595955D02*
X6971164Y-20586431D01*
X6971164Y-20586431D02*
X6980687Y-20567383D01*
X7152116Y-20548336D02*
X7152116Y-20681669D01*
X7104497Y-20472145D02*
X7056878Y-20615002D01*
X7056878Y-20615002D02*
X7180687Y-20615002D01*
X7247354Y-20481669D02*
X7247354Y-20519764D01*
X7323545Y-20481669D02*
X7323545Y-20519764D01*
X7618783Y-20757859D02*
X7609259Y-20748336D01*
X7609259Y-20748336D02*
X7590211Y-20719764D01*
X7590211Y-20719764D02*
X7580688Y-20700717D01*
X7580688Y-20700717D02*
X7571164Y-20672145D01*
X7571164Y-20672145D02*
X7561640Y-20624526D01*
X7561640Y-20624526D02*
X7561640Y-20586431D01*
X7561640Y-20586431D02*
X7571164Y-20538812D01*
X7571164Y-20538812D02*
X7580688Y-20510240D01*
X7580688Y-20510240D02*
X7590211Y-20491193D01*
X7590211Y-20491193D02*
X7609259Y-20462621D01*
X7609259Y-20462621D02*
X7618783Y-20453097D01*
X7780688Y-20548336D02*
X7780688Y-20681669D01*
X7733068Y-20472145D02*
X7685449Y-20615002D01*
X7685449Y-20615002D02*
X7809259Y-20615002D01*
X8037830Y-20681669D02*
X8037830Y-20481669D01*
X8123545Y-20681669D02*
X8123545Y-20576907D01*
X8123545Y-20576907D02*
X8114021Y-20557859D01*
X8114021Y-20557859D02*
X8094973Y-20548336D01*
X8094973Y-20548336D02*
X8066402Y-20548336D01*
X8066402Y-20548336D02*
X8047354Y-20557859D01*
X8047354Y-20557859D02*
X8037830Y-20567383D01*
X8247354Y-20681669D02*
X8228307Y-20672145D01*
X8228307Y-20672145D02*
X8218783Y-20662621D01*
X8218783Y-20662621D02*
X8209259Y-20643574D01*
X8209259Y-20643574D02*
X8209259Y-20586431D01*
X8209259Y-20586431D02*
X8218783Y-20567383D01*
X8218783Y-20567383D02*
X8228307Y-20557859D01*
X8228307Y-20557859D02*
X8247354Y-20548336D01*
X8247354Y-20548336D02*
X8275926Y-20548336D01*
X8275926Y-20548336D02*
X8294973Y-20557859D01*
X8294973Y-20557859D02*
X8304497Y-20567383D01*
X8304497Y-20567383D02*
X8314021Y-20586431D01*
X8314021Y-20586431D02*
X8314021Y-20643574D01*
X8314021Y-20643574D02*
X8304497Y-20662621D01*
X8304497Y-20662621D02*
X8294973Y-20672145D01*
X8294973Y-20672145D02*
X8275926Y-20681669D01*
X8275926Y-20681669D02*
X8247354Y-20681669D01*
X8428307Y-20681669D02*
X8409259Y-20672145D01*
X8409259Y-20672145D02*
X8399735Y-20653097D01*
X8399735Y-20653097D02*
X8399735Y-20481669D01*
X8580688Y-20672145D02*
X8561640Y-20681669D01*
X8561640Y-20681669D02*
X8523545Y-20681669D01*
X8523545Y-20681669D02*
X8504497Y-20672145D01*
X8504497Y-20672145D02*
X8494973Y-20653097D01*
X8494973Y-20653097D02*
X8494973Y-20576907D01*
X8494973Y-20576907D02*
X8504497Y-20557859D01*
X8504497Y-20557859D02*
X8523545Y-20548336D01*
X8523545Y-20548336D02*
X8561640Y-20548336D01*
X8561640Y-20548336D02*
X8580688Y-20557859D01*
X8580688Y-20557859D02*
X8590212Y-20576907D01*
X8590212Y-20576907D02*
X8590212Y-20595955D01*
X8590212Y-20595955D02*
X8494973Y-20615002D01*
X8666402Y-20672145D02*
X8685450Y-20681669D01*
X8685450Y-20681669D02*
X8723545Y-20681669D01*
X8723545Y-20681669D02*
X8742593Y-20672145D01*
X8742593Y-20672145D02*
X8752116Y-20653097D01*
X8752116Y-20653097D02*
X8752116Y-20643574D01*
X8752116Y-20643574D02*
X8742593Y-20624526D01*
X8742593Y-20624526D02*
X8723545Y-20615002D01*
X8723545Y-20615002D02*
X8694973Y-20615002D01*
X8694973Y-20615002D02*
X8675926Y-20605478D01*
X8675926Y-20605478D02*
X8666402Y-20586431D01*
X8666402Y-20586431D02*
X8666402Y-20576907D01*
X8666402Y-20576907D02*
X8675926Y-20557859D01*
X8675926Y-20557859D02*
X8694973Y-20548336D01*
X8694973Y-20548336D02*
X8723545Y-20548336D01*
X8723545Y-20548336D02*
X8742593Y-20557859D01*
X8818783Y-20757859D02*
X8828307Y-20748336D01*
X8828307Y-20748336D02*
X8847354Y-20719764D01*
X8847354Y-20719764D02*
X8856878Y-20700717D01*
X8856878Y-20700717D02*
X8866402Y-20672145D01*
X8866402Y-20672145D02*
X8875926Y-20624526D01*
X8875926Y-20624526D02*
X8875926Y-20586431D01*
X8875926Y-20586431D02*
X8866402Y-20538812D01*
X8866402Y-20538812D02*
X8856878Y-20510240D01*
X8856878Y-20510240D02*
X8847354Y-20491193D01*
X8847354Y-20491193D02*
X8828307Y-20462621D01*
X8828307Y-20462621D02*
X8818783Y-20453097D01*
D16*
X3942120Y-20803385D02*
X4043720Y-20904985D01*
X4043720Y-20803385D02*
X3942120Y-20904985D01*
X4043720Y-20854185D02*
G75*
G03*
X4043720Y-20854185I-50800J0D01*
G01*
D11*
X4409259Y-20945669D02*
X4294973Y-20945669D01*
X4352116Y-20945669D02*
X4352116Y-20745669D01*
X4352116Y-20745669D02*
X4333068Y-20774240D01*
X4333068Y-20774240D02*
X4314021Y-20793288D01*
X4314021Y-20793288D02*
X4294973Y-20802812D01*
X4494973Y-20926621D02*
X4504497Y-20936145D01*
X4504497Y-20936145D02*
X4494973Y-20945669D01*
X4494973Y-20945669D02*
X4485449Y-20936145D01*
X4485449Y-20936145D02*
X4494973Y-20926621D01*
X4494973Y-20926621D02*
X4494973Y-20945669D01*
X4628306Y-20745669D02*
X4647354Y-20745669D01*
X4647354Y-20745669D02*
X4666402Y-20755193D01*
X4666402Y-20755193D02*
X4675925Y-20764717D01*
X4675925Y-20764717D02*
X4685449Y-20783764D01*
X4685449Y-20783764D02*
X4694973Y-20821859D01*
X4694973Y-20821859D02*
X4694973Y-20869478D01*
X4694973Y-20869478D02*
X4685449Y-20907574D01*
X4685449Y-20907574D02*
X4675925Y-20926621D01*
X4675925Y-20926621D02*
X4666402Y-20936145D01*
X4666402Y-20936145D02*
X4647354Y-20945669D01*
X4647354Y-20945669D02*
X4628306Y-20945669D01*
X4628306Y-20945669D02*
X4609259Y-20936145D01*
X4609259Y-20936145D02*
X4599735Y-20926621D01*
X4599735Y-20926621D02*
X4590211Y-20907574D01*
X4590211Y-20907574D02*
X4580687Y-20869478D01*
X4580687Y-20869478D02*
X4580687Y-20821859D01*
X4580687Y-20821859D02*
X4590211Y-20783764D01*
X4590211Y-20783764D02*
X4599735Y-20764717D01*
X4599735Y-20764717D02*
X4609259Y-20755193D01*
X4609259Y-20755193D02*
X4628306Y-20745669D01*
X4885449Y-20945669D02*
X4771164Y-20945669D01*
X4828306Y-20945669D02*
X4828306Y-20745669D01*
X4828306Y-20745669D02*
X4809259Y-20774240D01*
X4809259Y-20774240D02*
X4790211Y-20793288D01*
X4790211Y-20793288D02*
X4771164Y-20802812D01*
X5056878Y-20745669D02*
X5018783Y-20745669D01*
X5018783Y-20745669D02*
X4999735Y-20755193D01*
X4999735Y-20755193D02*
X4990211Y-20764717D01*
X4990211Y-20764717D02*
X4971164Y-20793288D01*
X4971164Y-20793288D02*
X4961640Y-20831383D01*
X4961640Y-20831383D02*
X4961640Y-20907574D01*
X4961640Y-20907574D02*
X4971164Y-20926621D01*
X4971164Y-20926621D02*
X4980687Y-20936145D01*
X4980687Y-20936145D02*
X4999735Y-20945669D01*
X4999735Y-20945669D02*
X5037830Y-20945669D01*
X5037830Y-20945669D02*
X5056878Y-20936145D01*
X5056878Y-20936145D02*
X5066402Y-20926621D01*
X5066402Y-20926621D02*
X5075925Y-20907574D01*
X5075925Y-20907574D02*
X5075925Y-20859955D01*
X5075925Y-20859955D02*
X5066402Y-20840907D01*
X5066402Y-20840907D02*
X5056878Y-20831383D01*
X5056878Y-20831383D02*
X5037830Y-20821859D01*
X5037830Y-20821859D02*
X4999735Y-20821859D01*
X4999735Y-20821859D02*
X4980687Y-20831383D01*
X4980687Y-20831383D02*
X4971164Y-20840907D01*
X4971164Y-20840907D02*
X4961640Y-20859955D01*
X5161640Y-20945669D02*
X5161640Y-20812336D01*
X5161640Y-20831383D02*
X5171164Y-20821859D01*
X5171164Y-20821859D02*
X5190211Y-20812336D01*
X5190211Y-20812336D02*
X5218783Y-20812336D01*
X5218783Y-20812336D02*
X5237830Y-20821859D01*
X5237830Y-20821859D02*
X5247354Y-20840907D01*
X5247354Y-20840907D02*
X5247354Y-20945669D01*
X5247354Y-20840907D02*
X5256878Y-20821859D01*
X5256878Y-20821859D02*
X5275925Y-20812336D01*
X5275925Y-20812336D02*
X5304497Y-20812336D01*
X5304497Y-20812336D02*
X5323545Y-20821859D01*
X5323545Y-20821859D02*
X5333068Y-20840907D01*
X5333068Y-20840907D02*
X5333068Y-20945669D01*
X5428306Y-20945669D02*
X5428306Y-20812336D01*
X5428306Y-20831383D02*
X5437830Y-20821859D01*
X5437830Y-20821859D02*
X5456878Y-20812336D01*
X5456878Y-20812336D02*
X5485449Y-20812336D01*
X5485449Y-20812336D02*
X5504497Y-20821859D01*
X5504497Y-20821859D02*
X5514021Y-20840907D01*
X5514021Y-20840907D02*
X5514021Y-20945669D01*
X5514021Y-20840907D02*
X5523545Y-20821859D01*
X5523545Y-20821859D02*
X5542592Y-20812336D01*
X5542592Y-20812336D02*
X5571164Y-20812336D01*
X5571164Y-20812336D02*
X5590211Y-20821859D01*
X5590211Y-20821859D02*
X5599735Y-20840907D01*
X5599735Y-20840907D02*
X5599735Y-20945669D01*
X5990211Y-20736145D02*
X5818783Y-20993288D01*
X6247354Y-20745669D02*
X6266402Y-20745669D01*
X6266402Y-20745669D02*
X6285449Y-20755193D01*
X6285449Y-20755193D02*
X6294973Y-20764717D01*
X6294973Y-20764717D02*
X6304497Y-20783764D01*
X6304497Y-20783764D02*
X6314021Y-20821859D01*
X6314021Y-20821859D02*
X6314021Y-20869478D01*
X6314021Y-20869478D02*
X6304497Y-20907574D01*
X6304497Y-20907574D02*
X6294973Y-20926621D01*
X6294973Y-20926621D02*
X6285449Y-20936145D01*
X6285449Y-20936145D02*
X6266402Y-20945669D01*
X6266402Y-20945669D02*
X6247354Y-20945669D01*
X6247354Y-20945669D02*
X6228306Y-20936145D01*
X6228306Y-20936145D02*
X6218783Y-20926621D01*
X6218783Y-20926621D02*
X6209259Y-20907574D01*
X6209259Y-20907574D02*
X6199735Y-20869478D01*
X6199735Y-20869478D02*
X6199735Y-20821859D01*
X6199735Y-20821859D02*
X6209259Y-20783764D01*
X6209259Y-20783764D02*
X6218783Y-20764717D01*
X6218783Y-20764717D02*
X6228306Y-20755193D01*
X6228306Y-20755193D02*
X6247354Y-20745669D01*
X6399735Y-20926621D02*
X6409259Y-20936145D01*
X6409259Y-20936145D02*
X6399735Y-20945669D01*
X6399735Y-20945669D02*
X6390211Y-20936145D01*
X6390211Y-20936145D02*
X6399735Y-20926621D01*
X6399735Y-20926621D02*
X6399735Y-20945669D01*
X6533068Y-20745669D02*
X6552116Y-20745669D01*
X6552116Y-20745669D02*
X6571164Y-20755193D01*
X6571164Y-20755193D02*
X6580687Y-20764717D01*
X6580687Y-20764717D02*
X6590211Y-20783764D01*
X6590211Y-20783764D02*
X6599735Y-20821859D01*
X6599735Y-20821859D02*
X6599735Y-20869478D01*
X6599735Y-20869478D02*
X6590211Y-20907574D01*
X6590211Y-20907574D02*
X6580687Y-20926621D01*
X6580687Y-20926621D02*
X6571164Y-20936145D01*
X6571164Y-20936145D02*
X6552116Y-20945669D01*
X6552116Y-20945669D02*
X6533068Y-20945669D01*
X6533068Y-20945669D02*
X6514021Y-20936145D01*
X6514021Y-20936145D02*
X6504497Y-20926621D01*
X6504497Y-20926621D02*
X6494973Y-20907574D01*
X6494973Y-20907574D02*
X6485449Y-20869478D01*
X6485449Y-20869478D02*
X6485449Y-20821859D01*
X6485449Y-20821859D02*
X6494973Y-20783764D01*
X6494973Y-20783764D02*
X6504497Y-20764717D01*
X6504497Y-20764717D02*
X6514021Y-20755193D01*
X6514021Y-20755193D02*
X6533068Y-20745669D01*
X6771164Y-20812336D02*
X6771164Y-20945669D01*
X6723545Y-20736145D02*
X6675926Y-20879002D01*
X6675926Y-20879002D02*
X6799735Y-20879002D01*
X6914021Y-20745669D02*
X6933068Y-20745669D01*
X6933068Y-20745669D02*
X6952116Y-20755193D01*
X6952116Y-20755193D02*
X6961640Y-20764717D01*
X6961640Y-20764717D02*
X6971164Y-20783764D01*
X6971164Y-20783764D02*
X6980687Y-20821859D01*
X6980687Y-20821859D02*
X6980687Y-20869478D01*
X6980687Y-20869478D02*
X6971164Y-20907574D01*
X6971164Y-20907574D02*
X6961640Y-20926621D01*
X6961640Y-20926621D02*
X6952116Y-20936145D01*
X6952116Y-20936145D02*
X6933068Y-20945669D01*
X6933068Y-20945669D02*
X6914021Y-20945669D01*
X6914021Y-20945669D02*
X6894973Y-20936145D01*
X6894973Y-20936145D02*
X6885449Y-20926621D01*
X6885449Y-20926621D02*
X6875926Y-20907574D01*
X6875926Y-20907574D02*
X6866402Y-20869478D01*
X6866402Y-20869478D02*
X6866402Y-20821859D01*
X6866402Y-20821859D02*
X6875926Y-20783764D01*
X6875926Y-20783764D02*
X6885449Y-20764717D01*
X6885449Y-20764717D02*
X6894973Y-20755193D01*
X6894973Y-20755193D02*
X6914021Y-20745669D01*
X7104497Y-20745669D02*
X7123545Y-20745669D01*
X7123545Y-20745669D02*
X7142592Y-20755193D01*
X7142592Y-20755193D02*
X7152116Y-20764717D01*
X7152116Y-20764717D02*
X7161640Y-20783764D01*
X7161640Y-20783764D02*
X7171164Y-20821859D01*
X7171164Y-20821859D02*
X7171164Y-20869478D01*
X7171164Y-20869478D02*
X7161640Y-20907574D01*
X7161640Y-20907574D02*
X7152116Y-20926621D01*
X7152116Y-20926621D02*
X7142592Y-20936145D01*
X7142592Y-20936145D02*
X7123545Y-20945669D01*
X7123545Y-20945669D02*
X7104497Y-20945669D01*
X7104497Y-20945669D02*
X7085449Y-20936145D01*
X7085449Y-20936145D02*
X7075926Y-20926621D01*
X7075926Y-20926621D02*
X7066402Y-20907574D01*
X7066402Y-20907574D02*
X7056878Y-20869478D01*
X7056878Y-20869478D02*
X7056878Y-20821859D01*
X7056878Y-20821859D02*
X7066402Y-20783764D01*
X7066402Y-20783764D02*
X7075926Y-20764717D01*
X7075926Y-20764717D02*
X7085449Y-20755193D01*
X7085449Y-20755193D02*
X7104497Y-20745669D01*
X7247354Y-20745669D02*
X7247354Y-20783764D01*
X7323545Y-20745669D02*
X7323545Y-20783764D01*
X7618783Y-21021859D02*
X7609259Y-21012336D01*
X7609259Y-21012336D02*
X7590211Y-20983764D01*
X7590211Y-20983764D02*
X7580688Y-20964717D01*
X7580688Y-20964717D02*
X7571164Y-20936145D01*
X7571164Y-20936145D02*
X7561640Y-20888526D01*
X7561640Y-20888526D02*
X7561640Y-20850431D01*
X7561640Y-20850431D02*
X7571164Y-20802812D01*
X7571164Y-20802812D02*
X7580688Y-20774240D01*
X7580688Y-20774240D02*
X7590211Y-20755193D01*
X7590211Y-20755193D02*
X7609259Y-20726621D01*
X7609259Y-20726621D02*
X7618783Y-20717097D01*
X7799735Y-20945669D02*
X7685449Y-20945669D01*
X7742592Y-20945669D02*
X7742592Y-20745669D01*
X7742592Y-20745669D02*
X7723545Y-20774240D01*
X7723545Y-20774240D02*
X7704497Y-20793288D01*
X7704497Y-20793288D02*
X7685449Y-20802812D01*
X7866402Y-20745669D02*
X7999735Y-20745669D01*
X7999735Y-20745669D02*
X7914021Y-20945669D01*
X8228307Y-20945669D02*
X8228307Y-20745669D01*
X8314021Y-20945669D02*
X8314021Y-20840907D01*
X8314021Y-20840907D02*
X8304497Y-20821859D01*
X8304497Y-20821859D02*
X8285450Y-20812336D01*
X8285450Y-20812336D02*
X8256878Y-20812336D01*
X8256878Y-20812336D02*
X8237830Y-20821859D01*
X8237830Y-20821859D02*
X8228307Y-20831383D01*
X8437831Y-20945669D02*
X8418783Y-20936145D01*
X8418783Y-20936145D02*
X8409259Y-20926621D01*
X8409259Y-20926621D02*
X8399735Y-20907574D01*
X8399735Y-20907574D02*
X8399735Y-20850431D01*
X8399735Y-20850431D02*
X8409259Y-20831383D01*
X8409259Y-20831383D02*
X8418783Y-20821859D01*
X8418783Y-20821859D02*
X8437831Y-20812336D01*
X8437831Y-20812336D02*
X8466402Y-20812336D01*
X8466402Y-20812336D02*
X8485450Y-20821859D01*
X8485450Y-20821859D02*
X8494973Y-20831383D01*
X8494973Y-20831383D02*
X8504497Y-20850431D01*
X8504497Y-20850431D02*
X8504497Y-20907574D01*
X8504497Y-20907574D02*
X8494973Y-20926621D01*
X8494973Y-20926621D02*
X8485450Y-20936145D01*
X8485450Y-20936145D02*
X8466402Y-20945669D01*
X8466402Y-20945669D02*
X8437831Y-20945669D01*
X8618783Y-20945669D02*
X8599735Y-20936145D01*
X8599735Y-20936145D02*
X8590212Y-20917097D01*
X8590212Y-20917097D02*
X8590212Y-20745669D01*
X8771164Y-20936145D02*
X8752116Y-20945669D01*
X8752116Y-20945669D02*
X8714021Y-20945669D01*
X8714021Y-20945669D02*
X8694973Y-20936145D01*
X8694973Y-20936145D02*
X8685450Y-20917097D01*
X8685450Y-20917097D02*
X8685450Y-20840907D01*
X8685450Y-20840907D02*
X8694973Y-20821859D01*
X8694973Y-20821859D02*
X8714021Y-20812336D01*
X8714021Y-20812336D02*
X8752116Y-20812336D01*
X8752116Y-20812336D02*
X8771164Y-20821859D01*
X8771164Y-20821859D02*
X8780688Y-20840907D01*
X8780688Y-20840907D02*
X8780688Y-20859955D01*
X8780688Y-20859955D02*
X8685450Y-20879002D01*
X8856878Y-20936145D02*
X8875926Y-20945669D01*
X8875926Y-20945669D02*
X8914021Y-20945669D01*
X8914021Y-20945669D02*
X8933069Y-20936145D01*
X8933069Y-20936145D02*
X8942593Y-20917097D01*
X8942593Y-20917097D02*
X8942593Y-20907574D01*
X8942593Y-20907574D02*
X8933069Y-20888526D01*
X8933069Y-20888526D02*
X8914021Y-20879002D01*
X8914021Y-20879002D02*
X8885450Y-20879002D01*
X8885450Y-20879002D02*
X8866402Y-20869478D01*
X8866402Y-20869478D02*
X8856878Y-20850431D01*
X8856878Y-20850431D02*
X8856878Y-20840907D01*
X8856878Y-20840907D02*
X8866402Y-20821859D01*
X8866402Y-20821859D02*
X8885450Y-20812336D01*
X8885450Y-20812336D02*
X8914021Y-20812336D01*
X8914021Y-20812336D02*
X8933069Y-20821859D01*
X9009259Y-21021859D02*
X9018783Y-21012336D01*
X9018783Y-21012336D02*
X9037831Y-20983764D01*
X9037831Y-20983764D02*
X9047354Y-20964717D01*
X9047354Y-20964717D02*
X9056878Y-20936145D01*
X9056878Y-20936145D02*
X9066402Y-20888526D01*
X9066402Y-20888526D02*
X9066402Y-20850431D01*
X9066402Y-20850431D02*
X9056878Y-20802812D01*
X9056878Y-20802812D02*
X9047354Y-20774240D01*
X9047354Y-20774240D02*
X9037831Y-20755193D01*
X9037831Y-20755193D02*
X9018783Y-20726621D01*
X9018783Y-20726621D02*
X9009259Y-20717097D01*
D17*
X3933720Y-21063185D02*
X4043720Y-21173185D01*
X4043720Y-21063185D02*
X3933720Y-21173185D01*
X3988720Y-21063185D02*
X3988720Y-21173185D01*
X3933720Y-21118185D02*
X4043720Y-21118185D01*
D11*
X4409259Y-21209669D02*
X4294973Y-21209669D01*
X4352116Y-21209669D02*
X4352116Y-21009669D01*
X4352116Y-21009669D02*
X4333068Y-21038240D01*
X4333068Y-21038240D02*
X4314021Y-21057288D01*
X4314021Y-21057288D02*
X4294973Y-21066812D01*
X4494973Y-21190621D02*
X4504497Y-21200145D01*
X4504497Y-21200145D02*
X4494973Y-21209669D01*
X4494973Y-21209669D02*
X4485449Y-21200145D01*
X4485449Y-21200145D02*
X4494973Y-21190621D01*
X4494973Y-21190621D02*
X4494973Y-21209669D01*
X4694973Y-21209669D02*
X4580687Y-21209669D01*
X4637830Y-21209669D02*
X4637830Y-21009669D01*
X4637830Y-21009669D02*
X4618783Y-21038240D01*
X4618783Y-21038240D02*
X4599735Y-21057288D01*
X4599735Y-21057288D02*
X4580687Y-21066812D01*
X4818783Y-21009669D02*
X4837830Y-21009669D01*
X4837830Y-21009669D02*
X4856878Y-21019193D01*
X4856878Y-21019193D02*
X4866402Y-21028717D01*
X4866402Y-21028717D02*
X4875925Y-21047764D01*
X4875925Y-21047764D02*
X4885449Y-21085859D01*
X4885449Y-21085859D02*
X4885449Y-21133478D01*
X4885449Y-21133478D02*
X4875925Y-21171574D01*
X4875925Y-21171574D02*
X4866402Y-21190621D01*
X4866402Y-21190621D02*
X4856878Y-21200145D01*
X4856878Y-21200145D02*
X4837830Y-21209669D01*
X4837830Y-21209669D02*
X4818783Y-21209669D01*
X4818783Y-21209669D02*
X4799735Y-21200145D01*
X4799735Y-21200145D02*
X4790211Y-21190621D01*
X4790211Y-21190621D02*
X4780687Y-21171574D01*
X4780687Y-21171574D02*
X4771164Y-21133478D01*
X4771164Y-21133478D02*
X4771164Y-21085859D01*
X4771164Y-21085859D02*
X4780687Y-21047764D01*
X4780687Y-21047764D02*
X4790211Y-21028717D01*
X4790211Y-21028717D02*
X4799735Y-21019193D01*
X4799735Y-21019193D02*
X4818783Y-21009669D01*
X5009259Y-21009669D02*
X5028306Y-21009669D01*
X5028306Y-21009669D02*
X5047354Y-21019193D01*
X5047354Y-21019193D02*
X5056878Y-21028717D01*
X5056878Y-21028717D02*
X5066402Y-21047764D01*
X5066402Y-21047764D02*
X5075925Y-21085859D01*
X5075925Y-21085859D02*
X5075925Y-21133478D01*
X5075925Y-21133478D02*
X5066402Y-21171574D01*
X5066402Y-21171574D02*
X5056878Y-21190621D01*
X5056878Y-21190621D02*
X5047354Y-21200145D01*
X5047354Y-21200145D02*
X5028306Y-21209669D01*
X5028306Y-21209669D02*
X5009259Y-21209669D01*
X5009259Y-21209669D02*
X4990211Y-21200145D01*
X4990211Y-21200145D02*
X4980687Y-21190621D01*
X4980687Y-21190621D02*
X4971164Y-21171574D01*
X4971164Y-21171574D02*
X4961640Y-21133478D01*
X4961640Y-21133478D02*
X4961640Y-21085859D01*
X4961640Y-21085859D02*
X4971164Y-21047764D01*
X4971164Y-21047764D02*
X4980687Y-21028717D01*
X4980687Y-21028717D02*
X4990211Y-21019193D01*
X4990211Y-21019193D02*
X5009259Y-21009669D01*
X5161640Y-21209669D02*
X5161640Y-21076336D01*
X5161640Y-21095383D02*
X5171164Y-21085859D01*
X5171164Y-21085859D02*
X5190211Y-21076336D01*
X5190211Y-21076336D02*
X5218783Y-21076336D01*
X5218783Y-21076336D02*
X5237830Y-21085859D01*
X5237830Y-21085859D02*
X5247354Y-21104907D01*
X5247354Y-21104907D02*
X5247354Y-21209669D01*
X5247354Y-21104907D02*
X5256878Y-21085859D01*
X5256878Y-21085859D02*
X5275925Y-21076336D01*
X5275925Y-21076336D02*
X5304497Y-21076336D01*
X5304497Y-21076336D02*
X5323545Y-21085859D01*
X5323545Y-21085859D02*
X5333068Y-21104907D01*
X5333068Y-21104907D02*
X5333068Y-21209669D01*
X5428306Y-21209669D02*
X5428306Y-21076336D01*
X5428306Y-21095383D02*
X5437830Y-21085859D01*
X5437830Y-21085859D02*
X5456878Y-21076336D01*
X5456878Y-21076336D02*
X5485449Y-21076336D01*
X5485449Y-21076336D02*
X5504497Y-21085859D01*
X5504497Y-21085859D02*
X5514021Y-21104907D01*
X5514021Y-21104907D02*
X5514021Y-21209669D01*
X5514021Y-21104907D02*
X5523545Y-21085859D01*
X5523545Y-21085859D02*
X5542592Y-21076336D01*
X5542592Y-21076336D02*
X5571164Y-21076336D01*
X5571164Y-21076336D02*
X5590211Y-21085859D01*
X5590211Y-21085859D02*
X5599735Y-21104907D01*
X5599735Y-21104907D02*
X5599735Y-21209669D01*
X5990211Y-21000145D02*
X5818783Y-21257288D01*
X6247354Y-21009669D02*
X6266402Y-21009669D01*
X6266402Y-21009669D02*
X6285449Y-21019193D01*
X6285449Y-21019193D02*
X6294973Y-21028717D01*
X6294973Y-21028717D02*
X6304497Y-21047764D01*
X6304497Y-21047764D02*
X6314021Y-21085859D01*
X6314021Y-21085859D02*
X6314021Y-21133478D01*
X6314021Y-21133478D02*
X6304497Y-21171574D01*
X6304497Y-21171574D02*
X6294973Y-21190621D01*
X6294973Y-21190621D02*
X6285449Y-21200145D01*
X6285449Y-21200145D02*
X6266402Y-21209669D01*
X6266402Y-21209669D02*
X6247354Y-21209669D01*
X6247354Y-21209669D02*
X6228306Y-21200145D01*
X6228306Y-21200145D02*
X6218783Y-21190621D01*
X6218783Y-21190621D02*
X6209259Y-21171574D01*
X6209259Y-21171574D02*
X6199735Y-21133478D01*
X6199735Y-21133478D02*
X6199735Y-21085859D01*
X6199735Y-21085859D02*
X6209259Y-21047764D01*
X6209259Y-21047764D02*
X6218783Y-21028717D01*
X6218783Y-21028717D02*
X6228306Y-21019193D01*
X6228306Y-21019193D02*
X6247354Y-21009669D01*
X6399735Y-21190621D02*
X6409259Y-21200145D01*
X6409259Y-21200145D02*
X6399735Y-21209669D01*
X6399735Y-21209669D02*
X6390211Y-21200145D01*
X6390211Y-21200145D02*
X6399735Y-21190621D01*
X6399735Y-21190621D02*
X6399735Y-21209669D01*
X6533068Y-21009669D02*
X6552116Y-21009669D01*
X6552116Y-21009669D02*
X6571164Y-21019193D01*
X6571164Y-21019193D02*
X6580687Y-21028717D01*
X6580687Y-21028717D02*
X6590211Y-21047764D01*
X6590211Y-21047764D02*
X6599735Y-21085859D01*
X6599735Y-21085859D02*
X6599735Y-21133478D01*
X6599735Y-21133478D02*
X6590211Y-21171574D01*
X6590211Y-21171574D02*
X6580687Y-21190621D01*
X6580687Y-21190621D02*
X6571164Y-21200145D01*
X6571164Y-21200145D02*
X6552116Y-21209669D01*
X6552116Y-21209669D02*
X6533068Y-21209669D01*
X6533068Y-21209669D02*
X6514021Y-21200145D01*
X6514021Y-21200145D02*
X6504497Y-21190621D01*
X6504497Y-21190621D02*
X6494973Y-21171574D01*
X6494973Y-21171574D02*
X6485449Y-21133478D01*
X6485449Y-21133478D02*
X6485449Y-21085859D01*
X6485449Y-21085859D02*
X6494973Y-21047764D01*
X6494973Y-21047764D02*
X6504497Y-21028717D01*
X6504497Y-21028717D02*
X6514021Y-21019193D01*
X6514021Y-21019193D02*
X6533068Y-21009669D01*
X6771164Y-21076336D02*
X6771164Y-21209669D01*
X6723545Y-21000145D02*
X6675926Y-21143002D01*
X6675926Y-21143002D02*
X6799735Y-21143002D01*
X6856878Y-21009669D02*
X6980687Y-21009669D01*
X6980687Y-21009669D02*
X6914021Y-21085859D01*
X6914021Y-21085859D02*
X6942592Y-21085859D01*
X6942592Y-21085859D02*
X6961640Y-21095383D01*
X6961640Y-21095383D02*
X6971164Y-21104907D01*
X6971164Y-21104907D02*
X6980687Y-21123955D01*
X6980687Y-21123955D02*
X6980687Y-21171574D01*
X6980687Y-21171574D02*
X6971164Y-21190621D01*
X6971164Y-21190621D02*
X6961640Y-21200145D01*
X6961640Y-21200145D02*
X6942592Y-21209669D01*
X6942592Y-21209669D02*
X6885449Y-21209669D01*
X6885449Y-21209669D02*
X6866402Y-21200145D01*
X6866402Y-21200145D02*
X6856878Y-21190621D01*
X7047354Y-21009669D02*
X7171164Y-21009669D01*
X7171164Y-21009669D02*
X7104497Y-21085859D01*
X7104497Y-21085859D02*
X7133068Y-21085859D01*
X7133068Y-21085859D02*
X7152116Y-21095383D01*
X7152116Y-21095383D02*
X7161640Y-21104907D01*
X7161640Y-21104907D02*
X7171164Y-21123955D01*
X7171164Y-21123955D02*
X7171164Y-21171574D01*
X7171164Y-21171574D02*
X7161640Y-21190621D01*
X7161640Y-21190621D02*
X7152116Y-21200145D01*
X7152116Y-21200145D02*
X7133068Y-21209669D01*
X7133068Y-21209669D02*
X7075926Y-21209669D01*
X7075926Y-21209669D02*
X7056878Y-21200145D01*
X7056878Y-21200145D02*
X7047354Y-21190621D01*
X7247354Y-21009669D02*
X7247354Y-21047764D01*
X7323545Y-21009669D02*
X7323545Y-21047764D01*
X7618783Y-21285859D02*
X7609259Y-21276336D01*
X7609259Y-21276336D02*
X7590211Y-21247764D01*
X7590211Y-21247764D02*
X7580688Y-21228717D01*
X7580688Y-21228717D02*
X7571164Y-21200145D01*
X7571164Y-21200145D02*
X7561640Y-21152526D01*
X7561640Y-21152526D02*
X7561640Y-21114431D01*
X7561640Y-21114431D02*
X7571164Y-21066812D01*
X7571164Y-21066812D02*
X7580688Y-21038240D01*
X7580688Y-21038240D02*
X7590211Y-21019193D01*
X7590211Y-21019193D02*
X7609259Y-20990621D01*
X7609259Y-20990621D02*
X7618783Y-20981097D01*
X7780688Y-21076336D02*
X7780688Y-21209669D01*
X7733068Y-21000145D02*
X7685449Y-21143002D01*
X7685449Y-21143002D02*
X7809259Y-21143002D01*
X8037830Y-21209669D02*
X8037830Y-21009669D01*
X8123545Y-21209669D02*
X8123545Y-21104907D01*
X8123545Y-21104907D02*
X8114021Y-21085859D01*
X8114021Y-21085859D02*
X8094973Y-21076336D01*
X8094973Y-21076336D02*
X8066402Y-21076336D01*
X8066402Y-21076336D02*
X8047354Y-21085859D01*
X8047354Y-21085859D02*
X8037830Y-21095383D01*
X8247354Y-21209669D02*
X8228307Y-21200145D01*
X8228307Y-21200145D02*
X8218783Y-21190621D01*
X8218783Y-21190621D02*
X8209259Y-21171574D01*
X8209259Y-21171574D02*
X8209259Y-21114431D01*
X8209259Y-21114431D02*
X8218783Y-21095383D01*
X8218783Y-21095383D02*
X8228307Y-21085859D01*
X8228307Y-21085859D02*
X8247354Y-21076336D01*
X8247354Y-21076336D02*
X8275926Y-21076336D01*
X8275926Y-21076336D02*
X8294973Y-21085859D01*
X8294973Y-21085859D02*
X8304497Y-21095383D01*
X8304497Y-21095383D02*
X8314021Y-21114431D01*
X8314021Y-21114431D02*
X8314021Y-21171574D01*
X8314021Y-21171574D02*
X8304497Y-21190621D01*
X8304497Y-21190621D02*
X8294973Y-21200145D01*
X8294973Y-21200145D02*
X8275926Y-21209669D01*
X8275926Y-21209669D02*
X8247354Y-21209669D01*
X8428307Y-21209669D02*
X8409259Y-21200145D01*
X8409259Y-21200145D02*
X8399735Y-21181097D01*
X8399735Y-21181097D02*
X8399735Y-21009669D01*
X8580688Y-21200145D02*
X8561640Y-21209669D01*
X8561640Y-21209669D02*
X8523545Y-21209669D01*
X8523545Y-21209669D02*
X8504497Y-21200145D01*
X8504497Y-21200145D02*
X8494973Y-21181097D01*
X8494973Y-21181097D02*
X8494973Y-21104907D01*
X8494973Y-21104907D02*
X8504497Y-21085859D01*
X8504497Y-21085859D02*
X8523545Y-21076336D01*
X8523545Y-21076336D02*
X8561640Y-21076336D01*
X8561640Y-21076336D02*
X8580688Y-21085859D01*
X8580688Y-21085859D02*
X8590212Y-21104907D01*
X8590212Y-21104907D02*
X8590212Y-21123955D01*
X8590212Y-21123955D02*
X8494973Y-21143002D01*
X8666402Y-21200145D02*
X8685450Y-21209669D01*
X8685450Y-21209669D02*
X8723545Y-21209669D01*
X8723545Y-21209669D02*
X8742593Y-21200145D01*
X8742593Y-21200145D02*
X8752116Y-21181097D01*
X8752116Y-21181097D02*
X8752116Y-21171574D01*
X8752116Y-21171574D02*
X8742593Y-21152526D01*
X8742593Y-21152526D02*
X8723545Y-21143002D01*
X8723545Y-21143002D02*
X8694973Y-21143002D01*
X8694973Y-21143002D02*
X8675926Y-21133478D01*
X8675926Y-21133478D02*
X8666402Y-21114431D01*
X8666402Y-21114431D02*
X8666402Y-21104907D01*
X8666402Y-21104907D02*
X8675926Y-21085859D01*
X8675926Y-21085859D02*
X8694973Y-21076336D01*
X8694973Y-21076336D02*
X8723545Y-21076336D01*
X8723545Y-21076336D02*
X8742593Y-21085859D01*
X8818783Y-21285859D02*
X8828307Y-21276336D01*
X8828307Y-21276336D02*
X8847354Y-21247764D01*
X8847354Y-21247764D02*
X8856878Y-21228717D01*
X8856878Y-21228717D02*
X8866402Y-21200145D01*
X8866402Y-21200145D02*
X8875926Y-21152526D01*
X8875926Y-21152526D02*
X8875926Y-21114431D01*
X8875926Y-21114431D02*
X8866402Y-21066812D01*
X8866402Y-21066812D02*
X8856878Y-21038240D01*
X8856878Y-21038240D02*
X8847354Y-21019193D01*
X8847354Y-21019193D02*
X8828307Y-20990621D01*
X8828307Y-20990621D02*
X8818783Y-20981097D01*
D18*
X3911720Y-21316185D02*
X4043720Y-21448185D01*
X4043720Y-21316185D02*
X3911720Y-21448185D01*
X4024389Y-21428855D02*
X4024389Y-21335516D01*
X3931050Y-21335516D01*
X3931050Y-21428855D01*
X4024389Y-21428855D01*
D11*
X4409259Y-21473669D02*
X4294973Y-21473669D01*
X4352116Y-21473669D02*
X4352116Y-21273669D01*
X4352116Y-21273669D02*
X4333068Y-21302240D01*
X4333068Y-21302240D02*
X4314021Y-21321288D01*
X4314021Y-21321288D02*
X4294973Y-21330812D01*
X4494973Y-21454621D02*
X4504497Y-21464145D01*
X4504497Y-21464145D02*
X4494973Y-21473669D01*
X4494973Y-21473669D02*
X4485449Y-21464145D01*
X4485449Y-21464145D02*
X4494973Y-21454621D01*
X4494973Y-21454621D02*
X4494973Y-21473669D01*
X4571164Y-21273669D02*
X4694973Y-21273669D01*
X4694973Y-21273669D02*
X4628306Y-21349859D01*
X4628306Y-21349859D02*
X4656878Y-21349859D01*
X4656878Y-21349859D02*
X4675925Y-21359383D01*
X4675925Y-21359383D02*
X4685449Y-21368907D01*
X4685449Y-21368907D02*
X4694973Y-21387955D01*
X4694973Y-21387955D02*
X4694973Y-21435574D01*
X4694973Y-21435574D02*
X4685449Y-21454621D01*
X4685449Y-21454621D02*
X4675925Y-21464145D01*
X4675925Y-21464145D02*
X4656878Y-21473669D01*
X4656878Y-21473669D02*
X4599735Y-21473669D01*
X4599735Y-21473669D02*
X4580687Y-21464145D01*
X4580687Y-21464145D02*
X4571164Y-21454621D01*
X4771164Y-21292717D02*
X4780687Y-21283193D01*
X4780687Y-21283193D02*
X4799735Y-21273669D01*
X4799735Y-21273669D02*
X4847354Y-21273669D01*
X4847354Y-21273669D02*
X4866402Y-21283193D01*
X4866402Y-21283193D02*
X4875925Y-21292717D01*
X4875925Y-21292717D02*
X4885449Y-21311764D01*
X4885449Y-21311764D02*
X4885449Y-21330812D01*
X4885449Y-21330812D02*
X4875925Y-21359383D01*
X4875925Y-21359383D02*
X4761640Y-21473669D01*
X4761640Y-21473669D02*
X4885449Y-21473669D01*
X5009259Y-21273669D02*
X5028306Y-21273669D01*
X5028306Y-21273669D02*
X5047354Y-21283193D01*
X5047354Y-21283193D02*
X5056878Y-21292717D01*
X5056878Y-21292717D02*
X5066402Y-21311764D01*
X5066402Y-21311764D02*
X5075925Y-21349859D01*
X5075925Y-21349859D02*
X5075925Y-21397478D01*
X5075925Y-21397478D02*
X5066402Y-21435574D01*
X5066402Y-21435574D02*
X5056878Y-21454621D01*
X5056878Y-21454621D02*
X5047354Y-21464145D01*
X5047354Y-21464145D02*
X5028306Y-21473669D01*
X5028306Y-21473669D02*
X5009259Y-21473669D01*
X5009259Y-21473669D02*
X4990211Y-21464145D01*
X4990211Y-21464145D02*
X4980687Y-21454621D01*
X4980687Y-21454621D02*
X4971164Y-21435574D01*
X4971164Y-21435574D02*
X4961640Y-21397478D01*
X4961640Y-21397478D02*
X4961640Y-21349859D01*
X4961640Y-21349859D02*
X4971164Y-21311764D01*
X4971164Y-21311764D02*
X4980687Y-21292717D01*
X4980687Y-21292717D02*
X4990211Y-21283193D01*
X4990211Y-21283193D02*
X5009259Y-21273669D01*
X5161640Y-21473669D02*
X5161640Y-21340336D01*
X5161640Y-21359383D02*
X5171164Y-21349859D01*
X5171164Y-21349859D02*
X5190211Y-21340336D01*
X5190211Y-21340336D02*
X5218783Y-21340336D01*
X5218783Y-21340336D02*
X5237830Y-21349859D01*
X5237830Y-21349859D02*
X5247354Y-21368907D01*
X5247354Y-21368907D02*
X5247354Y-21473669D01*
X5247354Y-21368907D02*
X5256878Y-21349859D01*
X5256878Y-21349859D02*
X5275925Y-21340336D01*
X5275925Y-21340336D02*
X5304497Y-21340336D01*
X5304497Y-21340336D02*
X5323545Y-21349859D01*
X5323545Y-21349859D02*
X5333068Y-21368907D01*
X5333068Y-21368907D02*
X5333068Y-21473669D01*
X5428306Y-21473669D02*
X5428306Y-21340336D01*
X5428306Y-21359383D02*
X5437830Y-21349859D01*
X5437830Y-21349859D02*
X5456878Y-21340336D01*
X5456878Y-21340336D02*
X5485449Y-21340336D01*
X5485449Y-21340336D02*
X5504497Y-21349859D01*
X5504497Y-21349859D02*
X5514021Y-21368907D01*
X5514021Y-21368907D02*
X5514021Y-21473669D01*
X5514021Y-21368907D02*
X5523545Y-21349859D01*
X5523545Y-21349859D02*
X5542592Y-21340336D01*
X5542592Y-21340336D02*
X5571164Y-21340336D01*
X5571164Y-21340336D02*
X5590211Y-21349859D01*
X5590211Y-21349859D02*
X5599735Y-21368907D01*
X5599735Y-21368907D02*
X5599735Y-21473669D01*
X5990211Y-21264145D02*
X5818783Y-21521288D01*
X6247354Y-21273669D02*
X6266402Y-21273669D01*
X6266402Y-21273669D02*
X6285449Y-21283193D01*
X6285449Y-21283193D02*
X6294973Y-21292717D01*
X6294973Y-21292717D02*
X6304497Y-21311764D01*
X6304497Y-21311764D02*
X6314021Y-21349859D01*
X6314021Y-21349859D02*
X6314021Y-21397478D01*
X6314021Y-21397478D02*
X6304497Y-21435574D01*
X6304497Y-21435574D02*
X6294973Y-21454621D01*
X6294973Y-21454621D02*
X6285449Y-21464145D01*
X6285449Y-21464145D02*
X6266402Y-21473669D01*
X6266402Y-21473669D02*
X6247354Y-21473669D01*
X6247354Y-21473669D02*
X6228306Y-21464145D01*
X6228306Y-21464145D02*
X6218783Y-21454621D01*
X6218783Y-21454621D02*
X6209259Y-21435574D01*
X6209259Y-21435574D02*
X6199735Y-21397478D01*
X6199735Y-21397478D02*
X6199735Y-21349859D01*
X6199735Y-21349859D02*
X6209259Y-21311764D01*
X6209259Y-21311764D02*
X6218783Y-21292717D01*
X6218783Y-21292717D02*
X6228306Y-21283193D01*
X6228306Y-21283193D02*
X6247354Y-21273669D01*
X6399735Y-21454621D02*
X6409259Y-21464145D01*
X6409259Y-21464145D02*
X6399735Y-21473669D01*
X6399735Y-21473669D02*
X6390211Y-21464145D01*
X6390211Y-21464145D02*
X6399735Y-21454621D01*
X6399735Y-21454621D02*
X6399735Y-21473669D01*
X6533068Y-21273669D02*
X6552116Y-21273669D01*
X6552116Y-21273669D02*
X6571164Y-21283193D01*
X6571164Y-21283193D02*
X6580687Y-21292717D01*
X6580687Y-21292717D02*
X6590211Y-21311764D01*
X6590211Y-21311764D02*
X6599735Y-21349859D01*
X6599735Y-21349859D02*
X6599735Y-21397478D01*
X6599735Y-21397478D02*
X6590211Y-21435574D01*
X6590211Y-21435574D02*
X6580687Y-21454621D01*
X6580687Y-21454621D02*
X6571164Y-21464145D01*
X6571164Y-21464145D02*
X6552116Y-21473669D01*
X6552116Y-21473669D02*
X6533068Y-21473669D01*
X6533068Y-21473669D02*
X6514021Y-21464145D01*
X6514021Y-21464145D02*
X6504497Y-21454621D01*
X6504497Y-21454621D02*
X6494973Y-21435574D01*
X6494973Y-21435574D02*
X6485449Y-21397478D01*
X6485449Y-21397478D02*
X6485449Y-21349859D01*
X6485449Y-21349859D02*
X6494973Y-21311764D01*
X6494973Y-21311764D02*
X6504497Y-21292717D01*
X6504497Y-21292717D02*
X6514021Y-21283193D01*
X6514021Y-21283193D02*
X6533068Y-21273669D01*
X6780687Y-21273669D02*
X6685449Y-21273669D01*
X6685449Y-21273669D02*
X6675926Y-21368907D01*
X6675926Y-21368907D02*
X6685449Y-21359383D01*
X6685449Y-21359383D02*
X6704497Y-21349859D01*
X6704497Y-21349859D02*
X6752116Y-21349859D01*
X6752116Y-21349859D02*
X6771164Y-21359383D01*
X6771164Y-21359383D02*
X6780687Y-21368907D01*
X6780687Y-21368907D02*
X6790211Y-21387955D01*
X6790211Y-21387955D02*
X6790211Y-21435574D01*
X6790211Y-21435574D02*
X6780687Y-21454621D01*
X6780687Y-21454621D02*
X6771164Y-21464145D01*
X6771164Y-21464145D02*
X6752116Y-21473669D01*
X6752116Y-21473669D02*
X6704497Y-21473669D01*
X6704497Y-21473669D02*
X6685449Y-21464145D01*
X6685449Y-21464145D02*
X6675926Y-21454621D01*
X6866402Y-21292717D02*
X6875926Y-21283193D01*
X6875926Y-21283193D02*
X6894973Y-21273669D01*
X6894973Y-21273669D02*
X6942592Y-21273669D01*
X6942592Y-21273669D02*
X6961640Y-21283193D01*
X6961640Y-21283193D02*
X6971164Y-21292717D01*
X6971164Y-21292717D02*
X6980687Y-21311764D01*
X6980687Y-21311764D02*
X6980687Y-21330812D01*
X6980687Y-21330812D02*
X6971164Y-21359383D01*
X6971164Y-21359383D02*
X6856878Y-21473669D01*
X6856878Y-21473669D02*
X6980687Y-21473669D01*
X7104497Y-21273669D02*
X7123545Y-21273669D01*
X7123545Y-21273669D02*
X7142592Y-21283193D01*
X7142592Y-21283193D02*
X7152116Y-21292717D01*
X7152116Y-21292717D02*
X7161640Y-21311764D01*
X7161640Y-21311764D02*
X7171164Y-21349859D01*
X7171164Y-21349859D02*
X7171164Y-21397478D01*
X7171164Y-21397478D02*
X7161640Y-21435574D01*
X7161640Y-21435574D02*
X7152116Y-21454621D01*
X7152116Y-21454621D02*
X7142592Y-21464145D01*
X7142592Y-21464145D02*
X7123545Y-21473669D01*
X7123545Y-21473669D02*
X7104497Y-21473669D01*
X7104497Y-21473669D02*
X7085449Y-21464145D01*
X7085449Y-21464145D02*
X7075926Y-21454621D01*
X7075926Y-21454621D02*
X7066402Y-21435574D01*
X7066402Y-21435574D02*
X7056878Y-21397478D01*
X7056878Y-21397478D02*
X7056878Y-21349859D01*
X7056878Y-21349859D02*
X7066402Y-21311764D01*
X7066402Y-21311764D02*
X7075926Y-21292717D01*
X7075926Y-21292717D02*
X7085449Y-21283193D01*
X7085449Y-21283193D02*
X7104497Y-21273669D01*
X7247354Y-21273669D02*
X7247354Y-21311764D01*
X7323545Y-21273669D02*
X7323545Y-21311764D01*
X7618783Y-21549859D02*
X7609259Y-21540336D01*
X7609259Y-21540336D02*
X7590211Y-21511764D01*
X7590211Y-21511764D02*
X7580688Y-21492717D01*
X7580688Y-21492717D02*
X7571164Y-21464145D01*
X7571164Y-21464145D02*
X7561640Y-21416526D01*
X7561640Y-21416526D02*
X7561640Y-21378431D01*
X7561640Y-21378431D02*
X7571164Y-21330812D01*
X7571164Y-21330812D02*
X7580688Y-21302240D01*
X7580688Y-21302240D02*
X7590211Y-21283193D01*
X7590211Y-21283193D02*
X7609259Y-21254621D01*
X7609259Y-21254621D02*
X7618783Y-21245097D01*
X7799735Y-21473669D02*
X7685449Y-21473669D01*
X7742592Y-21473669D02*
X7742592Y-21273669D01*
X7742592Y-21273669D02*
X7723545Y-21302240D01*
X7723545Y-21302240D02*
X7704497Y-21321288D01*
X7704497Y-21321288D02*
X7685449Y-21330812D01*
X7971164Y-21273669D02*
X7933068Y-21273669D01*
X7933068Y-21273669D02*
X7914021Y-21283193D01*
X7914021Y-21283193D02*
X7904497Y-21292717D01*
X7904497Y-21292717D02*
X7885449Y-21321288D01*
X7885449Y-21321288D02*
X7875926Y-21359383D01*
X7875926Y-21359383D02*
X7875926Y-21435574D01*
X7875926Y-21435574D02*
X7885449Y-21454621D01*
X7885449Y-21454621D02*
X7894973Y-21464145D01*
X7894973Y-21464145D02*
X7914021Y-21473669D01*
X7914021Y-21473669D02*
X7952116Y-21473669D01*
X7952116Y-21473669D02*
X7971164Y-21464145D01*
X7971164Y-21464145D02*
X7980688Y-21454621D01*
X7980688Y-21454621D02*
X7990211Y-21435574D01*
X7990211Y-21435574D02*
X7990211Y-21387955D01*
X7990211Y-21387955D02*
X7980688Y-21368907D01*
X7980688Y-21368907D02*
X7971164Y-21359383D01*
X7971164Y-21359383D02*
X7952116Y-21349859D01*
X7952116Y-21349859D02*
X7914021Y-21349859D01*
X7914021Y-21349859D02*
X7894973Y-21359383D01*
X7894973Y-21359383D02*
X7885449Y-21368907D01*
X7885449Y-21368907D02*
X7875926Y-21387955D01*
X8228307Y-21473669D02*
X8228307Y-21273669D01*
X8314021Y-21473669D02*
X8314021Y-21368907D01*
X8314021Y-21368907D02*
X8304497Y-21349859D01*
X8304497Y-21349859D02*
X8285450Y-21340336D01*
X8285450Y-21340336D02*
X8256878Y-21340336D01*
X8256878Y-21340336D02*
X8237830Y-21349859D01*
X8237830Y-21349859D02*
X8228307Y-21359383D01*
X8437831Y-21473669D02*
X8418783Y-21464145D01*
X8418783Y-21464145D02*
X8409259Y-21454621D01*
X8409259Y-21454621D02*
X8399735Y-21435574D01*
X8399735Y-21435574D02*
X8399735Y-21378431D01*
X8399735Y-21378431D02*
X8409259Y-21359383D01*
X8409259Y-21359383D02*
X8418783Y-21349859D01*
X8418783Y-21349859D02*
X8437831Y-21340336D01*
X8437831Y-21340336D02*
X8466402Y-21340336D01*
X8466402Y-21340336D02*
X8485450Y-21349859D01*
X8485450Y-21349859D02*
X8494973Y-21359383D01*
X8494973Y-21359383D02*
X8504497Y-21378431D01*
X8504497Y-21378431D02*
X8504497Y-21435574D01*
X8504497Y-21435574D02*
X8494973Y-21454621D01*
X8494973Y-21454621D02*
X8485450Y-21464145D01*
X8485450Y-21464145D02*
X8466402Y-21473669D01*
X8466402Y-21473669D02*
X8437831Y-21473669D01*
X8618783Y-21473669D02*
X8599735Y-21464145D01*
X8599735Y-21464145D02*
X8590212Y-21445097D01*
X8590212Y-21445097D02*
X8590212Y-21273669D01*
X8771164Y-21464145D02*
X8752116Y-21473669D01*
X8752116Y-21473669D02*
X8714021Y-21473669D01*
X8714021Y-21473669D02*
X8694973Y-21464145D01*
X8694973Y-21464145D02*
X8685450Y-21445097D01*
X8685450Y-21445097D02*
X8685450Y-21368907D01*
X8685450Y-21368907D02*
X8694973Y-21349859D01*
X8694973Y-21349859D02*
X8714021Y-21340336D01*
X8714021Y-21340336D02*
X8752116Y-21340336D01*
X8752116Y-21340336D02*
X8771164Y-21349859D01*
X8771164Y-21349859D02*
X8780688Y-21368907D01*
X8780688Y-21368907D02*
X8780688Y-21387955D01*
X8780688Y-21387955D02*
X8685450Y-21407002D01*
X8856878Y-21464145D02*
X8875926Y-21473669D01*
X8875926Y-21473669D02*
X8914021Y-21473669D01*
X8914021Y-21473669D02*
X8933069Y-21464145D01*
X8933069Y-21464145D02*
X8942593Y-21445097D01*
X8942593Y-21445097D02*
X8942593Y-21435574D01*
X8942593Y-21435574D02*
X8933069Y-21416526D01*
X8933069Y-21416526D02*
X8914021Y-21407002D01*
X8914021Y-21407002D02*
X8885450Y-21407002D01*
X8885450Y-21407002D02*
X8866402Y-21397478D01*
X8866402Y-21397478D02*
X8856878Y-21378431D01*
X8856878Y-21378431D02*
X8856878Y-21368907D01*
X8856878Y-21368907D02*
X8866402Y-21349859D01*
X8866402Y-21349859D02*
X8885450Y-21340336D01*
X8885450Y-21340336D02*
X8914021Y-21340336D01*
X8914021Y-21340336D02*
X8933069Y-21349859D01*
X9009259Y-21549859D02*
X9018783Y-21540336D01*
X9018783Y-21540336D02*
X9037831Y-21511764D01*
X9037831Y-21511764D02*
X9047354Y-21492717D01*
X9047354Y-21492717D02*
X9056878Y-21464145D01*
X9056878Y-21464145D02*
X9066402Y-21416526D01*
X9066402Y-21416526D02*
X9066402Y-21378431D01*
X9066402Y-21378431D02*
X9056878Y-21330812D01*
X9056878Y-21330812D02*
X9047354Y-21302240D01*
X9047354Y-21302240D02*
X9037831Y-21283193D01*
X9037831Y-21283193D02*
X9018783Y-21254621D01*
X9018783Y-21254621D02*
X9009259Y-21245097D01*
D19*
X3901480Y-21575065D02*
X4043720Y-21717305D01*
X4043720Y-21575065D02*
X3901480Y-21717305D01*
X3972600Y-21717305D02*
X4043720Y-21646185D01*
X3972600Y-21575065D01*
X3901480Y-21646185D01*
X3972600Y-21717305D01*
D11*
X4409259Y-21737669D02*
X4294973Y-21737669D01*
X4352116Y-21737669D02*
X4352116Y-21537669D01*
X4352116Y-21537669D02*
X4333068Y-21566240D01*
X4333068Y-21566240D02*
X4314021Y-21585288D01*
X4314021Y-21585288D02*
X4294973Y-21594812D01*
X4494973Y-21718621D02*
X4504497Y-21728145D01*
X4504497Y-21728145D02*
X4494973Y-21737669D01*
X4494973Y-21737669D02*
X4485449Y-21728145D01*
X4485449Y-21728145D02*
X4494973Y-21718621D01*
X4494973Y-21718621D02*
X4494973Y-21737669D01*
X4675925Y-21604336D02*
X4675925Y-21737669D01*
X4628306Y-21528145D02*
X4580687Y-21671002D01*
X4580687Y-21671002D02*
X4704497Y-21671002D01*
X4771164Y-21556717D02*
X4780687Y-21547193D01*
X4780687Y-21547193D02*
X4799735Y-21537669D01*
X4799735Y-21537669D02*
X4847354Y-21537669D01*
X4847354Y-21537669D02*
X4866402Y-21547193D01*
X4866402Y-21547193D02*
X4875925Y-21556717D01*
X4875925Y-21556717D02*
X4885449Y-21575764D01*
X4885449Y-21575764D02*
X4885449Y-21594812D01*
X4885449Y-21594812D02*
X4875925Y-21623383D01*
X4875925Y-21623383D02*
X4761640Y-21737669D01*
X4761640Y-21737669D02*
X4885449Y-21737669D01*
X4961640Y-21556717D02*
X4971164Y-21547193D01*
X4971164Y-21547193D02*
X4990211Y-21537669D01*
X4990211Y-21537669D02*
X5037830Y-21537669D01*
X5037830Y-21537669D02*
X5056878Y-21547193D01*
X5056878Y-21547193D02*
X5066402Y-21556717D01*
X5066402Y-21556717D02*
X5075925Y-21575764D01*
X5075925Y-21575764D02*
X5075925Y-21594812D01*
X5075925Y-21594812D02*
X5066402Y-21623383D01*
X5066402Y-21623383D02*
X4952116Y-21737669D01*
X4952116Y-21737669D02*
X5075925Y-21737669D01*
X5161640Y-21737669D02*
X5161640Y-21604336D01*
X5161640Y-21623383D02*
X5171164Y-21613859D01*
X5171164Y-21613859D02*
X5190211Y-21604336D01*
X5190211Y-21604336D02*
X5218783Y-21604336D01*
X5218783Y-21604336D02*
X5237830Y-21613859D01*
X5237830Y-21613859D02*
X5247354Y-21632907D01*
X5247354Y-21632907D02*
X5247354Y-21737669D01*
X5247354Y-21632907D02*
X5256878Y-21613859D01*
X5256878Y-21613859D02*
X5275925Y-21604336D01*
X5275925Y-21604336D02*
X5304497Y-21604336D01*
X5304497Y-21604336D02*
X5323545Y-21613859D01*
X5323545Y-21613859D02*
X5333068Y-21632907D01*
X5333068Y-21632907D02*
X5333068Y-21737669D01*
X5428306Y-21737669D02*
X5428306Y-21604336D01*
X5428306Y-21623383D02*
X5437830Y-21613859D01*
X5437830Y-21613859D02*
X5456878Y-21604336D01*
X5456878Y-21604336D02*
X5485449Y-21604336D01*
X5485449Y-21604336D02*
X5504497Y-21613859D01*
X5504497Y-21613859D02*
X5514021Y-21632907D01*
X5514021Y-21632907D02*
X5514021Y-21737669D01*
X5514021Y-21632907D02*
X5523545Y-21613859D01*
X5523545Y-21613859D02*
X5542592Y-21604336D01*
X5542592Y-21604336D02*
X5571164Y-21604336D01*
X5571164Y-21604336D02*
X5590211Y-21613859D01*
X5590211Y-21613859D02*
X5599735Y-21632907D01*
X5599735Y-21632907D02*
X5599735Y-21737669D01*
X5990211Y-21528145D02*
X5818783Y-21785288D01*
X6247354Y-21537669D02*
X6266402Y-21537669D01*
X6266402Y-21537669D02*
X6285449Y-21547193D01*
X6285449Y-21547193D02*
X6294973Y-21556717D01*
X6294973Y-21556717D02*
X6304497Y-21575764D01*
X6304497Y-21575764D02*
X6314021Y-21613859D01*
X6314021Y-21613859D02*
X6314021Y-21661478D01*
X6314021Y-21661478D02*
X6304497Y-21699574D01*
X6304497Y-21699574D02*
X6294973Y-21718621D01*
X6294973Y-21718621D02*
X6285449Y-21728145D01*
X6285449Y-21728145D02*
X6266402Y-21737669D01*
X6266402Y-21737669D02*
X6247354Y-21737669D01*
X6247354Y-21737669D02*
X6228306Y-21728145D01*
X6228306Y-21728145D02*
X6218783Y-21718621D01*
X6218783Y-21718621D02*
X6209259Y-21699574D01*
X6209259Y-21699574D02*
X6199735Y-21661478D01*
X6199735Y-21661478D02*
X6199735Y-21613859D01*
X6199735Y-21613859D02*
X6209259Y-21575764D01*
X6209259Y-21575764D02*
X6218783Y-21556717D01*
X6218783Y-21556717D02*
X6228306Y-21547193D01*
X6228306Y-21547193D02*
X6247354Y-21537669D01*
X6399735Y-21718621D02*
X6409259Y-21728145D01*
X6409259Y-21728145D02*
X6399735Y-21737669D01*
X6399735Y-21737669D02*
X6390211Y-21728145D01*
X6390211Y-21728145D02*
X6399735Y-21718621D01*
X6399735Y-21718621D02*
X6399735Y-21737669D01*
X6533068Y-21537669D02*
X6552116Y-21537669D01*
X6552116Y-21537669D02*
X6571164Y-21547193D01*
X6571164Y-21547193D02*
X6580687Y-21556717D01*
X6580687Y-21556717D02*
X6590211Y-21575764D01*
X6590211Y-21575764D02*
X6599735Y-21613859D01*
X6599735Y-21613859D02*
X6599735Y-21661478D01*
X6599735Y-21661478D02*
X6590211Y-21699574D01*
X6590211Y-21699574D02*
X6580687Y-21718621D01*
X6580687Y-21718621D02*
X6571164Y-21728145D01*
X6571164Y-21728145D02*
X6552116Y-21737669D01*
X6552116Y-21737669D02*
X6533068Y-21737669D01*
X6533068Y-21737669D02*
X6514021Y-21728145D01*
X6514021Y-21728145D02*
X6504497Y-21718621D01*
X6504497Y-21718621D02*
X6494973Y-21699574D01*
X6494973Y-21699574D02*
X6485449Y-21661478D01*
X6485449Y-21661478D02*
X6485449Y-21613859D01*
X6485449Y-21613859D02*
X6494973Y-21575764D01*
X6494973Y-21575764D02*
X6504497Y-21556717D01*
X6504497Y-21556717D02*
X6514021Y-21547193D01*
X6514021Y-21547193D02*
X6533068Y-21537669D01*
X6780687Y-21537669D02*
X6685449Y-21537669D01*
X6685449Y-21537669D02*
X6675926Y-21632907D01*
X6675926Y-21632907D02*
X6685449Y-21623383D01*
X6685449Y-21623383D02*
X6704497Y-21613859D01*
X6704497Y-21613859D02*
X6752116Y-21613859D01*
X6752116Y-21613859D02*
X6771164Y-21623383D01*
X6771164Y-21623383D02*
X6780687Y-21632907D01*
X6780687Y-21632907D02*
X6790211Y-21651955D01*
X6790211Y-21651955D02*
X6790211Y-21699574D01*
X6790211Y-21699574D02*
X6780687Y-21718621D01*
X6780687Y-21718621D02*
X6771164Y-21728145D01*
X6771164Y-21728145D02*
X6752116Y-21737669D01*
X6752116Y-21737669D02*
X6704497Y-21737669D01*
X6704497Y-21737669D02*
X6685449Y-21728145D01*
X6685449Y-21728145D02*
X6675926Y-21718621D01*
X6961640Y-21537669D02*
X6923545Y-21537669D01*
X6923545Y-21537669D02*
X6904497Y-21547193D01*
X6904497Y-21547193D02*
X6894973Y-21556717D01*
X6894973Y-21556717D02*
X6875926Y-21585288D01*
X6875926Y-21585288D02*
X6866402Y-21623383D01*
X6866402Y-21623383D02*
X6866402Y-21699574D01*
X6866402Y-21699574D02*
X6875926Y-21718621D01*
X6875926Y-21718621D02*
X6885449Y-21728145D01*
X6885449Y-21728145D02*
X6904497Y-21737669D01*
X6904497Y-21737669D02*
X6942592Y-21737669D01*
X6942592Y-21737669D02*
X6961640Y-21728145D01*
X6961640Y-21728145D02*
X6971164Y-21718621D01*
X6971164Y-21718621D02*
X6980687Y-21699574D01*
X6980687Y-21699574D02*
X6980687Y-21651955D01*
X6980687Y-21651955D02*
X6971164Y-21632907D01*
X6971164Y-21632907D02*
X6961640Y-21623383D01*
X6961640Y-21623383D02*
X6942592Y-21613859D01*
X6942592Y-21613859D02*
X6904497Y-21613859D01*
X6904497Y-21613859D02*
X6885449Y-21623383D01*
X6885449Y-21623383D02*
X6875926Y-21632907D01*
X6875926Y-21632907D02*
X6866402Y-21651955D01*
X7104497Y-21537669D02*
X7123545Y-21537669D01*
X7123545Y-21537669D02*
X7142592Y-21547193D01*
X7142592Y-21547193D02*
X7152116Y-21556717D01*
X7152116Y-21556717D02*
X7161640Y-21575764D01*
X7161640Y-21575764D02*
X7171164Y-21613859D01*
X7171164Y-21613859D02*
X7171164Y-21661478D01*
X7171164Y-21661478D02*
X7161640Y-21699574D01*
X7161640Y-21699574D02*
X7152116Y-21718621D01*
X7152116Y-21718621D02*
X7142592Y-21728145D01*
X7142592Y-21728145D02*
X7123545Y-21737669D01*
X7123545Y-21737669D02*
X7104497Y-21737669D01*
X7104497Y-21737669D02*
X7085449Y-21728145D01*
X7085449Y-21728145D02*
X7075926Y-21718621D01*
X7075926Y-21718621D02*
X7066402Y-21699574D01*
X7066402Y-21699574D02*
X7056878Y-21661478D01*
X7056878Y-21661478D02*
X7056878Y-21613859D01*
X7056878Y-21613859D02*
X7066402Y-21575764D01*
X7066402Y-21575764D02*
X7075926Y-21556717D01*
X7075926Y-21556717D02*
X7085449Y-21547193D01*
X7085449Y-21547193D02*
X7104497Y-21537669D01*
X7247354Y-21537669D02*
X7247354Y-21575764D01*
X7323545Y-21537669D02*
X7323545Y-21575764D01*
X7618783Y-21813859D02*
X7609259Y-21804336D01*
X7609259Y-21804336D02*
X7590211Y-21775764D01*
X7590211Y-21775764D02*
X7580688Y-21756717D01*
X7580688Y-21756717D02*
X7571164Y-21728145D01*
X7571164Y-21728145D02*
X7561640Y-21680526D01*
X7561640Y-21680526D02*
X7561640Y-21642431D01*
X7561640Y-21642431D02*
X7571164Y-21594812D01*
X7571164Y-21594812D02*
X7580688Y-21566240D01*
X7580688Y-21566240D02*
X7590211Y-21547193D01*
X7590211Y-21547193D02*
X7609259Y-21518621D01*
X7609259Y-21518621D02*
X7618783Y-21509097D01*
X7685449Y-21556717D02*
X7694973Y-21547193D01*
X7694973Y-21547193D02*
X7714021Y-21537669D01*
X7714021Y-21537669D02*
X7761640Y-21537669D01*
X7761640Y-21537669D02*
X7780688Y-21547193D01*
X7780688Y-21547193D02*
X7790211Y-21556717D01*
X7790211Y-21556717D02*
X7799735Y-21575764D01*
X7799735Y-21575764D02*
X7799735Y-21594812D01*
X7799735Y-21594812D02*
X7790211Y-21623383D01*
X7790211Y-21623383D02*
X7675926Y-21737669D01*
X7675926Y-21737669D02*
X7799735Y-21737669D01*
X8037830Y-21737669D02*
X8037830Y-21537669D01*
X8123545Y-21737669D02*
X8123545Y-21632907D01*
X8123545Y-21632907D02*
X8114021Y-21613859D01*
X8114021Y-21613859D02*
X8094973Y-21604336D01*
X8094973Y-21604336D02*
X8066402Y-21604336D01*
X8066402Y-21604336D02*
X8047354Y-21613859D01*
X8047354Y-21613859D02*
X8037830Y-21623383D01*
X8247354Y-21737669D02*
X8228307Y-21728145D01*
X8228307Y-21728145D02*
X8218783Y-21718621D01*
X8218783Y-21718621D02*
X8209259Y-21699574D01*
X8209259Y-21699574D02*
X8209259Y-21642431D01*
X8209259Y-21642431D02*
X8218783Y-21623383D01*
X8218783Y-21623383D02*
X8228307Y-21613859D01*
X8228307Y-21613859D02*
X8247354Y-21604336D01*
X8247354Y-21604336D02*
X8275926Y-21604336D01*
X8275926Y-21604336D02*
X8294973Y-21613859D01*
X8294973Y-21613859D02*
X8304497Y-21623383D01*
X8304497Y-21623383D02*
X8314021Y-21642431D01*
X8314021Y-21642431D02*
X8314021Y-21699574D01*
X8314021Y-21699574D02*
X8304497Y-21718621D01*
X8304497Y-21718621D02*
X8294973Y-21728145D01*
X8294973Y-21728145D02*
X8275926Y-21737669D01*
X8275926Y-21737669D02*
X8247354Y-21737669D01*
X8428307Y-21737669D02*
X8409259Y-21728145D01*
X8409259Y-21728145D02*
X8399735Y-21709097D01*
X8399735Y-21709097D02*
X8399735Y-21537669D01*
X8580688Y-21728145D02*
X8561640Y-21737669D01*
X8561640Y-21737669D02*
X8523545Y-21737669D01*
X8523545Y-21737669D02*
X8504497Y-21728145D01*
X8504497Y-21728145D02*
X8494973Y-21709097D01*
X8494973Y-21709097D02*
X8494973Y-21632907D01*
X8494973Y-21632907D02*
X8504497Y-21613859D01*
X8504497Y-21613859D02*
X8523545Y-21604336D01*
X8523545Y-21604336D02*
X8561640Y-21604336D01*
X8561640Y-21604336D02*
X8580688Y-21613859D01*
X8580688Y-21613859D02*
X8590212Y-21632907D01*
X8590212Y-21632907D02*
X8590212Y-21651955D01*
X8590212Y-21651955D02*
X8494973Y-21671002D01*
X8666402Y-21728145D02*
X8685450Y-21737669D01*
X8685450Y-21737669D02*
X8723545Y-21737669D01*
X8723545Y-21737669D02*
X8742593Y-21728145D01*
X8742593Y-21728145D02*
X8752116Y-21709097D01*
X8752116Y-21709097D02*
X8752116Y-21699574D01*
X8752116Y-21699574D02*
X8742593Y-21680526D01*
X8742593Y-21680526D02*
X8723545Y-21671002D01*
X8723545Y-21671002D02*
X8694973Y-21671002D01*
X8694973Y-21671002D02*
X8675926Y-21661478D01*
X8675926Y-21661478D02*
X8666402Y-21642431D01*
X8666402Y-21642431D02*
X8666402Y-21632907D01*
X8666402Y-21632907D02*
X8675926Y-21613859D01*
X8675926Y-21613859D02*
X8694973Y-21604336D01*
X8694973Y-21604336D02*
X8723545Y-21604336D01*
X8723545Y-21604336D02*
X8742593Y-21613859D01*
X8818783Y-21813859D02*
X8828307Y-21804336D01*
X8828307Y-21804336D02*
X8847354Y-21775764D01*
X8847354Y-21775764D02*
X8856878Y-21756717D01*
X8856878Y-21756717D02*
X8866402Y-21728145D01*
X8866402Y-21728145D02*
X8875926Y-21680526D01*
X8875926Y-21680526D02*
X8875926Y-21642431D01*
X8875926Y-21642431D02*
X8866402Y-21594812D01*
X8866402Y-21594812D02*
X8856878Y-21566240D01*
X8856878Y-21566240D02*
X8847354Y-21547193D01*
X8847354Y-21547193D02*
X8828307Y-21518621D01*
X8828307Y-21518621D02*
X8818783Y-21509097D01*
M02*
