%TF.GenerationSoftware,KiCad,Pcbnew,7.0.7*%
%TF.CreationDate,2024-02-09T12:40:55+08:00*%
%TF.ProjectId,lekirbotv2,6c656b69-7262-46f7-9476-322e6b696361,rev?*%
%TF.SameCoordinates,Original*%
%TF.FileFunction,Profile,NP*%
%FSLAX46Y46*%
G04 Gerber Fmt 4.6, Leading zero omitted, Abs format (unit mm)*
G04 Created by KiCad (PCBNEW 7.0.7) date 2024-02-09 12:40:55*
%MOMM*%
%LPD*%
G01*
G04 APERTURE LIST*
%TA.AperFunction,Profile*%
%ADD10C,0.050000*%
%TD*%
G04 APERTURE END LIST*
D10*
X72796796Y-65851043D02*
G75*
G03*
X64729840Y-57851324I-8000026J-27D01*
G01*
X64796800Y-124476851D02*
X53462600Y-124476851D01*
X144602200Y-137476851D02*
X144602200Y-175916851D01*
X40462599Y-175916851D02*
G75*
G03*
X53462600Y-188916851I13000001J1D01*
G01*
X45462200Y-33273000D02*
X139602200Y-33273000D01*
X131602200Y-188916851D02*
X53462600Y-188916851D01*
X72796800Y-103200000D02*
X72796800Y-65851043D01*
X144602200Y-38273000D02*
G75*
G03*
X139602200Y-33273000I-5000000J0D01*
G01*
X45462200Y-33273000D02*
G75*
G03*
X40462200Y-38273000I0J-5000000D01*
G01*
X144602249Y-137476851D02*
G75*
G03*
X131602200Y-124476851I-13000049J-49D01*
G01*
X112370000Y-103200000D02*
X112370000Y-116476851D01*
X53462600Y-124476850D02*
G75*
G03*
X40462600Y-137476851I0J-13000000D01*
G01*
X131602200Y-188916850D02*
G75*
G03*
X144602200Y-175916851I0J13000000D01*
G01*
X112370049Y-116476851D02*
G75*
G03*
X120370000Y-124476851I7999951J-49D01*
G01*
X144602200Y-38273000D02*
X144602200Y-53012600D01*
X40462200Y-53012600D02*
X40462200Y-38273000D01*
X128219601Y-127321651D02*
G75*
G03*
X128219601Y-127321651I-1J0D01*
G01*
X45462200Y-58012600D02*
X64729840Y-57851323D01*
X120437212Y-57851582D02*
G75*
G03*
X112370000Y-65851297I-67212J-7999718D01*
G01*
X64796800Y-124476850D02*
G75*
G03*
X72796800Y-116476851I0J8000000D01*
G01*
X120437212Y-57851579D02*
X139602200Y-58012600D01*
X139602200Y-58012600D02*
G75*
G03*
X144602200Y-53012600I0J5000000D01*
G01*
X72796800Y-103200000D02*
X72796800Y-116476851D01*
X40462200Y-53012600D02*
G75*
G03*
X45462200Y-58012600I5000000J0D01*
G01*
X131602200Y-124476851D02*
X120370000Y-124476851D01*
X40462600Y-175916851D02*
X40462600Y-137476851D01*
X112370000Y-103200000D02*
X112370000Y-65851297D01*
M02*
