%TF.GenerationSoftware,KiCad,Pcbnew,7.0.7*%
%TF.CreationDate,2024-02-09T12:41:04+08:00*%
%TF.ProjectId,lekirbotv2,6c656b69-7262-46f7-9476-322e6b696361,rev?*%
%TF.SameCoordinates,Original*%
%TF.FileFunction,Drillmap*%
%TF.FilePolarity,Positive*%
%FSLAX45Y45*%
G04 Gerber Fmt 4.5, Leading zero omitted, Abs format (unit mm)*
G04 Created by KiCad (PCBNEW 7.0.7) date 2024-02-09 12:41:04*
%MOMM*%
%LPD*%
G01*
G04 APERTURE LIST*
%ADD10C,0.050000*%
%ADD11C,0.200000*%
%ADD12C,0.177800*%
%ADD13C,0.320000*%
G04 APERTURE END LIST*
D10*
X7279680Y-6585104D02*
G75*
G03*
X6472984Y-5785132I-800003J-3D01*
G01*
X6479680Y-12447685D02*
X5346260Y-12447685D01*
X14460220Y-13747685D02*
X14460220Y-17591685D01*
X4046260Y-17591685D02*
G75*
G03*
X5346260Y-18891685I1300000J0D01*
G01*
X4546220Y-3327300D02*
X13960220Y-3327300D01*
X13160220Y-18891685D02*
X5346260Y-18891685D01*
X7279680Y-10320000D02*
X7279680Y-6585104D01*
X14460220Y-3827300D02*
G75*
G03*
X13960220Y-3327300I-500000J0D01*
G01*
X4546220Y-3327300D02*
G75*
G03*
X4046220Y-3827300I0J-500000D01*
G01*
X14460225Y-13747685D02*
G75*
G03*
X13160220Y-12447685I-1300005J-5D01*
G01*
X11237000Y-10320000D02*
X11237000Y-11647685D01*
X5346260Y-12447685D02*
G75*
G03*
X4046260Y-13747685I0J-1300000D01*
G01*
X13160220Y-18891685D02*
G75*
G03*
X14460220Y-17591685I0J1300000D01*
G01*
X11237005Y-11647685D02*
G75*
G03*
X12037000Y-12447685I799995J-5D01*
G01*
X14460220Y-3827300D02*
X14460220Y-5301260D01*
X4046220Y-5301260D02*
X4046220Y-3827300D01*
X12821960Y-12732165D02*
G75*
G03*
X12821960Y-12732165I0J0D01*
G01*
X4546220Y-5801260D02*
X6472984Y-5785132D01*
X12043721Y-5785158D02*
G75*
G03*
X11237000Y-6585130I-6721J-799972D01*
G01*
X6479680Y-12447685D02*
G75*
G03*
X7279680Y-11647685I0J800000D01*
G01*
X12043721Y-5785158D02*
X13960220Y-5801260D01*
X13960220Y-5801260D02*
G75*
G03*
X14460220Y-5301260I0J500000D01*
G01*
X7279680Y-10320000D02*
X7279680Y-11647685D01*
X4046220Y-5301260D02*
G75*
G03*
X4546220Y-5801260I500000J0D01*
G01*
X13160220Y-12447685D02*
X12037000Y-12447685D01*
X4046260Y-17591685D02*
X4046260Y-13747685D01*
X11237000Y-10320000D02*
X11237000Y-6585130D01*
D11*
D12*
X8394740Y-14611785D02*
X8572540Y-14789585D01*
X8572540Y-14611785D02*
X8394740Y-14789585D01*
X8394740Y-18675785D02*
X8572540Y-18853585D01*
X8572540Y-18675785D02*
X8394740Y-18853585D01*
X9918740Y-14611785D02*
X10096540Y-14789585D01*
X10096540Y-14611785D02*
X9918740Y-14789585D01*
X9918740Y-18675785D02*
X10096540Y-18853585D01*
X10096540Y-18675785D02*
X9918740Y-18853585D01*
D13*
X5153680Y-4571880D02*
G75*
G03*
X5153680Y-4571880I-160000J0D01*
G01*
X5586710Y-16249565D02*
G75*
G03*
X5586710Y-16249565I-160000J0D01*
G01*
X5586710Y-18045345D02*
G75*
G03*
X5586710Y-18045345I-160000J0D01*
G01*
X8341380Y-11650125D02*
G75*
G03*
X8341380Y-11650125I-160000J0D01*
G01*
X8343920Y-6583560D02*
G75*
G03*
X8343920Y-6583560I-160000J0D01*
G01*
X10411480Y-6588640D02*
G75*
G03*
X10411480Y-6588640I-160000J0D01*
G01*
X10419100Y-11642505D02*
G75*
G03*
X10419100Y-11642505I-160000J0D01*
G01*
X13188930Y-16249565D02*
G75*
G03*
X13188930Y-16249565I-160000J0D01*
G01*
X13188930Y-18045345D02*
G75*
G03*
X13188930Y-18045345I-160000J0D01*
G01*
X13667760Y-4564260D02*
G75*
G03*
X13667760Y-4564260I-160000J0D01*
G01*
D11*
X4304497Y-19205669D02*
X4304497Y-19005669D01*
X4304497Y-19005669D02*
X4352116Y-19005669D01*
X4352116Y-19005669D02*
X4380687Y-19015193D01*
X4380687Y-19015193D02*
X4399735Y-19034240D01*
X4399735Y-19034240D02*
X4409259Y-19053288D01*
X4409259Y-19053288D02*
X4418783Y-19091383D01*
X4418783Y-19091383D02*
X4418783Y-19119955D01*
X4418783Y-19119955D02*
X4409259Y-19158050D01*
X4409259Y-19158050D02*
X4399735Y-19177097D01*
X4399735Y-19177097D02*
X4380687Y-19196145D01*
X4380687Y-19196145D02*
X4352116Y-19205669D01*
X4352116Y-19205669D02*
X4304497Y-19205669D01*
X4504497Y-19205669D02*
X4504497Y-19072336D01*
X4504497Y-19110431D02*
X4514021Y-19091383D01*
X4514021Y-19091383D02*
X4523544Y-19081859D01*
X4523544Y-19081859D02*
X4542592Y-19072336D01*
X4542592Y-19072336D02*
X4561640Y-19072336D01*
X4628306Y-19205669D02*
X4628306Y-19072336D01*
X4628306Y-19005669D02*
X4618783Y-19015193D01*
X4618783Y-19015193D02*
X4628306Y-19024717D01*
X4628306Y-19024717D02*
X4637830Y-19015193D01*
X4637830Y-19015193D02*
X4628306Y-19005669D01*
X4628306Y-19005669D02*
X4628306Y-19024717D01*
X4752116Y-19205669D02*
X4733068Y-19196145D01*
X4733068Y-19196145D02*
X4723544Y-19177097D01*
X4723544Y-19177097D02*
X4723544Y-19005669D01*
X4856878Y-19205669D02*
X4837830Y-19196145D01*
X4837830Y-19196145D02*
X4828306Y-19177097D01*
X4828306Y-19177097D02*
X4828306Y-19005669D01*
X5085449Y-19205669D02*
X5085449Y-19005669D01*
X5085449Y-19005669D02*
X5152116Y-19148526D01*
X5152116Y-19148526D02*
X5218783Y-19005669D01*
X5218783Y-19005669D02*
X5218783Y-19205669D01*
X5399735Y-19205669D02*
X5399735Y-19100907D01*
X5399735Y-19100907D02*
X5390211Y-19081859D01*
X5390211Y-19081859D02*
X5371164Y-19072336D01*
X5371164Y-19072336D02*
X5333068Y-19072336D01*
X5333068Y-19072336D02*
X5314021Y-19081859D01*
X5399735Y-19196145D02*
X5380687Y-19205669D01*
X5380687Y-19205669D02*
X5333068Y-19205669D01*
X5333068Y-19205669D02*
X5314021Y-19196145D01*
X5314021Y-19196145D02*
X5304497Y-19177097D01*
X5304497Y-19177097D02*
X5304497Y-19158050D01*
X5304497Y-19158050D02*
X5314021Y-19139002D01*
X5314021Y-19139002D02*
X5333068Y-19129478D01*
X5333068Y-19129478D02*
X5380687Y-19129478D01*
X5380687Y-19129478D02*
X5399735Y-19119955D01*
X5494973Y-19072336D02*
X5494973Y-19272336D01*
X5494973Y-19081859D02*
X5514021Y-19072336D01*
X5514021Y-19072336D02*
X5552116Y-19072336D01*
X5552116Y-19072336D02*
X5571164Y-19081859D01*
X5571164Y-19081859D02*
X5580687Y-19091383D01*
X5580687Y-19091383D02*
X5590211Y-19110431D01*
X5590211Y-19110431D02*
X5590211Y-19167574D01*
X5590211Y-19167574D02*
X5580687Y-19186621D01*
X5580687Y-19186621D02*
X5571164Y-19196145D01*
X5571164Y-19196145D02*
X5552116Y-19205669D01*
X5552116Y-19205669D02*
X5514021Y-19205669D01*
X5514021Y-19205669D02*
X5494973Y-19196145D01*
X5675925Y-19186621D02*
X5685449Y-19196145D01*
X5685449Y-19196145D02*
X5675925Y-19205669D01*
X5675925Y-19205669D02*
X5666402Y-19196145D01*
X5666402Y-19196145D02*
X5675925Y-19186621D01*
X5675925Y-19186621D02*
X5675925Y-19205669D01*
X5675925Y-19081859D02*
X5685449Y-19091383D01*
X5685449Y-19091383D02*
X5675925Y-19100907D01*
X5675925Y-19100907D02*
X5666402Y-19091383D01*
X5666402Y-19091383D02*
X5675925Y-19081859D01*
X5675925Y-19081859D02*
X5675925Y-19100907D01*
D12*
X3865920Y-19445285D02*
X4043720Y-19623085D01*
X4043720Y-19445285D02*
X3865920Y-19623085D01*
D11*
X4409259Y-19625669D02*
X4294973Y-19625669D01*
X4352116Y-19625669D02*
X4352116Y-19425669D01*
X4352116Y-19425669D02*
X4333068Y-19454240D01*
X4333068Y-19454240D02*
X4314021Y-19473288D01*
X4314021Y-19473288D02*
X4294973Y-19482812D01*
X4494973Y-19606621D02*
X4504497Y-19616145D01*
X4504497Y-19616145D02*
X4494973Y-19625669D01*
X4494973Y-19625669D02*
X4485449Y-19616145D01*
X4485449Y-19616145D02*
X4494973Y-19606621D01*
X4494973Y-19606621D02*
X4494973Y-19625669D01*
X4571164Y-19425669D02*
X4704497Y-19425669D01*
X4704497Y-19425669D02*
X4618783Y-19625669D01*
X4761640Y-19425669D02*
X4894973Y-19425669D01*
X4894973Y-19425669D02*
X4809259Y-19625669D01*
X4999735Y-19511383D02*
X4980687Y-19501859D01*
X4980687Y-19501859D02*
X4971164Y-19492336D01*
X4971164Y-19492336D02*
X4961640Y-19473288D01*
X4961640Y-19473288D02*
X4961640Y-19463764D01*
X4961640Y-19463764D02*
X4971164Y-19444717D01*
X4971164Y-19444717D02*
X4980687Y-19435193D01*
X4980687Y-19435193D02*
X4999735Y-19425669D01*
X4999735Y-19425669D02*
X5037830Y-19425669D01*
X5037830Y-19425669D02*
X5056878Y-19435193D01*
X5056878Y-19435193D02*
X5066402Y-19444717D01*
X5066402Y-19444717D02*
X5075925Y-19463764D01*
X5075925Y-19463764D02*
X5075925Y-19473288D01*
X5075925Y-19473288D02*
X5066402Y-19492336D01*
X5066402Y-19492336D02*
X5056878Y-19501859D01*
X5056878Y-19501859D02*
X5037830Y-19511383D01*
X5037830Y-19511383D02*
X4999735Y-19511383D01*
X4999735Y-19511383D02*
X4980687Y-19520907D01*
X4980687Y-19520907D02*
X4971164Y-19530431D01*
X4971164Y-19530431D02*
X4961640Y-19549478D01*
X4961640Y-19549478D02*
X4961640Y-19587574D01*
X4961640Y-19587574D02*
X4971164Y-19606621D01*
X4971164Y-19606621D02*
X4980687Y-19616145D01*
X4980687Y-19616145D02*
X4999735Y-19625669D01*
X4999735Y-19625669D02*
X5037830Y-19625669D01*
X5037830Y-19625669D02*
X5056878Y-19616145D01*
X5056878Y-19616145D02*
X5066402Y-19606621D01*
X5066402Y-19606621D02*
X5075925Y-19587574D01*
X5075925Y-19587574D02*
X5075925Y-19549478D01*
X5075925Y-19549478D02*
X5066402Y-19530431D01*
X5066402Y-19530431D02*
X5056878Y-19520907D01*
X5056878Y-19520907D02*
X5037830Y-19511383D01*
X5161640Y-19625669D02*
X5161640Y-19492336D01*
X5161640Y-19511383D02*
X5171164Y-19501859D01*
X5171164Y-19501859D02*
X5190211Y-19492336D01*
X5190211Y-19492336D02*
X5218783Y-19492336D01*
X5218783Y-19492336D02*
X5237830Y-19501859D01*
X5237830Y-19501859D02*
X5247354Y-19520907D01*
X5247354Y-19520907D02*
X5247354Y-19625669D01*
X5247354Y-19520907D02*
X5256878Y-19501859D01*
X5256878Y-19501859D02*
X5275925Y-19492336D01*
X5275925Y-19492336D02*
X5304497Y-19492336D01*
X5304497Y-19492336D02*
X5323545Y-19501859D01*
X5323545Y-19501859D02*
X5333068Y-19520907D01*
X5333068Y-19520907D02*
X5333068Y-19625669D01*
X5428306Y-19625669D02*
X5428306Y-19492336D01*
X5428306Y-19511383D02*
X5437830Y-19501859D01*
X5437830Y-19501859D02*
X5456878Y-19492336D01*
X5456878Y-19492336D02*
X5485449Y-19492336D01*
X5485449Y-19492336D02*
X5504497Y-19501859D01*
X5504497Y-19501859D02*
X5514021Y-19520907D01*
X5514021Y-19520907D02*
X5514021Y-19625669D01*
X5514021Y-19520907D02*
X5523545Y-19501859D01*
X5523545Y-19501859D02*
X5542592Y-19492336D01*
X5542592Y-19492336D02*
X5571164Y-19492336D01*
X5571164Y-19492336D02*
X5590211Y-19501859D01*
X5590211Y-19501859D02*
X5599735Y-19520907D01*
X5599735Y-19520907D02*
X5599735Y-19625669D01*
X5990211Y-19416145D02*
X5818783Y-19673288D01*
X6247354Y-19425669D02*
X6266402Y-19425669D01*
X6266402Y-19425669D02*
X6285449Y-19435193D01*
X6285449Y-19435193D02*
X6294973Y-19444717D01*
X6294973Y-19444717D02*
X6304497Y-19463764D01*
X6304497Y-19463764D02*
X6314021Y-19501859D01*
X6314021Y-19501859D02*
X6314021Y-19549478D01*
X6314021Y-19549478D02*
X6304497Y-19587574D01*
X6304497Y-19587574D02*
X6294973Y-19606621D01*
X6294973Y-19606621D02*
X6285449Y-19616145D01*
X6285449Y-19616145D02*
X6266402Y-19625669D01*
X6266402Y-19625669D02*
X6247354Y-19625669D01*
X6247354Y-19625669D02*
X6228306Y-19616145D01*
X6228306Y-19616145D02*
X6218783Y-19606621D01*
X6218783Y-19606621D02*
X6209259Y-19587574D01*
X6209259Y-19587574D02*
X6199735Y-19549478D01*
X6199735Y-19549478D02*
X6199735Y-19501859D01*
X6199735Y-19501859D02*
X6209259Y-19463764D01*
X6209259Y-19463764D02*
X6218783Y-19444717D01*
X6218783Y-19444717D02*
X6228306Y-19435193D01*
X6228306Y-19435193D02*
X6247354Y-19425669D01*
X6399735Y-19606621D02*
X6409259Y-19616145D01*
X6409259Y-19616145D02*
X6399735Y-19625669D01*
X6399735Y-19625669D02*
X6390211Y-19616145D01*
X6390211Y-19616145D02*
X6399735Y-19606621D01*
X6399735Y-19606621D02*
X6399735Y-19625669D01*
X6533068Y-19425669D02*
X6552116Y-19425669D01*
X6552116Y-19425669D02*
X6571164Y-19435193D01*
X6571164Y-19435193D02*
X6580687Y-19444717D01*
X6580687Y-19444717D02*
X6590211Y-19463764D01*
X6590211Y-19463764D02*
X6599735Y-19501859D01*
X6599735Y-19501859D02*
X6599735Y-19549478D01*
X6599735Y-19549478D02*
X6590211Y-19587574D01*
X6590211Y-19587574D02*
X6580687Y-19606621D01*
X6580687Y-19606621D02*
X6571164Y-19616145D01*
X6571164Y-19616145D02*
X6552116Y-19625669D01*
X6552116Y-19625669D02*
X6533068Y-19625669D01*
X6533068Y-19625669D02*
X6514021Y-19616145D01*
X6514021Y-19616145D02*
X6504497Y-19606621D01*
X6504497Y-19606621D02*
X6494973Y-19587574D01*
X6494973Y-19587574D02*
X6485449Y-19549478D01*
X6485449Y-19549478D02*
X6485449Y-19501859D01*
X6485449Y-19501859D02*
X6494973Y-19463764D01*
X6494973Y-19463764D02*
X6504497Y-19444717D01*
X6504497Y-19444717D02*
X6514021Y-19435193D01*
X6514021Y-19435193D02*
X6533068Y-19425669D01*
X6666402Y-19425669D02*
X6799735Y-19425669D01*
X6799735Y-19425669D02*
X6714021Y-19625669D01*
X6914021Y-19425669D02*
X6933068Y-19425669D01*
X6933068Y-19425669D02*
X6952116Y-19435193D01*
X6952116Y-19435193D02*
X6961640Y-19444717D01*
X6961640Y-19444717D02*
X6971164Y-19463764D01*
X6971164Y-19463764D02*
X6980687Y-19501859D01*
X6980687Y-19501859D02*
X6980687Y-19549478D01*
X6980687Y-19549478D02*
X6971164Y-19587574D01*
X6971164Y-19587574D02*
X6961640Y-19606621D01*
X6961640Y-19606621D02*
X6952116Y-19616145D01*
X6952116Y-19616145D02*
X6933068Y-19625669D01*
X6933068Y-19625669D02*
X6914021Y-19625669D01*
X6914021Y-19625669D02*
X6894973Y-19616145D01*
X6894973Y-19616145D02*
X6885449Y-19606621D01*
X6885449Y-19606621D02*
X6875926Y-19587574D01*
X6875926Y-19587574D02*
X6866402Y-19549478D01*
X6866402Y-19549478D02*
X6866402Y-19501859D01*
X6866402Y-19501859D02*
X6875926Y-19463764D01*
X6875926Y-19463764D02*
X6885449Y-19444717D01*
X6885449Y-19444717D02*
X6894973Y-19435193D01*
X6894973Y-19435193D02*
X6914021Y-19425669D01*
X7104497Y-19425669D02*
X7123545Y-19425669D01*
X7123545Y-19425669D02*
X7142592Y-19435193D01*
X7142592Y-19435193D02*
X7152116Y-19444717D01*
X7152116Y-19444717D02*
X7161640Y-19463764D01*
X7161640Y-19463764D02*
X7171164Y-19501859D01*
X7171164Y-19501859D02*
X7171164Y-19549478D01*
X7171164Y-19549478D02*
X7161640Y-19587574D01*
X7161640Y-19587574D02*
X7152116Y-19606621D01*
X7152116Y-19606621D02*
X7142592Y-19616145D01*
X7142592Y-19616145D02*
X7123545Y-19625669D01*
X7123545Y-19625669D02*
X7104497Y-19625669D01*
X7104497Y-19625669D02*
X7085449Y-19616145D01*
X7085449Y-19616145D02*
X7075926Y-19606621D01*
X7075926Y-19606621D02*
X7066402Y-19587574D01*
X7066402Y-19587574D02*
X7056878Y-19549478D01*
X7056878Y-19549478D02*
X7056878Y-19501859D01*
X7056878Y-19501859D02*
X7066402Y-19463764D01*
X7066402Y-19463764D02*
X7075926Y-19444717D01*
X7075926Y-19444717D02*
X7085449Y-19435193D01*
X7085449Y-19435193D02*
X7104497Y-19425669D01*
X7247354Y-19425669D02*
X7247354Y-19463764D01*
X7323545Y-19425669D02*
X7323545Y-19463764D01*
X7618783Y-19701859D02*
X7609259Y-19692336D01*
X7609259Y-19692336D02*
X7590211Y-19663764D01*
X7590211Y-19663764D02*
X7580688Y-19644717D01*
X7580688Y-19644717D02*
X7571164Y-19616145D01*
X7571164Y-19616145D02*
X7561640Y-19568526D01*
X7561640Y-19568526D02*
X7561640Y-19530431D01*
X7561640Y-19530431D02*
X7571164Y-19482812D01*
X7571164Y-19482812D02*
X7580688Y-19454240D01*
X7580688Y-19454240D02*
X7590211Y-19435193D01*
X7590211Y-19435193D02*
X7609259Y-19406621D01*
X7609259Y-19406621D02*
X7618783Y-19397097D01*
X7780688Y-19492336D02*
X7780688Y-19625669D01*
X7733068Y-19416145D02*
X7685449Y-19559002D01*
X7685449Y-19559002D02*
X7809259Y-19559002D01*
X8037830Y-19625669D02*
X8037830Y-19425669D01*
X8123545Y-19625669D02*
X8123545Y-19520907D01*
X8123545Y-19520907D02*
X8114021Y-19501859D01*
X8114021Y-19501859D02*
X8094973Y-19492336D01*
X8094973Y-19492336D02*
X8066402Y-19492336D01*
X8066402Y-19492336D02*
X8047354Y-19501859D01*
X8047354Y-19501859D02*
X8037830Y-19511383D01*
X8247354Y-19625669D02*
X8228307Y-19616145D01*
X8228307Y-19616145D02*
X8218783Y-19606621D01*
X8218783Y-19606621D02*
X8209259Y-19587574D01*
X8209259Y-19587574D02*
X8209259Y-19530431D01*
X8209259Y-19530431D02*
X8218783Y-19511383D01*
X8218783Y-19511383D02*
X8228307Y-19501859D01*
X8228307Y-19501859D02*
X8247354Y-19492336D01*
X8247354Y-19492336D02*
X8275926Y-19492336D01*
X8275926Y-19492336D02*
X8294973Y-19501859D01*
X8294973Y-19501859D02*
X8304497Y-19511383D01*
X8304497Y-19511383D02*
X8314021Y-19530431D01*
X8314021Y-19530431D02*
X8314021Y-19587574D01*
X8314021Y-19587574D02*
X8304497Y-19606621D01*
X8304497Y-19606621D02*
X8294973Y-19616145D01*
X8294973Y-19616145D02*
X8275926Y-19625669D01*
X8275926Y-19625669D02*
X8247354Y-19625669D01*
X8428307Y-19625669D02*
X8409259Y-19616145D01*
X8409259Y-19616145D02*
X8399735Y-19597097D01*
X8399735Y-19597097D02*
X8399735Y-19425669D01*
X8580688Y-19616145D02*
X8561640Y-19625669D01*
X8561640Y-19625669D02*
X8523545Y-19625669D01*
X8523545Y-19625669D02*
X8504497Y-19616145D01*
X8504497Y-19616145D02*
X8494973Y-19597097D01*
X8494973Y-19597097D02*
X8494973Y-19520907D01*
X8494973Y-19520907D02*
X8504497Y-19501859D01*
X8504497Y-19501859D02*
X8523545Y-19492336D01*
X8523545Y-19492336D02*
X8561640Y-19492336D01*
X8561640Y-19492336D02*
X8580688Y-19501859D01*
X8580688Y-19501859D02*
X8590212Y-19520907D01*
X8590212Y-19520907D02*
X8590212Y-19539955D01*
X8590212Y-19539955D02*
X8494973Y-19559002D01*
X8666402Y-19616145D02*
X8685450Y-19625669D01*
X8685450Y-19625669D02*
X8723545Y-19625669D01*
X8723545Y-19625669D02*
X8742593Y-19616145D01*
X8742593Y-19616145D02*
X8752116Y-19597097D01*
X8752116Y-19597097D02*
X8752116Y-19587574D01*
X8752116Y-19587574D02*
X8742593Y-19568526D01*
X8742593Y-19568526D02*
X8723545Y-19559002D01*
X8723545Y-19559002D02*
X8694973Y-19559002D01*
X8694973Y-19559002D02*
X8675926Y-19549478D01*
X8675926Y-19549478D02*
X8666402Y-19530431D01*
X8666402Y-19530431D02*
X8666402Y-19520907D01*
X8666402Y-19520907D02*
X8675926Y-19501859D01*
X8675926Y-19501859D02*
X8694973Y-19492336D01*
X8694973Y-19492336D02*
X8723545Y-19492336D01*
X8723545Y-19492336D02*
X8742593Y-19501859D01*
X8818783Y-19701859D02*
X8828307Y-19692336D01*
X8828307Y-19692336D02*
X8847354Y-19663764D01*
X8847354Y-19663764D02*
X8856878Y-19644717D01*
X8856878Y-19644717D02*
X8866402Y-19616145D01*
X8866402Y-19616145D02*
X8875926Y-19568526D01*
X8875926Y-19568526D02*
X8875926Y-19530431D01*
X8875926Y-19530431D02*
X8866402Y-19482812D01*
X8866402Y-19482812D02*
X8856878Y-19454240D01*
X8856878Y-19454240D02*
X8847354Y-19435193D01*
X8847354Y-19435193D02*
X8828307Y-19406621D01*
X8828307Y-19406621D02*
X8818783Y-19397097D01*
X9180688Y-19701859D02*
X9171164Y-19692336D01*
X9171164Y-19692336D02*
X9152116Y-19663764D01*
X9152116Y-19663764D02*
X9142593Y-19644717D01*
X9142593Y-19644717D02*
X9133069Y-19616145D01*
X9133069Y-19616145D02*
X9123545Y-19568526D01*
X9123545Y-19568526D02*
X9123545Y-19530431D01*
X9123545Y-19530431D02*
X9133069Y-19482812D01*
X9133069Y-19482812D02*
X9142593Y-19454240D01*
X9142593Y-19454240D02*
X9152116Y-19435193D01*
X9152116Y-19435193D02*
X9171164Y-19406621D01*
X9171164Y-19406621D02*
X9180688Y-19397097D01*
X9256878Y-19492336D02*
X9256878Y-19625669D01*
X9256878Y-19511383D02*
X9266402Y-19501859D01*
X9266402Y-19501859D02*
X9285450Y-19492336D01*
X9285450Y-19492336D02*
X9314021Y-19492336D01*
X9314021Y-19492336D02*
X9333069Y-19501859D01*
X9333069Y-19501859D02*
X9342593Y-19520907D01*
X9342593Y-19520907D02*
X9342593Y-19625669D01*
X9466402Y-19625669D02*
X9447354Y-19616145D01*
X9447354Y-19616145D02*
X9437831Y-19606621D01*
X9437831Y-19606621D02*
X9428307Y-19587574D01*
X9428307Y-19587574D02*
X9428307Y-19530431D01*
X9428307Y-19530431D02*
X9437831Y-19511383D01*
X9437831Y-19511383D02*
X9447354Y-19501859D01*
X9447354Y-19501859D02*
X9466402Y-19492336D01*
X9466402Y-19492336D02*
X9494974Y-19492336D01*
X9494974Y-19492336D02*
X9514021Y-19501859D01*
X9514021Y-19501859D02*
X9523545Y-19511383D01*
X9523545Y-19511383D02*
X9533069Y-19530431D01*
X9533069Y-19530431D02*
X9533069Y-19587574D01*
X9533069Y-19587574D02*
X9523545Y-19606621D01*
X9523545Y-19606621D02*
X9514021Y-19616145D01*
X9514021Y-19616145D02*
X9494974Y-19625669D01*
X9494974Y-19625669D02*
X9466402Y-19625669D01*
X9590212Y-19492336D02*
X9666402Y-19492336D01*
X9618783Y-19425669D02*
X9618783Y-19597097D01*
X9618783Y-19597097D02*
X9628307Y-19616145D01*
X9628307Y-19616145D02*
X9647354Y-19625669D01*
X9647354Y-19625669D02*
X9666402Y-19625669D01*
X9885450Y-19492336D02*
X9885450Y-19692336D01*
X9885450Y-19501859D02*
X9904497Y-19492336D01*
X9904497Y-19492336D02*
X9942593Y-19492336D01*
X9942593Y-19492336D02*
X9961640Y-19501859D01*
X9961640Y-19501859D02*
X9971164Y-19511383D01*
X9971164Y-19511383D02*
X9980688Y-19530431D01*
X9980688Y-19530431D02*
X9980688Y-19587574D01*
X9980688Y-19587574D02*
X9971164Y-19606621D01*
X9971164Y-19606621D02*
X9961640Y-19616145D01*
X9961640Y-19616145D02*
X9942593Y-19625669D01*
X9942593Y-19625669D02*
X9904497Y-19625669D01*
X9904497Y-19625669D02*
X9885450Y-19616145D01*
X10094974Y-19625669D02*
X10075926Y-19616145D01*
X10075926Y-19616145D02*
X10066402Y-19597097D01*
X10066402Y-19597097D02*
X10066402Y-19425669D01*
X10256878Y-19625669D02*
X10256878Y-19520907D01*
X10256878Y-19520907D02*
X10247355Y-19501859D01*
X10247355Y-19501859D02*
X10228307Y-19492336D01*
X10228307Y-19492336D02*
X10190212Y-19492336D01*
X10190212Y-19492336D02*
X10171164Y-19501859D01*
X10256878Y-19616145D02*
X10237831Y-19625669D01*
X10237831Y-19625669D02*
X10190212Y-19625669D01*
X10190212Y-19625669D02*
X10171164Y-19616145D01*
X10171164Y-19616145D02*
X10161640Y-19597097D01*
X10161640Y-19597097D02*
X10161640Y-19578050D01*
X10161640Y-19578050D02*
X10171164Y-19559002D01*
X10171164Y-19559002D02*
X10190212Y-19549478D01*
X10190212Y-19549478D02*
X10237831Y-19549478D01*
X10237831Y-19549478D02*
X10256878Y-19539955D01*
X10323545Y-19492336D02*
X10399735Y-19492336D01*
X10352116Y-19425669D02*
X10352116Y-19597097D01*
X10352116Y-19597097D02*
X10361640Y-19616145D01*
X10361640Y-19616145D02*
X10380688Y-19625669D01*
X10380688Y-19625669D02*
X10399735Y-19625669D01*
X10542593Y-19616145D02*
X10523545Y-19625669D01*
X10523545Y-19625669D02*
X10485450Y-19625669D01*
X10485450Y-19625669D02*
X10466402Y-19616145D01*
X10466402Y-19616145D02*
X10456878Y-19597097D01*
X10456878Y-19597097D02*
X10456878Y-19520907D01*
X10456878Y-19520907D02*
X10466402Y-19501859D01*
X10466402Y-19501859D02*
X10485450Y-19492336D01*
X10485450Y-19492336D02*
X10523545Y-19492336D01*
X10523545Y-19492336D02*
X10542593Y-19501859D01*
X10542593Y-19501859D02*
X10552116Y-19520907D01*
X10552116Y-19520907D02*
X10552116Y-19539955D01*
X10552116Y-19539955D02*
X10456878Y-19559002D01*
X10723545Y-19625669D02*
X10723545Y-19425669D01*
X10723545Y-19616145D02*
X10704497Y-19625669D01*
X10704497Y-19625669D02*
X10666402Y-19625669D01*
X10666402Y-19625669D02*
X10647355Y-19616145D01*
X10647355Y-19616145D02*
X10637831Y-19606621D01*
X10637831Y-19606621D02*
X10628307Y-19587574D01*
X10628307Y-19587574D02*
X10628307Y-19530431D01*
X10628307Y-19530431D02*
X10637831Y-19511383D01*
X10637831Y-19511383D02*
X10647355Y-19501859D01*
X10647355Y-19501859D02*
X10666402Y-19492336D01*
X10666402Y-19492336D02*
X10704497Y-19492336D01*
X10704497Y-19492336D02*
X10723545Y-19501859D01*
X10799736Y-19701859D02*
X10809259Y-19692336D01*
X10809259Y-19692336D02*
X10828307Y-19663764D01*
X10828307Y-19663764D02*
X10837831Y-19644717D01*
X10837831Y-19644717D02*
X10847355Y-19616145D01*
X10847355Y-19616145D02*
X10856878Y-19568526D01*
X10856878Y-19568526D02*
X10856878Y-19530431D01*
X10856878Y-19530431D02*
X10847355Y-19482812D01*
X10847355Y-19482812D02*
X10837831Y-19454240D01*
X10837831Y-19454240D02*
X10828307Y-19435193D01*
X10828307Y-19435193D02*
X10809259Y-19406621D01*
X10809259Y-19406621D02*
X10799736Y-19397097D01*
X4043720Y-19831985D02*
G75*
G03*
X4043720Y-19831985I-100000J0D01*
G01*
X4285449Y-19723469D02*
X4409259Y-19723469D01*
X4409259Y-19723469D02*
X4342592Y-19799659D01*
X4342592Y-19799659D02*
X4371164Y-19799659D01*
X4371164Y-19799659D02*
X4390211Y-19809183D01*
X4390211Y-19809183D02*
X4399735Y-19818707D01*
X4399735Y-19818707D02*
X4409259Y-19837755D01*
X4409259Y-19837755D02*
X4409259Y-19885374D01*
X4409259Y-19885374D02*
X4399735Y-19904421D01*
X4399735Y-19904421D02*
X4390211Y-19913945D01*
X4390211Y-19913945D02*
X4371164Y-19923469D01*
X4371164Y-19923469D02*
X4314021Y-19923469D01*
X4314021Y-19923469D02*
X4294973Y-19913945D01*
X4294973Y-19913945D02*
X4285449Y-19904421D01*
X4494973Y-19904421D02*
X4504497Y-19913945D01*
X4504497Y-19913945D02*
X4494973Y-19923469D01*
X4494973Y-19923469D02*
X4485449Y-19913945D01*
X4485449Y-19913945D02*
X4494973Y-19904421D01*
X4494973Y-19904421D02*
X4494973Y-19923469D01*
X4580687Y-19742517D02*
X4590211Y-19732993D01*
X4590211Y-19732993D02*
X4609259Y-19723469D01*
X4609259Y-19723469D02*
X4656878Y-19723469D01*
X4656878Y-19723469D02*
X4675925Y-19732993D01*
X4675925Y-19732993D02*
X4685449Y-19742517D01*
X4685449Y-19742517D02*
X4694973Y-19761564D01*
X4694973Y-19761564D02*
X4694973Y-19780612D01*
X4694973Y-19780612D02*
X4685449Y-19809183D01*
X4685449Y-19809183D02*
X4571164Y-19923469D01*
X4571164Y-19923469D02*
X4694973Y-19923469D01*
X4818783Y-19723469D02*
X4837830Y-19723469D01*
X4837830Y-19723469D02*
X4856878Y-19732993D01*
X4856878Y-19732993D02*
X4866402Y-19742517D01*
X4866402Y-19742517D02*
X4875925Y-19761564D01*
X4875925Y-19761564D02*
X4885449Y-19799659D01*
X4885449Y-19799659D02*
X4885449Y-19847278D01*
X4885449Y-19847278D02*
X4875925Y-19885374D01*
X4875925Y-19885374D02*
X4866402Y-19904421D01*
X4866402Y-19904421D02*
X4856878Y-19913945D01*
X4856878Y-19913945D02*
X4837830Y-19923469D01*
X4837830Y-19923469D02*
X4818783Y-19923469D01*
X4818783Y-19923469D02*
X4799735Y-19913945D01*
X4799735Y-19913945D02*
X4790211Y-19904421D01*
X4790211Y-19904421D02*
X4780687Y-19885374D01*
X4780687Y-19885374D02*
X4771164Y-19847278D01*
X4771164Y-19847278D02*
X4771164Y-19799659D01*
X4771164Y-19799659D02*
X4780687Y-19761564D01*
X4780687Y-19761564D02*
X4790211Y-19742517D01*
X4790211Y-19742517D02*
X4799735Y-19732993D01*
X4799735Y-19732993D02*
X4818783Y-19723469D01*
X5009259Y-19723469D02*
X5028306Y-19723469D01*
X5028306Y-19723469D02*
X5047354Y-19732993D01*
X5047354Y-19732993D02*
X5056878Y-19742517D01*
X5056878Y-19742517D02*
X5066402Y-19761564D01*
X5066402Y-19761564D02*
X5075925Y-19799659D01*
X5075925Y-19799659D02*
X5075925Y-19847278D01*
X5075925Y-19847278D02*
X5066402Y-19885374D01*
X5066402Y-19885374D02*
X5056878Y-19904421D01*
X5056878Y-19904421D02*
X5047354Y-19913945D01*
X5047354Y-19913945D02*
X5028306Y-19923469D01*
X5028306Y-19923469D02*
X5009259Y-19923469D01*
X5009259Y-19923469D02*
X4990211Y-19913945D01*
X4990211Y-19913945D02*
X4980687Y-19904421D01*
X4980687Y-19904421D02*
X4971164Y-19885374D01*
X4971164Y-19885374D02*
X4961640Y-19847278D01*
X4961640Y-19847278D02*
X4961640Y-19799659D01*
X4961640Y-19799659D02*
X4971164Y-19761564D01*
X4971164Y-19761564D02*
X4980687Y-19742517D01*
X4980687Y-19742517D02*
X4990211Y-19732993D01*
X4990211Y-19732993D02*
X5009259Y-19723469D01*
X5161640Y-19923469D02*
X5161640Y-19790136D01*
X5161640Y-19809183D02*
X5171164Y-19799659D01*
X5171164Y-19799659D02*
X5190211Y-19790136D01*
X5190211Y-19790136D02*
X5218783Y-19790136D01*
X5218783Y-19790136D02*
X5237830Y-19799659D01*
X5237830Y-19799659D02*
X5247354Y-19818707D01*
X5247354Y-19818707D02*
X5247354Y-19923469D01*
X5247354Y-19818707D02*
X5256878Y-19799659D01*
X5256878Y-19799659D02*
X5275925Y-19790136D01*
X5275925Y-19790136D02*
X5304497Y-19790136D01*
X5304497Y-19790136D02*
X5323545Y-19799659D01*
X5323545Y-19799659D02*
X5333068Y-19818707D01*
X5333068Y-19818707D02*
X5333068Y-19923469D01*
X5428306Y-19923469D02*
X5428306Y-19790136D01*
X5428306Y-19809183D02*
X5437830Y-19799659D01*
X5437830Y-19799659D02*
X5456878Y-19790136D01*
X5456878Y-19790136D02*
X5485449Y-19790136D01*
X5485449Y-19790136D02*
X5504497Y-19799659D01*
X5504497Y-19799659D02*
X5514021Y-19818707D01*
X5514021Y-19818707D02*
X5514021Y-19923469D01*
X5514021Y-19818707D02*
X5523545Y-19799659D01*
X5523545Y-19799659D02*
X5542592Y-19790136D01*
X5542592Y-19790136D02*
X5571164Y-19790136D01*
X5571164Y-19790136D02*
X5590211Y-19799659D01*
X5590211Y-19799659D02*
X5599735Y-19818707D01*
X5599735Y-19818707D02*
X5599735Y-19923469D01*
X5990211Y-19713945D02*
X5818783Y-19971088D01*
X6247354Y-19723469D02*
X6266402Y-19723469D01*
X6266402Y-19723469D02*
X6285449Y-19732993D01*
X6285449Y-19732993D02*
X6294973Y-19742517D01*
X6294973Y-19742517D02*
X6304497Y-19761564D01*
X6304497Y-19761564D02*
X6314021Y-19799659D01*
X6314021Y-19799659D02*
X6314021Y-19847278D01*
X6314021Y-19847278D02*
X6304497Y-19885374D01*
X6304497Y-19885374D02*
X6294973Y-19904421D01*
X6294973Y-19904421D02*
X6285449Y-19913945D01*
X6285449Y-19913945D02*
X6266402Y-19923469D01*
X6266402Y-19923469D02*
X6247354Y-19923469D01*
X6247354Y-19923469D02*
X6228306Y-19913945D01*
X6228306Y-19913945D02*
X6218783Y-19904421D01*
X6218783Y-19904421D02*
X6209259Y-19885374D01*
X6209259Y-19885374D02*
X6199735Y-19847278D01*
X6199735Y-19847278D02*
X6199735Y-19799659D01*
X6199735Y-19799659D02*
X6209259Y-19761564D01*
X6209259Y-19761564D02*
X6218783Y-19742517D01*
X6218783Y-19742517D02*
X6228306Y-19732993D01*
X6228306Y-19732993D02*
X6247354Y-19723469D01*
X6399735Y-19904421D02*
X6409259Y-19913945D01*
X6409259Y-19913945D02*
X6399735Y-19923469D01*
X6399735Y-19923469D02*
X6390211Y-19913945D01*
X6390211Y-19913945D02*
X6399735Y-19904421D01*
X6399735Y-19904421D02*
X6399735Y-19923469D01*
X6599735Y-19923469D02*
X6485449Y-19923469D01*
X6542592Y-19923469D02*
X6542592Y-19723469D01*
X6542592Y-19723469D02*
X6523545Y-19752040D01*
X6523545Y-19752040D02*
X6504497Y-19771088D01*
X6504497Y-19771088D02*
X6485449Y-19780612D01*
X6675926Y-19742517D02*
X6685449Y-19732993D01*
X6685449Y-19732993D02*
X6704497Y-19723469D01*
X6704497Y-19723469D02*
X6752116Y-19723469D01*
X6752116Y-19723469D02*
X6771164Y-19732993D01*
X6771164Y-19732993D02*
X6780687Y-19742517D01*
X6780687Y-19742517D02*
X6790211Y-19761564D01*
X6790211Y-19761564D02*
X6790211Y-19780612D01*
X6790211Y-19780612D02*
X6780687Y-19809183D01*
X6780687Y-19809183D02*
X6666402Y-19923469D01*
X6666402Y-19923469D02*
X6790211Y-19923469D01*
X6961640Y-19723469D02*
X6923545Y-19723469D01*
X6923545Y-19723469D02*
X6904497Y-19732993D01*
X6904497Y-19732993D02*
X6894973Y-19742517D01*
X6894973Y-19742517D02*
X6875926Y-19771088D01*
X6875926Y-19771088D02*
X6866402Y-19809183D01*
X6866402Y-19809183D02*
X6866402Y-19885374D01*
X6866402Y-19885374D02*
X6875926Y-19904421D01*
X6875926Y-19904421D02*
X6885449Y-19913945D01*
X6885449Y-19913945D02*
X6904497Y-19923469D01*
X6904497Y-19923469D02*
X6942592Y-19923469D01*
X6942592Y-19923469D02*
X6961640Y-19913945D01*
X6961640Y-19913945D02*
X6971164Y-19904421D01*
X6971164Y-19904421D02*
X6980687Y-19885374D01*
X6980687Y-19885374D02*
X6980687Y-19837755D01*
X6980687Y-19837755D02*
X6971164Y-19818707D01*
X6971164Y-19818707D02*
X6961640Y-19809183D01*
X6961640Y-19809183D02*
X6942592Y-19799659D01*
X6942592Y-19799659D02*
X6904497Y-19799659D01*
X6904497Y-19799659D02*
X6885449Y-19809183D01*
X6885449Y-19809183D02*
X6875926Y-19818707D01*
X6875926Y-19818707D02*
X6866402Y-19837755D01*
X7104497Y-19723469D02*
X7123545Y-19723469D01*
X7123545Y-19723469D02*
X7142592Y-19732993D01*
X7142592Y-19732993D02*
X7152116Y-19742517D01*
X7152116Y-19742517D02*
X7161640Y-19761564D01*
X7161640Y-19761564D02*
X7171164Y-19799659D01*
X7171164Y-19799659D02*
X7171164Y-19847278D01*
X7171164Y-19847278D02*
X7161640Y-19885374D01*
X7161640Y-19885374D02*
X7152116Y-19904421D01*
X7152116Y-19904421D02*
X7142592Y-19913945D01*
X7142592Y-19913945D02*
X7123545Y-19923469D01*
X7123545Y-19923469D02*
X7104497Y-19923469D01*
X7104497Y-19923469D02*
X7085449Y-19913945D01*
X7085449Y-19913945D02*
X7075926Y-19904421D01*
X7075926Y-19904421D02*
X7066402Y-19885374D01*
X7066402Y-19885374D02*
X7056878Y-19847278D01*
X7056878Y-19847278D02*
X7056878Y-19799659D01*
X7056878Y-19799659D02*
X7066402Y-19761564D01*
X7066402Y-19761564D02*
X7075926Y-19742517D01*
X7075926Y-19742517D02*
X7085449Y-19732993D01*
X7085449Y-19732993D02*
X7104497Y-19723469D01*
X7247354Y-19723469D02*
X7247354Y-19761564D01*
X7323545Y-19723469D02*
X7323545Y-19761564D01*
X7618783Y-19999659D02*
X7609259Y-19990136D01*
X7609259Y-19990136D02*
X7590211Y-19961564D01*
X7590211Y-19961564D02*
X7580688Y-19942517D01*
X7580688Y-19942517D02*
X7571164Y-19913945D01*
X7571164Y-19913945D02*
X7561640Y-19866326D01*
X7561640Y-19866326D02*
X7561640Y-19828231D01*
X7561640Y-19828231D02*
X7571164Y-19780612D01*
X7571164Y-19780612D02*
X7580688Y-19752040D01*
X7580688Y-19752040D02*
X7590211Y-19732993D01*
X7590211Y-19732993D02*
X7609259Y-19704421D01*
X7609259Y-19704421D02*
X7618783Y-19694897D01*
X7799735Y-19923469D02*
X7685449Y-19923469D01*
X7742592Y-19923469D02*
X7742592Y-19723469D01*
X7742592Y-19723469D02*
X7723545Y-19752040D01*
X7723545Y-19752040D02*
X7704497Y-19771088D01*
X7704497Y-19771088D02*
X7685449Y-19780612D01*
X7923545Y-19723469D02*
X7942592Y-19723469D01*
X7942592Y-19723469D02*
X7961640Y-19732993D01*
X7961640Y-19732993D02*
X7971164Y-19742517D01*
X7971164Y-19742517D02*
X7980688Y-19761564D01*
X7980688Y-19761564D02*
X7990211Y-19799659D01*
X7990211Y-19799659D02*
X7990211Y-19847278D01*
X7990211Y-19847278D02*
X7980688Y-19885374D01*
X7980688Y-19885374D02*
X7971164Y-19904421D01*
X7971164Y-19904421D02*
X7961640Y-19913945D01*
X7961640Y-19913945D02*
X7942592Y-19923469D01*
X7942592Y-19923469D02*
X7923545Y-19923469D01*
X7923545Y-19923469D02*
X7904497Y-19913945D01*
X7904497Y-19913945D02*
X7894973Y-19904421D01*
X7894973Y-19904421D02*
X7885449Y-19885374D01*
X7885449Y-19885374D02*
X7875926Y-19847278D01*
X7875926Y-19847278D02*
X7875926Y-19799659D01*
X7875926Y-19799659D02*
X7885449Y-19761564D01*
X7885449Y-19761564D02*
X7894973Y-19742517D01*
X7894973Y-19742517D02*
X7904497Y-19732993D01*
X7904497Y-19732993D02*
X7923545Y-19723469D01*
X8228307Y-19923469D02*
X8228307Y-19723469D01*
X8314021Y-19923469D02*
X8314021Y-19818707D01*
X8314021Y-19818707D02*
X8304497Y-19799659D01*
X8304497Y-19799659D02*
X8285450Y-19790136D01*
X8285450Y-19790136D02*
X8256878Y-19790136D01*
X8256878Y-19790136D02*
X8237830Y-19799659D01*
X8237830Y-19799659D02*
X8228307Y-19809183D01*
X8437831Y-19923469D02*
X8418783Y-19913945D01*
X8418783Y-19913945D02*
X8409259Y-19904421D01*
X8409259Y-19904421D02*
X8399735Y-19885374D01*
X8399735Y-19885374D02*
X8399735Y-19828231D01*
X8399735Y-19828231D02*
X8409259Y-19809183D01*
X8409259Y-19809183D02*
X8418783Y-19799659D01*
X8418783Y-19799659D02*
X8437831Y-19790136D01*
X8437831Y-19790136D02*
X8466402Y-19790136D01*
X8466402Y-19790136D02*
X8485450Y-19799659D01*
X8485450Y-19799659D02*
X8494973Y-19809183D01*
X8494973Y-19809183D02*
X8504497Y-19828231D01*
X8504497Y-19828231D02*
X8504497Y-19885374D01*
X8504497Y-19885374D02*
X8494973Y-19904421D01*
X8494973Y-19904421D02*
X8485450Y-19913945D01*
X8485450Y-19913945D02*
X8466402Y-19923469D01*
X8466402Y-19923469D02*
X8437831Y-19923469D01*
X8618783Y-19923469D02*
X8599735Y-19913945D01*
X8599735Y-19913945D02*
X8590212Y-19894897D01*
X8590212Y-19894897D02*
X8590212Y-19723469D01*
X8771164Y-19913945D02*
X8752116Y-19923469D01*
X8752116Y-19923469D02*
X8714021Y-19923469D01*
X8714021Y-19923469D02*
X8694973Y-19913945D01*
X8694973Y-19913945D02*
X8685450Y-19894897D01*
X8685450Y-19894897D02*
X8685450Y-19818707D01*
X8685450Y-19818707D02*
X8694973Y-19799659D01*
X8694973Y-19799659D02*
X8714021Y-19790136D01*
X8714021Y-19790136D02*
X8752116Y-19790136D01*
X8752116Y-19790136D02*
X8771164Y-19799659D01*
X8771164Y-19799659D02*
X8780688Y-19818707D01*
X8780688Y-19818707D02*
X8780688Y-19837755D01*
X8780688Y-19837755D02*
X8685450Y-19856802D01*
X8856878Y-19913945D02*
X8875926Y-19923469D01*
X8875926Y-19923469D02*
X8914021Y-19923469D01*
X8914021Y-19923469D02*
X8933069Y-19913945D01*
X8933069Y-19913945D02*
X8942593Y-19894897D01*
X8942593Y-19894897D02*
X8942593Y-19885374D01*
X8942593Y-19885374D02*
X8933069Y-19866326D01*
X8933069Y-19866326D02*
X8914021Y-19856802D01*
X8914021Y-19856802D02*
X8885450Y-19856802D01*
X8885450Y-19856802D02*
X8866402Y-19847278D01*
X8866402Y-19847278D02*
X8856878Y-19828231D01*
X8856878Y-19828231D02*
X8856878Y-19818707D01*
X8856878Y-19818707D02*
X8866402Y-19799659D01*
X8866402Y-19799659D02*
X8885450Y-19790136D01*
X8885450Y-19790136D02*
X8914021Y-19790136D01*
X8914021Y-19790136D02*
X8933069Y-19799659D01*
X9009259Y-19999659D02*
X9018783Y-19990136D01*
X9018783Y-19990136D02*
X9037831Y-19961564D01*
X9037831Y-19961564D02*
X9047354Y-19942517D01*
X9047354Y-19942517D02*
X9056878Y-19913945D01*
X9056878Y-19913945D02*
X9066402Y-19866326D01*
X9066402Y-19866326D02*
X9066402Y-19828231D01*
X9066402Y-19828231D02*
X9056878Y-19780612D01*
X9056878Y-19780612D02*
X9047354Y-19752040D01*
X9047354Y-19752040D02*
X9037831Y-19732993D01*
X9037831Y-19732993D02*
X9018783Y-19704421D01*
X9018783Y-19704421D02*
X9009259Y-19694897D01*
X9371164Y-19999659D02*
X9361640Y-19990136D01*
X9361640Y-19990136D02*
X9342593Y-19961564D01*
X9342593Y-19961564D02*
X9333069Y-19942517D01*
X9333069Y-19942517D02*
X9323545Y-19913945D01*
X9323545Y-19913945D02*
X9314021Y-19866326D01*
X9314021Y-19866326D02*
X9314021Y-19828231D01*
X9314021Y-19828231D02*
X9323545Y-19780612D01*
X9323545Y-19780612D02*
X9333069Y-19752040D01*
X9333069Y-19752040D02*
X9342593Y-19732993D01*
X9342593Y-19732993D02*
X9361640Y-19704421D01*
X9361640Y-19704421D02*
X9371164Y-19694897D01*
X9447354Y-19790136D02*
X9447354Y-19923469D01*
X9447354Y-19809183D02*
X9456878Y-19799659D01*
X9456878Y-19799659D02*
X9475926Y-19790136D01*
X9475926Y-19790136D02*
X9504497Y-19790136D01*
X9504497Y-19790136D02*
X9523545Y-19799659D01*
X9523545Y-19799659D02*
X9533069Y-19818707D01*
X9533069Y-19818707D02*
X9533069Y-19923469D01*
X9656878Y-19923469D02*
X9637831Y-19913945D01*
X9637831Y-19913945D02*
X9628307Y-19904421D01*
X9628307Y-19904421D02*
X9618783Y-19885374D01*
X9618783Y-19885374D02*
X9618783Y-19828231D01*
X9618783Y-19828231D02*
X9628307Y-19809183D01*
X9628307Y-19809183D02*
X9637831Y-19799659D01*
X9637831Y-19799659D02*
X9656878Y-19790136D01*
X9656878Y-19790136D02*
X9685450Y-19790136D01*
X9685450Y-19790136D02*
X9704497Y-19799659D01*
X9704497Y-19799659D02*
X9714021Y-19809183D01*
X9714021Y-19809183D02*
X9723545Y-19828231D01*
X9723545Y-19828231D02*
X9723545Y-19885374D01*
X9723545Y-19885374D02*
X9714021Y-19904421D01*
X9714021Y-19904421D02*
X9704497Y-19913945D01*
X9704497Y-19913945D02*
X9685450Y-19923469D01*
X9685450Y-19923469D02*
X9656878Y-19923469D01*
X9780688Y-19790136D02*
X9856878Y-19790136D01*
X9809259Y-19723469D02*
X9809259Y-19894897D01*
X9809259Y-19894897D02*
X9818783Y-19913945D01*
X9818783Y-19913945D02*
X9837831Y-19923469D01*
X9837831Y-19923469D02*
X9856878Y-19923469D01*
X10075926Y-19790136D02*
X10075926Y-19990136D01*
X10075926Y-19799659D02*
X10094974Y-19790136D01*
X10094974Y-19790136D02*
X10133069Y-19790136D01*
X10133069Y-19790136D02*
X10152116Y-19799659D01*
X10152116Y-19799659D02*
X10161640Y-19809183D01*
X10161640Y-19809183D02*
X10171164Y-19828231D01*
X10171164Y-19828231D02*
X10171164Y-19885374D01*
X10171164Y-19885374D02*
X10161640Y-19904421D01*
X10161640Y-19904421D02*
X10152116Y-19913945D01*
X10152116Y-19913945D02*
X10133069Y-19923469D01*
X10133069Y-19923469D02*
X10094974Y-19923469D01*
X10094974Y-19923469D02*
X10075926Y-19913945D01*
X10285450Y-19923469D02*
X10266402Y-19913945D01*
X10266402Y-19913945D02*
X10256878Y-19894897D01*
X10256878Y-19894897D02*
X10256878Y-19723469D01*
X10447355Y-19923469D02*
X10447355Y-19818707D01*
X10447355Y-19818707D02*
X10437831Y-19799659D01*
X10437831Y-19799659D02*
X10418783Y-19790136D01*
X10418783Y-19790136D02*
X10380688Y-19790136D01*
X10380688Y-19790136D02*
X10361640Y-19799659D01*
X10447355Y-19913945D02*
X10428307Y-19923469D01*
X10428307Y-19923469D02*
X10380688Y-19923469D01*
X10380688Y-19923469D02*
X10361640Y-19913945D01*
X10361640Y-19913945D02*
X10352116Y-19894897D01*
X10352116Y-19894897D02*
X10352116Y-19875850D01*
X10352116Y-19875850D02*
X10361640Y-19856802D01*
X10361640Y-19856802D02*
X10380688Y-19847278D01*
X10380688Y-19847278D02*
X10428307Y-19847278D01*
X10428307Y-19847278D02*
X10447355Y-19837755D01*
X10514021Y-19790136D02*
X10590212Y-19790136D01*
X10542593Y-19723469D02*
X10542593Y-19894897D01*
X10542593Y-19894897D02*
X10552116Y-19913945D01*
X10552116Y-19913945D02*
X10571164Y-19923469D01*
X10571164Y-19923469D02*
X10590212Y-19923469D01*
X10733069Y-19913945D02*
X10714021Y-19923469D01*
X10714021Y-19923469D02*
X10675926Y-19923469D01*
X10675926Y-19923469D02*
X10656878Y-19913945D01*
X10656878Y-19913945D02*
X10647355Y-19894897D01*
X10647355Y-19894897D02*
X10647355Y-19818707D01*
X10647355Y-19818707D02*
X10656878Y-19799659D01*
X10656878Y-19799659D02*
X10675926Y-19790136D01*
X10675926Y-19790136D02*
X10714021Y-19790136D01*
X10714021Y-19790136D02*
X10733069Y-19799659D01*
X10733069Y-19799659D02*
X10742593Y-19818707D01*
X10742593Y-19818707D02*
X10742593Y-19837755D01*
X10742593Y-19837755D02*
X10647355Y-19856802D01*
X10914021Y-19923469D02*
X10914021Y-19723469D01*
X10914021Y-19913945D02*
X10894974Y-19923469D01*
X10894974Y-19923469D02*
X10856878Y-19923469D01*
X10856878Y-19923469D02*
X10837831Y-19913945D01*
X10837831Y-19913945D02*
X10828307Y-19904421D01*
X10828307Y-19904421D02*
X10818783Y-19885374D01*
X10818783Y-19885374D02*
X10818783Y-19828231D01*
X10818783Y-19828231D02*
X10828307Y-19809183D01*
X10828307Y-19809183D02*
X10837831Y-19799659D01*
X10837831Y-19799659D02*
X10856878Y-19790136D01*
X10856878Y-19790136D02*
X10894974Y-19790136D01*
X10894974Y-19790136D02*
X10914021Y-19799659D01*
X10990212Y-19999659D02*
X10999736Y-19990136D01*
X10999736Y-19990136D02*
X11018783Y-19961564D01*
X11018783Y-19961564D02*
X11028307Y-19942517D01*
X11028307Y-19942517D02*
X11037831Y-19913945D01*
X11037831Y-19913945D02*
X11047355Y-19866326D01*
X11047355Y-19866326D02*
X11047355Y-19828231D01*
X11047355Y-19828231D02*
X11037831Y-19780612D01*
X11037831Y-19780612D02*
X11028307Y-19752040D01*
X11028307Y-19752040D02*
X11018783Y-19732993D01*
X11018783Y-19732993D02*
X10999736Y-19704421D01*
X10999736Y-19704421D02*
X10990212Y-19694897D01*
M02*
