M48
; DRILL file {KiCad 7.0.7} date 2024 February 09, Friday 12:41:00
; FORMAT={-:-/ absolute / inch / decimal}
; #@! TF.CreationDate,2024-02-09T12:41:00+08:00
; #@! TF.GenerationSoftware,Kicad,Pcbnew,7.0.7
; #@! TF.FileFunction,Plated,1,2,PTH
FMAT,2
INCH
; #@! TA.AperFunction,Plated,PTH,ViaDrill
T1C0.0118
; #@! TA.AperFunction,Plated,PTH,ViaDrill
T2C0.0236
; #@! TA.AperFunction,Plated,PTH,ComponentDrill
T3C0.0315
; #@! TA.AperFunction,Plated,PTH,ViaDrill
T4C0.0394
; #@! TA.AperFunction,Plated,PTH,ComponentDrill
T5C0.0394
; #@! TA.AperFunction,Plated,PTH,ComponentDrill
T6C0.0400
; #@! TA.AperFunction,Plated,PTH,ComponentDrill
T7C0.0433
; #@! TA.AperFunction,Plated,PTH,ComponentDrill
T8C0.0520
; #@! TA.AperFunction,Plated,PTH,ComponentDrill
T9C0.0560
%
G90
G05
T1
X3.384Y-2.623
X3.414Y-2.623
X3.444Y-2.623
X3.474Y-2.623
X3.504Y-2.623
X3.534Y-2.623
X3.584Y-2.623
X3.724Y-2.573
X3.754Y-2.573
X3.784Y-2.573
X3.814Y-2.573
X3.844Y-2.573
T2
X2.594Y-6.243
X2.754Y-6.583
X2.784Y-2.063
X2.9244Y-1.968
X3.184Y-1.813
X3.754Y-6.593
X3.804Y-3.203
X3.884Y-2.473
X4.044Y-6.443
X4.184Y-1.803
X4.184Y-5.393
X4.674Y-1.763
X5.474Y-5.163
T3
X3.34Y-5.8877
X3.34Y-5.9877
X3.34Y-6.0877
X3.34Y-6.1877
X3.34Y-6.2877
X3.34Y-6.3877
X3.34Y-6.4877
X3.34Y-6.5877
X3.34Y-6.6877
X3.34Y-6.7877
X3.34Y-6.8877
X3.34Y-6.9877
X3.34Y-7.0877
X3.34Y-7.1877
X3.34Y-7.2877
X3.94Y-5.8877
X3.94Y-5.9877
X3.94Y-6.0877
X3.94Y-6.1877
X3.94Y-6.2877
X3.94Y-6.3877
X3.94Y-6.4877
X3.94Y-6.5877
X3.94Y-6.6877
X3.94Y-6.7877
X3.94Y-6.8877
X3.94Y-6.9877
X3.94Y-7.0877
X3.94Y-7.1877
X3.94Y-7.2877
T4
X3.184Y-5.923
X3.5978Y-5.6968
X4.324Y-2.563
T5
X3.49Y-1.833
X3.59Y-1.833
X3.69Y-1.833
X3.79Y-1.833
T6
X2.162Y-5.1037
X2.262Y-5.1037
X2.362Y-5.1037
X2.596Y-6.601
X2.596Y-6.906
X3.5575Y-7.3307
X3.605Y-6.8007
X3.645Y-7.3307
X3.705Y-6.8007
X3.7325Y-7.3307
X4.65Y-5.7007
X4.696Y-6.601
X4.696Y-6.906
X4.75Y-5.7007
X4.958Y-5.0967
X5.058Y-5.0967
X5.158Y-5.0967
T7
X2.4541Y-5.5435
X2.4541Y-5.7207
X2.71Y-5.5435
X2.71Y-5.7207
T8
X3.324Y-4.888
X3.324Y-4.988
X3.324Y-5.088
X3.324Y-5.188
X3.324Y-5.288
X3.324Y-5.388
X3.324Y-5.488
X3.324Y-5.588
X3.924Y-4.888
X3.924Y-4.988
X3.924Y-5.088
X3.924Y-5.188
X3.924Y-5.288
X3.924Y-5.388
X3.924Y-5.488
X3.924Y-5.588
T9
X3.458Y-7.3312
X3.832Y-7.3302
T0
M30
