%TF.GenerationSoftware,KiCad,Pcbnew,7.0.7*%
%TF.CreationDate,2024-02-08T11:46:49+08:00*%
%TF.ProjectId,lekirbotv2,6c656b69-7262-46f7-9476-322e6b696361,rev?*%
%TF.SameCoordinates,Original*%
%TF.FileFunction,Copper,L2,Bot*%
%TF.FilePolarity,Positive*%
%FSLAX46Y46*%
G04 Gerber Fmt 4.6, Leading zero omitted, Abs format (unit mm)*
G04 Created by KiCad (PCBNEW 7.0.7) date 2024-02-08 11:46:49*
%MOMM*%
%LPD*%
G01*
G04 APERTURE LIST*
G04 Aperture macros list*
%AMRoundRect*
0 Rectangle with rounded corners*
0 $1 Rounding radius*
0 $2 $3 $4 $5 $6 $7 $8 $9 X,Y pos of 4 corners*
0 Add a 4 corners polygon primitive as box body*
4,1,4,$2,$3,$4,$5,$6,$7,$8,$9,$2,$3,0*
0 Add four circle primitives for the rounded corners*
1,1,$1+$1,$2,$3*
1,1,$1+$1,$4,$5*
1,1,$1+$1,$6,$7*
1,1,$1+$1,$8,$9*
0 Add four rect primitives between the rounded corners*
20,1,$1+$1,$2,$3,$4,$5,0*
20,1,$1+$1,$4,$5,$6,$7,0*
20,1,$1+$1,$6,$7,$8,$9,0*
20,1,$1+$1,$8,$9,$2,$3,0*%
%AMOutline5P*
0 Free polygon, 5 corners , with rotation*
0 The origin of the aperture is its center*
0 number of corners: always 5*
0 $1 to $10 corner X, Y*
0 $11 Rotation angle, in degrees counterclockwise*
0 create outline with 5 corners*
4,1,5,$1,$2,$3,$4,$5,$6,$7,$8,$9,$10,$1,$2,$11*%
%AMOutline6P*
0 Free polygon, 6 corners , with rotation*
0 The origin of the aperture is its center*
0 number of corners: always 6*
0 $1 to $12 corner X, Y*
0 $13 Rotation angle, in degrees counterclockwise*
0 create outline with 6 corners*
4,1,6,$1,$2,$3,$4,$5,$6,$7,$8,$9,$10,$11,$12,$1,$2,$13*%
%AMOutline7P*
0 Free polygon, 7 corners , with rotation*
0 The origin of the aperture is its center*
0 number of corners: always 7*
0 $1 to $14 corner X, Y*
0 $15 Rotation angle, in degrees counterclockwise*
0 create outline with 7 corners*
4,1,7,$1,$2,$3,$4,$5,$6,$7,$8,$9,$10,$11,$12,$13,$14,$1,$2,$15*%
%AMOutline8P*
0 Free polygon, 8 corners , with rotation*
0 The origin of the aperture is its center*
0 number of corners: always 8*
0 $1 to $16 corner X, Y*
0 $17 Rotation angle, in degrees counterclockwise*
0 create outline with 8 corners*
4,1,8,$1,$2,$3,$4,$5,$6,$7,$8,$9,$10,$11,$12,$13,$14,$15,$16,$1,$2,$17*%
G04 Aperture macros list end*
%TA.AperFunction,ComponentPad*%
%ADD10R,1.700000X1.700000*%
%TD*%
%TA.AperFunction,ComponentPad*%
%ADD11O,1.700000X1.700000*%
%TD*%
%TA.AperFunction,ComponentPad*%
%ADD12C,1.879600*%
%TD*%
%TA.AperFunction,ComponentPad*%
%ADD13C,2.000000*%
%TD*%
%TA.AperFunction,ComponentPad*%
%ADD14R,1.308000X1.308000*%
%TD*%
%TA.AperFunction,ComponentPad*%
%ADD15C,1.308000*%
%TD*%
%TA.AperFunction,ComponentPad*%
%ADD16Outline8P,-0.762000X0.315631X-0.315631X0.762000X0.315631X0.762000X0.762000X0.315631X0.762000X-0.315631X0.315631X-0.762000X-0.315631X-0.762000X-0.762000X-0.315631X90.000000*%
%TD*%
%TA.AperFunction,ComponentPad*%
%ADD17Outline8P,-1.066800X0.441883X-0.441883X1.066800X0.441883X1.066800X1.066800X0.441883X1.066800X-0.441883X0.441883X-1.066800X-0.441883X-1.066800X-1.066800X-0.441883X90.000000*%
%TD*%
%TA.AperFunction,ComponentPad*%
%ADD18C,1.980000*%
%TD*%
%TA.AperFunction,SMDPad,CuDef*%
%ADD19R,1.219200X0.533400*%
%TD*%
%TA.AperFunction,SMDPad,CuDef*%
%ADD20R,1.470000X1.270000*%
%TD*%
%TA.AperFunction,SMDPad,CuDef*%
%ADD21R,1.100000X1.000000*%
%TD*%
%TA.AperFunction,SMDPad,CuDef*%
%ADD22R,1.200000X0.800000*%
%TD*%
%TA.AperFunction,SMDPad,CuDef*%
%ADD23RoundRect,0.359360X-0.190640X-0.089840X0.190640X-0.089840X0.190640X0.089840X-0.190640X0.089840X0*%
%TD*%
%TA.AperFunction,SMDPad,CuDef*%
%ADD24RoundRect,0.359360X-0.089840X0.190640X-0.089840X-0.190640X0.089840X-0.190640X0.089840X0.190640X0*%
%TD*%
%TA.AperFunction,SMDPad,CuDef*%
%ADD25R,2.032000X0.660400*%
%TD*%
G04 APERTURE END LIST*
D10*
%TO.P,J3,1,Pin_1*%
%TO.N,GND*%
X88646400Y-46557000D03*
D11*
%TO.P,J3,2,Pin_2*%
%TO.N,/AD5*%
X91186400Y-46557000D03*
%TO.P,J3,3,Pin_3*%
%TO.N,/AD4*%
X93726400Y-46557000D03*
%TO.P,J3,4,Pin_4*%
%TO.N,+5V*%
X96266400Y-46557000D03*
%TD*%
D12*
%TO.P,J1,1,1*%
%TO.N,GND*%
X131013600Y-129455251D03*
%TO.P,J1,2,2*%
%TO.N,+5V*%
X128473600Y-129455251D03*
%TO.P,J1,3,3*%
%TO.N,/IO9*%
X125933600Y-129455251D03*
%TD*%
%TO.P,M1A0,1,1*%
%TO.N,/A01*%
X65938400Y-167664551D03*
%TD*%
%TO.P,J2,1,1*%
%TO.N,GND*%
X59995200Y-129633051D03*
%TO.P,J2,2,2*%
%TO.N,+5V*%
X57455200Y-129633051D03*
%TO.P,J2,3,3*%
%TO.N,/IO10*%
X54915200Y-129633051D03*
%TD*%
D13*
%TO.P,SW1,1,1*%
%TO.N,GND*%
X62334400Y-140804851D03*
X68834400Y-140804851D03*
%TO.P,SW1,2,2*%
%TO.N,/IO8*%
X62334400Y-145304851D03*
X68834400Y-145304851D03*
%TD*%
D12*
%TO.P,LDR0,1,1*%
%TO.N,/AD7*%
X118110400Y-144796851D03*
%TO.P,LDR0,2,2*%
%TO.N,+5V*%
X120650400Y-144796851D03*
%TD*%
%TO.P,BATT0,1,1*%
%TO.N,Net-(BATT0-Pad1)*%
X94107400Y-172736851D03*
%TO.P,BATT0,2,2*%
%TO.N,GND*%
X91567400Y-172736851D03*
%TD*%
D14*
%TO.P,ARDUINO_NANO1,1,SCK/D13*%
%TO.N,/IO13*%
X100076400Y-185106851D03*
D15*
%TO.P,ARDUINO_NANO1,2,3V3*%
%TO.N,/+3V3*%
X100076400Y-182566851D03*
%TO.P,ARDUINO_NANO1,3,AREF*%
%TO.N,+5V*%
X100076400Y-180026851D03*
%TO.P,ARDUINO_NANO1,4,ADC0/A0*%
%TO.N,/AD0*%
X100076400Y-177486851D03*
%TO.P,ARDUINO_NANO1,5,ADC1/A1*%
%TO.N,/AD1*%
X100076400Y-174946851D03*
%TO.P,ARDUINO_NANO1,6,ADC2/A2*%
%TO.N,/AD2*%
X100076400Y-172406851D03*
%TO.P,ARDUINO_NANO1,7,ADC3/A3*%
%TO.N,/AD3*%
X100076400Y-169866851D03*
%TO.P,ARDUINO_NANO1,8,ADC4/SDA/A4*%
%TO.N,/AD4*%
X100076400Y-167326851D03*
%TO.P,ARDUINO_NANO1,9,ADC5/SCL/A5*%
%TO.N,/AD5*%
X100076400Y-164786851D03*
%TO.P,ARDUINO_NANO1,10,ADC6/A6*%
%TO.N,/AD6*%
X100076400Y-162246851D03*
%TO.P,ARDUINO_NANO1,11,ADC7/A7*%
%TO.N,/AD7*%
X100076400Y-159706851D03*
%TO.P,ARDUINO_NANO1,12,5V*%
%TO.N,+5V*%
X100076400Y-157166851D03*
%TO.P,ARDUINO_NANO1,13,~{RESET@2}*%
%TO.N,/RESET*%
X100076400Y-154626851D03*
%TO.P,ARDUINO_NANO1,14,GND@2*%
%TO.N,GND*%
X100076400Y-152086851D03*
%TO.P,ARDUINO_NANO1,15,VIN*%
%TO.N,/VIN*%
X100076400Y-149546851D03*
%TO.P,ARDUINO_NANO1,16,D1/TX*%
%TO.N,/IO0*%
X84836400Y-149546851D03*
%TO.P,ARDUINO_NANO1,17,D0/RX*%
%TO.N,/IO1*%
X84836400Y-152086851D03*
%TO.P,ARDUINO_NANO1,18,~{RESET@1}*%
%TO.N,unconnected-(ARDUINO_NANO1-~{RESET@1}-Pad18)*%
X84836400Y-154626851D03*
%TO.P,ARDUINO_NANO1,19,GND@1*%
%TO.N,GND*%
X84836400Y-157166851D03*
%TO.P,ARDUINO_NANO1,20,D2/INT0*%
%TO.N,/IO2*%
X84836400Y-159706851D03*
%TO.P,ARDUINO_NANO1,21,D3/INT1*%
%TO.N,/IO3*%
X84836400Y-162246851D03*
%TO.P,ARDUINO_NANO1,22,D4/T0*%
%TO.N,/IO4*%
X84836400Y-164786851D03*
%TO.P,ARDUINO_NANO1,23,D5/T1*%
%TO.N,/IO5*%
X84836400Y-167326851D03*
%TO.P,ARDUINO_NANO1,24,D6/AIN0*%
%TO.N,/IO6*%
X84836400Y-169866851D03*
%TO.P,ARDUINO_NANO1,25,D7/AIN1*%
%TO.N,/IO7*%
X84836400Y-172406851D03*
%TO.P,ARDUINO_NANO1,26,D8/CLK0*%
%TO.N,/IO8*%
X84836400Y-174946851D03*
%TO.P,ARDUINO_NANO1,27,D9/OC1A*%
%TO.N,/IO9*%
X84836400Y-177486851D03*
%TO.P,ARDUINO_NANO1,28,D10/OC1B/~{SS}*%
%TO.N,/IO10*%
X84836400Y-180026851D03*
%TO.P,ARDUINO_NANO1,29,D11/MOSI*%
%TO.N,/IO11*%
X84836400Y-182566851D03*
%TO.P,ARDUINO_NANO1,30,D12/MISO*%
%TO.N,/IO12*%
X84836400Y-185106851D03*
%TD*%
D16*
%TO.P,S2X0,1,1*%
%TO.N,/VIN*%
X90360900Y-186198851D03*
%TO.P,S2X0,2,2*%
%TO.N,Net-(D7-PadC)*%
X92583400Y-186198851D03*
%TO.P,S2X0,3,3*%
%TO.N,unconnected-(S2X0-Pad3)*%
X94805900Y-186198851D03*
D17*
%TO.P,S2X0,G1*%
%TO.N,N/C*%
X87833400Y-186211351D03*
%TO.P,S2X0,G2*%
X97333400Y-186186351D03*
%TD*%
D12*
%TO.P,M1B0,1,1*%
%TO.N,/A02*%
X65938400Y-175411551D03*
%TD*%
%TO.P,M2A0,1,1*%
%TO.N,/B01*%
X119278400Y-167664551D03*
%TD*%
%TO.P,M2B0,1,1*%
%TO.N,/B02*%
X119278400Y-175411551D03*
%TD*%
D18*
%TO.P,U1,1,VM*%
%TO.N,/VIN*%
X84430000Y-122885000D03*
%TO.P,U1,2,VCC*%
%TO.N,+5V*%
X84430000Y-125425000D03*
%TO.P,U1,3,GND*%
%TO.N,GND*%
X84430000Y-127965000D03*
%TO.P,U1,4,A01*%
%TO.N,/A01*%
X84430000Y-130505000D03*
%TO.P,U1,5,A02*%
%TO.N,/A02*%
X84430000Y-133045000D03*
%TO.P,U1,6,B02*%
%TO.N,/B02*%
X84430000Y-135585000D03*
%TO.P,U1,7,B01*%
%TO.N,/B01*%
X84430000Y-138125000D03*
%TO.P,U1,8,GND*%
%TO.N,GND*%
X84430000Y-140665000D03*
%TO.P,U1,9,GND*%
X99670000Y-140665000D03*
%TO.P,U1,10,PWMB*%
%TO.N,/IO5*%
X99670000Y-138125000D03*
%TO.P,U1,11,BI2*%
%TO.N,Net-(IC3C-O)*%
X99670000Y-135585000D03*
%TO.P,U1,12,BI1*%
%TO.N,/IO3*%
X99670000Y-133045000D03*
%TO.P,U1,13,STBY*%
%TO.N,+5V*%
X99670000Y-130505000D03*
%TO.P,U1,14,AI1*%
%TO.N,/IO2*%
X99670000Y-127965000D03*
%TO.P,U1,15,AI2*%
%TO.N,Net-(IC3A-O)*%
X99670000Y-125425000D03*
%TO.P,U1,16,PWMA*%
%TO.N,/IO6*%
X99670000Y-122885000D03*
%TD*%
D19*
%TO.P,U2,1,A*%
%TO.N,Net-(U2-A)*%
X69799600Y-40511800D03*
%TO.P,U2,2,K*%
%TO.N,GND*%
X65583200Y-40511800D03*
%TO.P,U2,3,C*%
%TO.N,/AD0*%
X65583200Y-38733800D03*
%TO.P,U2,4,E*%
%TO.N,GND*%
X69799600Y-38733800D03*
%TD*%
%TO.P,U6,1,A*%
%TO.N,Net-(U6-A)*%
X94831300Y-40511800D03*
%TO.P,U6,2,K*%
%TO.N,GND*%
X90614900Y-40511800D03*
%TO.P,U6,3,C*%
%TO.N,/AD2*%
X90614900Y-38733800D03*
%TO.P,U6,4,E*%
%TO.N,GND*%
X94831300Y-38733800D03*
%TD*%
%TO.P,U8,1,A*%
%TO.N,Net-(U8-A)*%
X119863000Y-40511800D03*
%TO.P,U8,2,K*%
%TO.N,GND*%
X115646600Y-40511800D03*
%TO.P,U8,3,C*%
%TO.N,/AD6*%
X115646600Y-38733800D03*
%TO.P,U8,4,E*%
%TO.N,GND*%
X119863000Y-38733800D03*
%TD*%
D20*
%TO.P,D7,A,A*%
%TO.N,Net-(BATT0-Pad1)*%
X94234400Y-175675051D03*
%TO.P,D7,C,C*%
%TO.N,Net-(D7-PadC)*%
X94234400Y-179975051D03*
%TD*%
D21*
%TO.P,R17,1,1*%
%TO.N,/IO8*%
X66890400Y-150130851D03*
%TO.P,R17,2,2*%
%TO.N,+5V*%
X65190400Y-150130851D03*
%TD*%
%TO.P,R12,1,1*%
%TO.N,+5V*%
X80198000Y-50239800D03*
%TO.P,R12,2,2*%
%TO.N,/AD1*%
X78498000Y-50239800D03*
%TD*%
D22*
%TO.P,C2,1,1*%
%TO.N,/VIN*%
X97663400Y-149865851D03*
%TO.P,C2,2,2*%
%TO.N,GND*%
X97663400Y-151665851D03*
%TD*%
D23*
%TO.P,C6,1,1*%
%TO.N,/A02*%
X65862200Y-172261951D03*
%TO.P,C6,2,2*%
%TO.N,/A01*%
X65862200Y-170483951D03*
%TD*%
D21*
%TO.P,R16,1,1*%
%TO.N,GND*%
X120205000Y-150190000D03*
%TO.P,R16,2,2*%
%TO.N,/AD7*%
X118505000Y-150190000D03*
%TD*%
%TO.P,R13,1,1*%
%TO.N,Net-(U5-A)*%
X78641100Y-55091200D03*
%TO.P,R13,2,2*%
%TO.N,+5V*%
X80341100Y-55091200D03*
%TD*%
D24*
%TO.P,C1,1,1*%
%TO.N,GND*%
X95936200Y-157090451D03*
%TO.P,C1,2,2*%
%TO.N,+5V*%
X97714200Y-157090451D03*
%TD*%
D19*
%TO.P,U7,1,A*%
%TO.N,Net-(U7-A)*%
X107347200Y-40511800D03*
%TO.P,U7,2,K*%
%TO.N,GND*%
X103130800Y-40511800D03*
%TO.P,U7,3,C*%
%TO.N,/AD3*%
X103130800Y-38733800D03*
%TO.P,U7,4,E*%
%TO.N,GND*%
X107347200Y-38733800D03*
%TD*%
D21*
%TO.P,R11,1,1*%
%TO.N,Net-(U6-A)*%
X91436000Y-55091200D03*
%TO.P,R11,2,2*%
%TO.N,+5V*%
X93136000Y-55091200D03*
%TD*%
D25*
%TO.P,IC3,1,I*%
%TO.N,/IO2*%
X95529800Y-127330000D03*
%TO.P,IC3,2,O*%
%TO.N,Net-(IC3A-O)*%
X95529800Y-128600000D03*
%TO.P,IC3,3,I*%
%TO.N,unconnected-(IC3B-I-Pad3)*%
X95529800Y-129870000D03*
%TO.P,IC3,4,O*%
%TO.N,unconnected-(IC3B-O-Pad4)*%
X95529800Y-131140000D03*
%TO.P,IC3,5,I*%
%TO.N,/IO3*%
X95529800Y-132410000D03*
%TO.P,IC3,6,O*%
%TO.N,Net-(IC3C-O)*%
X95529800Y-133680000D03*
%TO.P,IC3,7,GND*%
%TO.N,GND*%
X95529800Y-134950000D03*
%TO.P,IC3,8,O*%
%TO.N,unconnected-(IC3D-O-Pad8)*%
X89383000Y-134950000D03*
%TO.P,IC3,9,I*%
%TO.N,unconnected-(IC3D-I-Pad9)*%
X89383000Y-133680000D03*
%TO.P,IC3,10,O*%
%TO.N,unconnected-(IC3E-O-Pad10)*%
X89383000Y-132410000D03*
%TO.P,IC3,11,I*%
%TO.N,unconnected-(IC3E-I-Pad11)*%
X89383000Y-131140000D03*
%TO.P,IC3,12,O*%
%TO.N,unconnected-(IC3F-O-Pad12)*%
X89383000Y-129870000D03*
%TO.P,IC3,13,I*%
%TO.N,unconnected-(IC3F-I-Pad13)*%
X89383000Y-128600000D03*
%TO.P,IC3,14,VCC*%
%TO.N,+5V*%
X89383000Y-127330000D03*
%TD*%
D21*
%TO.P,R15,1,1*%
%TO.N,Net-(U2-A)*%
X65846200Y-55091200D03*
%TO.P,R15,2,2*%
%TO.N,+5V*%
X67546200Y-55091200D03*
%TD*%
%TO.P,R10,1,1*%
%TO.N,+5V*%
X93034400Y-50239800D03*
%TO.P,R10,2,2*%
%TO.N,/AD2*%
X91334400Y-50239800D03*
%TD*%
D23*
%TO.P,C7,1,1*%
%TO.N,/B02*%
X119202200Y-172287351D03*
%TO.P,C7,2,2*%
%TO.N,/B01*%
X119202200Y-170509351D03*
%TD*%
D19*
%TO.P,U5,1,A*%
%TO.N,Net-(U5-A)*%
X82315500Y-40511800D03*
%TO.P,U5,2,K*%
%TO.N,GND*%
X78099100Y-40511800D03*
%TO.P,U5,3,C*%
%TO.N,/AD1*%
X78099100Y-38733800D03*
%TO.P,U5,4,E*%
%TO.N,GND*%
X82315500Y-38733800D03*
%TD*%
D21*
%TO.P,R7,1,1*%
%TO.N,Net-(U8-A)*%
X117025800Y-55091200D03*
%TO.P,R7,2,2*%
%TO.N,+5V*%
X118725800Y-55091200D03*
%TD*%
%TO.P,R14,1,1*%
%TO.N,+5V*%
X67361600Y-50239800D03*
%TO.P,R14,2,2*%
%TO.N,/AD0*%
X65661600Y-50239800D03*
%TD*%
%TO.P,R9,1,1*%
%TO.N,Net-(U7-A)*%
X104230900Y-55091200D03*
%TO.P,R9,2,2*%
%TO.N,+5V*%
X105930900Y-55091200D03*
%TD*%
%TO.P,R8,1,1*%
%TO.N,+5V*%
X105870800Y-50239800D03*
%TO.P,R8,2,2*%
%TO.N,/AD3*%
X104170800Y-50239800D03*
%TD*%
%TO.P,R6,1,1*%
%TO.N,+5V*%
X118707200Y-50239800D03*
%TO.P,R6,2,2*%
%TO.N,/AD6*%
X117007200Y-50239800D03*
%TD*%
M02*
