%TF.GenerationSoftware,KiCad,Pcbnew,7.0.7*%
%TF.CreationDate,2024-02-08T11:46:49+08:00*%
%TF.ProjectId,lekirbotv2,6c656b69-7262-46f7-9476-322e6b696361,rev?*%
%TF.SameCoordinates,Original*%
%TF.FileFunction,Legend,Top*%
%TF.FilePolarity,Positive*%
%FSLAX46Y46*%
G04 Gerber Fmt 4.6, Leading zero omitted, Abs format (unit mm)*
G04 Created by KiCad (PCBNEW 7.0.7) date 2024-02-08 11:46:49*
%MOMM*%
%LPD*%
G01*
G04 APERTURE LIST*
%ADD10C,0.081280*%
%ADD11C,0.065024*%
%ADD12C,0.250000*%
%ADD13C,0.113792*%
%ADD14C,0.150000*%
%ADD15C,0.097536*%
%ADD16C,0.121920*%
%ADD17C,0.000508*%
%ADD18C,0.048768*%
%ADD19C,0.182880*%
%ADD20C,0.101600*%
%ADD21C,0.120000*%
%ADD22C,0.203200*%
%ADD23C,0.127000*%
%ADD24C,0.015875*%
%ADD25C,0.200000*%
G04 APERTURE END LIST*
D10*
X90655914Y-44266318D02*
X91101019Y-44266318D01*
X90566893Y-44533381D02*
X90878467Y-43598661D01*
X90878467Y-43598661D02*
X91190040Y-44533381D01*
X91946719Y-43598661D02*
X91501614Y-43598661D01*
X91501614Y-43598661D02*
X91457103Y-44043766D01*
X91457103Y-44043766D02*
X91501614Y-43999255D01*
X91501614Y-43999255D02*
X91590635Y-43954745D01*
X91590635Y-43954745D02*
X91813187Y-43954745D01*
X91813187Y-43954745D02*
X91902208Y-43999255D01*
X91902208Y-43999255D02*
X91946719Y-44043766D01*
X91946719Y-44043766D02*
X91991229Y-44132787D01*
X91991229Y-44132787D02*
X91991229Y-44355339D01*
X91991229Y-44355339D02*
X91946719Y-44444360D01*
X91946719Y-44444360D02*
X91902208Y-44488871D01*
X91902208Y-44488871D02*
X91813187Y-44533381D01*
X91813187Y-44533381D02*
X91590635Y-44533381D01*
X91590635Y-44533381D02*
X91501614Y-44488871D01*
X91501614Y-44488871D02*
X91457103Y-44444360D01*
D11*
X57431038Y-133501631D02*
X57431038Y-132931897D01*
X57715905Y-133216764D02*
X57146171Y-133216764D01*
X56968129Y-132219729D02*
X56968129Y-132575813D01*
X56968129Y-132575813D02*
X57324213Y-132611421D01*
X57324213Y-132611421D02*
X57288604Y-132575813D01*
X57288604Y-132575813D02*
X57252996Y-132504596D01*
X57252996Y-132504596D02*
X57252996Y-132326554D01*
X57252996Y-132326554D02*
X57288604Y-132255337D01*
X57288604Y-132255337D02*
X57324213Y-132219729D01*
X57324213Y-132219729D02*
X57395429Y-132184120D01*
X57395429Y-132184120D02*
X57573471Y-132184120D01*
X57573471Y-132184120D02*
X57644688Y-132219729D01*
X57644688Y-132219729D02*
X57680297Y-132255337D01*
X57680297Y-132255337D02*
X57715905Y-132326554D01*
X57715905Y-132326554D02*
X57715905Y-132504596D01*
X57715905Y-132504596D02*
X57680297Y-132575813D01*
X57680297Y-132575813D02*
X57644688Y-132611421D01*
X56968129Y-131970470D02*
X57715905Y-131721211D01*
X57715905Y-131721211D02*
X56968129Y-131471952D01*
D12*
X105171158Y-185520750D02*
X104694968Y-185520750D01*
X104694968Y-185520750D02*
X104694968Y-184520750D01*
X105885444Y-185473131D02*
X105790206Y-185520750D01*
X105790206Y-185520750D02*
X105599730Y-185520750D01*
X105599730Y-185520750D02*
X105504492Y-185473131D01*
X105504492Y-185473131D02*
X105456873Y-185377892D01*
X105456873Y-185377892D02*
X105456873Y-184996940D01*
X105456873Y-184996940D02*
X105504492Y-184901702D01*
X105504492Y-184901702D02*
X105599730Y-184854083D01*
X105599730Y-184854083D02*
X105790206Y-184854083D01*
X105790206Y-184854083D02*
X105885444Y-184901702D01*
X105885444Y-184901702D02*
X105933063Y-184996940D01*
X105933063Y-184996940D02*
X105933063Y-185092178D01*
X105933063Y-185092178D02*
X105456873Y-185187416D01*
X106361635Y-185520750D02*
X106361635Y-184520750D01*
X106456873Y-185139797D02*
X106742587Y-185520750D01*
X106742587Y-184854083D02*
X106361635Y-185235035D01*
X107171159Y-185520750D02*
X107171159Y-184854083D01*
X107171159Y-184520750D02*
X107123540Y-184568369D01*
X107123540Y-184568369D02*
X107171159Y-184615988D01*
X107171159Y-184615988D02*
X107218778Y-184568369D01*
X107218778Y-184568369D02*
X107171159Y-184520750D01*
X107171159Y-184520750D02*
X107171159Y-184615988D01*
X107647349Y-185520750D02*
X107647349Y-184854083D01*
X107647349Y-185044559D02*
X107694968Y-184949321D01*
X107694968Y-184949321D02*
X107742587Y-184901702D01*
X107742587Y-184901702D02*
X107837825Y-184854083D01*
X107837825Y-184854083D02*
X107933063Y-184854083D01*
X109361635Y-184996940D02*
X109504492Y-185044559D01*
X109504492Y-185044559D02*
X109552111Y-185092178D01*
X109552111Y-185092178D02*
X109599730Y-185187416D01*
X109599730Y-185187416D02*
X109599730Y-185330273D01*
X109599730Y-185330273D02*
X109552111Y-185425511D01*
X109552111Y-185425511D02*
X109504492Y-185473131D01*
X109504492Y-185473131D02*
X109409254Y-185520750D01*
X109409254Y-185520750D02*
X109028302Y-185520750D01*
X109028302Y-185520750D02*
X109028302Y-184520750D01*
X109028302Y-184520750D02*
X109361635Y-184520750D01*
X109361635Y-184520750D02*
X109456873Y-184568369D01*
X109456873Y-184568369D02*
X109504492Y-184615988D01*
X109504492Y-184615988D02*
X109552111Y-184711226D01*
X109552111Y-184711226D02*
X109552111Y-184806464D01*
X109552111Y-184806464D02*
X109504492Y-184901702D01*
X109504492Y-184901702D02*
X109456873Y-184949321D01*
X109456873Y-184949321D02*
X109361635Y-184996940D01*
X109361635Y-184996940D02*
X109028302Y-184996940D01*
X110171159Y-185520750D02*
X110075921Y-185473131D01*
X110075921Y-185473131D02*
X110028302Y-185425511D01*
X110028302Y-185425511D02*
X109980683Y-185330273D01*
X109980683Y-185330273D02*
X109980683Y-185044559D01*
X109980683Y-185044559D02*
X110028302Y-184949321D01*
X110028302Y-184949321D02*
X110075921Y-184901702D01*
X110075921Y-184901702D02*
X110171159Y-184854083D01*
X110171159Y-184854083D02*
X110314016Y-184854083D01*
X110314016Y-184854083D02*
X110409254Y-184901702D01*
X110409254Y-184901702D02*
X110456873Y-184949321D01*
X110456873Y-184949321D02*
X110504492Y-185044559D01*
X110504492Y-185044559D02*
X110504492Y-185330273D01*
X110504492Y-185330273D02*
X110456873Y-185425511D01*
X110456873Y-185425511D02*
X110409254Y-185473131D01*
X110409254Y-185473131D02*
X110314016Y-185520750D01*
X110314016Y-185520750D02*
X110171159Y-185520750D01*
X110790207Y-184854083D02*
X111171159Y-184854083D01*
X110933064Y-184520750D02*
X110933064Y-185377892D01*
X110933064Y-185377892D02*
X110980683Y-185473131D01*
X110980683Y-185473131D02*
X111075921Y-185520750D01*
X111075921Y-185520750D02*
X111171159Y-185520750D01*
X112790207Y-185520750D02*
X112218779Y-185520750D01*
X112504493Y-185520750D02*
X112504493Y-184520750D01*
X112504493Y-184520750D02*
X112409255Y-184663607D01*
X112409255Y-184663607D02*
X112314017Y-184758845D01*
X112314017Y-184758845D02*
X112218779Y-184806464D01*
X113218779Y-185425511D02*
X113266398Y-185473131D01*
X113266398Y-185473131D02*
X113218779Y-185520750D01*
X113218779Y-185520750D02*
X113171160Y-185473131D01*
X113171160Y-185473131D02*
X113218779Y-185425511D01*
X113218779Y-185425511D02*
X113218779Y-185520750D01*
X113885445Y-184520750D02*
X113980683Y-184520750D01*
X113980683Y-184520750D02*
X114075921Y-184568369D01*
X114075921Y-184568369D02*
X114123540Y-184615988D01*
X114123540Y-184615988D02*
X114171159Y-184711226D01*
X114171159Y-184711226D02*
X114218778Y-184901702D01*
X114218778Y-184901702D02*
X114218778Y-185139797D01*
X114218778Y-185139797D02*
X114171159Y-185330273D01*
X114171159Y-185330273D02*
X114123540Y-185425511D01*
X114123540Y-185425511D02*
X114075921Y-185473131D01*
X114075921Y-185473131D02*
X113980683Y-185520750D01*
X113980683Y-185520750D02*
X113885445Y-185520750D01*
X113885445Y-185520750D02*
X113790207Y-185473131D01*
X113790207Y-185473131D02*
X113742588Y-185425511D01*
X113742588Y-185425511D02*
X113694969Y-185330273D01*
X113694969Y-185330273D02*
X113647350Y-185139797D01*
X113647350Y-185139797D02*
X113647350Y-184901702D01*
X113647350Y-184901702D02*
X113694969Y-184711226D01*
X113694969Y-184711226D02*
X113742588Y-184615988D01*
X113742588Y-184615988D02*
X113790207Y-184568369D01*
X113790207Y-184568369D02*
X113885445Y-184520750D01*
X114647350Y-185425511D02*
X114694969Y-185473131D01*
X114694969Y-185473131D02*
X114647350Y-185520750D01*
X114647350Y-185520750D02*
X114599731Y-185473131D01*
X114599731Y-185473131D02*
X114647350Y-185425511D01*
X114647350Y-185425511D02*
X114647350Y-185520750D01*
X115314016Y-184520750D02*
X115409254Y-184520750D01*
X115409254Y-184520750D02*
X115504492Y-184568369D01*
X115504492Y-184568369D02*
X115552111Y-184615988D01*
X115552111Y-184615988D02*
X115599730Y-184711226D01*
X115599730Y-184711226D02*
X115647349Y-184901702D01*
X115647349Y-184901702D02*
X115647349Y-185139797D01*
X115647349Y-185139797D02*
X115599730Y-185330273D01*
X115599730Y-185330273D02*
X115552111Y-185425511D01*
X115552111Y-185425511D02*
X115504492Y-185473131D01*
X115504492Y-185473131D02*
X115409254Y-185520750D01*
X115409254Y-185520750D02*
X115314016Y-185520750D01*
X115314016Y-185520750D02*
X115218778Y-185473131D01*
X115218778Y-185473131D02*
X115171159Y-185425511D01*
X115171159Y-185425511D02*
X115123540Y-185330273D01*
X115123540Y-185330273D02*
X115075921Y-185139797D01*
X115075921Y-185139797D02*
X115075921Y-184901702D01*
X115075921Y-184901702D02*
X115123540Y-184711226D01*
X115123540Y-184711226D02*
X115171159Y-184615988D01*
X115171159Y-184615988D02*
X115218778Y-184568369D01*
X115218778Y-184568369D02*
X115314016Y-184520750D01*
D11*
X128728838Y-133704831D02*
X128728838Y-133135097D01*
X129013705Y-133419964D02*
X128443971Y-133419964D01*
X128265929Y-132422929D02*
X128265929Y-132779013D01*
X128265929Y-132779013D02*
X128622013Y-132814621D01*
X128622013Y-132814621D02*
X128586404Y-132779013D01*
X128586404Y-132779013D02*
X128550796Y-132707796D01*
X128550796Y-132707796D02*
X128550796Y-132529754D01*
X128550796Y-132529754D02*
X128586404Y-132458537D01*
X128586404Y-132458537D02*
X128622013Y-132422929D01*
X128622013Y-132422929D02*
X128693229Y-132387320D01*
X128693229Y-132387320D02*
X128871271Y-132387320D01*
X128871271Y-132387320D02*
X128942488Y-132422929D01*
X128942488Y-132422929D02*
X128978097Y-132458537D01*
X128978097Y-132458537D02*
X129013705Y-132529754D01*
X129013705Y-132529754D02*
X129013705Y-132707796D01*
X129013705Y-132707796D02*
X128978097Y-132779013D01*
X128978097Y-132779013D02*
X128942488Y-132814621D01*
X128265929Y-132173670D02*
X129013705Y-131924411D01*
X129013705Y-131924411D02*
X128265929Y-131675152D01*
D10*
X108591677Y-36025803D02*
X108146572Y-36025803D01*
X108146572Y-36025803D02*
X108146572Y-35091083D01*
X108903250Y-35536188D02*
X109214823Y-35536188D01*
X109348355Y-36025803D02*
X108903250Y-36025803D01*
X108903250Y-36025803D02*
X108903250Y-35091083D01*
X108903250Y-35091083D02*
X109348355Y-35091083D01*
X109748949Y-36025803D02*
X109748949Y-35091083D01*
X109748949Y-35091083D02*
X109971501Y-35091083D01*
X109971501Y-35091083D02*
X110105033Y-35135593D01*
X110105033Y-35135593D02*
X110194054Y-35224614D01*
X110194054Y-35224614D02*
X110238564Y-35313635D01*
X110238564Y-35313635D02*
X110283075Y-35491677D01*
X110283075Y-35491677D02*
X110283075Y-35625209D01*
X110283075Y-35625209D02*
X110238564Y-35803251D01*
X110238564Y-35803251D02*
X110194054Y-35892272D01*
X110194054Y-35892272D02*
X110105033Y-35981293D01*
X110105033Y-35981293D02*
X109971501Y-36025803D01*
X109971501Y-36025803D02*
X109748949Y-36025803D01*
X110639158Y-35180104D02*
X110683669Y-35135593D01*
X110683669Y-35135593D02*
X110772690Y-35091083D01*
X110772690Y-35091083D02*
X110995242Y-35091083D01*
X110995242Y-35091083D02*
X111084263Y-35135593D01*
X111084263Y-35135593D02*
X111128774Y-35180104D01*
X111128774Y-35180104D02*
X111173284Y-35269125D01*
X111173284Y-35269125D02*
X111173284Y-35358146D01*
X111173284Y-35358146D02*
X111128774Y-35491677D01*
X111128774Y-35491677D02*
X110594648Y-36025803D01*
X110594648Y-36025803D02*
X111173284Y-36025803D01*
D11*
X97442580Y-43914161D02*
X96872846Y-43914161D01*
X97157713Y-43629294D02*
X97157713Y-44199028D01*
X96160678Y-44377070D02*
X96516762Y-44377070D01*
X96516762Y-44377070D02*
X96552370Y-44020986D01*
X96552370Y-44020986D02*
X96516762Y-44056595D01*
X96516762Y-44056595D02*
X96445545Y-44092203D01*
X96445545Y-44092203D02*
X96267503Y-44092203D01*
X96267503Y-44092203D02*
X96196286Y-44056595D01*
X96196286Y-44056595D02*
X96160678Y-44020986D01*
X96160678Y-44020986D02*
X96125069Y-43949770D01*
X96125069Y-43949770D02*
X96125069Y-43771728D01*
X96125069Y-43771728D02*
X96160678Y-43700511D01*
X96160678Y-43700511D02*
X96196286Y-43664903D01*
X96196286Y-43664903D02*
X96267503Y-43629294D01*
X96267503Y-43629294D02*
X96445545Y-43629294D01*
X96445545Y-43629294D02*
X96516762Y-43664903D01*
X96516762Y-43664903D02*
X96552370Y-43700511D01*
X95911419Y-44377070D02*
X95662160Y-43629294D01*
X95662160Y-43629294D02*
X95412901Y-44377070D01*
X96140638Y-173532031D02*
X96140638Y-172962297D01*
X96425505Y-173247164D02*
X95855771Y-173247164D01*
X95926988Y-172677429D02*
X96425505Y-172499387D01*
X96425505Y-172499387D02*
X95926988Y-172321346D01*
X96389897Y-171751612D02*
X96425505Y-171822828D01*
X96425505Y-171822828D02*
X96425505Y-171965262D01*
X96425505Y-171965262D02*
X96389897Y-172036479D01*
X96389897Y-172036479D02*
X96318680Y-172072087D01*
X96318680Y-172072087D02*
X96033813Y-172072087D01*
X96033813Y-172072087D02*
X95962596Y-172036479D01*
X95962596Y-172036479D02*
X95926988Y-171965262D01*
X95926988Y-171965262D02*
X95926988Y-171822828D01*
X95926988Y-171822828D02*
X95962596Y-171751612D01*
X95962596Y-171751612D02*
X96033813Y-171716003D01*
X96033813Y-171716003D02*
X96105029Y-171716003D01*
X96105029Y-171716003D02*
X96176246Y-172072087D01*
D10*
X59595971Y-133337810D02*
X59551461Y-133426831D01*
X59551461Y-133426831D02*
X59551461Y-133560362D01*
X59551461Y-133560362D02*
X59595971Y-133693894D01*
X59595971Y-133693894D02*
X59684992Y-133782915D01*
X59684992Y-133782915D02*
X59774013Y-133827425D01*
X59774013Y-133827425D02*
X59952055Y-133871936D01*
X59952055Y-133871936D02*
X60085587Y-133871936D01*
X60085587Y-133871936D02*
X60263629Y-133827425D01*
X60263629Y-133827425D02*
X60352650Y-133782915D01*
X60352650Y-133782915D02*
X60441671Y-133693894D01*
X60441671Y-133693894D02*
X60486181Y-133560362D01*
X60486181Y-133560362D02*
X60486181Y-133471341D01*
X60486181Y-133471341D02*
X60441671Y-133337810D01*
X60441671Y-133337810D02*
X60397160Y-133293299D01*
X60397160Y-133293299D02*
X60085587Y-133293299D01*
X60085587Y-133293299D02*
X60085587Y-133471341D01*
X60486181Y-132892705D02*
X59551461Y-132892705D01*
X59551461Y-132892705D02*
X60486181Y-132358579D01*
X60486181Y-132358579D02*
X59551461Y-132358579D01*
X60486181Y-131913475D02*
X59551461Y-131913475D01*
X59551461Y-131913475D02*
X59551461Y-131690923D01*
X59551461Y-131690923D02*
X59595971Y-131557391D01*
X59595971Y-131557391D02*
X59684992Y-131468370D01*
X59684992Y-131468370D02*
X59774013Y-131423860D01*
X59774013Y-131423860D02*
X59952055Y-131379349D01*
X59952055Y-131379349D02*
X60085587Y-131379349D01*
X60085587Y-131379349D02*
X60263629Y-131423860D01*
X60263629Y-131423860D02*
X60352650Y-131468370D01*
X60352650Y-131468370D02*
X60441671Y-131557391D01*
X60441671Y-131557391D02*
X60486181Y-131690923D01*
X60486181Y-131690923D02*
X60486181Y-131913475D01*
D13*
X59940692Y-186531979D02*
X60439209Y-186531979D01*
X60127636Y-186095776D02*
X60127636Y-187217440D01*
X60127636Y-187217440D02*
X60189951Y-187342070D01*
X60189951Y-187342070D02*
X60314580Y-187404384D01*
X60314580Y-187404384D02*
X60439209Y-187404384D01*
X60875412Y-187404384D02*
X60875412Y-186531979D01*
X60875412Y-186095776D02*
X60813097Y-186158091D01*
X60813097Y-186158091D02*
X60875412Y-186220406D01*
X60875412Y-186220406D02*
X60937727Y-186158091D01*
X60937727Y-186158091D02*
X60875412Y-186095776D01*
X60875412Y-186095776D02*
X60875412Y-186220406D01*
X61498559Y-186531979D02*
X61498559Y-187404384D01*
X61498559Y-186656608D02*
X61560874Y-186594294D01*
X61560874Y-186594294D02*
X61685503Y-186531979D01*
X61685503Y-186531979D02*
X61872447Y-186531979D01*
X61872447Y-186531979D02*
X61997076Y-186594294D01*
X61997076Y-186594294D02*
X62059391Y-186718923D01*
X62059391Y-186718923D02*
X62059391Y-187404384D01*
X62682538Y-187404384D02*
X62682538Y-186095776D01*
X62807167Y-186905867D02*
X63181055Y-187404384D01*
X63181055Y-186531979D02*
X62682538Y-187030496D01*
X64240404Y-187342070D02*
X64115775Y-187404384D01*
X64115775Y-187404384D02*
X63866516Y-187404384D01*
X63866516Y-187404384D02*
X63741887Y-187342070D01*
X63741887Y-187342070D02*
X63679572Y-187217440D01*
X63679572Y-187217440D02*
X63679572Y-186718923D01*
X63679572Y-186718923D02*
X63741887Y-186594294D01*
X63741887Y-186594294D02*
X63866516Y-186531979D01*
X63866516Y-186531979D02*
X64115775Y-186531979D01*
X64115775Y-186531979D02*
X64240404Y-186594294D01*
X64240404Y-186594294D02*
X64302719Y-186718923D01*
X64302719Y-186718923D02*
X64302719Y-186843552D01*
X64302719Y-186843552D02*
X63679572Y-186968182D01*
X64863551Y-187404384D02*
X64863551Y-186531979D01*
X64863551Y-186781238D02*
X64925866Y-186656608D01*
X64925866Y-186656608D02*
X64988180Y-186594294D01*
X64988180Y-186594294D02*
X65112810Y-186531979D01*
X65112810Y-186531979D02*
X65237439Y-186531979D01*
X66234474Y-187342070D02*
X66109845Y-187404384D01*
X66109845Y-187404384D02*
X65860586Y-187404384D01*
X65860586Y-187404384D02*
X65735957Y-187342070D01*
X65735957Y-187342070D02*
X65673642Y-187279755D01*
X65673642Y-187279755D02*
X65611327Y-187155126D01*
X65611327Y-187155126D02*
X65611327Y-186781238D01*
X65611327Y-186781238D02*
X65673642Y-186656608D01*
X65673642Y-186656608D02*
X65735957Y-186594294D01*
X65735957Y-186594294D02*
X65860586Y-186531979D01*
X65860586Y-186531979D02*
X66109845Y-186531979D01*
X66109845Y-186531979D02*
X66234474Y-186594294D01*
X66982250Y-187404384D02*
X66857621Y-187342070D01*
X66857621Y-187342070D02*
X66795306Y-187279755D01*
X66795306Y-187279755D02*
X66732991Y-187155126D01*
X66732991Y-187155126D02*
X66732991Y-186781238D01*
X66732991Y-186781238D02*
X66795306Y-186656608D01*
X66795306Y-186656608D02*
X66857621Y-186594294D01*
X66857621Y-186594294D02*
X66982250Y-186531979D01*
X66982250Y-186531979D02*
X67169194Y-186531979D01*
X67169194Y-186531979D02*
X67293823Y-186594294D01*
X67293823Y-186594294D02*
X67356138Y-186656608D01*
X67356138Y-186656608D02*
X67418453Y-186781238D01*
X67418453Y-186781238D02*
X67418453Y-187155126D01*
X67418453Y-187155126D02*
X67356138Y-187279755D01*
X67356138Y-187279755D02*
X67293823Y-187342070D01*
X67293823Y-187342070D02*
X67169194Y-187404384D01*
X67169194Y-187404384D02*
X66982250Y-187404384D01*
X68540117Y-187404384D02*
X68540117Y-186095776D01*
X68540117Y-187342070D02*
X68415488Y-187404384D01*
X68415488Y-187404384D02*
X68166229Y-187404384D01*
X68166229Y-187404384D02*
X68041600Y-187342070D01*
X68041600Y-187342070D02*
X67979285Y-187279755D01*
X67979285Y-187279755D02*
X67916970Y-187155126D01*
X67916970Y-187155126D02*
X67916970Y-186781238D01*
X67916970Y-186781238D02*
X67979285Y-186656608D01*
X67979285Y-186656608D02*
X68041600Y-186594294D01*
X68041600Y-186594294D02*
X68166229Y-186531979D01*
X68166229Y-186531979D02*
X68415488Y-186531979D01*
X68415488Y-186531979D02*
X68540117Y-186594294D01*
X69661781Y-187342070D02*
X69537152Y-187404384D01*
X69537152Y-187404384D02*
X69287893Y-187404384D01*
X69287893Y-187404384D02*
X69163264Y-187342070D01*
X69163264Y-187342070D02*
X69100949Y-187217440D01*
X69100949Y-187217440D02*
X69100949Y-186718923D01*
X69100949Y-186718923D02*
X69163264Y-186594294D01*
X69163264Y-186594294D02*
X69287893Y-186531979D01*
X69287893Y-186531979D02*
X69537152Y-186531979D01*
X69537152Y-186531979D02*
X69661781Y-186594294D01*
X69661781Y-186594294D02*
X69724096Y-186718923D01*
X69724096Y-186718923D02*
X69724096Y-186843552D01*
X69724096Y-186843552D02*
X69100949Y-186968182D01*
X70284928Y-187279755D02*
X70347243Y-187342070D01*
X70347243Y-187342070D02*
X70284928Y-187404384D01*
X70284928Y-187404384D02*
X70222613Y-187342070D01*
X70222613Y-187342070D02*
X70284928Y-187279755D01*
X70284928Y-187279755D02*
X70284928Y-187404384D01*
X70908075Y-187404384D02*
X70908075Y-186531979D01*
X70908075Y-186656608D02*
X70970390Y-186594294D01*
X70970390Y-186594294D02*
X71095019Y-186531979D01*
X71095019Y-186531979D02*
X71281963Y-186531979D01*
X71281963Y-186531979D02*
X71406592Y-186594294D01*
X71406592Y-186594294D02*
X71468907Y-186718923D01*
X71468907Y-186718923D02*
X71468907Y-187404384D01*
X71468907Y-186718923D02*
X71531222Y-186594294D01*
X71531222Y-186594294D02*
X71655851Y-186531979D01*
X71655851Y-186531979D02*
X71842795Y-186531979D01*
X71842795Y-186531979D02*
X71967424Y-186594294D01*
X71967424Y-186594294D02*
X72029739Y-186718923D01*
X72029739Y-186718923D02*
X72029739Y-187404384D01*
X72528257Y-186531979D02*
X72839830Y-187404384D01*
X73151403Y-186531979D02*
X72839830Y-187404384D01*
X72839830Y-187404384D02*
X72715201Y-187715958D01*
X72715201Y-187715958D02*
X72652886Y-187778272D01*
X72652886Y-187778272D02*
X72528257Y-187840587D01*
D11*
X89649535Y-173976090D02*
X89649535Y-173406356D01*
X89435885Y-173121488D02*
X89934402Y-172943446D01*
X89934402Y-172943446D02*
X89435885Y-172765405D01*
X89898794Y-172195671D02*
X89934402Y-172266887D01*
X89934402Y-172266887D02*
X89934402Y-172409321D01*
X89934402Y-172409321D02*
X89898794Y-172480538D01*
X89898794Y-172480538D02*
X89827577Y-172516146D01*
X89827577Y-172516146D02*
X89542710Y-172516146D01*
X89542710Y-172516146D02*
X89471493Y-172480538D01*
X89471493Y-172480538D02*
X89435885Y-172409321D01*
X89435885Y-172409321D02*
X89435885Y-172266887D01*
X89435885Y-172266887D02*
X89471493Y-172195671D01*
X89471493Y-172195671D02*
X89542710Y-172160062D01*
X89542710Y-172160062D02*
X89613926Y-172160062D01*
X89613926Y-172160062D02*
X89685143Y-172516146D01*
D10*
X93322914Y-44266318D02*
X93768019Y-44266318D01*
X93233893Y-44533381D02*
X93545467Y-43598661D01*
X93545467Y-43598661D02*
X93857040Y-44533381D01*
X94569208Y-43910234D02*
X94569208Y-44533381D01*
X94346656Y-43554151D02*
X94124103Y-44221808D01*
X94124103Y-44221808D02*
X94702740Y-44221808D01*
X130766771Y-133261610D02*
X130722261Y-133350631D01*
X130722261Y-133350631D02*
X130722261Y-133484162D01*
X130722261Y-133484162D02*
X130766771Y-133617694D01*
X130766771Y-133617694D02*
X130855792Y-133706715D01*
X130855792Y-133706715D02*
X130944813Y-133751225D01*
X130944813Y-133751225D02*
X131122855Y-133795736D01*
X131122855Y-133795736D02*
X131256387Y-133795736D01*
X131256387Y-133795736D02*
X131434429Y-133751225D01*
X131434429Y-133751225D02*
X131523450Y-133706715D01*
X131523450Y-133706715D02*
X131612471Y-133617694D01*
X131612471Y-133617694D02*
X131656981Y-133484162D01*
X131656981Y-133484162D02*
X131656981Y-133395141D01*
X131656981Y-133395141D02*
X131612471Y-133261610D01*
X131612471Y-133261610D02*
X131567960Y-133217099D01*
X131567960Y-133217099D02*
X131256387Y-133217099D01*
X131256387Y-133217099D02*
X131256387Y-133395141D01*
X131656981Y-132816505D02*
X130722261Y-132816505D01*
X130722261Y-132816505D02*
X131656981Y-132282379D01*
X131656981Y-132282379D02*
X130722261Y-132282379D01*
X131656981Y-131837275D02*
X130722261Y-131837275D01*
X130722261Y-131837275D02*
X130722261Y-131614723D01*
X130722261Y-131614723D02*
X130766771Y-131481191D01*
X130766771Y-131481191D02*
X130855792Y-131392170D01*
X130855792Y-131392170D02*
X130944813Y-131347660D01*
X130944813Y-131347660D02*
X131122855Y-131303149D01*
X131122855Y-131303149D02*
X131256387Y-131303149D01*
X131256387Y-131303149D02*
X131434429Y-131347660D01*
X131434429Y-131347660D02*
X131523450Y-131392170D01*
X131523450Y-131392170D02*
X131612471Y-131481191D01*
X131612471Y-131481191D02*
X131656981Y-131614723D01*
X131656981Y-131614723D02*
X131656981Y-131837275D01*
X84795530Y-35770381D02*
X84350425Y-35770381D01*
X84350425Y-35770381D02*
X84350425Y-34835661D01*
X85107103Y-35280766D02*
X85418676Y-35280766D01*
X85552208Y-35770381D02*
X85107103Y-35770381D01*
X85107103Y-35770381D02*
X85107103Y-34835661D01*
X85107103Y-34835661D02*
X85552208Y-34835661D01*
X85952802Y-35770381D02*
X85952802Y-34835661D01*
X85952802Y-34835661D02*
X86175354Y-34835661D01*
X86175354Y-34835661D02*
X86308886Y-34880171D01*
X86308886Y-34880171D02*
X86397907Y-34969192D01*
X86397907Y-34969192D02*
X86442417Y-35058213D01*
X86442417Y-35058213D02*
X86486928Y-35236255D01*
X86486928Y-35236255D02*
X86486928Y-35369787D01*
X86486928Y-35369787D02*
X86442417Y-35547829D01*
X86442417Y-35547829D02*
X86397907Y-35636850D01*
X86397907Y-35636850D02*
X86308886Y-35725871D01*
X86308886Y-35725871D02*
X86175354Y-35770381D01*
X86175354Y-35770381D02*
X85952802Y-35770381D01*
X87288116Y-35147234D02*
X87288116Y-35770381D01*
X87065564Y-34791151D02*
X86843011Y-35458808D01*
X86843011Y-35458808D02*
X87421648Y-35458808D01*
X126221381Y-133344825D02*
X125286661Y-133344825D01*
X125286661Y-132721678D02*
X125286661Y-132543636D01*
X125286661Y-132543636D02*
X125331171Y-132454615D01*
X125331171Y-132454615D02*
X125420192Y-132365594D01*
X125420192Y-132365594D02*
X125598234Y-132321084D01*
X125598234Y-132321084D02*
X125909808Y-132321084D01*
X125909808Y-132321084D02*
X126087850Y-132365594D01*
X126087850Y-132365594D02*
X126176871Y-132454615D01*
X126176871Y-132454615D02*
X126221381Y-132543636D01*
X126221381Y-132543636D02*
X126221381Y-132721678D01*
X126221381Y-132721678D02*
X126176871Y-132810699D01*
X126176871Y-132810699D02*
X126087850Y-132899720D01*
X126087850Y-132899720D02*
X125909808Y-132944231D01*
X125909808Y-132944231D02*
X125598234Y-132944231D01*
X125598234Y-132944231D02*
X125420192Y-132899720D01*
X125420192Y-132899720D02*
X125331171Y-132810699D01*
X125331171Y-132810699D02*
X125286661Y-132721678D01*
X126221381Y-131875980D02*
X126221381Y-131697938D01*
X126221381Y-131697938D02*
X126176871Y-131608917D01*
X126176871Y-131608917D02*
X126132360Y-131564406D01*
X126132360Y-131564406D02*
X125998829Y-131475385D01*
X125998829Y-131475385D02*
X125820787Y-131430875D01*
X125820787Y-131430875D02*
X125464703Y-131430875D01*
X125464703Y-131430875D02*
X125375682Y-131475385D01*
X125375682Y-131475385D02*
X125331171Y-131519896D01*
X125331171Y-131519896D02*
X125286661Y-131608917D01*
X125286661Y-131608917D02*
X125286661Y-131786959D01*
X125286661Y-131786959D02*
X125331171Y-131875980D01*
X125331171Y-131875980D02*
X125375682Y-131920490D01*
X125375682Y-131920490D02*
X125464703Y-131965001D01*
X125464703Y-131965001D02*
X125687255Y-131965001D01*
X125687255Y-131965001D02*
X125776276Y-131920490D01*
X125776276Y-131920490D02*
X125820787Y-131875980D01*
X125820787Y-131875980D02*
X125865297Y-131786959D01*
X125865297Y-131786959D02*
X125865297Y-131608917D01*
X125865297Y-131608917D02*
X125820787Y-131519896D01*
X125820787Y-131519896D02*
X125776276Y-131475385D01*
X125776276Y-131475385D02*
X125687255Y-131430875D01*
X70647730Y-36418081D02*
X70202625Y-36418081D01*
X70202625Y-36418081D02*
X70202625Y-35483361D01*
X70959303Y-35928466D02*
X71270876Y-35928466D01*
X71404408Y-36418081D02*
X70959303Y-36418081D01*
X70959303Y-36418081D02*
X70959303Y-35483361D01*
X70959303Y-35483361D02*
X71404408Y-35483361D01*
X71805002Y-36418081D02*
X71805002Y-35483361D01*
X71805002Y-35483361D02*
X72027554Y-35483361D01*
X72027554Y-35483361D02*
X72161086Y-35527871D01*
X72161086Y-35527871D02*
X72250107Y-35616892D01*
X72250107Y-35616892D02*
X72294617Y-35705913D01*
X72294617Y-35705913D02*
X72339128Y-35883955D01*
X72339128Y-35883955D02*
X72339128Y-36017487D01*
X72339128Y-36017487D02*
X72294617Y-36195529D01*
X72294617Y-36195529D02*
X72250107Y-36284550D01*
X72250107Y-36284550D02*
X72161086Y-36373571D01*
X72161086Y-36373571D02*
X72027554Y-36418081D01*
X72027554Y-36418081D02*
X71805002Y-36418081D01*
X73184827Y-35483361D02*
X72739722Y-35483361D01*
X72739722Y-35483361D02*
X72695211Y-35928466D01*
X72695211Y-35928466D02*
X72739722Y-35883955D01*
X72739722Y-35883955D02*
X72828743Y-35839445D01*
X72828743Y-35839445D02*
X73051295Y-35839445D01*
X73051295Y-35839445D02*
X73140316Y-35883955D01*
X73140316Y-35883955D02*
X73184827Y-35928466D01*
X73184827Y-35928466D02*
X73229337Y-36017487D01*
X73229337Y-36017487D02*
X73229337Y-36240039D01*
X73229337Y-36240039D02*
X73184827Y-36329060D01*
X73184827Y-36329060D02*
X73140316Y-36373571D01*
X73140316Y-36373571D02*
X73051295Y-36418081D01*
X73051295Y-36418081D02*
X72828743Y-36418081D01*
X72828743Y-36418081D02*
X72739722Y-36373571D01*
X72739722Y-36373571D02*
X72695211Y-36329060D01*
X89150759Y-44568628D02*
X89239780Y-44613138D01*
X89239780Y-44613138D02*
X89373311Y-44613138D01*
X89373311Y-44613138D02*
X89506843Y-44568628D01*
X89506843Y-44568628D02*
X89595864Y-44479607D01*
X89595864Y-44479607D02*
X89640374Y-44390586D01*
X89640374Y-44390586D02*
X89684885Y-44212544D01*
X89684885Y-44212544D02*
X89684885Y-44079012D01*
X89684885Y-44079012D02*
X89640374Y-43900970D01*
X89640374Y-43900970D02*
X89595864Y-43811949D01*
X89595864Y-43811949D02*
X89506843Y-43722929D01*
X89506843Y-43722929D02*
X89373311Y-43678418D01*
X89373311Y-43678418D02*
X89284290Y-43678418D01*
X89284290Y-43678418D02*
X89150759Y-43722929D01*
X89150759Y-43722929D02*
X89106248Y-43767439D01*
X89106248Y-43767439D02*
X89106248Y-44079012D01*
X89106248Y-44079012D02*
X89284290Y-44079012D01*
X88705654Y-43678418D02*
X88705654Y-44613138D01*
X88705654Y-44613138D02*
X88171528Y-43678418D01*
X88171528Y-43678418D02*
X88171528Y-44613138D01*
X87726424Y-43678418D02*
X87726424Y-44613138D01*
X87726424Y-44613138D02*
X87503872Y-44613138D01*
X87503872Y-44613138D02*
X87370340Y-44568628D01*
X87370340Y-44568628D02*
X87281319Y-44479607D01*
X87281319Y-44479607D02*
X87236809Y-44390586D01*
X87236809Y-44390586D02*
X87192298Y-44212544D01*
X87192298Y-44212544D02*
X87192298Y-44079012D01*
X87192298Y-44079012D02*
X87236809Y-43900970D01*
X87236809Y-43900970D02*
X87281319Y-43811949D01*
X87281319Y-43811949D02*
X87370340Y-43722929D01*
X87370340Y-43722929D02*
X87503872Y-43678418D01*
X87503872Y-43678418D02*
X87726424Y-43678418D01*
X97241530Y-35770381D02*
X96796425Y-35770381D01*
X96796425Y-35770381D02*
X96796425Y-34835661D01*
X97553103Y-35280766D02*
X97864676Y-35280766D01*
X97998208Y-35770381D02*
X97553103Y-35770381D01*
X97553103Y-35770381D02*
X97553103Y-34835661D01*
X97553103Y-34835661D02*
X97998208Y-34835661D01*
X98398802Y-35770381D02*
X98398802Y-34835661D01*
X98398802Y-34835661D02*
X98621354Y-34835661D01*
X98621354Y-34835661D02*
X98754886Y-34880171D01*
X98754886Y-34880171D02*
X98843907Y-34969192D01*
X98843907Y-34969192D02*
X98888417Y-35058213D01*
X98888417Y-35058213D02*
X98932928Y-35236255D01*
X98932928Y-35236255D02*
X98932928Y-35369787D01*
X98932928Y-35369787D02*
X98888417Y-35547829D01*
X98888417Y-35547829D02*
X98843907Y-35636850D01*
X98843907Y-35636850D02*
X98754886Y-35725871D01*
X98754886Y-35725871D02*
X98621354Y-35770381D01*
X98621354Y-35770381D02*
X98398802Y-35770381D01*
X99244501Y-34835661D02*
X99823137Y-34835661D01*
X99823137Y-34835661D02*
X99511564Y-35191745D01*
X99511564Y-35191745D02*
X99645095Y-35191745D01*
X99645095Y-35191745D02*
X99734116Y-35236255D01*
X99734116Y-35236255D02*
X99778627Y-35280766D01*
X99778627Y-35280766D02*
X99823137Y-35369787D01*
X99823137Y-35369787D02*
X99823137Y-35592339D01*
X99823137Y-35592339D02*
X99778627Y-35681360D01*
X99778627Y-35681360D02*
X99734116Y-35725871D01*
X99734116Y-35725871D02*
X99645095Y-35770381D01*
X99645095Y-35770381D02*
X99378032Y-35770381D01*
X99378032Y-35770381D02*
X99289011Y-35725871D01*
X99289011Y-35725871D02*
X99244501Y-35681360D01*
X121444077Y-35797203D02*
X120998972Y-35797203D01*
X120998972Y-35797203D02*
X120998972Y-34862483D01*
X121755650Y-35307588D02*
X122067223Y-35307588D01*
X122200755Y-35797203D02*
X121755650Y-35797203D01*
X121755650Y-35797203D02*
X121755650Y-34862483D01*
X121755650Y-34862483D02*
X122200755Y-34862483D01*
X122601349Y-35797203D02*
X122601349Y-34862483D01*
X122601349Y-34862483D02*
X122823901Y-34862483D01*
X122823901Y-34862483D02*
X122957433Y-34906993D01*
X122957433Y-34906993D02*
X123046454Y-34996014D01*
X123046454Y-34996014D02*
X123090964Y-35085035D01*
X123090964Y-35085035D02*
X123135475Y-35263077D01*
X123135475Y-35263077D02*
X123135475Y-35396609D01*
X123135475Y-35396609D02*
X123090964Y-35574651D01*
X123090964Y-35574651D02*
X123046454Y-35663672D01*
X123046454Y-35663672D02*
X122957433Y-35752693D01*
X122957433Y-35752693D02*
X122823901Y-35797203D01*
X122823901Y-35797203D02*
X122601349Y-35797203D01*
X124025684Y-35797203D02*
X123491558Y-35797203D01*
X123758621Y-35797203D02*
X123758621Y-34862483D01*
X123758621Y-34862483D02*
X123669600Y-34996014D01*
X123669600Y-34996014D02*
X123580579Y-35085035D01*
X123580579Y-35085035D02*
X123491558Y-35129546D01*
X55329981Y-134005225D02*
X54395261Y-134005225D01*
X54395261Y-133382078D02*
X54395261Y-133204036D01*
X54395261Y-133204036D02*
X54439771Y-133115015D01*
X54439771Y-133115015D02*
X54528792Y-133025994D01*
X54528792Y-133025994D02*
X54706834Y-132981484D01*
X54706834Y-132981484D02*
X55018408Y-132981484D01*
X55018408Y-132981484D02*
X55196450Y-133025994D01*
X55196450Y-133025994D02*
X55285471Y-133115015D01*
X55285471Y-133115015D02*
X55329981Y-133204036D01*
X55329981Y-133204036D02*
X55329981Y-133382078D01*
X55329981Y-133382078D02*
X55285471Y-133471099D01*
X55285471Y-133471099D02*
X55196450Y-133560120D01*
X55196450Y-133560120D02*
X55018408Y-133604631D01*
X55018408Y-133604631D02*
X54706834Y-133604631D01*
X54706834Y-133604631D02*
X54528792Y-133560120D01*
X54528792Y-133560120D02*
X54439771Y-133471099D01*
X54439771Y-133471099D02*
X54395261Y-133382078D01*
X55329981Y-132091275D02*
X55329981Y-132625401D01*
X55329981Y-132358338D02*
X54395261Y-132358338D01*
X54395261Y-132358338D02*
X54528792Y-132447359D01*
X54528792Y-132447359D02*
X54617813Y-132536380D01*
X54617813Y-132536380D02*
X54662324Y-132625401D01*
X54395261Y-131512638D02*
X54395261Y-131423617D01*
X54395261Y-131423617D02*
X54439771Y-131334596D01*
X54439771Y-131334596D02*
X54484282Y-131290086D01*
X54484282Y-131290086D02*
X54573303Y-131245575D01*
X54573303Y-131245575D02*
X54751345Y-131201065D01*
X54751345Y-131201065D02*
X54973897Y-131201065D01*
X54973897Y-131201065D02*
X55151939Y-131245575D01*
X55151939Y-131245575D02*
X55240960Y-131290086D01*
X55240960Y-131290086D02*
X55285471Y-131334596D01*
X55285471Y-131334596D02*
X55329981Y-131423617D01*
X55329981Y-131423617D02*
X55329981Y-131512638D01*
X55329981Y-131512638D02*
X55285471Y-131601659D01*
X55285471Y-131601659D02*
X55240960Y-131646170D01*
X55240960Y-131646170D02*
X55151939Y-131690680D01*
X55151939Y-131690680D02*
X54973897Y-131735191D01*
X54973897Y-131735191D02*
X54751345Y-131735191D01*
X54751345Y-131735191D02*
X54573303Y-131690680D01*
X54573303Y-131690680D02*
X54484282Y-131646170D01*
X54484282Y-131646170D02*
X54439771Y-131601659D01*
X54439771Y-131601659D02*
X54395261Y-131512638D01*
D12*
X120610733Y-42738619D02*
X120277400Y-42262428D01*
X120039305Y-42738619D02*
X120039305Y-41738619D01*
X120039305Y-41738619D02*
X120420257Y-41738619D01*
X120420257Y-41738619D02*
X120515495Y-41786238D01*
X120515495Y-41786238D02*
X120563114Y-41833857D01*
X120563114Y-41833857D02*
X120610733Y-41929095D01*
X120610733Y-41929095D02*
X120610733Y-42071952D01*
X120610733Y-42071952D02*
X120563114Y-42167190D01*
X120563114Y-42167190D02*
X120515495Y-42214809D01*
X120515495Y-42214809D02*
X120420257Y-42262428D01*
X120420257Y-42262428D02*
X120039305Y-42262428D01*
X121563114Y-42738619D02*
X120991686Y-42738619D01*
X121277400Y-42738619D02*
X121277400Y-41738619D01*
X121277400Y-41738619D02*
X121182162Y-41881476D01*
X121182162Y-41881476D02*
X121086924Y-41976714D01*
X121086924Y-41976714D02*
X120991686Y-42024333D01*
X107910733Y-42738619D02*
X107577400Y-42262428D01*
X107339305Y-42738619D02*
X107339305Y-41738619D01*
X107339305Y-41738619D02*
X107720257Y-41738619D01*
X107720257Y-41738619D02*
X107815495Y-41786238D01*
X107815495Y-41786238D02*
X107863114Y-41833857D01*
X107863114Y-41833857D02*
X107910733Y-41929095D01*
X107910733Y-41929095D02*
X107910733Y-42071952D01*
X107910733Y-42071952D02*
X107863114Y-42167190D01*
X107863114Y-42167190D02*
X107815495Y-42214809D01*
X107815495Y-42214809D02*
X107720257Y-42262428D01*
X107720257Y-42262428D02*
X107339305Y-42262428D01*
X108291686Y-41833857D02*
X108339305Y-41786238D01*
X108339305Y-41786238D02*
X108434543Y-41738619D01*
X108434543Y-41738619D02*
X108672638Y-41738619D01*
X108672638Y-41738619D02*
X108767876Y-41786238D01*
X108767876Y-41786238D02*
X108815495Y-41833857D01*
X108815495Y-41833857D02*
X108863114Y-41929095D01*
X108863114Y-41929095D02*
X108863114Y-42024333D01*
X108863114Y-42024333D02*
X108815495Y-42167190D01*
X108815495Y-42167190D02*
X108244067Y-42738619D01*
X108244067Y-42738619D02*
X108863114Y-42738619D01*
D14*
X85331219Y-46890333D02*
X86045504Y-46890333D01*
X86045504Y-46890333D02*
X86188361Y-46937952D01*
X86188361Y-46937952D02*
X86283600Y-47033190D01*
X86283600Y-47033190D02*
X86331219Y-47176047D01*
X86331219Y-47176047D02*
X86331219Y-47271285D01*
X85331219Y-46509380D02*
X85331219Y-45890333D01*
X85331219Y-45890333D02*
X85712171Y-46223666D01*
X85712171Y-46223666D02*
X85712171Y-46080809D01*
X85712171Y-46080809D02*
X85759790Y-45985571D01*
X85759790Y-45985571D02*
X85807409Y-45937952D01*
X85807409Y-45937952D02*
X85902647Y-45890333D01*
X85902647Y-45890333D02*
X86140742Y-45890333D01*
X86140742Y-45890333D02*
X86235980Y-45937952D01*
X86235980Y-45937952D02*
X86283600Y-45985571D01*
X86283600Y-45985571D02*
X86331219Y-46080809D01*
X86331219Y-46080809D02*
X86331219Y-46366523D01*
X86331219Y-46366523D02*
X86283600Y-46461761D01*
X86283600Y-46461761D02*
X86235980Y-46509380D01*
X53505195Y-176708270D02*
X53505195Y-175708270D01*
X53505195Y-176184460D02*
X54076623Y-176184460D01*
X54076623Y-176708270D02*
X54076623Y-175708270D01*
X54457576Y-175708270D02*
X55076623Y-175708270D01*
X55076623Y-175708270D02*
X54743290Y-176089222D01*
X54743290Y-176089222D02*
X54886147Y-176089222D01*
X54886147Y-176089222D02*
X54981385Y-176136841D01*
X54981385Y-176136841D02*
X55029004Y-176184460D01*
X55029004Y-176184460D02*
X55076623Y-176279698D01*
X55076623Y-176279698D02*
X55076623Y-176517793D01*
X55076623Y-176517793D02*
X55029004Y-176613031D01*
X55029004Y-176613031D02*
X54981385Y-176660651D01*
X54981385Y-176660651D02*
X54886147Y-176708270D01*
X54886147Y-176708270D02*
X54600433Y-176708270D01*
X54600433Y-176708270D02*
X54505195Y-176660651D01*
X54505195Y-176660651D02*
X54457576Y-176613031D01*
D15*
X131609832Y-130272449D02*
X131609832Y-130638209D01*
X131609832Y-130638209D02*
X131585448Y-130711361D01*
X131585448Y-130711361D02*
X131536680Y-130760129D01*
X131536680Y-130760129D02*
X131463528Y-130784513D01*
X131463528Y-130784513D02*
X131414760Y-130784513D01*
X132121896Y-130784513D02*
X131829288Y-130784513D01*
X131975592Y-130784513D02*
X131975592Y-130272449D01*
X131975592Y-130272449D02*
X131926824Y-130345601D01*
X131926824Y-130345601D02*
X131878056Y-130394369D01*
X131878056Y-130394369D02*
X131829288Y-130418753D01*
X104850021Y-34405211D02*
X104850021Y-33893147D01*
X104850021Y-33893147D02*
X104971941Y-33893147D01*
X104971941Y-33893147D02*
X105045093Y-33917531D01*
X105045093Y-33917531D02*
X105093861Y-33966299D01*
X105093861Y-33966299D02*
X105118245Y-34015067D01*
X105118245Y-34015067D02*
X105142629Y-34112603D01*
X105142629Y-34112603D02*
X105142629Y-34185755D01*
X105142629Y-34185755D02*
X105118245Y-34283291D01*
X105118245Y-34283291D02*
X105093861Y-34332059D01*
X105093861Y-34332059D02*
X105045093Y-34380827D01*
X105045093Y-34380827D02*
X104971941Y-34405211D01*
X104971941Y-34405211D02*
X104850021Y-34405211D01*
X105337701Y-33941915D02*
X105362085Y-33917531D01*
X105362085Y-33917531D02*
X105410853Y-33893147D01*
X105410853Y-33893147D02*
X105532773Y-33893147D01*
X105532773Y-33893147D02*
X105581541Y-33917531D01*
X105581541Y-33917531D02*
X105605925Y-33941915D01*
X105605925Y-33941915D02*
X105630309Y-33990683D01*
X105630309Y-33990683D02*
X105630309Y-34039451D01*
X105630309Y-34039451D02*
X105605925Y-34112603D01*
X105605925Y-34112603D02*
X105313317Y-34405211D01*
X105313317Y-34405211D02*
X105630309Y-34405211D01*
X64854488Y-166199813D02*
X64854488Y-165687749D01*
X64854488Y-165687749D02*
X65025176Y-166053509D01*
X65025176Y-166053509D02*
X65195864Y-165687749D01*
X65195864Y-165687749D02*
X65195864Y-166199813D01*
X65707928Y-166199813D02*
X65415320Y-166199813D01*
X65561624Y-166199813D02*
X65561624Y-165687749D01*
X65561624Y-165687749D02*
X65512856Y-165760901D01*
X65512856Y-165760901D02*
X65464088Y-165809669D01*
X65464088Y-165809669D02*
X65415320Y-165834053D01*
X65903000Y-166053509D02*
X66146840Y-166053509D01*
X65854232Y-166199813D02*
X66024920Y-165687749D01*
X66024920Y-165687749D02*
X66195608Y-166199813D01*
X66463832Y-165687749D02*
X66512600Y-165687749D01*
X66512600Y-165687749D02*
X66561368Y-165712133D01*
X66561368Y-165712133D02*
X66585752Y-165736517D01*
X66585752Y-165736517D02*
X66610136Y-165785285D01*
X66610136Y-165785285D02*
X66634520Y-165882821D01*
X66634520Y-165882821D02*
X66634520Y-166004741D01*
X66634520Y-166004741D02*
X66610136Y-166102277D01*
X66610136Y-166102277D02*
X66585752Y-166151045D01*
X66585752Y-166151045D02*
X66561368Y-166175429D01*
X66561368Y-166175429D02*
X66512600Y-166199813D01*
X66512600Y-166199813D02*
X66463832Y-166199813D01*
X66463832Y-166199813D02*
X66415064Y-166175429D01*
X66415064Y-166175429D02*
X66390680Y-166151045D01*
X66390680Y-166151045D02*
X66366296Y-166102277D01*
X66366296Y-166102277D02*
X66341912Y-166004741D01*
X66341912Y-166004741D02*
X66341912Y-165882821D01*
X66341912Y-165882821D02*
X66366296Y-165785285D01*
X66366296Y-165785285D02*
X66390680Y-165736517D01*
X66390680Y-165736517D02*
X66415064Y-165712133D01*
X66415064Y-165712133D02*
X66463832Y-165687749D01*
X60591432Y-130450249D02*
X60591432Y-130816009D01*
X60591432Y-130816009D02*
X60567048Y-130889161D01*
X60567048Y-130889161D02*
X60518280Y-130937929D01*
X60518280Y-130937929D02*
X60445128Y-130962313D01*
X60445128Y-130962313D02*
X60396360Y-130962313D01*
X60810888Y-130499017D02*
X60835272Y-130474633D01*
X60835272Y-130474633D02*
X60884040Y-130450249D01*
X60884040Y-130450249D02*
X61005960Y-130450249D01*
X61005960Y-130450249D02*
X61054728Y-130474633D01*
X61054728Y-130474633D02*
X61079112Y-130499017D01*
X61079112Y-130499017D02*
X61103496Y-130547785D01*
X61103496Y-130547785D02*
X61103496Y-130596553D01*
X61103496Y-130596553D02*
X61079112Y-130669705D01*
X61079112Y-130669705D02*
X60786504Y-130962313D01*
X60786504Y-130962313D02*
X61103496Y-130962313D01*
D14*
X53505195Y-158750470D02*
X53505195Y-157750470D01*
X53505195Y-158226660D02*
X54076623Y-158226660D01*
X54076623Y-158750470D02*
X54076623Y-157750470D01*
X54981385Y-158083803D02*
X54981385Y-158750470D01*
X54743290Y-157702851D02*
X54505195Y-158417136D01*
X54505195Y-158417136D02*
X55124242Y-158417136D01*
D16*
X117318646Y-34398636D02*
X117318646Y-33910956D01*
X117318646Y-33910956D02*
X117434760Y-33910956D01*
X117434760Y-33910956D02*
X117504429Y-33934179D01*
X117504429Y-33934179D02*
X117550874Y-33980625D01*
X117550874Y-33980625D02*
X117574097Y-34027071D01*
X117574097Y-34027071D02*
X117597320Y-34119962D01*
X117597320Y-34119962D02*
X117597320Y-34189631D01*
X117597320Y-34189631D02*
X117574097Y-34282522D01*
X117574097Y-34282522D02*
X117550874Y-34328968D01*
X117550874Y-34328968D02*
X117504429Y-34375414D01*
X117504429Y-34375414D02*
X117434760Y-34398636D01*
X117434760Y-34398636D02*
X117318646Y-34398636D01*
X118061777Y-34398636D02*
X117783103Y-34398636D01*
X117922440Y-34398636D02*
X117922440Y-33910956D01*
X117922440Y-33910956D02*
X117875994Y-33980625D01*
X117875994Y-33980625D02*
X117829549Y-34027071D01*
X117829549Y-34027071D02*
X117783103Y-34050294D01*
D14*
X64251067Y-139212051D02*
X64393924Y-139259670D01*
X64393924Y-139259670D02*
X64632019Y-139259670D01*
X64632019Y-139259670D02*
X64727257Y-139212051D01*
X64727257Y-139212051D02*
X64774876Y-139164431D01*
X64774876Y-139164431D02*
X64822495Y-139069193D01*
X64822495Y-139069193D02*
X64822495Y-138973955D01*
X64822495Y-138973955D02*
X64774876Y-138878717D01*
X64774876Y-138878717D02*
X64727257Y-138831098D01*
X64727257Y-138831098D02*
X64632019Y-138783479D01*
X64632019Y-138783479D02*
X64441543Y-138735860D01*
X64441543Y-138735860D02*
X64346305Y-138688241D01*
X64346305Y-138688241D02*
X64298686Y-138640622D01*
X64298686Y-138640622D02*
X64251067Y-138545384D01*
X64251067Y-138545384D02*
X64251067Y-138450146D01*
X64251067Y-138450146D02*
X64298686Y-138354908D01*
X64298686Y-138354908D02*
X64346305Y-138307289D01*
X64346305Y-138307289D02*
X64441543Y-138259670D01*
X64441543Y-138259670D02*
X64679638Y-138259670D01*
X64679638Y-138259670D02*
X64822495Y-138307289D01*
X65155829Y-138259670D02*
X65393924Y-139259670D01*
X65393924Y-139259670D02*
X65584400Y-138545384D01*
X65584400Y-138545384D02*
X65774876Y-139259670D01*
X65774876Y-139259670D02*
X66012972Y-138259670D01*
X66917733Y-139259670D02*
X66346305Y-139259670D01*
X66632019Y-139259670D02*
X66632019Y-138259670D01*
X66632019Y-138259670D02*
X66536781Y-138402527D01*
X66536781Y-138402527D02*
X66441543Y-138497765D01*
X66441543Y-138497765D02*
X66346305Y-138545384D01*
D15*
X79581648Y-34405211D02*
X79581648Y-33893147D01*
X79581648Y-33893147D02*
X79703568Y-33893147D01*
X79703568Y-33893147D02*
X79776720Y-33917531D01*
X79776720Y-33917531D02*
X79825488Y-33966299D01*
X79825488Y-33966299D02*
X79849872Y-34015067D01*
X79849872Y-34015067D02*
X79874256Y-34112603D01*
X79874256Y-34112603D02*
X79874256Y-34185755D01*
X79874256Y-34185755D02*
X79849872Y-34283291D01*
X79849872Y-34283291D02*
X79825488Y-34332059D01*
X79825488Y-34332059D02*
X79776720Y-34380827D01*
X79776720Y-34380827D02*
X79703568Y-34405211D01*
X79703568Y-34405211D02*
X79581648Y-34405211D01*
X80313168Y-34063835D02*
X80313168Y-34405211D01*
X80191248Y-33868763D02*
X80069328Y-34234523D01*
X80069328Y-34234523D02*
X80386320Y-34234523D01*
D14*
X134315695Y-41897419D02*
X134315695Y-40897419D01*
X134315695Y-41373609D02*
X134887123Y-41373609D01*
X134887123Y-41897419D02*
X134887123Y-40897419D01*
X135839504Y-40897419D02*
X135363314Y-40897419D01*
X135363314Y-40897419D02*
X135315695Y-41373609D01*
X135315695Y-41373609D02*
X135363314Y-41325990D01*
X135363314Y-41325990D02*
X135458552Y-41278371D01*
X135458552Y-41278371D02*
X135696647Y-41278371D01*
X135696647Y-41278371D02*
X135791885Y-41325990D01*
X135791885Y-41325990D02*
X135839504Y-41373609D01*
X135839504Y-41373609D02*
X135887123Y-41468847D01*
X135887123Y-41468847D02*
X135887123Y-41706942D01*
X135887123Y-41706942D02*
X135839504Y-41802180D01*
X135839504Y-41802180D02*
X135791885Y-41849800D01*
X135791885Y-41849800D02*
X135696647Y-41897419D01*
X135696647Y-41897419D02*
X135458552Y-41897419D01*
X135458552Y-41897419D02*
X135363314Y-41849800D01*
X135363314Y-41849800D02*
X135315695Y-41802180D01*
D15*
X117270328Y-143332113D02*
X117026488Y-143332113D01*
X117026488Y-143332113D02*
X117026488Y-142820049D01*
X117441016Y-143332113D02*
X117441016Y-142820049D01*
X117441016Y-142820049D02*
X117562936Y-142820049D01*
X117562936Y-142820049D02*
X117636088Y-142844433D01*
X117636088Y-142844433D02*
X117684856Y-142893201D01*
X117684856Y-142893201D02*
X117709240Y-142941969D01*
X117709240Y-142941969D02*
X117733624Y-143039505D01*
X117733624Y-143039505D02*
X117733624Y-143112657D01*
X117733624Y-143112657D02*
X117709240Y-143210193D01*
X117709240Y-143210193D02*
X117684856Y-143258961D01*
X117684856Y-143258961D02*
X117636088Y-143307729D01*
X117636088Y-143307729D02*
X117562936Y-143332113D01*
X117562936Y-143332113D02*
X117441016Y-143332113D01*
X118245688Y-143332113D02*
X118075000Y-143088273D01*
X117953080Y-143332113D02*
X117953080Y-142820049D01*
X117953080Y-142820049D02*
X118148152Y-142820049D01*
X118148152Y-142820049D02*
X118196920Y-142844433D01*
X118196920Y-142844433D02*
X118221304Y-142868817D01*
X118221304Y-142868817D02*
X118245688Y-142917585D01*
X118245688Y-142917585D02*
X118245688Y-142990737D01*
X118245688Y-142990737D02*
X118221304Y-143039505D01*
X118221304Y-143039505D02*
X118196920Y-143063889D01*
X118196920Y-143063889D02*
X118148152Y-143088273D01*
X118148152Y-143088273D02*
X117953080Y-143088273D01*
X118562680Y-142820049D02*
X118611448Y-142820049D01*
X118611448Y-142820049D02*
X118660216Y-142844433D01*
X118660216Y-142844433D02*
X118684600Y-142868817D01*
X118684600Y-142868817D02*
X118708984Y-142917585D01*
X118708984Y-142917585D02*
X118733368Y-143015121D01*
X118733368Y-143015121D02*
X118733368Y-143137041D01*
X118733368Y-143137041D02*
X118708984Y-143234577D01*
X118708984Y-143234577D02*
X118684600Y-143283345D01*
X118684600Y-143283345D02*
X118660216Y-143307729D01*
X118660216Y-143307729D02*
X118611448Y-143332113D01*
X118611448Y-143332113D02*
X118562680Y-143332113D01*
X118562680Y-143332113D02*
X118513912Y-143307729D01*
X118513912Y-143307729D02*
X118489528Y-143283345D01*
X118489528Y-143283345D02*
X118465144Y-143234577D01*
X118465144Y-143234577D02*
X118440760Y-143137041D01*
X118440760Y-143137041D02*
X118440760Y-143015121D01*
X118440760Y-143015121D02*
X118465144Y-142917585D01*
X118465144Y-142917585D02*
X118489528Y-142868817D01*
X118489528Y-142868817D02*
X118513912Y-142844433D01*
X118513912Y-142844433D02*
X118562680Y-142820049D01*
X93386905Y-173797896D02*
X93460057Y-173822280D01*
X93460057Y-173822280D02*
X93484441Y-173846664D01*
X93484441Y-173846664D02*
X93508825Y-173895432D01*
X93508825Y-173895432D02*
X93508825Y-173968584D01*
X93508825Y-173968584D02*
X93484441Y-174017352D01*
X93484441Y-174017352D02*
X93460057Y-174041736D01*
X93460057Y-174041736D02*
X93411289Y-174066120D01*
X93411289Y-174066120D02*
X93216217Y-174066120D01*
X93216217Y-174066120D02*
X93216217Y-173554056D01*
X93216217Y-173554056D02*
X93386905Y-173554056D01*
X93386905Y-173554056D02*
X93435673Y-173578440D01*
X93435673Y-173578440D02*
X93460057Y-173602824D01*
X93460057Y-173602824D02*
X93484441Y-173651592D01*
X93484441Y-173651592D02*
X93484441Y-173700360D01*
X93484441Y-173700360D02*
X93460057Y-173749128D01*
X93460057Y-173749128D02*
X93435673Y-173773512D01*
X93435673Y-173773512D02*
X93386905Y-173797896D01*
X93386905Y-173797896D02*
X93216217Y-173797896D01*
X93703897Y-173919816D02*
X93947737Y-173919816D01*
X93655129Y-174066120D02*
X93825817Y-173554056D01*
X93825817Y-173554056D02*
X93996505Y-174066120D01*
X94094041Y-173554056D02*
X94386649Y-173554056D01*
X94240345Y-174066120D02*
X94240345Y-173554056D01*
X94484185Y-173554056D02*
X94776793Y-173554056D01*
X94630489Y-174066120D02*
X94630489Y-173554056D01*
X95045017Y-173554056D02*
X95093785Y-173554056D01*
X95093785Y-173554056D02*
X95142553Y-173578440D01*
X95142553Y-173578440D02*
X95166937Y-173602824D01*
X95166937Y-173602824D02*
X95191321Y-173651592D01*
X95191321Y-173651592D02*
X95215705Y-173749128D01*
X95215705Y-173749128D02*
X95215705Y-173871048D01*
X95215705Y-173871048D02*
X95191321Y-173968584D01*
X95191321Y-173968584D02*
X95166937Y-174017352D01*
X95166937Y-174017352D02*
X95142553Y-174041736D01*
X95142553Y-174041736D02*
X95093785Y-174066120D01*
X95093785Y-174066120D02*
X95045017Y-174066120D01*
X95045017Y-174066120D02*
X94996249Y-174041736D01*
X94996249Y-174041736D02*
X94971865Y-174017352D01*
X94971865Y-174017352D02*
X94947481Y-173968584D01*
X94947481Y-173968584D02*
X94923097Y-173871048D01*
X94923097Y-173871048D02*
X94923097Y-173749128D01*
X94923097Y-173749128D02*
X94947481Y-173651592D01*
X94947481Y-173651592D02*
X94971865Y-173602824D01*
X94971865Y-173602824D02*
X94996249Y-173578440D01*
X94996249Y-173578440D02*
X95045017Y-173554056D01*
X92154645Y-34405211D02*
X92154645Y-33893147D01*
X92154645Y-33893147D02*
X92276565Y-33893147D01*
X92276565Y-33893147D02*
X92349717Y-33917531D01*
X92349717Y-33917531D02*
X92398485Y-33966299D01*
X92398485Y-33966299D02*
X92422869Y-34015067D01*
X92422869Y-34015067D02*
X92447253Y-34112603D01*
X92447253Y-34112603D02*
X92447253Y-34185755D01*
X92447253Y-34185755D02*
X92422869Y-34283291D01*
X92422869Y-34283291D02*
X92398485Y-34332059D01*
X92398485Y-34332059D02*
X92349717Y-34380827D01*
X92349717Y-34380827D02*
X92276565Y-34405211D01*
X92276565Y-34405211D02*
X92154645Y-34405211D01*
X92617941Y-33893147D02*
X92934933Y-33893147D01*
X92934933Y-33893147D02*
X92764245Y-34088219D01*
X92764245Y-34088219D02*
X92837397Y-34088219D01*
X92837397Y-34088219D02*
X92886165Y-34112603D01*
X92886165Y-34112603D02*
X92910549Y-34136987D01*
X92910549Y-34136987D02*
X92934933Y-34185755D01*
X92934933Y-34185755D02*
X92934933Y-34307675D01*
X92934933Y-34307675D02*
X92910549Y-34356443D01*
X92910549Y-34356443D02*
X92886165Y-34380827D01*
X92886165Y-34380827D02*
X92837397Y-34405211D01*
X92837397Y-34405211D02*
X92691093Y-34405211D01*
X92691093Y-34405211D02*
X92642325Y-34380827D01*
X92642325Y-34380827D02*
X92617941Y-34356443D01*
D12*
X70064733Y-42738619D02*
X69731400Y-42262428D01*
X69493305Y-42738619D02*
X69493305Y-41738619D01*
X69493305Y-41738619D02*
X69874257Y-41738619D01*
X69874257Y-41738619D02*
X69969495Y-41786238D01*
X69969495Y-41786238D02*
X70017114Y-41833857D01*
X70017114Y-41833857D02*
X70064733Y-41929095D01*
X70064733Y-41929095D02*
X70064733Y-42071952D01*
X70064733Y-42071952D02*
X70017114Y-42167190D01*
X70017114Y-42167190D02*
X69969495Y-42214809D01*
X69969495Y-42214809D02*
X69874257Y-42262428D01*
X69874257Y-42262428D02*
X69493305Y-42262428D01*
X70969495Y-41738619D02*
X70493305Y-41738619D01*
X70493305Y-41738619D02*
X70445686Y-42214809D01*
X70445686Y-42214809D02*
X70493305Y-42167190D01*
X70493305Y-42167190D02*
X70588543Y-42119571D01*
X70588543Y-42119571D02*
X70826638Y-42119571D01*
X70826638Y-42119571D02*
X70921876Y-42167190D01*
X70921876Y-42167190D02*
X70969495Y-42214809D01*
X70969495Y-42214809D02*
X71017114Y-42310047D01*
X71017114Y-42310047D02*
X71017114Y-42548142D01*
X71017114Y-42548142D02*
X70969495Y-42643380D01*
X70969495Y-42643380D02*
X70921876Y-42691000D01*
X70921876Y-42691000D02*
X70826638Y-42738619D01*
X70826638Y-42738619D02*
X70588543Y-42738619D01*
X70588543Y-42738619D02*
X70493305Y-42691000D01*
X70493305Y-42691000D02*
X70445686Y-42643380D01*
D17*
X93731523Y-187428437D02*
X93760262Y-187428437D01*
X93745892Y-187478729D02*
X93745892Y-187428437D01*
X93777026Y-187478729D02*
X93777026Y-187428437D01*
X93798580Y-187478729D02*
X93798580Y-187452386D01*
X93798580Y-187452386D02*
X93796185Y-187447596D01*
X93796185Y-187447596D02*
X93791395Y-187445201D01*
X93791395Y-187445201D02*
X93784210Y-187445201D01*
X93784210Y-187445201D02*
X93779421Y-187447596D01*
X93779421Y-187447596D02*
X93777026Y-187449991D01*
X93822528Y-187478729D02*
X93822528Y-187445201D01*
X93822528Y-187428437D02*
X93820133Y-187430832D01*
X93820133Y-187430832D02*
X93822528Y-187433227D01*
X93822528Y-187433227D02*
X93824923Y-187430832D01*
X93824923Y-187430832D02*
X93822528Y-187428437D01*
X93822528Y-187428437D02*
X93822528Y-187433227D01*
X93844082Y-187476335D02*
X93848872Y-187478729D01*
X93848872Y-187478729D02*
X93858451Y-187478729D01*
X93858451Y-187478729D02*
X93863241Y-187476335D01*
X93863241Y-187476335D02*
X93865636Y-187471545D01*
X93865636Y-187471545D02*
X93865636Y-187469150D01*
X93865636Y-187469150D02*
X93863241Y-187464360D01*
X93863241Y-187464360D02*
X93858451Y-187461965D01*
X93858451Y-187461965D02*
X93851267Y-187461965D01*
X93851267Y-187461965D02*
X93846477Y-187459571D01*
X93846477Y-187459571D02*
X93844082Y-187454781D01*
X93844082Y-187454781D02*
X93844082Y-187452386D01*
X93844082Y-187452386D02*
X93846477Y-187447596D01*
X93846477Y-187447596D02*
X93851267Y-187445201D01*
X93851267Y-187445201D02*
X93858451Y-187445201D01*
X93858451Y-187445201D02*
X93863241Y-187447596D01*
X93932692Y-187478729D02*
X93927903Y-187476335D01*
X93927903Y-187476335D02*
X93925508Y-187471545D01*
X93925508Y-187471545D02*
X93925508Y-187428437D01*
X93951851Y-187478729D02*
X93951851Y-187445201D01*
X93951851Y-187428437D02*
X93949456Y-187430832D01*
X93949456Y-187430832D02*
X93951851Y-187433227D01*
X93951851Y-187433227D02*
X93954246Y-187430832D01*
X93954246Y-187430832D02*
X93951851Y-187428437D01*
X93951851Y-187428437D02*
X93951851Y-187433227D01*
X93975800Y-187478729D02*
X93975800Y-187428437D01*
X93975800Y-187447596D02*
X93980590Y-187445201D01*
X93980590Y-187445201D02*
X93990169Y-187445201D01*
X93990169Y-187445201D02*
X93994959Y-187447596D01*
X93994959Y-187447596D02*
X93997354Y-187449991D01*
X93997354Y-187449991D02*
X93999748Y-187454781D01*
X93999748Y-187454781D02*
X93999748Y-187469150D01*
X93999748Y-187469150D02*
X93997354Y-187473940D01*
X93997354Y-187473940D02*
X93994959Y-187476335D01*
X93994959Y-187476335D02*
X93990169Y-187478729D01*
X93990169Y-187478729D02*
X93980590Y-187478729D01*
X93980590Y-187478729D02*
X93975800Y-187476335D01*
X94021302Y-187478729D02*
X94021302Y-187445201D01*
X94021302Y-187454781D02*
X94023697Y-187449991D01*
X94023697Y-187449991D02*
X94026092Y-187447596D01*
X94026092Y-187447596D02*
X94030881Y-187445201D01*
X94030881Y-187445201D02*
X94035671Y-187445201D01*
X94073989Y-187478729D02*
X94073989Y-187452386D01*
X94073989Y-187452386D02*
X94071594Y-187447596D01*
X94071594Y-187447596D02*
X94066804Y-187445201D01*
X94066804Y-187445201D02*
X94057225Y-187445201D01*
X94057225Y-187445201D02*
X94052435Y-187447596D01*
X94073989Y-187476335D02*
X94069199Y-187478729D01*
X94069199Y-187478729D02*
X94057225Y-187478729D01*
X94057225Y-187478729D02*
X94052435Y-187476335D01*
X94052435Y-187476335D02*
X94050040Y-187471545D01*
X94050040Y-187471545D02*
X94050040Y-187466755D01*
X94050040Y-187466755D02*
X94052435Y-187461965D01*
X94052435Y-187461965D02*
X94057225Y-187459571D01*
X94057225Y-187459571D02*
X94069199Y-187459571D01*
X94069199Y-187459571D02*
X94073989Y-187457176D01*
X94097937Y-187478729D02*
X94097937Y-187445201D01*
X94097937Y-187454781D02*
X94100332Y-187449991D01*
X94100332Y-187449991D02*
X94102727Y-187447596D01*
X94102727Y-187447596D02*
X94107516Y-187445201D01*
X94107516Y-187445201D02*
X94112306Y-187445201D01*
X94124280Y-187445201D02*
X94136254Y-187478729D01*
X94148229Y-187445201D02*
X94136254Y-187478729D01*
X94136254Y-187478729D02*
X94131465Y-187490704D01*
X94131465Y-187490704D02*
X94129070Y-187493099D01*
X94129070Y-187493099D02*
X94124280Y-187495493D01*
X94200916Y-187445201D02*
X94210496Y-187478729D01*
X94210496Y-187478729D02*
X94220075Y-187454781D01*
X94220075Y-187454781D02*
X94229654Y-187478729D01*
X94229654Y-187478729D02*
X94239234Y-187445201D01*
X94279947Y-187478729D02*
X94279947Y-187452386D01*
X94279947Y-187452386D02*
X94277552Y-187447596D01*
X94277552Y-187447596D02*
X94272762Y-187445201D01*
X94272762Y-187445201D02*
X94263183Y-187445201D01*
X94263183Y-187445201D02*
X94258393Y-187447596D01*
X94279947Y-187476335D02*
X94275157Y-187478729D01*
X94275157Y-187478729D02*
X94263183Y-187478729D01*
X94263183Y-187478729D02*
X94258393Y-187476335D01*
X94258393Y-187476335D02*
X94255998Y-187471545D01*
X94255998Y-187471545D02*
X94255998Y-187466755D01*
X94255998Y-187466755D02*
X94258393Y-187461965D01*
X94258393Y-187461965D02*
X94263183Y-187459571D01*
X94263183Y-187459571D02*
X94275157Y-187459571D01*
X94275157Y-187459571D02*
X94279947Y-187457176D01*
X94301500Y-187476335D02*
X94306290Y-187478729D01*
X94306290Y-187478729D02*
X94315869Y-187478729D01*
X94315869Y-187478729D02*
X94320659Y-187476335D01*
X94320659Y-187476335D02*
X94323054Y-187471545D01*
X94323054Y-187471545D02*
X94323054Y-187469150D01*
X94323054Y-187469150D02*
X94320659Y-187464360D01*
X94320659Y-187464360D02*
X94315869Y-187461965D01*
X94315869Y-187461965D02*
X94308685Y-187461965D01*
X94308685Y-187461965D02*
X94303895Y-187459571D01*
X94303895Y-187459571D02*
X94301500Y-187454781D01*
X94301500Y-187454781D02*
X94301500Y-187452386D01*
X94301500Y-187452386D02*
X94303895Y-187447596D01*
X94303895Y-187447596D02*
X94308685Y-187445201D01*
X94308685Y-187445201D02*
X94315869Y-187445201D01*
X94315869Y-187445201D02*
X94320659Y-187447596D01*
X94404480Y-187476335D02*
X94399690Y-187478729D01*
X94399690Y-187478729D02*
X94390110Y-187478729D01*
X94390110Y-187478729D02*
X94385321Y-187476335D01*
X94385321Y-187476335D02*
X94382926Y-187473940D01*
X94382926Y-187473940D02*
X94380531Y-187469150D01*
X94380531Y-187469150D02*
X94380531Y-187454781D01*
X94380531Y-187454781D02*
X94382926Y-187449991D01*
X94382926Y-187449991D02*
X94385321Y-187447596D01*
X94385321Y-187447596D02*
X94390110Y-187445201D01*
X94390110Y-187445201D02*
X94399690Y-187445201D01*
X94399690Y-187445201D02*
X94404480Y-187447596D01*
X94426033Y-187478729D02*
X94426033Y-187445201D01*
X94426033Y-187454781D02*
X94428428Y-187449991D01*
X94428428Y-187449991D02*
X94430823Y-187447596D01*
X94430823Y-187447596D02*
X94435612Y-187445201D01*
X94435612Y-187445201D02*
X94440402Y-187445201D01*
X94476325Y-187476335D02*
X94471535Y-187478729D01*
X94471535Y-187478729D02*
X94461956Y-187478729D01*
X94461956Y-187478729D02*
X94457166Y-187476335D01*
X94457166Y-187476335D02*
X94454771Y-187471545D01*
X94454771Y-187471545D02*
X94454771Y-187452386D01*
X94454771Y-187452386D02*
X94457166Y-187447596D01*
X94457166Y-187447596D02*
X94461956Y-187445201D01*
X94461956Y-187445201D02*
X94471535Y-187445201D01*
X94471535Y-187445201D02*
X94476325Y-187447596D01*
X94476325Y-187447596D02*
X94478720Y-187452386D01*
X94478720Y-187452386D02*
X94478720Y-187457176D01*
X94478720Y-187457176D02*
X94454771Y-187461965D01*
X94521827Y-187478729D02*
X94521827Y-187452386D01*
X94521827Y-187452386D02*
X94519432Y-187447596D01*
X94519432Y-187447596D02*
X94514642Y-187445201D01*
X94514642Y-187445201D02*
X94505063Y-187445201D01*
X94505063Y-187445201D02*
X94500273Y-187447596D01*
X94521827Y-187476335D02*
X94517037Y-187478729D01*
X94517037Y-187478729D02*
X94505063Y-187478729D01*
X94505063Y-187478729D02*
X94500273Y-187476335D01*
X94500273Y-187476335D02*
X94497878Y-187471545D01*
X94497878Y-187471545D02*
X94497878Y-187466755D01*
X94497878Y-187466755D02*
X94500273Y-187461965D01*
X94500273Y-187461965D02*
X94505063Y-187459571D01*
X94505063Y-187459571D02*
X94517037Y-187459571D01*
X94517037Y-187459571D02*
X94521827Y-187457176D01*
X94538590Y-187445201D02*
X94557749Y-187445201D01*
X94545775Y-187428437D02*
X94545775Y-187471545D01*
X94545775Y-187471545D02*
X94548170Y-187476335D01*
X94548170Y-187476335D02*
X94552959Y-187478729D01*
X94552959Y-187478729D02*
X94557749Y-187478729D01*
X94593672Y-187476335D02*
X94588882Y-187478729D01*
X94588882Y-187478729D02*
X94579303Y-187478729D01*
X94579303Y-187478729D02*
X94574513Y-187476335D01*
X94574513Y-187476335D02*
X94572118Y-187471545D01*
X94572118Y-187471545D02*
X94572118Y-187452386D01*
X94572118Y-187452386D02*
X94574513Y-187447596D01*
X94574513Y-187447596D02*
X94579303Y-187445201D01*
X94579303Y-187445201D02*
X94588882Y-187445201D01*
X94588882Y-187445201D02*
X94593672Y-187447596D01*
X94593672Y-187447596D02*
X94596067Y-187452386D01*
X94596067Y-187452386D02*
X94596067Y-187457176D01*
X94596067Y-187457176D02*
X94572118Y-187461965D01*
X94639174Y-187478729D02*
X94639174Y-187428437D01*
X94639174Y-187476335D02*
X94634384Y-187478729D01*
X94634384Y-187478729D02*
X94624804Y-187478729D01*
X94624804Y-187478729D02*
X94620015Y-187476335D01*
X94620015Y-187476335D02*
X94617620Y-187473940D01*
X94617620Y-187473940D02*
X94615225Y-187469150D01*
X94615225Y-187469150D02*
X94615225Y-187454781D01*
X94615225Y-187454781D02*
X94617620Y-187449991D01*
X94617620Y-187449991D02*
X94620015Y-187447596D01*
X94620015Y-187447596D02*
X94624804Y-187445201D01*
X94624804Y-187445201D02*
X94634384Y-187445201D01*
X94634384Y-187445201D02*
X94639174Y-187447596D01*
X94701440Y-187478729D02*
X94701440Y-187428437D01*
X94701440Y-187447596D02*
X94706230Y-187445201D01*
X94706230Y-187445201D02*
X94715809Y-187445201D01*
X94715809Y-187445201D02*
X94720599Y-187447596D01*
X94720599Y-187447596D02*
X94722994Y-187449991D01*
X94722994Y-187449991D02*
X94725388Y-187454781D01*
X94725388Y-187454781D02*
X94725388Y-187469150D01*
X94725388Y-187469150D02*
X94722994Y-187473940D01*
X94722994Y-187473940D02*
X94720599Y-187476335D01*
X94720599Y-187476335D02*
X94715809Y-187478729D01*
X94715809Y-187478729D02*
X94706230Y-187478729D01*
X94706230Y-187478729D02*
X94701440Y-187476335D01*
X94742152Y-187445201D02*
X94754126Y-187478729D01*
X94766101Y-187445201D02*
X94754126Y-187478729D01*
X94754126Y-187478729D02*
X94749337Y-187490704D01*
X94749337Y-187490704D02*
X94746942Y-187493099D01*
X94746942Y-187493099D02*
X94742152Y-187495493D01*
X94823578Y-187452386D02*
X94840342Y-187452386D01*
X94847526Y-187478729D02*
X94823578Y-187478729D01*
X94823578Y-187478729D02*
X94823578Y-187428437D01*
X94823578Y-187428437D02*
X94847526Y-187428437D01*
X94866685Y-187476335D02*
X94871475Y-187478729D01*
X94871475Y-187478729D02*
X94881054Y-187478729D01*
X94881054Y-187478729D02*
X94885844Y-187476335D01*
X94885844Y-187476335D02*
X94888239Y-187471545D01*
X94888239Y-187471545D02*
X94888239Y-187469150D01*
X94888239Y-187469150D02*
X94885844Y-187464360D01*
X94885844Y-187464360D02*
X94881054Y-187461965D01*
X94881054Y-187461965D02*
X94873870Y-187461965D01*
X94873870Y-187461965D02*
X94869080Y-187459571D01*
X94869080Y-187459571D02*
X94866685Y-187454781D01*
X94866685Y-187454781D02*
X94866685Y-187452386D01*
X94866685Y-187452386D02*
X94869080Y-187447596D01*
X94869080Y-187447596D02*
X94873870Y-187445201D01*
X94873870Y-187445201D02*
X94881054Y-187445201D01*
X94881054Y-187445201D02*
X94885844Y-187447596D01*
X94909793Y-187445201D02*
X94909793Y-187495493D01*
X94909793Y-187447596D02*
X94914583Y-187445201D01*
X94914583Y-187445201D02*
X94924162Y-187445201D01*
X94924162Y-187445201D02*
X94928952Y-187447596D01*
X94928952Y-187447596D02*
X94931347Y-187449991D01*
X94931347Y-187449991D02*
X94933741Y-187454781D01*
X94933741Y-187454781D02*
X94933741Y-187469150D01*
X94933741Y-187469150D02*
X94931347Y-187473940D01*
X94931347Y-187473940D02*
X94928952Y-187476335D01*
X94928952Y-187476335D02*
X94924162Y-187478729D01*
X94924162Y-187478729D02*
X94914583Y-187478729D01*
X94914583Y-187478729D02*
X94909793Y-187476335D01*
X94955295Y-187473940D02*
X94957690Y-187476335D01*
X94957690Y-187476335D02*
X94955295Y-187478729D01*
X94955295Y-187478729D02*
X94952900Y-187476335D01*
X94952900Y-187476335D02*
X94955295Y-187473940D01*
X94955295Y-187473940D02*
X94955295Y-187478729D01*
X95017562Y-187478729D02*
X95017562Y-187428437D01*
X95017562Y-187428437D02*
X95034326Y-187464360D01*
X95034326Y-187464360D02*
X95051090Y-187428437D01*
X95051090Y-187428437D02*
X95051090Y-187478729D01*
X95096593Y-187478729D02*
X95096593Y-187452386D01*
X95096593Y-187452386D02*
X95094198Y-187447596D01*
X95094198Y-187447596D02*
X95089408Y-187445201D01*
X95089408Y-187445201D02*
X95079829Y-187445201D01*
X95079829Y-187445201D02*
X95075039Y-187447596D01*
X95096593Y-187476335D02*
X95091803Y-187478729D01*
X95091803Y-187478729D02*
X95079829Y-187478729D01*
X95079829Y-187478729D02*
X95075039Y-187476335D01*
X95075039Y-187476335D02*
X95072644Y-187471545D01*
X95072644Y-187471545D02*
X95072644Y-187466755D01*
X95072644Y-187466755D02*
X95075039Y-187461965D01*
X95075039Y-187461965D02*
X95079829Y-187459571D01*
X95079829Y-187459571D02*
X95091803Y-187459571D01*
X95091803Y-187459571D02*
X95096593Y-187457176D01*
X95120541Y-187478729D02*
X95120541Y-187445201D01*
X95120541Y-187454781D02*
X95122936Y-187449991D01*
X95122936Y-187449991D02*
X95125331Y-187447596D01*
X95125331Y-187447596D02*
X95130120Y-187445201D01*
X95130120Y-187445201D02*
X95134910Y-187445201D01*
X95173228Y-187476335D02*
X95168438Y-187478729D01*
X95168438Y-187478729D02*
X95158858Y-187478729D01*
X95158858Y-187478729D02*
X95154069Y-187476335D01*
X95154069Y-187476335D02*
X95151674Y-187473940D01*
X95151674Y-187473940D02*
X95149279Y-187469150D01*
X95149279Y-187469150D02*
X95149279Y-187454781D01*
X95149279Y-187454781D02*
X95151674Y-187449991D01*
X95151674Y-187449991D02*
X95154069Y-187447596D01*
X95154069Y-187447596D02*
X95158858Y-187445201D01*
X95158858Y-187445201D02*
X95168438Y-187445201D01*
X95168438Y-187445201D02*
X95173228Y-187447596D01*
X95201965Y-187478729D02*
X95197176Y-187476335D01*
X95197176Y-187476335D02*
X95194781Y-187473940D01*
X95194781Y-187473940D02*
X95192386Y-187469150D01*
X95192386Y-187469150D02*
X95192386Y-187454781D01*
X95192386Y-187454781D02*
X95194781Y-187449991D01*
X95194781Y-187449991D02*
X95197176Y-187447596D01*
X95197176Y-187447596D02*
X95201965Y-187445201D01*
X95201965Y-187445201D02*
X95209150Y-187445201D01*
X95209150Y-187445201D02*
X95213940Y-187447596D01*
X95213940Y-187447596D02*
X95216335Y-187449991D01*
X95216335Y-187449991D02*
X95218729Y-187454781D01*
X95218729Y-187454781D02*
X95218729Y-187469150D01*
X95218729Y-187469150D02*
X95216335Y-187473940D01*
X95216335Y-187473940D02*
X95213940Y-187476335D01*
X95213940Y-187476335D02*
X95209150Y-187478729D01*
X95209150Y-187478729D02*
X95201965Y-187478729D01*
X95240283Y-187459571D02*
X95278601Y-187459571D01*
X95326497Y-187478729D02*
X95302549Y-187478729D01*
X95302549Y-187478729D02*
X95302549Y-187428437D01*
X95364816Y-187445201D02*
X95364816Y-187478729D01*
X95343262Y-187445201D02*
X95343262Y-187471545D01*
X95343262Y-187471545D02*
X95345657Y-187476335D01*
X95345657Y-187476335D02*
X95350446Y-187478729D01*
X95350446Y-187478729D02*
X95357631Y-187478729D01*
X95357631Y-187478729D02*
X95362421Y-187476335D01*
X95362421Y-187476335D02*
X95364816Y-187473940D01*
X95388764Y-187478729D02*
X95388764Y-187445201D01*
X95388764Y-187428437D02*
X95386369Y-187430832D01*
X95386369Y-187430832D02*
X95388764Y-187433227D01*
X95388764Y-187433227D02*
X95391159Y-187430832D01*
X95391159Y-187430832D02*
X95388764Y-187428437D01*
X95388764Y-187428437D02*
X95388764Y-187433227D01*
X95410318Y-187476335D02*
X95415108Y-187478729D01*
X95415108Y-187478729D02*
X95424687Y-187478729D01*
X95424687Y-187478729D02*
X95429477Y-187476335D01*
X95429477Y-187476335D02*
X95431872Y-187471545D01*
X95431872Y-187471545D02*
X95431872Y-187469150D01*
X95431872Y-187469150D02*
X95429477Y-187464360D01*
X95429477Y-187464360D02*
X95424687Y-187461965D01*
X95424687Y-187461965D02*
X95417503Y-187461965D01*
X95417503Y-187461965D02*
X95412713Y-187459571D01*
X95412713Y-187459571D02*
X95410318Y-187454781D01*
X95410318Y-187454781D02*
X95410318Y-187452386D01*
X95410318Y-187452386D02*
X95412713Y-187447596D01*
X95412713Y-187447596D02*
X95417503Y-187445201D01*
X95417503Y-187445201D02*
X95424687Y-187445201D01*
X95424687Y-187445201D02*
X95429477Y-187447596D01*
X95489349Y-187476335D02*
X95496534Y-187478729D01*
X95496534Y-187478729D02*
X95508508Y-187478729D01*
X95508508Y-187478729D02*
X95513298Y-187476335D01*
X95513298Y-187476335D02*
X95515692Y-187473940D01*
X95515692Y-187473940D02*
X95518087Y-187469150D01*
X95518087Y-187469150D02*
X95518087Y-187464360D01*
X95518087Y-187464360D02*
X95515692Y-187459571D01*
X95515692Y-187459571D02*
X95513298Y-187457176D01*
X95513298Y-187457176D02*
X95508508Y-187454781D01*
X95508508Y-187454781D02*
X95498928Y-187452386D01*
X95498928Y-187452386D02*
X95494139Y-187449991D01*
X95494139Y-187449991D02*
X95491744Y-187447596D01*
X95491744Y-187447596D02*
X95489349Y-187442807D01*
X95489349Y-187442807D02*
X95489349Y-187438017D01*
X95489349Y-187438017D02*
X95491744Y-187433227D01*
X95491744Y-187433227D02*
X95494139Y-187430832D01*
X95494139Y-187430832D02*
X95498928Y-187428437D01*
X95498928Y-187428437D02*
X95510903Y-187428437D01*
X95510903Y-187428437D02*
X95518087Y-187430832D01*
X95537246Y-187464360D02*
X95561195Y-187464360D01*
X95532456Y-187478729D02*
X95549220Y-187428437D01*
X95549220Y-187428437D02*
X95565984Y-187478729D01*
X95606696Y-187478729D02*
X95582748Y-187478729D01*
X95582748Y-187478729D02*
X95582748Y-187428437D01*
X95652199Y-187473940D02*
X95649804Y-187476335D01*
X95649804Y-187476335D02*
X95642620Y-187478729D01*
X95642620Y-187478729D02*
X95637830Y-187478729D01*
X95637830Y-187478729D02*
X95630645Y-187476335D01*
X95630645Y-187476335D02*
X95625856Y-187471545D01*
X95625856Y-187471545D02*
X95623461Y-187466755D01*
X95623461Y-187466755D02*
X95621066Y-187457176D01*
X95621066Y-187457176D02*
X95621066Y-187449991D01*
X95621066Y-187449991D02*
X95623461Y-187440412D01*
X95623461Y-187440412D02*
X95625856Y-187435622D01*
X95625856Y-187435622D02*
X95630645Y-187430832D01*
X95630645Y-187430832D02*
X95637830Y-187428437D01*
X95637830Y-187428437D02*
X95642620Y-187428437D01*
X95642620Y-187428437D02*
X95649804Y-187430832D01*
X95649804Y-187430832D02*
X95652199Y-187433227D01*
X95673753Y-187452386D02*
X95690517Y-187452386D01*
X95697701Y-187478729D02*
X95673753Y-187478729D01*
X95673753Y-187478729D02*
X95673753Y-187428437D01*
X95673753Y-187428437D02*
X95697701Y-187428437D01*
X95719255Y-187478729D02*
X95719255Y-187428437D01*
X95719255Y-187428437D02*
X95731229Y-187428437D01*
X95731229Y-187428437D02*
X95738414Y-187430832D01*
X95738414Y-187430832D02*
X95743203Y-187435622D01*
X95743203Y-187435622D02*
X95745598Y-187440412D01*
X95745598Y-187440412D02*
X95747993Y-187449991D01*
X95747993Y-187449991D02*
X95747993Y-187457176D01*
X95747993Y-187457176D02*
X95745598Y-187466755D01*
X95745598Y-187466755D02*
X95743203Y-187471545D01*
X95743203Y-187471545D02*
X95738414Y-187476335D01*
X95738414Y-187476335D02*
X95731229Y-187478729D01*
X95731229Y-187478729D02*
X95719255Y-187478729D01*
X95779126Y-187428437D02*
X95788706Y-187428437D01*
X95788706Y-187428437D02*
X95793495Y-187430832D01*
X95793495Y-187430832D02*
X95798285Y-187435622D01*
X95798285Y-187435622D02*
X95800680Y-187445201D01*
X95800680Y-187445201D02*
X95800680Y-187461965D01*
X95800680Y-187461965D02*
X95798285Y-187471545D01*
X95798285Y-187471545D02*
X95793495Y-187476335D01*
X95793495Y-187476335D02*
X95788706Y-187478729D01*
X95788706Y-187478729D02*
X95779126Y-187478729D01*
X95779126Y-187478729D02*
X95774337Y-187476335D01*
X95774337Y-187476335D02*
X95769547Y-187471545D01*
X95769547Y-187471545D02*
X95767152Y-187461965D01*
X95767152Y-187461965D02*
X95767152Y-187445201D01*
X95767152Y-187445201D02*
X95769547Y-187435622D01*
X95769547Y-187435622D02*
X95774337Y-187430832D01*
X95774337Y-187430832D02*
X95779126Y-187428437D01*
X95853367Y-187428437D02*
X95882106Y-187428437D01*
X95867736Y-187478729D02*
X95867736Y-187428437D01*
X95908449Y-187428437D02*
X95918029Y-187428437D01*
X95918029Y-187428437D02*
X95922818Y-187430832D01*
X95922818Y-187430832D02*
X95927608Y-187435622D01*
X95927608Y-187435622D02*
X95930003Y-187445201D01*
X95930003Y-187445201D02*
X95930003Y-187461965D01*
X95930003Y-187461965D02*
X95927608Y-187471545D01*
X95927608Y-187471545D02*
X95922818Y-187476335D01*
X95922818Y-187476335D02*
X95918029Y-187478729D01*
X95918029Y-187478729D02*
X95908449Y-187478729D01*
X95908449Y-187478729D02*
X95903660Y-187476335D01*
X95903660Y-187476335D02*
X95898870Y-187471545D01*
X95898870Y-187471545D02*
X95896475Y-187461965D01*
X95896475Y-187461965D02*
X95896475Y-187445201D01*
X95896475Y-187445201D02*
X95898870Y-187435622D01*
X95898870Y-187435622D02*
X95903660Y-187430832D01*
X95903660Y-187430832D02*
X95908449Y-187428437D01*
X95944372Y-187428437D02*
X95961136Y-187478729D01*
X95961136Y-187478729D02*
X95977900Y-187428437D01*
X95992269Y-187464360D02*
X96016218Y-187464360D01*
X95987479Y-187478729D02*
X96004243Y-187428437D01*
X96004243Y-187428437D02*
X96021007Y-187478729D01*
X96066509Y-187478729D02*
X96049745Y-187454781D01*
X96037771Y-187478729D02*
X96037771Y-187428437D01*
X96037771Y-187428437D02*
X96056930Y-187428437D01*
X96056930Y-187428437D02*
X96061719Y-187430832D01*
X96061719Y-187430832D02*
X96064114Y-187433227D01*
X96064114Y-187433227D02*
X96066509Y-187438017D01*
X96066509Y-187438017D02*
X96066509Y-187445201D01*
X96066509Y-187445201D02*
X96064114Y-187449991D01*
X96064114Y-187449991D02*
X96061719Y-187452386D01*
X96061719Y-187452386D02*
X96056930Y-187454781D01*
X96056930Y-187454781D02*
X96037771Y-187454781D01*
X96088063Y-187473940D02*
X96090458Y-187476335D01*
X96090458Y-187476335D02*
X96088063Y-187478729D01*
X96088063Y-187478729D02*
X96085668Y-187476335D01*
X96085668Y-187476335D02*
X96088063Y-187473940D01*
X96088063Y-187473940D02*
X96088063Y-187478729D01*
X93738708Y-187559699D02*
X93738708Y-187509407D01*
X93738708Y-187509407D02*
X93757867Y-187509407D01*
X93757867Y-187509407D02*
X93762656Y-187511802D01*
X93762656Y-187511802D02*
X93765051Y-187514197D01*
X93765051Y-187514197D02*
X93767446Y-187518987D01*
X93767446Y-187518987D02*
X93767446Y-187526171D01*
X93767446Y-187526171D02*
X93765051Y-187530961D01*
X93765051Y-187530961D02*
X93762656Y-187533356D01*
X93762656Y-187533356D02*
X93757867Y-187535751D01*
X93757867Y-187535751D02*
X93738708Y-187535751D01*
X93796184Y-187559699D02*
X93791395Y-187557305D01*
X93791395Y-187557305D02*
X93789000Y-187552515D01*
X93789000Y-187552515D02*
X93789000Y-187509407D01*
X93834502Y-187557305D02*
X93829712Y-187559699D01*
X93829712Y-187559699D02*
X93820133Y-187559699D01*
X93820133Y-187559699D02*
X93815343Y-187557305D01*
X93815343Y-187557305D02*
X93812948Y-187552515D01*
X93812948Y-187552515D02*
X93812948Y-187533356D01*
X93812948Y-187533356D02*
X93815343Y-187528566D01*
X93815343Y-187528566D02*
X93820133Y-187526171D01*
X93820133Y-187526171D02*
X93829712Y-187526171D01*
X93829712Y-187526171D02*
X93834502Y-187528566D01*
X93834502Y-187528566D02*
X93836897Y-187533356D01*
X93836897Y-187533356D02*
X93836897Y-187538146D01*
X93836897Y-187538146D02*
X93812948Y-187542935D01*
X93880004Y-187559699D02*
X93880004Y-187533356D01*
X93880004Y-187533356D02*
X93877609Y-187528566D01*
X93877609Y-187528566D02*
X93872819Y-187526171D01*
X93872819Y-187526171D02*
X93863240Y-187526171D01*
X93863240Y-187526171D02*
X93858450Y-187528566D01*
X93880004Y-187557305D02*
X93875214Y-187559699D01*
X93875214Y-187559699D02*
X93863240Y-187559699D01*
X93863240Y-187559699D02*
X93858450Y-187557305D01*
X93858450Y-187557305D02*
X93856055Y-187552515D01*
X93856055Y-187552515D02*
X93856055Y-187547725D01*
X93856055Y-187547725D02*
X93858450Y-187542935D01*
X93858450Y-187542935D02*
X93863240Y-187540541D01*
X93863240Y-187540541D02*
X93875214Y-187540541D01*
X93875214Y-187540541D02*
X93880004Y-187538146D01*
X93901557Y-187557305D02*
X93906347Y-187559699D01*
X93906347Y-187559699D02*
X93915926Y-187559699D01*
X93915926Y-187559699D02*
X93920716Y-187557305D01*
X93920716Y-187557305D02*
X93923111Y-187552515D01*
X93923111Y-187552515D02*
X93923111Y-187550120D01*
X93923111Y-187550120D02*
X93920716Y-187545330D01*
X93920716Y-187545330D02*
X93915926Y-187542935D01*
X93915926Y-187542935D02*
X93908742Y-187542935D01*
X93908742Y-187542935D02*
X93903952Y-187540541D01*
X93903952Y-187540541D02*
X93901557Y-187535751D01*
X93901557Y-187535751D02*
X93901557Y-187533356D01*
X93901557Y-187533356D02*
X93903952Y-187528566D01*
X93903952Y-187528566D02*
X93908742Y-187526171D01*
X93908742Y-187526171D02*
X93915926Y-187526171D01*
X93915926Y-187526171D02*
X93920716Y-187528566D01*
X93963824Y-187557305D02*
X93959034Y-187559699D01*
X93959034Y-187559699D02*
X93949455Y-187559699D01*
X93949455Y-187559699D02*
X93944665Y-187557305D01*
X93944665Y-187557305D02*
X93942270Y-187552515D01*
X93942270Y-187552515D02*
X93942270Y-187533356D01*
X93942270Y-187533356D02*
X93944665Y-187528566D01*
X93944665Y-187528566D02*
X93949455Y-187526171D01*
X93949455Y-187526171D02*
X93959034Y-187526171D01*
X93959034Y-187526171D02*
X93963824Y-187528566D01*
X93963824Y-187528566D02*
X93966219Y-187533356D01*
X93966219Y-187533356D02*
X93966219Y-187538146D01*
X93966219Y-187538146D02*
X93942270Y-187542935D01*
X94026090Y-187559699D02*
X94026090Y-187526171D01*
X94026090Y-187535751D02*
X94028485Y-187530961D01*
X94028485Y-187530961D02*
X94030880Y-187528566D01*
X94030880Y-187528566D02*
X94035669Y-187526171D01*
X94035669Y-187526171D02*
X94040459Y-187526171D01*
X94076382Y-187557305D02*
X94071592Y-187559699D01*
X94071592Y-187559699D02*
X94062013Y-187559699D01*
X94062013Y-187559699D02*
X94057223Y-187557305D01*
X94057223Y-187557305D02*
X94054828Y-187552515D01*
X94054828Y-187552515D02*
X94054828Y-187533356D01*
X94054828Y-187533356D02*
X94057223Y-187528566D01*
X94057223Y-187528566D02*
X94062013Y-187526171D01*
X94062013Y-187526171D02*
X94071592Y-187526171D01*
X94071592Y-187526171D02*
X94076382Y-187528566D01*
X94076382Y-187528566D02*
X94078777Y-187533356D01*
X94078777Y-187533356D02*
X94078777Y-187538146D01*
X94078777Y-187538146D02*
X94054828Y-187542935D01*
X94100330Y-187526171D02*
X94100330Y-187576463D01*
X94100330Y-187528566D02*
X94105120Y-187526171D01*
X94105120Y-187526171D02*
X94114699Y-187526171D01*
X94114699Y-187526171D02*
X94119489Y-187528566D01*
X94119489Y-187528566D02*
X94121884Y-187530961D01*
X94121884Y-187530961D02*
X94124278Y-187535751D01*
X94124278Y-187535751D02*
X94124278Y-187550120D01*
X94124278Y-187550120D02*
X94121884Y-187554910D01*
X94121884Y-187554910D02*
X94119489Y-187557305D01*
X94119489Y-187557305D02*
X94114699Y-187559699D01*
X94114699Y-187559699D02*
X94105120Y-187559699D01*
X94105120Y-187559699D02*
X94100330Y-187557305D01*
X94153016Y-187559699D02*
X94148227Y-187557305D01*
X94148227Y-187557305D02*
X94145832Y-187554910D01*
X94145832Y-187554910D02*
X94143437Y-187550120D01*
X94143437Y-187550120D02*
X94143437Y-187535751D01*
X94143437Y-187535751D02*
X94145832Y-187530961D01*
X94145832Y-187530961D02*
X94148227Y-187528566D01*
X94148227Y-187528566D02*
X94153016Y-187526171D01*
X94153016Y-187526171D02*
X94160201Y-187526171D01*
X94160201Y-187526171D02*
X94164991Y-187528566D01*
X94164991Y-187528566D02*
X94167386Y-187530961D01*
X94167386Y-187530961D02*
X94169780Y-187535751D01*
X94169780Y-187535751D02*
X94169780Y-187550120D01*
X94169780Y-187550120D02*
X94167386Y-187554910D01*
X94167386Y-187554910D02*
X94164991Y-187557305D01*
X94164991Y-187557305D02*
X94160201Y-187559699D01*
X94160201Y-187559699D02*
X94153016Y-187559699D01*
X94191334Y-187559699D02*
X94191334Y-187526171D01*
X94191334Y-187535751D02*
X94193729Y-187530961D01*
X94193729Y-187530961D02*
X94196124Y-187528566D01*
X94196124Y-187528566D02*
X94200913Y-187526171D01*
X94200913Y-187526171D02*
X94205703Y-187526171D01*
X94215282Y-187526171D02*
X94234441Y-187526171D01*
X94222467Y-187509407D02*
X94222467Y-187552515D01*
X94222467Y-187552515D02*
X94224862Y-187557305D01*
X94224862Y-187557305D02*
X94229651Y-187559699D01*
X94229651Y-187559699D02*
X94234441Y-187559699D01*
X94311077Y-187559699D02*
X94311077Y-187533356D01*
X94311077Y-187533356D02*
X94308682Y-187528566D01*
X94308682Y-187528566D02*
X94303892Y-187526171D01*
X94303892Y-187526171D02*
X94294313Y-187526171D01*
X94294313Y-187526171D02*
X94289523Y-187528566D01*
X94311077Y-187557305D02*
X94306287Y-187559699D01*
X94306287Y-187559699D02*
X94294313Y-187559699D01*
X94294313Y-187559699D02*
X94289523Y-187557305D01*
X94289523Y-187557305D02*
X94287128Y-187552515D01*
X94287128Y-187552515D02*
X94287128Y-187547725D01*
X94287128Y-187547725D02*
X94289523Y-187542935D01*
X94289523Y-187542935D02*
X94294313Y-187540541D01*
X94294313Y-187540541D02*
X94306287Y-187540541D01*
X94306287Y-187540541D02*
X94311077Y-187538146D01*
X94335025Y-187526171D02*
X94335025Y-187559699D01*
X94335025Y-187530961D02*
X94337420Y-187528566D01*
X94337420Y-187528566D02*
X94342209Y-187526171D01*
X94342209Y-187526171D02*
X94349394Y-187526171D01*
X94349394Y-187526171D02*
X94354184Y-187528566D01*
X94354184Y-187528566D02*
X94356579Y-187533356D01*
X94356579Y-187533356D02*
X94356579Y-187559699D01*
X94375737Y-187526171D02*
X94387711Y-187559699D01*
X94399686Y-187526171D02*
X94387711Y-187559699D01*
X94387711Y-187559699D02*
X94382922Y-187571674D01*
X94382922Y-187571674D02*
X94380527Y-187574069D01*
X94380527Y-187574069D02*
X94375737Y-187576463D01*
X94476322Y-187557305D02*
X94471532Y-187559699D01*
X94471532Y-187559699D02*
X94461953Y-187559699D01*
X94461953Y-187559699D02*
X94457163Y-187557305D01*
X94457163Y-187557305D02*
X94454768Y-187552515D01*
X94454768Y-187552515D02*
X94454768Y-187533356D01*
X94454768Y-187533356D02*
X94457163Y-187528566D01*
X94457163Y-187528566D02*
X94461953Y-187526171D01*
X94461953Y-187526171D02*
X94471532Y-187526171D01*
X94471532Y-187526171D02*
X94476322Y-187528566D01*
X94476322Y-187528566D02*
X94478717Y-187533356D01*
X94478717Y-187533356D02*
X94478717Y-187538146D01*
X94478717Y-187538146D02*
X94454768Y-187542935D01*
X94500270Y-187559699D02*
X94500270Y-187526171D01*
X94500270Y-187535751D02*
X94502665Y-187530961D01*
X94502665Y-187530961D02*
X94505060Y-187528566D01*
X94505060Y-187528566D02*
X94509849Y-187526171D01*
X94509849Y-187526171D02*
X94514639Y-187526171D01*
X94531403Y-187559699D02*
X94531403Y-187526171D01*
X94531403Y-187535751D02*
X94533798Y-187530961D01*
X94533798Y-187530961D02*
X94536193Y-187528566D01*
X94536193Y-187528566D02*
X94540982Y-187526171D01*
X94540982Y-187526171D02*
X94545772Y-187526171D01*
X94569720Y-187559699D02*
X94564931Y-187557305D01*
X94564931Y-187557305D02*
X94562536Y-187554910D01*
X94562536Y-187554910D02*
X94560141Y-187550120D01*
X94560141Y-187550120D02*
X94560141Y-187535751D01*
X94560141Y-187535751D02*
X94562536Y-187530961D01*
X94562536Y-187530961D02*
X94564931Y-187528566D01*
X94564931Y-187528566D02*
X94569720Y-187526171D01*
X94569720Y-187526171D02*
X94576905Y-187526171D01*
X94576905Y-187526171D02*
X94581695Y-187528566D01*
X94581695Y-187528566D02*
X94584090Y-187530961D01*
X94584090Y-187530961D02*
X94586484Y-187535751D01*
X94586484Y-187535751D02*
X94586484Y-187550120D01*
X94586484Y-187550120D02*
X94584090Y-187554910D01*
X94584090Y-187554910D02*
X94581695Y-187557305D01*
X94581695Y-187557305D02*
X94576905Y-187559699D01*
X94576905Y-187559699D02*
X94569720Y-187559699D01*
X94608038Y-187559699D02*
X94608038Y-187526171D01*
X94608038Y-187535751D02*
X94610433Y-187530961D01*
X94610433Y-187530961D02*
X94612828Y-187528566D01*
X94612828Y-187528566D02*
X94617617Y-187526171D01*
X94617617Y-187526171D02*
X94622407Y-187526171D01*
X94636776Y-187557305D02*
X94641566Y-187559699D01*
X94641566Y-187559699D02*
X94651145Y-187559699D01*
X94651145Y-187559699D02*
X94655935Y-187557305D01*
X94655935Y-187557305D02*
X94658330Y-187552515D01*
X94658330Y-187552515D02*
X94658330Y-187550120D01*
X94658330Y-187550120D02*
X94655935Y-187545330D01*
X94655935Y-187545330D02*
X94651145Y-187542935D01*
X94651145Y-187542935D02*
X94643961Y-187542935D01*
X94643961Y-187542935D02*
X94639171Y-187540541D01*
X94639171Y-187540541D02*
X94636776Y-187535751D01*
X94636776Y-187535751D02*
X94636776Y-187533356D01*
X94636776Y-187533356D02*
X94639171Y-187528566D01*
X94639171Y-187528566D02*
X94643961Y-187526171D01*
X94643961Y-187526171D02*
X94651145Y-187526171D01*
X94651145Y-187526171D02*
X94655935Y-187528566D01*
X94725386Y-187559699D02*
X94720597Y-187557305D01*
X94720597Y-187557305D02*
X94718202Y-187554910D01*
X94718202Y-187554910D02*
X94715807Y-187550120D01*
X94715807Y-187550120D02*
X94715807Y-187535751D01*
X94715807Y-187535751D02*
X94718202Y-187530961D01*
X94718202Y-187530961D02*
X94720597Y-187528566D01*
X94720597Y-187528566D02*
X94725386Y-187526171D01*
X94725386Y-187526171D02*
X94732571Y-187526171D01*
X94732571Y-187526171D02*
X94737361Y-187528566D01*
X94737361Y-187528566D02*
X94739756Y-187530961D01*
X94739756Y-187530961D02*
X94742150Y-187535751D01*
X94742150Y-187535751D02*
X94742150Y-187550120D01*
X94742150Y-187550120D02*
X94739756Y-187554910D01*
X94739756Y-187554910D02*
X94737361Y-187557305D01*
X94737361Y-187557305D02*
X94732571Y-187559699D01*
X94732571Y-187559699D02*
X94725386Y-187559699D01*
X94763704Y-187559699D02*
X94763704Y-187526171D01*
X94763704Y-187535751D02*
X94766099Y-187530961D01*
X94766099Y-187530961D02*
X94768494Y-187528566D01*
X94768494Y-187528566D02*
X94773283Y-187526171D01*
X94773283Y-187526171D02*
X94778073Y-187526171D01*
X94830760Y-187557305D02*
X94835550Y-187559699D01*
X94835550Y-187559699D02*
X94845129Y-187559699D01*
X94845129Y-187559699D02*
X94849919Y-187557305D01*
X94849919Y-187557305D02*
X94852314Y-187552515D01*
X94852314Y-187552515D02*
X94852314Y-187550120D01*
X94852314Y-187550120D02*
X94849919Y-187545330D01*
X94849919Y-187545330D02*
X94845129Y-187542935D01*
X94845129Y-187542935D02*
X94837945Y-187542935D01*
X94837945Y-187542935D02*
X94833155Y-187540541D01*
X94833155Y-187540541D02*
X94830760Y-187535751D01*
X94830760Y-187535751D02*
X94830760Y-187533356D01*
X94830760Y-187533356D02*
X94833155Y-187528566D01*
X94833155Y-187528566D02*
X94837945Y-187526171D01*
X94837945Y-187526171D02*
X94845129Y-187526171D01*
X94845129Y-187526171D02*
X94849919Y-187528566D01*
X94895422Y-187526171D02*
X94895422Y-187559699D01*
X94873868Y-187526171D02*
X94873868Y-187552515D01*
X94873868Y-187552515D02*
X94876263Y-187557305D01*
X94876263Y-187557305D02*
X94881052Y-187559699D01*
X94881052Y-187559699D02*
X94888237Y-187559699D01*
X94888237Y-187559699D02*
X94893027Y-187557305D01*
X94893027Y-187557305D02*
X94895422Y-187554910D01*
X94940924Y-187526171D02*
X94940924Y-187566884D01*
X94940924Y-187566884D02*
X94938529Y-187571674D01*
X94938529Y-187571674D02*
X94936134Y-187574069D01*
X94936134Y-187574069D02*
X94931344Y-187576463D01*
X94931344Y-187576463D02*
X94924160Y-187576463D01*
X94924160Y-187576463D02*
X94919370Y-187574069D01*
X94940924Y-187557305D02*
X94936134Y-187559699D01*
X94936134Y-187559699D02*
X94926554Y-187559699D01*
X94926554Y-187559699D02*
X94921765Y-187557305D01*
X94921765Y-187557305D02*
X94919370Y-187554910D01*
X94919370Y-187554910D02*
X94916975Y-187550120D01*
X94916975Y-187550120D02*
X94916975Y-187535751D01*
X94916975Y-187535751D02*
X94919370Y-187530961D01*
X94919370Y-187530961D02*
X94921765Y-187528566D01*
X94921765Y-187528566D02*
X94926554Y-187526171D01*
X94926554Y-187526171D02*
X94936134Y-187526171D01*
X94936134Y-187526171D02*
X94940924Y-187528566D01*
X94986426Y-187526171D02*
X94986426Y-187566884D01*
X94986426Y-187566884D02*
X94984031Y-187571674D01*
X94984031Y-187571674D02*
X94981636Y-187574069D01*
X94981636Y-187574069D02*
X94976846Y-187576463D01*
X94976846Y-187576463D02*
X94969662Y-187576463D01*
X94969662Y-187576463D02*
X94964872Y-187574069D01*
X94986426Y-187557305D02*
X94981636Y-187559699D01*
X94981636Y-187559699D02*
X94972056Y-187559699D01*
X94972056Y-187559699D02*
X94967267Y-187557305D01*
X94967267Y-187557305D02*
X94964872Y-187554910D01*
X94964872Y-187554910D02*
X94962477Y-187550120D01*
X94962477Y-187550120D02*
X94962477Y-187535751D01*
X94962477Y-187535751D02*
X94964872Y-187530961D01*
X94964872Y-187530961D02*
X94967267Y-187528566D01*
X94967267Y-187528566D02*
X94972056Y-187526171D01*
X94972056Y-187526171D02*
X94981636Y-187526171D01*
X94981636Y-187526171D02*
X94986426Y-187528566D01*
X95029533Y-187557305D02*
X95024743Y-187559699D01*
X95024743Y-187559699D02*
X95015164Y-187559699D01*
X95015164Y-187559699D02*
X95010374Y-187557305D01*
X95010374Y-187557305D02*
X95007979Y-187552515D01*
X95007979Y-187552515D02*
X95007979Y-187533356D01*
X95007979Y-187533356D02*
X95010374Y-187528566D01*
X95010374Y-187528566D02*
X95015164Y-187526171D01*
X95015164Y-187526171D02*
X95024743Y-187526171D01*
X95024743Y-187526171D02*
X95029533Y-187528566D01*
X95029533Y-187528566D02*
X95031928Y-187533356D01*
X95031928Y-187533356D02*
X95031928Y-187538146D01*
X95031928Y-187538146D02*
X95007979Y-187542935D01*
X95051086Y-187557305D02*
X95055876Y-187559699D01*
X95055876Y-187559699D02*
X95065455Y-187559699D01*
X95065455Y-187559699D02*
X95070245Y-187557305D01*
X95070245Y-187557305D02*
X95072640Y-187552515D01*
X95072640Y-187552515D02*
X95072640Y-187550120D01*
X95072640Y-187550120D02*
X95070245Y-187545330D01*
X95070245Y-187545330D02*
X95065455Y-187542935D01*
X95065455Y-187542935D02*
X95058271Y-187542935D01*
X95058271Y-187542935D02*
X95053481Y-187540541D01*
X95053481Y-187540541D02*
X95051086Y-187535751D01*
X95051086Y-187535751D02*
X95051086Y-187533356D01*
X95051086Y-187533356D02*
X95053481Y-187528566D01*
X95053481Y-187528566D02*
X95058271Y-187526171D01*
X95058271Y-187526171D02*
X95065455Y-187526171D01*
X95065455Y-187526171D02*
X95070245Y-187528566D01*
X95087009Y-187526171D02*
X95106168Y-187526171D01*
X95094194Y-187509407D02*
X95094194Y-187552515D01*
X95094194Y-187552515D02*
X95096589Y-187557305D01*
X95096589Y-187557305D02*
X95101378Y-187559699D01*
X95101378Y-187559699D02*
X95106168Y-187559699D01*
X95122932Y-187559699D02*
X95122932Y-187526171D01*
X95122932Y-187509407D02*
X95120537Y-187511802D01*
X95120537Y-187511802D02*
X95122932Y-187514197D01*
X95122932Y-187514197D02*
X95125327Y-187511802D01*
X95125327Y-187511802D02*
X95122932Y-187509407D01*
X95122932Y-187509407D02*
X95122932Y-187514197D01*
X95154065Y-187559699D02*
X95149276Y-187557305D01*
X95149276Y-187557305D02*
X95146881Y-187554910D01*
X95146881Y-187554910D02*
X95144486Y-187550120D01*
X95144486Y-187550120D02*
X95144486Y-187535751D01*
X95144486Y-187535751D02*
X95146881Y-187530961D01*
X95146881Y-187530961D02*
X95149276Y-187528566D01*
X95149276Y-187528566D02*
X95154065Y-187526171D01*
X95154065Y-187526171D02*
X95161250Y-187526171D01*
X95161250Y-187526171D02*
X95166040Y-187528566D01*
X95166040Y-187528566D02*
X95168435Y-187530961D01*
X95168435Y-187530961D02*
X95170829Y-187535751D01*
X95170829Y-187535751D02*
X95170829Y-187550120D01*
X95170829Y-187550120D02*
X95168435Y-187554910D01*
X95168435Y-187554910D02*
X95166040Y-187557305D01*
X95166040Y-187557305D02*
X95161250Y-187559699D01*
X95161250Y-187559699D02*
X95154065Y-187559699D01*
X95192383Y-187526171D02*
X95192383Y-187559699D01*
X95192383Y-187530961D02*
X95194778Y-187528566D01*
X95194778Y-187528566D02*
X95199567Y-187526171D01*
X95199567Y-187526171D02*
X95206752Y-187526171D01*
X95206752Y-187526171D02*
X95211542Y-187528566D01*
X95211542Y-187528566D02*
X95213937Y-187533356D01*
X95213937Y-187533356D02*
X95213937Y-187559699D01*
X95235490Y-187557305D02*
X95240280Y-187559699D01*
X95240280Y-187559699D02*
X95249859Y-187559699D01*
X95249859Y-187559699D02*
X95254649Y-187557305D01*
X95254649Y-187557305D02*
X95257044Y-187552515D01*
X95257044Y-187552515D02*
X95257044Y-187550120D01*
X95257044Y-187550120D02*
X95254649Y-187545330D01*
X95254649Y-187545330D02*
X95249859Y-187542935D01*
X95249859Y-187542935D02*
X95242675Y-187542935D01*
X95242675Y-187542935D02*
X95237885Y-187540541D01*
X95237885Y-187540541D02*
X95235490Y-187535751D01*
X95235490Y-187535751D02*
X95235490Y-187533356D01*
X95235490Y-187533356D02*
X95237885Y-187528566D01*
X95237885Y-187528566D02*
X95242675Y-187526171D01*
X95242675Y-187526171D02*
X95249859Y-187526171D01*
X95249859Y-187526171D02*
X95254649Y-187528566D01*
X95309731Y-187526171D02*
X95328890Y-187526171D01*
X95316916Y-187509407D02*
X95316916Y-187552515D01*
X95316916Y-187552515D02*
X95319311Y-187557305D01*
X95319311Y-187557305D02*
X95324100Y-187559699D01*
X95324100Y-187559699D02*
X95328890Y-187559699D01*
X95352838Y-187559699D02*
X95348049Y-187557305D01*
X95348049Y-187557305D02*
X95345654Y-187554910D01*
X95345654Y-187554910D02*
X95343259Y-187550120D01*
X95343259Y-187550120D02*
X95343259Y-187535751D01*
X95343259Y-187535751D02*
X95345654Y-187530961D01*
X95345654Y-187530961D02*
X95348049Y-187528566D01*
X95348049Y-187528566D02*
X95352838Y-187526171D01*
X95352838Y-187526171D02*
X95360023Y-187526171D01*
X95360023Y-187526171D02*
X95364813Y-187528566D01*
X95364813Y-187528566D02*
X95367208Y-187530961D01*
X95367208Y-187530961D02*
X95369602Y-187535751D01*
X95369602Y-187535751D02*
X95369602Y-187550120D01*
X95369602Y-187550120D02*
X95367208Y-187554910D01*
X95367208Y-187554910D02*
X95364813Y-187557305D01*
X95364813Y-187557305D02*
X95360023Y-187559699D01*
X95360023Y-187559699D02*
X95352838Y-187559699D01*
X95391156Y-187554910D02*
X95393551Y-187557305D01*
X95393551Y-187557305D02*
X95391156Y-187559699D01*
X95391156Y-187559699D02*
X95388761Y-187557305D01*
X95388761Y-187557305D02*
X95391156Y-187554910D01*
X95391156Y-187554910D02*
X95391156Y-187559699D01*
X95391156Y-187528566D02*
X95393551Y-187530961D01*
X95393551Y-187530961D02*
X95391156Y-187533356D01*
X95391156Y-187533356D02*
X95388761Y-187530961D01*
X95388761Y-187530961D02*
X95391156Y-187528566D01*
X95391156Y-187528566D02*
X95391156Y-187533356D01*
X95463002Y-187535751D02*
X95463002Y-187559699D01*
X95446238Y-187509407D02*
X95463002Y-187535751D01*
X95463002Y-187535751D02*
X95479766Y-187509407D01*
X95489345Y-187509407D02*
X95506109Y-187559699D01*
X95506109Y-187559699D02*
X95522873Y-187509407D01*
X95565980Y-187559699D02*
X95537242Y-187559699D01*
X95551611Y-187559699D02*
X95551611Y-187509407D01*
X95551611Y-187509407D02*
X95546821Y-187516592D01*
X95546821Y-187516592D02*
X95542032Y-187521382D01*
X95542032Y-187521382D02*
X95537242Y-187523777D01*
X95587534Y-187559699D02*
X95587534Y-187509407D01*
X95587534Y-187533356D02*
X95616272Y-187533356D01*
X95616272Y-187559699D02*
X95616272Y-187509407D01*
X95635431Y-187509407D02*
X95668959Y-187559699D01*
X95668959Y-187509407D02*
X95635431Y-187559699D01*
X95719251Y-187535751D02*
X95716856Y-187533356D01*
X95716856Y-187533356D02*
X95712066Y-187530961D01*
X95712066Y-187530961D02*
X95707277Y-187530961D01*
X95707277Y-187530961D02*
X95702487Y-187533356D01*
X95702487Y-187533356D02*
X95700092Y-187535751D01*
X95700092Y-187535751D02*
X95697697Y-187540541D01*
X95697697Y-187540541D02*
X95697697Y-187545330D01*
X95697697Y-187545330D02*
X95700092Y-187550120D01*
X95700092Y-187550120D02*
X95702487Y-187552515D01*
X95702487Y-187552515D02*
X95707277Y-187554910D01*
X95707277Y-187554910D02*
X95712066Y-187554910D01*
X95712066Y-187554910D02*
X95716856Y-187552515D01*
X95716856Y-187552515D02*
X95719251Y-187550120D01*
X95719251Y-187530961D02*
X95719251Y-187550120D01*
X95719251Y-187550120D02*
X95721646Y-187552515D01*
X95721646Y-187552515D02*
X95724041Y-187552515D01*
X95724041Y-187552515D02*
X95728830Y-187550120D01*
X95728830Y-187550120D02*
X95731225Y-187545330D01*
X95731225Y-187545330D02*
X95731225Y-187533356D01*
X95731225Y-187533356D02*
X95726436Y-187526171D01*
X95726436Y-187526171D02*
X95719251Y-187521382D01*
X95719251Y-187521382D02*
X95709672Y-187518987D01*
X95709672Y-187518987D02*
X95700092Y-187521382D01*
X95700092Y-187521382D02*
X95692908Y-187526171D01*
X95692908Y-187526171D02*
X95688118Y-187533356D01*
X95688118Y-187533356D02*
X95685723Y-187542935D01*
X95685723Y-187542935D02*
X95688118Y-187552515D01*
X95688118Y-187552515D02*
X95692908Y-187559699D01*
X95692908Y-187559699D02*
X95700092Y-187564489D01*
X95700092Y-187564489D02*
X95709672Y-187566884D01*
X95709672Y-187566884D02*
X95719251Y-187564489D01*
X95719251Y-187564489D02*
X95726436Y-187559699D01*
X95781517Y-187554910D02*
X95779122Y-187557305D01*
X95779122Y-187557305D02*
X95771938Y-187559699D01*
X95771938Y-187559699D02*
X95767148Y-187559699D01*
X95767148Y-187559699D02*
X95759963Y-187557305D01*
X95759963Y-187557305D02*
X95755174Y-187552515D01*
X95755174Y-187552515D02*
X95752779Y-187547725D01*
X95752779Y-187547725D02*
X95750384Y-187538146D01*
X95750384Y-187538146D02*
X95750384Y-187530961D01*
X95750384Y-187530961D02*
X95752779Y-187521382D01*
X95752779Y-187521382D02*
X95755174Y-187516592D01*
X95755174Y-187516592D02*
X95759963Y-187511802D01*
X95759963Y-187511802D02*
X95767148Y-187509407D01*
X95767148Y-187509407D02*
X95771938Y-187509407D01*
X95771938Y-187509407D02*
X95779122Y-187511802D01*
X95779122Y-187511802D02*
X95781517Y-187514197D01*
X95800676Y-187545330D02*
X95824625Y-187545330D01*
X95795886Y-187559699D02*
X95812650Y-187509407D01*
X95812650Y-187509407D02*
X95829414Y-187559699D01*
X95846178Y-187559699D02*
X95846178Y-187509407D01*
X95846178Y-187509407D02*
X95874916Y-187559699D01*
X95874916Y-187559699D02*
X95874916Y-187509407D01*
X95891680Y-187509407D02*
X95920419Y-187509407D01*
X95906049Y-187559699D02*
X95906049Y-187509407D01*
X95929998Y-187509407D02*
X95946762Y-187559699D01*
X95946762Y-187559699D02*
X95963526Y-187509407D01*
X95980290Y-187554910D02*
X95982685Y-187557305D01*
X95982685Y-187557305D02*
X95980290Y-187559699D01*
X95980290Y-187559699D02*
X95977895Y-187557305D01*
X95977895Y-187557305D02*
X95980290Y-187554910D01*
X95980290Y-187554910D02*
X95980290Y-187559699D01*
X96004239Y-187559699D02*
X96004239Y-187509407D01*
X96004239Y-187509407D02*
X96032977Y-187559699D01*
X96032977Y-187559699D02*
X96032977Y-187509407D01*
X96056926Y-187533356D02*
X96073690Y-187533356D01*
X96080874Y-187559699D02*
X96056926Y-187559699D01*
X96056926Y-187559699D02*
X96056926Y-187509407D01*
X96056926Y-187509407D02*
X96080874Y-187509407D01*
X96095243Y-187509407D02*
X96123982Y-187509407D01*
X96109612Y-187559699D02*
X96109612Y-187509407D01*
X93731523Y-187590377D02*
X93760262Y-187590377D01*
X93745892Y-187640669D02*
X93745892Y-187590377D01*
X93777026Y-187640669D02*
X93777026Y-187590377D01*
X93798580Y-187640669D02*
X93798580Y-187614326D01*
X93798580Y-187614326D02*
X93796185Y-187609536D01*
X93796185Y-187609536D02*
X93791395Y-187607141D01*
X93791395Y-187607141D02*
X93784210Y-187607141D01*
X93784210Y-187607141D02*
X93779421Y-187609536D01*
X93779421Y-187609536D02*
X93777026Y-187611931D01*
X93844082Y-187640669D02*
X93844082Y-187614326D01*
X93844082Y-187614326D02*
X93841687Y-187609536D01*
X93841687Y-187609536D02*
X93836897Y-187607141D01*
X93836897Y-187607141D02*
X93827318Y-187607141D01*
X93827318Y-187607141D02*
X93822528Y-187609536D01*
X93844082Y-187638275D02*
X93839292Y-187640669D01*
X93839292Y-187640669D02*
X93827318Y-187640669D01*
X93827318Y-187640669D02*
X93822528Y-187638275D01*
X93822528Y-187638275D02*
X93820133Y-187633485D01*
X93820133Y-187633485D02*
X93820133Y-187628695D01*
X93820133Y-187628695D02*
X93822528Y-187623905D01*
X93822528Y-187623905D02*
X93827318Y-187621511D01*
X93827318Y-187621511D02*
X93839292Y-187621511D01*
X93839292Y-187621511D02*
X93844082Y-187619116D01*
X93868030Y-187607141D02*
X93868030Y-187640669D01*
X93868030Y-187611931D02*
X93870425Y-187609536D01*
X93870425Y-187609536D02*
X93875214Y-187607141D01*
X93875214Y-187607141D02*
X93882399Y-187607141D01*
X93882399Y-187607141D02*
X93887189Y-187609536D01*
X93887189Y-187609536D02*
X93889584Y-187614326D01*
X93889584Y-187614326D02*
X93889584Y-187640669D01*
X93913532Y-187640669D02*
X93913532Y-187590377D01*
X93918322Y-187621511D02*
X93932691Y-187640669D01*
X93932691Y-187607141D02*
X93913532Y-187626300D01*
X93951850Y-187638275D02*
X93956640Y-187640669D01*
X93956640Y-187640669D02*
X93966219Y-187640669D01*
X93966219Y-187640669D02*
X93971009Y-187638275D01*
X93971009Y-187638275D02*
X93973404Y-187633485D01*
X93973404Y-187633485D02*
X93973404Y-187631090D01*
X93973404Y-187631090D02*
X93971009Y-187626300D01*
X93971009Y-187626300D02*
X93966219Y-187623905D01*
X93966219Y-187623905D02*
X93959035Y-187623905D01*
X93959035Y-187623905D02*
X93954245Y-187621511D01*
X93954245Y-187621511D02*
X93951850Y-187616721D01*
X93951850Y-187616721D02*
X93951850Y-187614326D01*
X93951850Y-187614326D02*
X93954245Y-187609536D01*
X93954245Y-187609536D02*
X93959035Y-187607141D01*
X93959035Y-187607141D02*
X93966219Y-187607141D01*
X93966219Y-187607141D02*
X93971009Y-187609536D01*
X94028486Y-187607141D02*
X94040460Y-187640669D01*
X94052435Y-187607141D02*
X94040460Y-187640669D01*
X94040460Y-187640669D02*
X94035671Y-187652644D01*
X94035671Y-187652644D02*
X94033276Y-187655039D01*
X94033276Y-187655039D02*
X94028486Y-187657433D01*
X94078778Y-187640669D02*
X94073989Y-187638275D01*
X94073989Y-187638275D02*
X94071594Y-187635880D01*
X94071594Y-187635880D02*
X94069199Y-187631090D01*
X94069199Y-187631090D02*
X94069199Y-187616721D01*
X94069199Y-187616721D02*
X94071594Y-187611931D01*
X94071594Y-187611931D02*
X94073989Y-187609536D01*
X94073989Y-187609536D02*
X94078778Y-187607141D01*
X94078778Y-187607141D02*
X94085963Y-187607141D01*
X94085963Y-187607141D02*
X94090753Y-187609536D01*
X94090753Y-187609536D02*
X94093148Y-187611931D01*
X94093148Y-187611931D02*
X94095542Y-187616721D01*
X94095542Y-187616721D02*
X94095542Y-187631090D01*
X94095542Y-187631090D02*
X94093148Y-187635880D01*
X94093148Y-187635880D02*
X94090753Y-187638275D01*
X94090753Y-187638275D02*
X94085963Y-187640669D01*
X94085963Y-187640669D02*
X94078778Y-187640669D01*
X94138650Y-187607141D02*
X94138650Y-187640669D01*
X94117096Y-187607141D02*
X94117096Y-187633485D01*
X94117096Y-187633485D02*
X94119491Y-187638275D01*
X94119491Y-187638275D02*
X94124280Y-187640669D01*
X94124280Y-187640669D02*
X94131465Y-187640669D01*
X94131465Y-187640669D02*
X94136255Y-187638275D01*
X94136255Y-187638275D02*
X94138650Y-187635880D01*
X94155413Y-187621511D02*
X94157808Y-187619116D01*
X94157808Y-187619116D02*
X94162598Y-187616721D01*
X94162598Y-187616721D02*
X94172177Y-187621511D01*
X94172177Y-187621511D02*
X94176967Y-187619116D01*
X94176967Y-187619116D02*
X94179362Y-187616721D01*
X94191336Y-187621511D02*
X94193731Y-187619116D01*
X94193731Y-187619116D02*
X94198521Y-187616721D01*
X94198521Y-187616721D02*
X94208100Y-187621511D01*
X94208100Y-187621511D02*
X94212890Y-187619116D01*
X94212890Y-187619116D02*
X94215285Y-187616721D01*
X94234444Y-187635880D02*
X94236839Y-187638275D01*
X94236839Y-187638275D02*
X94234444Y-187640669D01*
X94234444Y-187640669D02*
X94232049Y-187638275D01*
X94232049Y-187638275D02*
X94234444Y-187635880D01*
X94234444Y-187635880D02*
X94234444Y-187640669D01*
X94234444Y-187621511D02*
X94232049Y-187592772D01*
X94232049Y-187592772D02*
X94234444Y-187590377D01*
X94234444Y-187590377D02*
X94236839Y-187592772D01*
X94236839Y-187592772D02*
X94234444Y-187621511D01*
X94234444Y-187621511D02*
X94234444Y-187590377D01*
D18*
X89620156Y-186961853D02*
X89620156Y-186401021D01*
X89620156Y-186401021D02*
X89807100Y-186801615D01*
X89807100Y-186801615D02*
X89994044Y-186401021D01*
X89994044Y-186401021D02*
X89994044Y-186961853D01*
X90261107Y-186961853D02*
X90261107Y-186587965D01*
X90261107Y-186401021D02*
X90234401Y-186427727D01*
X90234401Y-186427727D02*
X90261107Y-186454433D01*
X90261107Y-186454433D02*
X90287813Y-186427727D01*
X90287813Y-186427727D02*
X90261107Y-186401021D01*
X90261107Y-186401021D02*
X90261107Y-186454433D01*
X90528170Y-186587965D02*
X90528170Y-186961853D01*
X90528170Y-186641377D02*
X90554876Y-186614671D01*
X90554876Y-186614671D02*
X90608289Y-186587965D01*
X90608289Y-186587965D02*
X90688408Y-186587965D01*
X90688408Y-186587965D02*
X90741820Y-186614671D01*
X90741820Y-186614671D02*
X90768527Y-186668084D01*
X90768527Y-186668084D02*
X90768527Y-186961853D01*
X91035589Y-186961853D02*
X91035589Y-186587965D01*
X91035589Y-186401021D02*
X91008883Y-186427727D01*
X91008883Y-186427727D02*
X91035589Y-186454433D01*
X91035589Y-186454433D02*
X91062295Y-186427727D01*
X91062295Y-186427727D02*
X91035589Y-186401021D01*
X91035589Y-186401021D02*
X91035589Y-186454433D01*
X91302652Y-186748203D02*
X91729953Y-186748203D01*
X92183959Y-186668084D02*
X92264078Y-186694790D01*
X92264078Y-186694790D02*
X92290784Y-186721496D01*
X92290784Y-186721496D02*
X92317490Y-186774909D01*
X92317490Y-186774909D02*
X92317490Y-186855028D01*
X92317490Y-186855028D02*
X92290784Y-186908440D01*
X92290784Y-186908440D02*
X92264078Y-186935147D01*
X92264078Y-186935147D02*
X92210665Y-186961853D01*
X92210665Y-186961853D02*
X91997015Y-186961853D01*
X91997015Y-186961853D02*
X91997015Y-186401021D01*
X91997015Y-186401021D02*
X92183959Y-186401021D01*
X92183959Y-186401021D02*
X92237372Y-186427727D01*
X92237372Y-186427727D02*
X92264078Y-186454433D01*
X92264078Y-186454433D02*
X92290784Y-186507846D01*
X92290784Y-186507846D02*
X92290784Y-186561259D01*
X92290784Y-186561259D02*
X92264078Y-186614671D01*
X92264078Y-186614671D02*
X92237372Y-186641377D01*
X92237372Y-186641377D02*
X92183959Y-186668084D01*
X92183959Y-186668084D02*
X91997015Y-186668084D01*
X90875351Y-187303961D02*
X90875351Y-187757968D01*
X90875351Y-187757968D02*
X90902057Y-187811380D01*
X90902057Y-187811380D02*
X90928764Y-187838087D01*
X90928764Y-187838087D02*
X90982176Y-187864793D01*
X90982176Y-187864793D02*
X91089001Y-187864793D01*
X91089001Y-187864793D02*
X91142414Y-187838087D01*
X91142414Y-187838087D02*
X91169120Y-187811380D01*
X91169120Y-187811380D02*
X91195826Y-187757968D01*
X91195826Y-187757968D02*
X91195826Y-187303961D01*
X91436183Y-187838087D02*
X91516302Y-187864793D01*
X91516302Y-187864793D02*
X91649833Y-187864793D01*
X91649833Y-187864793D02*
X91703246Y-187838087D01*
X91703246Y-187838087D02*
X91729952Y-187811380D01*
X91729952Y-187811380D02*
X91756658Y-187757968D01*
X91756658Y-187757968D02*
X91756658Y-187704555D01*
X91756658Y-187704555D02*
X91729952Y-187651143D01*
X91729952Y-187651143D02*
X91703246Y-187624436D01*
X91703246Y-187624436D02*
X91649833Y-187597730D01*
X91649833Y-187597730D02*
X91543008Y-187571024D01*
X91543008Y-187571024D02*
X91489595Y-187544317D01*
X91489595Y-187544317D02*
X91462889Y-187517611D01*
X91462889Y-187517611D02*
X91436183Y-187464199D01*
X91436183Y-187464199D02*
X91436183Y-187410786D01*
X91436183Y-187410786D02*
X91462889Y-187357373D01*
X91462889Y-187357373D02*
X91489595Y-187330667D01*
X91489595Y-187330667D02*
X91543008Y-187303961D01*
X91543008Y-187303961D02*
X91676539Y-187303961D01*
X91676539Y-187303961D02*
X91756658Y-187330667D01*
X92183959Y-187571024D02*
X92264078Y-187597730D01*
X92264078Y-187597730D02*
X92290784Y-187624436D01*
X92290784Y-187624436D02*
X92317490Y-187677849D01*
X92317490Y-187677849D02*
X92317490Y-187757968D01*
X92317490Y-187757968D02*
X92290784Y-187811380D01*
X92290784Y-187811380D02*
X92264078Y-187838087D01*
X92264078Y-187838087D02*
X92210665Y-187864793D01*
X92210665Y-187864793D02*
X91997015Y-187864793D01*
X91997015Y-187864793D02*
X91997015Y-187303961D01*
X91997015Y-187303961D02*
X92183959Y-187303961D01*
X92183959Y-187303961D02*
X92237372Y-187330667D01*
X92237372Y-187330667D02*
X92264078Y-187357373D01*
X92264078Y-187357373D02*
X92290784Y-187410786D01*
X92290784Y-187410786D02*
X92290784Y-187464199D01*
X92290784Y-187464199D02*
X92264078Y-187517611D01*
X92264078Y-187517611D02*
X92237372Y-187544317D01*
X92237372Y-187544317D02*
X92183959Y-187571024D01*
X92183959Y-187571024D02*
X91997015Y-187571024D01*
D10*
X98687781Y-184341210D02*
X98687781Y-184875336D01*
X98687781Y-184608273D02*
X97753061Y-184608273D01*
X97753061Y-184608273D02*
X97886592Y-184697294D01*
X97886592Y-184697294D02*
X97975613Y-184786315D01*
X97975613Y-184786315D02*
X98020124Y-184875336D01*
X97667040Y-146888232D02*
X97132914Y-146888232D01*
X97399977Y-146888232D02*
X97399977Y-145953512D01*
X97399977Y-145953512D02*
X97310956Y-146087043D01*
X97310956Y-146087043D02*
X97221935Y-146176064D01*
X97221935Y-146176064D02*
X97132914Y-146220575D01*
D11*
X91407219Y-151991956D02*
X91407219Y-151244180D01*
X92190604Y-151920739D02*
X92154996Y-151956348D01*
X92154996Y-151956348D02*
X92048170Y-151991956D01*
X92048170Y-151991956D02*
X91976954Y-151991956D01*
X91976954Y-151991956D02*
X91870129Y-151956348D01*
X91870129Y-151956348D02*
X91798912Y-151885131D01*
X91798912Y-151885131D02*
X91763303Y-151813914D01*
X91763303Y-151813914D02*
X91727695Y-151671480D01*
X91727695Y-151671480D02*
X91727695Y-151564655D01*
X91727695Y-151564655D02*
X91763303Y-151422222D01*
X91763303Y-151422222D02*
X91798912Y-151351005D01*
X91798912Y-151351005D02*
X91870129Y-151279788D01*
X91870129Y-151279788D02*
X91976954Y-151244180D01*
X91976954Y-151244180D02*
X92048170Y-151244180D01*
X92048170Y-151244180D02*
X92154996Y-151279788D01*
X92154996Y-151279788D02*
X92190604Y-151315397D01*
X92475471Y-151956348D02*
X92582296Y-151991956D01*
X92582296Y-151991956D02*
X92760338Y-151991956D01*
X92760338Y-151991956D02*
X92831555Y-151956348D01*
X92831555Y-151956348D02*
X92867163Y-151920739D01*
X92867163Y-151920739D02*
X92902772Y-151849522D01*
X92902772Y-151849522D02*
X92902772Y-151778306D01*
X92902772Y-151778306D02*
X92867163Y-151707089D01*
X92867163Y-151707089D02*
X92831555Y-151671480D01*
X92831555Y-151671480D02*
X92760338Y-151635872D01*
X92760338Y-151635872D02*
X92617905Y-151600264D01*
X92617905Y-151600264D02*
X92546688Y-151564655D01*
X92546688Y-151564655D02*
X92511079Y-151529047D01*
X92511079Y-151529047D02*
X92475471Y-151457830D01*
X92475471Y-151457830D02*
X92475471Y-151386613D01*
X92475471Y-151386613D02*
X92511079Y-151315397D01*
X92511079Y-151315397D02*
X92546688Y-151279788D01*
X92546688Y-151279788D02*
X92617905Y-151244180D01*
X92617905Y-151244180D02*
X92795946Y-151244180D01*
X92795946Y-151244180D02*
X92902772Y-151279788D01*
X93223247Y-151991956D02*
X93223247Y-151244180D01*
X93223247Y-151244180D02*
X93508114Y-151244180D01*
X93508114Y-151244180D02*
X93579331Y-151279788D01*
X93579331Y-151279788D02*
X93614940Y-151315397D01*
X93614940Y-151315397D02*
X93650548Y-151386613D01*
X93650548Y-151386613D02*
X93650548Y-151493439D01*
X93650548Y-151493439D02*
X93614940Y-151564655D01*
X93614940Y-151564655D02*
X93579331Y-151600264D01*
X93579331Y-151600264D02*
X93508114Y-151635872D01*
X93508114Y-151635872D02*
X93223247Y-151635872D01*
X91530582Y-162589405D02*
X91281323Y-162233321D01*
X91103281Y-162589405D02*
X91103281Y-161841629D01*
X91103281Y-161841629D02*
X91388148Y-161841629D01*
X91388148Y-161841629D02*
X91459365Y-161877237D01*
X91459365Y-161877237D02*
X91494974Y-161912846D01*
X91494974Y-161912846D02*
X91530582Y-161984062D01*
X91530582Y-161984062D02*
X91530582Y-162090888D01*
X91530582Y-162090888D02*
X91494974Y-162162104D01*
X91494974Y-162162104D02*
X91459365Y-162197713D01*
X91459365Y-162197713D02*
X91388148Y-162233321D01*
X91388148Y-162233321D02*
X91103281Y-162233321D01*
X92135924Y-162553797D02*
X92064708Y-162589405D01*
X92064708Y-162589405D02*
X91922274Y-162589405D01*
X91922274Y-162589405D02*
X91851057Y-162553797D01*
X91851057Y-162553797D02*
X91815449Y-162482580D01*
X91815449Y-162482580D02*
X91815449Y-162197713D01*
X91815449Y-162197713D02*
X91851057Y-162126496D01*
X91851057Y-162126496D02*
X91922274Y-162090888D01*
X91922274Y-162090888D02*
X92064708Y-162090888D01*
X92064708Y-162090888D02*
X92135924Y-162126496D01*
X92135924Y-162126496D02*
X92171533Y-162197713D01*
X92171533Y-162197713D02*
X92171533Y-162268929D01*
X92171533Y-162268929D02*
X91815449Y-162340146D01*
X92456400Y-162553797D02*
X92527617Y-162589405D01*
X92527617Y-162589405D02*
X92670050Y-162589405D01*
X92670050Y-162589405D02*
X92741267Y-162553797D01*
X92741267Y-162553797D02*
X92776875Y-162482580D01*
X92776875Y-162482580D02*
X92776875Y-162446971D01*
X92776875Y-162446971D02*
X92741267Y-162375755D01*
X92741267Y-162375755D02*
X92670050Y-162340146D01*
X92670050Y-162340146D02*
X92563225Y-162340146D01*
X92563225Y-162340146D02*
X92492008Y-162304538D01*
X92492008Y-162304538D02*
X92456400Y-162233321D01*
X92456400Y-162233321D02*
X92456400Y-162197713D01*
X92456400Y-162197713D02*
X92492008Y-162126496D01*
X92492008Y-162126496D02*
X92563225Y-162090888D01*
X92563225Y-162090888D02*
X92670050Y-162090888D01*
X92670050Y-162090888D02*
X92741267Y-162126496D01*
X93382217Y-162553797D02*
X93311001Y-162589405D01*
X93311001Y-162589405D02*
X93168567Y-162589405D01*
X93168567Y-162589405D02*
X93097350Y-162553797D01*
X93097350Y-162553797D02*
X93061742Y-162482580D01*
X93061742Y-162482580D02*
X93061742Y-162197713D01*
X93061742Y-162197713D02*
X93097350Y-162126496D01*
X93097350Y-162126496D02*
X93168567Y-162090888D01*
X93168567Y-162090888D02*
X93311001Y-162090888D01*
X93311001Y-162090888D02*
X93382217Y-162126496D01*
X93382217Y-162126496D02*
X93417826Y-162197713D01*
X93417826Y-162197713D02*
X93417826Y-162268929D01*
X93417826Y-162268929D02*
X93061742Y-162340146D01*
X93631476Y-162090888D02*
X93916343Y-162090888D01*
X93738301Y-161841629D02*
X93738301Y-162482580D01*
X93738301Y-162482580D02*
X93773910Y-162553797D01*
X93773910Y-162553797D02*
X93845127Y-162589405D01*
X93845127Y-162589405D02*
X93916343Y-162589405D01*
D14*
X81077295Y-62090419D02*
X81077295Y-61090419D01*
X81077295Y-61566609D02*
X81648723Y-61566609D01*
X81648723Y-62090419D02*
X81648723Y-61090419D01*
X82267771Y-61518990D02*
X82172533Y-61471371D01*
X82172533Y-61471371D02*
X82124914Y-61423752D01*
X82124914Y-61423752D02*
X82077295Y-61328514D01*
X82077295Y-61328514D02*
X82077295Y-61280895D01*
X82077295Y-61280895D02*
X82124914Y-61185657D01*
X82124914Y-61185657D02*
X82172533Y-61138038D01*
X82172533Y-61138038D02*
X82267771Y-61090419D01*
X82267771Y-61090419D02*
X82458247Y-61090419D01*
X82458247Y-61090419D02*
X82553485Y-61138038D01*
X82553485Y-61138038D02*
X82601104Y-61185657D01*
X82601104Y-61185657D02*
X82648723Y-61280895D01*
X82648723Y-61280895D02*
X82648723Y-61328514D01*
X82648723Y-61328514D02*
X82601104Y-61423752D01*
X82601104Y-61423752D02*
X82553485Y-61471371D01*
X82553485Y-61471371D02*
X82458247Y-61518990D01*
X82458247Y-61518990D02*
X82267771Y-61518990D01*
X82267771Y-61518990D02*
X82172533Y-61566609D01*
X82172533Y-61566609D02*
X82124914Y-61614228D01*
X82124914Y-61614228D02*
X82077295Y-61709466D01*
X82077295Y-61709466D02*
X82077295Y-61899942D01*
X82077295Y-61899942D02*
X82124914Y-61995180D01*
X82124914Y-61995180D02*
X82172533Y-62042800D01*
X82172533Y-62042800D02*
X82267771Y-62090419D01*
X82267771Y-62090419D02*
X82458247Y-62090419D01*
X82458247Y-62090419D02*
X82553485Y-62042800D01*
X82553485Y-62042800D02*
X82601104Y-61995180D01*
X82601104Y-61995180D02*
X82648723Y-61899942D01*
X82648723Y-61899942D02*
X82648723Y-61709466D01*
X82648723Y-61709466D02*
X82601104Y-61614228D01*
X82601104Y-61614228D02*
X82553485Y-61566609D01*
X82553485Y-61566609D02*
X82458247Y-61518990D01*
D12*
X95337733Y-42738619D02*
X95004400Y-42262428D01*
X94766305Y-42738619D02*
X94766305Y-41738619D01*
X94766305Y-41738619D02*
X95147257Y-41738619D01*
X95147257Y-41738619D02*
X95242495Y-41786238D01*
X95242495Y-41786238D02*
X95290114Y-41833857D01*
X95290114Y-41833857D02*
X95337733Y-41929095D01*
X95337733Y-41929095D02*
X95337733Y-42071952D01*
X95337733Y-42071952D02*
X95290114Y-42167190D01*
X95290114Y-42167190D02*
X95242495Y-42214809D01*
X95242495Y-42214809D02*
X95147257Y-42262428D01*
X95147257Y-42262428D02*
X94766305Y-42262428D01*
X95671067Y-41738619D02*
X96290114Y-41738619D01*
X96290114Y-41738619D02*
X95956781Y-42119571D01*
X95956781Y-42119571D02*
X96099638Y-42119571D01*
X96099638Y-42119571D02*
X96194876Y-42167190D01*
X96194876Y-42167190D02*
X96242495Y-42214809D01*
X96242495Y-42214809D02*
X96290114Y-42310047D01*
X96290114Y-42310047D02*
X96290114Y-42548142D01*
X96290114Y-42548142D02*
X96242495Y-42643380D01*
X96242495Y-42643380D02*
X96194876Y-42691000D01*
X96194876Y-42691000D02*
X96099638Y-42738619D01*
X96099638Y-42738619D02*
X95813924Y-42738619D01*
X95813924Y-42738619D02*
X95718686Y-42691000D01*
X95718686Y-42691000D02*
X95671067Y-42643380D01*
D19*
X88203076Y-182912383D02*
X88203076Y-182079263D01*
X88203076Y-182079263D02*
X88520455Y-182079263D01*
X88520455Y-182079263D02*
X88599800Y-182118935D01*
X88599800Y-182118935D02*
X88639473Y-182158608D01*
X88639473Y-182158608D02*
X88679145Y-182237952D01*
X88679145Y-182237952D02*
X88679145Y-182356970D01*
X88679145Y-182356970D02*
X88639473Y-182436314D01*
X88639473Y-182436314D02*
X88599800Y-182475987D01*
X88599800Y-182475987D02*
X88520455Y-182515659D01*
X88520455Y-182515659D02*
X88203076Y-182515659D01*
X89155214Y-182912383D02*
X89075869Y-182872711D01*
X89075869Y-182872711D02*
X89036196Y-182833038D01*
X89036196Y-182833038D02*
X88996524Y-182753693D01*
X88996524Y-182753693D02*
X88996524Y-182515659D01*
X88996524Y-182515659D02*
X89036196Y-182436314D01*
X89036196Y-182436314D02*
X89075869Y-182396642D01*
X89075869Y-182396642D02*
X89155214Y-182356970D01*
X89155214Y-182356970D02*
X89274231Y-182356970D01*
X89274231Y-182356970D02*
X89353575Y-182396642D01*
X89353575Y-182396642D02*
X89393248Y-182436314D01*
X89393248Y-182436314D02*
X89432920Y-182515659D01*
X89432920Y-182515659D02*
X89432920Y-182753693D01*
X89432920Y-182753693D02*
X89393248Y-182833038D01*
X89393248Y-182833038D02*
X89353575Y-182872711D01*
X89353575Y-182872711D02*
X89274231Y-182912383D01*
X89274231Y-182912383D02*
X89155214Y-182912383D01*
X89710627Y-182356970D02*
X89869316Y-182912383D01*
X89869316Y-182912383D02*
X90028006Y-182515659D01*
X90028006Y-182515659D02*
X90186695Y-182912383D01*
X90186695Y-182912383D02*
X90345385Y-182356970D01*
X90980142Y-182872711D02*
X90900798Y-182912383D01*
X90900798Y-182912383D02*
X90742108Y-182912383D01*
X90742108Y-182912383D02*
X90662763Y-182872711D01*
X90662763Y-182872711D02*
X90623091Y-182793366D01*
X90623091Y-182793366D02*
X90623091Y-182475987D01*
X90623091Y-182475987D02*
X90662763Y-182396642D01*
X90662763Y-182396642D02*
X90742108Y-182356970D01*
X90742108Y-182356970D02*
X90900798Y-182356970D01*
X90900798Y-182356970D02*
X90980142Y-182396642D01*
X90980142Y-182396642D02*
X91019815Y-182475987D01*
X91019815Y-182475987D02*
X91019815Y-182555331D01*
X91019815Y-182555331D02*
X90623091Y-182634676D01*
X91376866Y-182912383D02*
X91376866Y-182356970D01*
X91376866Y-182515659D02*
X91416539Y-182436314D01*
X91416539Y-182436314D02*
X91456211Y-182396642D01*
X91456211Y-182396642D02*
X91535556Y-182356970D01*
X91535556Y-182356970D02*
X91614901Y-182356970D01*
X91852935Y-182872711D02*
X91971952Y-182912383D01*
X91971952Y-182912383D02*
X92170314Y-182912383D01*
X92170314Y-182912383D02*
X92249659Y-182872711D01*
X92249659Y-182872711D02*
X92289331Y-182833038D01*
X92289331Y-182833038D02*
X92329004Y-182753693D01*
X92329004Y-182753693D02*
X92329004Y-182674349D01*
X92329004Y-182674349D02*
X92289331Y-182595004D01*
X92289331Y-182595004D02*
X92249659Y-182555331D01*
X92249659Y-182555331D02*
X92170314Y-182515659D01*
X92170314Y-182515659D02*
X92011625Y-182475987D01*
X92011625Y-182475987D02*
X91932280Y-182436314D01*
X91932280Y-182436314D02*
X91892607Y-182396642D01*
X91892607Y-182396642D02*
X91852935Y-182317297D01*
X91852935Y-182317297D02*
X91852935Y-182237952D01*
X91852935Y-182237952D02*
X91892607Y-182158608D01*
X91892607Y-182158608D02*
X91932280Y-182118935D01*
X91932280Y-182118935D02*
X92011625Y-182079263D01*
X92011625Y-182079263D02*
X92209986Y-182079263D01*
X92209986Y-182079263D02*
X92329004Y-182118935D01*
X92606711Y-182356970D02*
X92765400Y-182912383D01*
X92765400Y-182912383D02*
X92924090Y-182515659D01*
X92924090Y-182515659D02*
X93082779Y-182912383D01*
X93082779Y-182912383D02*
X93241469Y-182356970D01*
X93558847Y-182912383D02*
X93558847Y-182356970D01*
X93558847Y-182079263D02*
X93519175Y-182118935D01*
X93519175Y-182118935D02*
X93558847Y-182158608D01*
X93558847Y-182158608D02*
X93598520Y-182118935D01*
X93598520Y-182118935D02*
X93558847Y-182079263D01*
X93558847Y-182079263D02*
X93558847Y-182158608D01*
X93836554Y-182356970D02*
X94153933Y-182356970D01*
X93955571Y-182079263D02*
X93955571Y-182793366D01*
X93955571Y-182793366D02*
X93995244Y-182872711D01*
X93995244Y-182872711D02*
X94074589Y-182912383D01*
X94074589Y-182912383D02*
X94153933Y-182912383D01*
X94788692Y-182872711D02*
X94709347Y-182912383D01*
X94709347Y-182912383D02*
X94550658Y-182912383D01*
X94550658Y-182912383D02*
X94471313Y-182872711D01*
X94471313Y-182872711D02*
X94431640Y-182833038D01*
X94431640Y-182833038D02*
X94391968Y-182753693D01*
X94391968Y-182753693D02*
X94391968Y-182515659D01*
X94391968Y-182515659D02*
X94431640Y-182436314D01*
X94431640Y-182436314D02*
X94471313Y-182396642D01*
X94471313Y-182396642D02*
X94550658Y-182356970D01*
X94550658Y-182356970D02*
X94709347Y-182356970D01*
X94709347Y-182356970D02*
X94788692Y-182396642D01*
X95145743Y-182912383D02*
X95145743Y-182079263D01*
X95502795Y-182912383D02*
X95502795Y-182475987D01*
X95502795Y-182475987D02*
X95463122Y-182396642D01*
X95463122Y-182396642D02*
X95383778Y-182356970D01*
X95383778Y-182356970D02*
X95264761Y-182356970D01*
X95264761Y-182356970D02*
X95185416Y-182396642D01*
X95185416Y-182396642D02*
X95145743Y-182436314D01*
D15*
X64854488Y-173946813D02*
X64854488Y-173434749D01*
X64854488Y-173434749D02*
X65025176Y-173800509D01*
X65025176Y-173800509D02*
X65195864Y-173434749D01*
X65195864Y-173434749D02*
X65195864Y-173946813D01*
X65707928Y-173946813D02*
X65415320Y-173946813D01*
X65561624Y-173946813D02*
X65561624Y-173434749D01*
X65561624Y-173434749D02*
X65512856Y-173507901D01*
X65512856Y-173507901D02*
X65464088Y-173556669D01*
X65464088Y-173556669D02*
X65415320Y-173581053D01*
X66098072Y-173678589D02*
X66171224Y-173702973D01*
X66171224Y-173702973D02*
X66195608Y-173727357D01*
X66195608Y-173727357D02*
X66219992Y-173776125D01*
X66219992Y-173776125D02*
X66219992Y-173849277D01*
X66219992Y-173849277D02*
X66195608Y-173898045D01*
X66195608Y-173898045D02*
X66171224Y-173922429D01*
X66171224Y-173922429D02*
X66122456Y-173946813D01*
X66122456Y-173946813D02*
X65927384Y-173946813D01*
X65927384Y-173946813D02*
X65927384Y-173434749D01*
X65927384Y-173434749D02*
X66098072Y-173434749D01*
X66098072Y-173434749D02*
X66146840Y-173459133D01*
X66146840Y-173459133D02*
X66171224Y-173483517D01*
X66171224Y-173483517D02*
X66195608Y-173532285D01*
X66195608Y-173532285D02*
X66195608Y-173581053D01*
X66195608Y-173581053D02*
X66171224Y-173629821D01*
X66171224Y-173629821D02*
X66146840Y-173654205D01*
X66146840Y-173654205D02*
X66098072Y-173678589D01*
X66098072Y-173678589D02*
X65927384Y-173678589D01*
X66536984Y-173434749D02*
X66585752Y-173434749D01*
X66585752Y-173434749D02*
X66634520Y-173459133D01*
X66634520Y-173459133D02*
X66658904Y-173483517D01*
X66658904Y-173483517D02*
X66683288Y-173532285D01*
X66683288Y-173532285D02*
X66707672Y-173629821D01*
X66707672Y-173629821D02*
X66707672Y-173751741D01*
X66707672Y-173751741D02*
X66683288Y-173849277D01*
X66683288Y-173849277D02*
X66658904Y-173898045D01*
X66658904Y-173898045D02*
X66634520Y-173922429D01*
X66634520Y-173922429D02*
X66585752Y-173946813D01*
X66585752Y-173946813D02*
X66536984Y-173946813D01*
X66536984Y-173946813D02*
X66488216Y-173922429D01*
X66488216Y-173922429D02*
X66463832Y-173898045D01*
X66463832Y-173898045D02*
X66439448Y-173849277D01*
X66439448Y-173849277D02*
X66415064Y-173751741D01*
X66415064Y-173751741D02*
X66415064Y-173629821D01*
X66415064Y-173629821D02*
X66439448Y-173532285D01*
X66439448Y-173532285D02*
X66463832Y-173483517D01*
X66463832Y-173483517D02*
X66488216Y-173459133D01*
X66488216Y-173459133D02*
X66536984Y-173434749D01*
D14*
X100590905Y-111342870D02*
X100590905Y-110342870D01*
X100590905Y-110819060D02*
X101162333Y-110819060D01*
X101162333Y-111342870D02*
X101162333Y-110342870D01*
X102162333Y-111342870D02*
X101590905Y-111342870D01*
X101876619Y-111342870D02*
X101876619Y-110342870D01*
X101876619Y-110342870D02*
X101781381Y-110485727D01*
X101781381Y-110485727D02*
X101686143Y-110580965D01*
X101686143Y-110580965D02*
X101590905Y-110628584D01*
X102781381Y-110342870D02*
X102876619Y-110342870D01*
X102876619Y-110342870D02*
X102971857Y-110390489D01*
X102971857Y-110390489D02*
X103019476Y-110438108D01*
X103019476Y-110438108D02*
X103067095Y-110533346D01*
X103067095Y-110533346D02*
X103114714Y-110723822D01*
X103114714Y-110723822D02*
X103114714Y-110961917D01*
X103114714Y-110961917D02*
X103067095Y-111152393D01*
X103067095Y-111152393D02*
X103019476Y-111247631D01*
X103019476Y-111247631D02*
X102971857Y-111295251D01*
X102971857Y-111295251D02*
X102876619Y-111342870D01*
X102876619Y-111342870D02*
X102781381Y-111342870D01*
X102781381Y-111342870D02*
X102686143Y-111295251D01*
X102686143Y-111295251D02*
X102638524Y-111247631D01*
X102638524Y-111247631D02*
X102590905Y-111152393D01*
X102590905Y-111152393D02*
X102543286Y-110961917D01*
X102543286Y-110961917D02*
X102543286Y-110723822D01*
X102543286Y-110723822D02*
X102590905Y-110533346D01*
X102590905Y-110533346D02*
X102638524Y-110438108D01*
X102638524Y-110438108D02*
X102686143Y-110390489D01*
X102686143Y-110390489D02*
X102781381Y-110342870D01*
X101524295Y-62302219D02*
X101524295Y-61302219D01*
X101524295Y-61778409D02*
X102095723Y-61778409D01*
X102095723Y-62302219D02*
X102095723Y-61302219D01*
X102476676Y-61302219D02*
X103143342Y-61302219D01*
X103143342Y-61302219D02*
X102714771Y-62302219D01*
X80518495Y-112028470D02*
X80518495Y-111028470D01*
X80518495Y-111504660D02*
X81089923Y-111504660D01*
X81089923Y-112028470D02*
X81089923Y-111028470D01*
X81613733Y-112028470D02*
X81804209Y-112028470D01*
X81804209Y-112028470D02*
X81899447Y-111980851D01*
X81899447Y-111980851D02*
X81947066Y-111933231D01*
X81947066Y-111933231D02*
X82042304Y-111790374D01*
X82042304Y-111790374D02*
X82089923Y-111599898D01*
X82089923Y-111599898D02*
X82089923Y-111218946D01*
X82089923Y-111218946D02*
X82042304Y-111123708D01*
X82042304Y-111123708D02*
X81994685Y-111076089D01*
X81994685Y-111076089D02*
X81899447Y-111028470D01*
X81899447Y-111028470D02*
X81708971Y-111028470D01*
X81708971Y-111028470D02*
X81613733Y-111076089D01*
X81613733Y-111076089D02*
X81566114Y-111123708D01*
X81566114Y-111123708D02*
X81518495Y-111218946D01*
X81518495Y-111218946D02*
X81518495Y-111457041D01*
X81518495Y-111457041D02*
X81566114Y-111552279D01*
X81566114Y-111552279D02*
X81613733Y-111599898D01*
X81613733Y-111599898D02*
X81708971Y-111647517D01*
X81708971Y-111647517D02*
X81899447Y-111647517D01*
X81899447Y-111647517D02*
X81994685Y-111599898D01*
X81994685Y-111599898D02*
X82042304Y-111552279D01*
X82042304Y-111552279D02*
X82089923Y-111457041D01*
D15*
X118194488Y-166199813D02*
X118194488Y-165687749D01*
X118194488Y-165687749D02*
X118365176Y-166053509D01*
X118365176Y-166053509D02*
X118535864Y-165687749D01*
X118535864Y-165687749D02*
X118535864Y-166199813D01*
X118755320Y-165736517D02*
X118779704Y-165712133D01*
X118779704Y-165712133D02*
X118828472Y-165687749D01*
X118828472Y-165687749D02*
X118950392Y-165687749D01*
X118950392Y-165687749D02*
X118999160Y-165712133D01*
X118999160Y-165712133D02*
X119023544Y-165736517D01*
X119023544Y-165736517D02*
X119047928Y-165785285D01*
X119047928Y-165785285D02*
X119047928Y-165834053D01*
X119047928Y-165834053D02*
X119023544Y-165907205D01*
X119023544Y-165907205D02*
X118730936Y-166199813D01*
X118730936Y-166199813D02*
X119047928Y-166199813D01*
X119243000Y-166053509D02*
X119486840Y-166053509D01*
X119194232Y-166199813D02*
X119364920Y-165687749D01*
X119364920Y-165687749D02*
X119535608Y-166199813D01*
X119803832Y-165687749D02*
X119852600Y-165687749D01*
X119852600Y-165687749D02*
X119901368Y-165712133D01*
X119901368Y-165712133D02*
X119925752Y-165736517D01*
X119925752Y-165736517D02*
X119950136Y-165785285D01*
X119950136Y-165785285D02*
X119974520Y-165882821D01*
X119974520Y-165882821D02*
X119974520Y-166004741D01*
X119974520Y-166004741D02*
X119950136Y-166102277D01*
X119950136Y-166102277D02*
X119925752Y-166151045D01*
X119925752Y-166151045D02*
X119901368Y-166175429D01*
X119901368Y-166175429D02*
X119852600Y-166199813D01*
X119852600Y-166199813D02*
X119803832Y-166199813D01*
X119803832Y-166199813D02*
X119755064Y-166175429D01*
X119755064Y-166175429D02*
X119730680Y-166151045D01*
X119730680Y-166151045D02*
X119706296Y-166102277D01*
X119706296Y-166102277D02*
X119681912Y-166004741D01*
X119681912Y-166004741D02*
X119681912Y-165882821D01*
X119681912Y-165882821D02*
X119706296Y-165785285D01*
X119706296Y-165785285D02*
X119730680Y-165736517D01*
X119730680Y-165736517D02*
X119755064Y-165712133D01*
X119755064Y-165712133D02*
X119803832Y-165687749D01*
X118194488Y-173946813D02*
X118194488Y-173434749D01*
X118194488Y-173434749D02*
X118365176Y-173800509D01*
X118365176Y-173800509D02*
X118535864Y-173434749D01*
X118535864Y-173434749D02*
X118535864Y-173946813D01*
X118755320Y-173483517D02*
X118779704Y-173459133D01*
X118779704Y-173459133D02*
X118828472Y-173434749D01*
X118828472Y-173434749D02*
X118950392Y-173434749D01*
X118950392Y-173434749D02*
X118999160Y-173459133D01*
X118999160Y-173459133D02*
X119023544Y-173483517D01*
X119023544Y-173483517D02*
X119047928Y-173532285D01*
X119047928Y-173532285D02*
X119047928Y-173581053D01*
X119047928Y-173581053D02*
X119023544Y-173654205D01*
X119023544Y-173654205D02*
X118730936Y-173946813D01*
X118730936Y-173946813D02*
X119047928Y-173946813D01*
X119438072Y-173678589D02*
X119511224Y-173702973D01*
X119511224Y-173702973D02*
X119535608Y-173727357D01*
X119535608Y-173727357D02*
X119559992Y-173776125D01*
X119559992Y-173776125D02*
X119559992Y-173849277D01*
X119559992Y-173849277D02*
X119535608Y-173898045D01*
X119535608Y-173898045D02*
X119511224Y-173922429D01*
X119511224Y-173922429D02*
X119462456Y-173946813D01*
X119462456Y-173946813D02*
X119267384Y-173946813D01*
X119267384Y-173946813D02*
X119267384Y-173434749D01*
X119267384Y-173434749D02*
X119438072Y-173434749D01*
X119438072Y-173434749D02*
X119486840Y-173459133D01*
X119486840Y-173459133D02*
X119511224Y-173483517D01*
X119511224Y-173483517D02*
X119535608Y-173532285D01*
X119535608Y-173532285D02*
X119535608Y-173581053D01*
X119535608Y-173581053D02*
X119511224Y-173629821D01*
X119511224Y-173629821D02*
X119486840Y-173654205D01*
X119486840Y-173654205D02*
X119438072Y-173678589D01*
X119438072Y-173678589D02*
X119267384Y-173678589D01*
X119876984Y-173434749D02*
X119925752Y-173434749D01*
X119925752Y-173434749D02*
X119974520Y-173459133D01*
X119974520Y-173459133D02*
X119998904Y-173483517D01*
X119998904Y-173483517D02*
X120023288Y-173532285D01*
X120023288Y-173532285D02*
X120047672Y-173629821D01*
X120047672Y-173629821D02*
X120047672Y-173751741D01*
X120047672Y-173751741D02*
X120023288Y-173849277D01*
X120023288Y-173849277D02*
X119998904Y-173898045D01*
X119998904Y-173898045D02*
X119974520Y-173922429D01*
X119974520Y-173922429D02*
X119925752Y-173946813D01*
X119925752Y-173946813D02*
X119876984Y-173946813D01*
X119876984Y-173946813D02*
X119828216Y-173922429D01*
X119828216Y-173922429D02*
X119803832Y-173898045D01*
X119803832Y-173898045D02*
X119779448Y-173849277D01*
X119779448Y-173849277D02*
X119755064Y-173751741D01*
X119755064Y-173751741D02*
X119755064Y-173629821D01*
X119755064Y-173629821D02*
X119779448Y-173532285D01*
X119779448Y-173532285D02*
X119803832Y-173483517D01*
X119803832Y-173483517D02*
X119828216Y-173459133D01*
X119828216Y-173459133D02*
X119876984Y-173434749D01*
D14*
X49174895Y-41973619D02*
X49174895Y-40973619D01*
X49174895Y-41449809D02*
X49746323Y-41449809D01*
X49746323Y-41973619D02*
X49746323Y-40973619D01*
X50651085Y-40973619D02*
X50460609Y-40973619D01*
X50460609Y-40973619D02*
X50365371Y-41021238D01*
X50365371Y-41021238D02*
X50317752Y-41068857D01*
X50317752Y-41068857D02*
X50222514Y-41211714D01*
X50222514Y-41211714D02*
X50174895Y-41402190D01*
X50174895Y-41402190D02*
X50174895Y-41783142D01*
X50174895Y-41783142D02*
X50222514Y-41878380D01*
X50222514Y-41878380D02*
X50270133Y-41926000D01*
X50270133Y-41926000D02*
X50365371Y-41973619D01*
X50365371Y-41973619D02*
X50555847Y-41973619D01*
X50555847Y-41973619D02*
X50651085Y-41926000D01*
X50651085Y-41926000D02*
X50698704Y-41878380D01*
X50698704Y-41878380D02*
X50746323Y-41783142D01*
X50746323Y-41783142D02*
X50746323Y-41545047D01*
X50746323Y-41545047D02*
X50698704Y-41449809D01*
X50698704Y-41449809D02*
X50651085Y-41402190D01*
X50651085Y-41402190D02*
X50555847Y-41354571D01*
X50555847Y-41354571D02*
X50365371Y-41354571D01*
X50365371Y-41354571D02*
X50270133Y-41402190D01*
X50270133Y-41402190D02*
X50222514Y-41449809D01*
X50222514Y-41449809D02*
X50174895Y-41545047D01*
D20*
X91125032Y-122203326D02*
X91125032Y-123149173D01*
X91125032Y-123149173D02*
X91180670Y-123260449D01*
X91180670Y-123260449D02*
X91236308Y-123316088D01*
X91236308Y-123316088D02*
X91347584Y-123371726D01*
X91347584Y-123371726D02*
X91570137Y-123371726D01*
X91570137Y-123371726D02*
X91681413Y-123316088D01*
X91681413Y-123316088D02*
X91737051Y-123260449D01*
X91737051Y-123260449D02*
X91792689Y-123149173D01*
X91792689Y-123149173D02*
X91792689Y-122203326D01*
X92961089Y-123371726D02*
X92293432Y-123371726D01*
X92627260Y-123371726D02*
X92627260Y-122203326D01*
X92627260Y-122203326D02*
X92515984Y-122370240D01*
X92515984Y-122370240D02*
X92404708Y-122481516D01*
X92404708Y-122481516D02*
X92293432Y-122537154D01*
D14*
X129527395Y-176708270D02*
X129527395Y-175708270D01*
X129527395Y-176184460D02*
X130098823Y-176184460D01*
X130098823Y-176708270D02*
X130098823Y-175708270D01*
X131098823Y-176708270D02*
X130527395Y-176708270D01*
X130813109Y-176708270D02*
X130813109Y-175708270D01*
X130813109Y-175708270D02*
X130717871Y-175851127D01*
X130717871Y-175851127D02*
X130622633Y-175946365D01*
X130622633Y-175946365D02*
X130527395Y-175993984D01*
D15*
X67110648Y-34405211D02*
X67110648Y-33893147D01*
X67110648Y-33893147D02*
X67232568Y-33893147D01*
X67232568Y-33893147D02*
X67305720Y-33917531D01*
X67305720Y-33917531D02*
X67354488Y-33966299D01*
X67354488Y-33966299D02*
X67378872Y-34015067D01*
X67378872Y-34015067D02*
X67403256Y-34112603D01*
X67403256Y-34112603D02*
X67403256Y-34185755D01*
X67403256Y-34185755D02*
X67378872Y-34283291D01*
X67378872Y-34283291D02*
X67354488Y-34332059D01*
X67354488Y-34332059D02*
X67305720Y-34380827D01*
X67305720Y-34380827D02*
X67232568Y-34405211D01*
X67232568Y-34405211D02*
X67110648Y-34405211D01*
X67866552Y-33893147D02*
X67622712Y-33893147D01*
X67622712Y-33893147D02*
X67598328Y-34136987D01*
X67598328Y-34136987D02*
X67622712Y-34112603D01*
X67622712Y-34112603D02*
X67671480Y-34088219D01*
X67671480Y-34088219D02*
X67793400Y-34088219D01*
X67793400Y-34088219D02*
X67842168Y-34112603D01*
X67842168Y-34112603D02*
X67866552Y-34136987D01*
X67866552Y-34136987D02*
X67890936Y-34185755D01*
X67890936Y-34185755D02*
X67890936Y-34307675D01*
X67890936Y-34307675D02*
X67866552Y-34356443D01*
X67866552Y-34356443D02*
X67842168Y-34380827D01*
X67842168Y-34380827D02*
X67793400Y-34405211D01*
X67793400Y-34405211D02*
X67671480Y-34405211D01*
X67671480Y-34405211D02*
X67622712Y-34380827D01*
X67622712Y-34380827D02*
X67598328Y-34356443D01*
D12*
X82637733Y-42865619D02*
X82304400Y-42389428D01*
X82066305Y-42865619D02*
X82066305Y-41865619D01*
X82066305Y-41865619D02*
X82447257Y-41865619D01*
X82447257Y-41865619D02*
X82542495Y-41913238D01*
X82542495Y-41913238D02*
X82590114Y-41960857D01*
X82590114Y-41960857D02*
X82637733Y-42056095D01*
X82637733Y-42056095D02*
X82637733Y-42198952D01*
X82637733Y-42198952D02*
X82590114Y-42294190D01*
X82590114Y-42294190D02*
X82542495Y-42341809D01*
X82542495Y-42341809D02*
X82447257Y-42389428D01*
X82447257Y-42389428D02*
X82066305Y-42389428D01*
X83494876Y-42198952D02*
X83494876Y-42865619D01*
X83256781Y-41818000D02*
X83018686Y-42532285D01*
X83018686Y-42532285D02*
X83637733Y-42532285D01*
D14*
X129527395Y-158750470D02*
X129527395Y-157750470D01*
X129527395Y-158226660D02*
X130098823Y-158226660D01*
X130098823Y-158750470D02*
X130098823Y-157750470D01*
X130527395Y-157845708D02*
X130575014Y-157798089D01*
X130575014Y-157798089D02*
X130670252Y-157750470D01*
X130670252Y-157750470D02*
X130908347Y-157750470D01*
X130908347Y-157750470D02*
X131003585Y-157798089D01*
X131003585Y-157798089D02*
X131051204Y-157845708D01*
X131051204Y-157845708D02*
X131098823Y-157940946D01*
X131098823Y-157940946D02*
X131098823Y-158036184D01*
X131098823Y-158036184D02*
X131051204Y-158179041D01*
X131051204Y-158179041D02*
X130479776Y-158750470D01*
X130479776Y-158750470D02*
X131098823Y-158750470D01*
D21*
%TO.C,J3*%
X89916400Y-47887000D02*
X97596400Y-47887000D01*
X89916400Y-47887000D02*
X89916400Y-45227000D01*
X97596400Y-47887000D02*
X97596400Y-45227000D01*
X87316400Y-46557000D02*
X87316400Y-45227000D01*
X87316400Y-45227000D02*
X88646400Y-45227000D01*
X89916400Y-45227000D02*
X97596400Y-45227000D01*
D22*
%TO.C,J1*%
X132283600Y-130090251D02*
X132283600Y-128820251D01*
X132283600Y-128820251D02*
X131648600Y-128185251D01*
X131648600Y-130725251D02*
X132283600Y-130090251D01*
X131648600Y-130725251D02*
X130378600Y-130725251D01*
X130378600Y-130725251D02*
X129743600Y-130090251D01*
X130378600Y-128185251D02*
X131648600Y-128185251D01*
X129743600Y-130090251D02*
X129108600Y-130725251D01*
X129743600Y-128820251D02*
X130378600Y-128185251D01*
X129108600Y-130725251D02*
X127838600Y-130725251D01*
X129108600Y-128185251D02*
X129743600Y-128820251D01*
X127838600Y-130725251D02*
X127203600Y-130090251D01*
X127838600Y-128185251D02*
X129108600Y-128185251D01*
X127203600Y-130090251D02*
X126568600Y-130725251D01*
X127203600Y-128820251D02*
X127838600Y-128185251D01*
X126568600Y-130725251D02*
X125298600Y-130725251D01*
X126568600Y-128185251D02*
X127203600Y-128820251D01*
X125298600Y-130725251D02*
X124663600Y-130090251D01*
X125298600Y-128185251D02*
X126568600Y-128185251D01*
X124663600Y-130090251D02*
X124663600Y-128820251D01*
X124663600Y-128820251D02*
X125298600Y-128185251D01*
%TO.C,D2*%
X107645600Y-34631700D02*
X107645600Y-36536700D01*
%TO.C,M1A0*%
X64668400Y-167029551D02*
X64668400Y-168299551D01*
X64668400Y-168299551D02*
X65303400Y-168934551D01*
X65303400Y-166394551D02*
X64668400Y-167029551D01*
X65303400Y-168934551D02*
X66573400Y-168934551D01*
X66573400Y-166394551D02*
X65303400Y-166394551D01*
X66573400Y-168934551D02*
X67208400Y-168299551D01*
X67208400Y-167029551D02*
X66573400Y-166394551D01*
X67208400Y-168299551D02*
X67208400Y-167029551D01*
%TO.C,J2*%
X61265200Y-130268051D02*
X61265200Y-128998051D01*
X61265200Y-128998051D02*
X60630200Y-128363051D01*
X60630200Y-130903051D02*
X61265200Y-130268051D01*
X60630200Y-130903051D02*
X59360200Y-130903051D01*
X59360200Y-130903051D02*
X58725200Y-130268051D01*
X59360200Y-128363051D02*
X60630200Y-128363051D01*
X58725200Y-130268051D02*
X58090200Y-130903051D01*
X58725200Y-128998051D02*
X59360200Y-128363051D01*
X58090200Y-130903051D02*
X56820200Y-130903051D01*
X58090200Y-128363051D02*
X58725200Y-128998051D01*
X56820200Y-130903051D02*
X56185200Y-130268051D01*
X56820200Y-128363051D02*
X58090200Y-128363051D01*
X56185200Y-130268051D02*
X55550200Y-130903051D01*
X56185200Y-128998051D02*
X56820200Y-128363051D01*
X55550200Y-130903051D02*
X54280200Y-130903051D01*
X55550200Y-128363051D02*
X56185200Y-128998051D01*
X54280200Y-130903051D02*
X53645200Y-130268051D01*
X54280200Y-128363051D02*
X55550200Y-128363051D01*
X53645200Y-130268051D02*
X53645200Y-128998051D01*
X53645200Y-128998051D02*
X54280200Y-128363051D01*
%TO.C,D1*%
X120218600Y-34631700D02*
X120218600Y-36536700D01*
D21*
%TO.C,SW1*%
X62084400Y-142304851D02*
X62084400Y-143804851D01*
X63334400Y-146304851D02*
X67834400Y-146304851D01*
X67834400Y-139804851D02*
X63334400Y-139804851D01*
X69084400Y-143804851D02*
X69084400Y-142304851D01*
D22*
%TO.C,D4*%
X82499600Y-34631700D02*
X82499600Y-36536700D01*
%TO.C,LDR0*%
X116840400Y-144161851D02*
X116840400Y-145431851D01*
X116840400Y-145431851D02*
X117475400Y-146066851D01*
X117475400Y-143526851D02*
X116840400Y-144161851D01*
X117475400Y-143526851D02*
X118745400Y-143526851D01*
X118745400Y-143526851D02*
X119380400Y-144161851D01*
X118745400Y-146066851D02*
X117475400Y-146066851D01*
X119380400Y-144161851D02*
X120015400Y-143526851D01*
X119380400Y-145431851D02*
X118745400Y-146066851D01*
X120015400Y-143526851D02*
X121285400Y-143526851D01*
X120015400Y-146066851D02*
X119380400Y-145431851D01*
X121285400Y-143526851D02*
X121920400Y-144161851D01*
X121285400Y-146066851D02*
X120015400Y-146066851D01*
X121920400Y-144161851D02*
X121920400Y-145431851D01*
X121920400Y-145431851D02*
X121285400Y-146066851D01*
%TO.C,BATT0*%
X95377400Y-173371851D02*
X95377400Y-172101851D01*
X95377400Y-172101851D02*
X94742400Y-171466851D01*
X94742400Y-174006851D02*
X95377400Y-173371851D01*
X94742400Y-174006851D02*
X93472400Y-174006851D01*
X93472400Y-174006851D02*
X92837400Y-173371851D01*
X93472400Y-171466851D02*
X94742400Y-171466851D01*
X92837400Y-173371851D02*
X92202400Y-174006851D01*
X92837400Y-172101851D02*
X93472400Y-171466851D01*
X92202400Y-174006851D02*
X90932400Y-174006851D01*
X92202400Y-171466851D02*
X92837400Y-172101851D01*
X90932400Y-174006851D02*
X90297400Y-173371851D01*
X90932400Y-171466851D02*
X92202400Y-171466851D01*
X90297400Y-173371851D02*
X90297400Y-172101851D01*
X90297400Y-172101851D02*
X90932400Y-171466851D01*
%TO.C,D3*%
X95072600Y-34631700D02*
X95072600Y-36536700D01*
D23*
%TO.C,ARDUINO_NANO1*%
X89916400Y-190186851D02*
X94996400Y-190186851D01*
X83566400Y-188916851D02*
X83566400Y-147006851D01*
D24*
X84836400Y-188916851D02*
X84836400Y-186376851D01*
D23*
X89916400Y-188916851D02*
X89916400Y-190186851D01*
X89916400Y-188916851D02*
X83566400Y-188916851D01*
X100076400Y-188916851D02*
X89916400Y-188916851D01*
D24*
X100076400Y-188916851D02*
X100076400Y-186376851D01*
D23*
X101346400Y-188916851D02*
X100076400Y-188916851D01*
D24*
X83566400Y-187646851D02*
X86106400Y-187646851D01*
X98806400Y-187646851D02*
X101346400Y-187646851D01*
D23*
X101346400Y-187646851D02*
X101346400Y-188916851D01*
X89916400Y-183836851D02*
X89916400Y-188916851D01*
X94996400Y-183836851D02*
X94996400Y-190186851D01*
X94996400Y-183836851D02*
X89916400Y-183836851D01*
X88646400Y-150816851D02*
X96266400Y-150816851D01*
X96266400Y-150816851D02*
X96266400Y-145736851D01*
D24*
X84836400Y-148276851D02*
X84836400Y-145736851D01*
X100076400Y-148276851D02*
X100076400Y-145736851D01*
D23*
X83566400Y-147006851D02*
X83566400Y-145736851D01*
D24*
X86106400Y-147006851D02*
X83566400Y-147006851D01*
D23*
X101346400Y-147006851D02*
X101346400Y-187646851D01*
D24*
X101346400Y-147006851D02*
X98806400Y-147006851D01*
D23*
X83566400Y-145736851D02*
X84836400Y-145736851D01*
X84836400Y-145736851D02*
X88646400Y-145736851D01*
X88646400Y-145736851D02*
X88646400Y-150816851D01*
X88646400Y-145736851D02*
X96266400Y-145736851D01*
X96266400Y-145736851D02*
X100076400Y-145736851D01*
X100076400Y-145736851D02*
X101346400Y-145736851D01*
X101346400Y-145736851D02*
X101346400Y-147006851D01*
X94252450Y-164786851D02*
G75*
G03*
X94252450Y-164786851I-1796050J0D01*
G01*
X90716400Y-149546851D02*
G75*
G03*
X90716400Y-149546851I-800000J0D01*
G01*
X93256400Y-149546851D02*
G75*
G03*
X93256400Y-149546851I-800000J0D01*
G01*
X95796400Y-149546851D02*
G75*
G03*
X95796400Y-149546851I-800000J0D01*
G01*
X90716400Y-147006851D02*
G75*
G03*
X90716400Y-147006851I-800000J0D01*
G01*
X93256400Y-147006851D02*
G75*
G03*
X93256400Y-147006851I-800000J0D01*
G01*
X93256400Y-147006851D02*
G75*
G03*
X93256400Y-147006851I-800000J0D01*
G01*
X95796400Y-147006851D02*
G75*
G03*
X95796400Y-147006851I-800000J0D01*
G01*
G36*
X87466203Y-152086851D02*
G01*
X86042900Y-153510154D01*
X86042900Y-150663548D01*
X87466203Y-152086851D01*
G37*
G36*
X87439900Y-150970154D02*
G01*
X86016597Y-149546851D01*
X87439900Y-148123548D01*
X87439900Y-150970154D01*
G37*
D22*
%TO.C,S2X0*%
X87570900Y-183976351D02*
X97595900Y-183976351D01*
X87570900Y-184928851D02*
X87570900Y-183976351D01*
X87570900Y-188421351D02*
X87570900Y-187468851D01*
X97595900Y-183976351D02*
X97595900Y-184928851D01*
X97595900Y-187468851D02*
X97595900Y-188421351D01*
X97595900Y-188421351D02*
X87570900Y-188421351D01*
%TO.C,M1B0*%
X64668400Y-174776551D02*
X64668400Y-176046551D01*
X64668400Y-176046551D02*
X65303400Y-176681551D01*
X65303400Y-174141551D02*
X64668400Y-174776551D01*
X65303400Y-176681551D02*
X66573400Y-176681551D01*
X66573400Y-174141551D02*
X65303400Y-174141551D01*
X66573400Y-176681551D02*
X67208400Y-176046551D01*
X67208400Y-174776551D02*
X66573400Y-174141551D01*
X67208400Y-176046551D02*
X67208400Y-174776551D01*
%TO.C,M2A0*%
X118008400Y-167029551D02*
X118008400Y-168299551D01*
X118008400Y-168299551D02*
X118643400Y-168934551D01*
X118643400Y-166394551D02*
X118008400Y-167029551D01*
X118643400Y-168934551D02*
X119913400Y-168934551D01*
X119913400Y-166394551D02*
X118643400Y-166394551D01*
X119913400Y-168934551D02*
X120548400Y-168299551D01*
X120548400Y-167029551D02*
X119913400Y-166394551D01*
X120548400Y-168299551D02*
X120548400Y-167029551D01*
%TO.C,M2B0*%
X118008400Y-174776551D02*
X118008400Y-176046551D01*
X118008400Y-176046551D02*
X118643400Y-176681551D01*
X118643400Y-174141551D02*
X118008400Y-174776551D01*
X118643400Y-176681551D02*
X119913400Y-176681551D01*
X119913400Y-174141551D02*
X118643400Y-174141551D01*
X119913400Y-176681551D02*
X120548400Y-176046551D01*
X120548400Y-174776551D02*
X119913400Y-174141551D01*
X120548400Y-176046551D02*
X120548400Y-174776551D01*
D23*
%TO.C,U1*%
X81890000Y-121615000D02*
X81890000Y-141935000D01*
X83160000Y-121615000D02*
X81890000Y-121615000D01*
X83160000Y-141935000D02*
X81890000Y-141935000D01*
X85550000Y-121615000D02*
X98550000Y-121615000D01*
X85550000Y-141935000D02*
X98550000Y-141935000D01*
X100940000Y-121615000D02*
X102210000Y-121615000D01*
X100940000Y-141935000D02*
X102210000Y-141935000D01*
X102210000Y-141935000D02*
X102210000Y-121615000D01*
D25*
X84530000Y-121046800D02*
G75*
G03*
X84530000Y-121046800I-100000J0D01*
G01*
D22*
%TO.C,D5*%
X69926600Y-34631700D02*
X69926600Y-36536700D01*
%TD*%
M02*
