M48
; DRILL file {KiCad 7.0.7} date 2024 February 08, Thursday 11:46:45
; FORMAT={-:-/ absolute / inch / decimal}
; #@! TF.CreationDate,2024-02-08T11:46:45+08:00
; #@! TF.GenerationSoftware,Kicad,Pcbnew,7.0.7
; #@! TF.FileFunction,Plated,1,2,PTH
FMAT,2
INCH
; #@! TA.AperFunction,Plated,PTH,ComponentDrill
T1C0.0315
; #@! TA.AperFunction,Plated,PTH,ComponentDrill
T2C0.0394
; #@! TA.AperFunction,Plated,PTH,ComponentDrill
T3C0.0400
; #@! TA.AperFunction,Plated,PTH,ComponentDrill
T4C0.0433
; #@! TA.AperFunction,Plated,PTH,ComponentDrill
T5C0.0520
; #@! TA.AperFunction,Plated,PTH,ComponentDrill
T6C0.0560
%
G90
G05
T1
X3.34Y-5.8877
X3.34Y-5.9877
X3.34Y-6.0877
X3.34Y-6.1877
X3.34Y-6.2877
X3.34Y-6.3877
X3.34Y-6.4877
X3.34Y-6.5877
X3.34Y-6.6877
X3.34Y-6.7877
X3.34Y-6.8877
X3.34Y-6.9877
X3.34Y-7.0877
X3.34Y-7.1877
X3.34Y-7.2877
X3.94Y-5.8877
X3.94Y-5.9877
X3.94Y-6.0877
X3.94Y-6.1877
X3.94Y-6.2877
X3.94Y-6.3877
X3.94Y-6.4877
X3.94Y-6.5877
X3.94Y-6.6877
X3.94Y-6.7877
X3.94Y-6.8877
X3.94Y-6.9877
X3.94Y-7.0877
X3.94Y-7.1877
X3.94Y-7.2877
T2
X3.49Y-1.833
X3.59Y-1.833
X3.69Y-1.833
X3.79Y-1.833
T3
X2.162Y-5.1037
X2.262Y-5.1037
X2.362Y-5.1037
X2.596Y-6.601
X2.596Y-6.906
X3.5575Y-7.3307
X3.605Y-6.8007
X3.645Y-7.3307
X3.705Y-6.8007
X3.7325Y-7.3307
X4.65Y-5.7007
X4.696Y-6.601
X4.696Y-6.906
X4.75Y-5.7007
X4.958Y-5.0967
X5.058Y-5.0967
X5.158Y-5.0967
T4
X2.4541Y-5.5435
X2.4541Y-5.7207
X2.71Y-5.5435
X2.71Y-5.7207
T5
X3.324Y-4.838
X3.324Y-4.938
X3.324Y-5.038
X3.324Y-5.138
X3.324Y-5.238
X3.324Y-5.338
X3.324Y-5.438
X3.324Y-5.538
X3.924Y-4.838
X3.924Y-4.938
X3.924Y-5.038
X3.924Y-5.138
X3.924Y-5.238
X3.924Y-5.338
X3.924Y-5.438
X3.924Y-5.538
T6
X3.458Y-7.3312
X3.832Y-7.3302
T0
M30
