%TF.GenerationSoftware,KiCad,Pcbnew,7.0.7*%
%TF.CreationDate,2024-02-03T16:57:13+08:00*%
%TF.ProjectId,lekirbot,6c656b69-7262-46f7-942e-6b696361645f,rev?*%
%TF.SameCoordinates,Original*%
%TF.FileFunction,Legend,Bot*%
%TF.FilePolarity,Positive*%
%FSLAX46Y46*%
G04 Gerber Fmt 4.6, Leading zero omitted, Abs format (unit mm)*
G04 Created by KiCad (PCBNEW 7.0.7) date 2024-02-03 16:57:13*
%MOMM*%
%LPD*%
G01*
G04 APERTURE LIST*
%ADD10C,0.081280*%
%ADD11C,0.065024*%
%ADD12C,0.101600*%
%ADD13C,0.097536*%
%ADD14C,0.121920*%
%ADD15C,0.250000*%
%ADD16C,0.093472*%
%ADD17C,0.114638*%
%ADD18C,0.116840*%
%ADD19C,0.114300*%
%ADD20C,0.203200*%
%ADD21C,0.127000*%
%ADD22C,0.050800*%
%ADD23C,0.152400*%
G04 APERTURE END LIST*
D10*
X47151181Y-129536425D02*
X46216461Y-129536425D01*
X46216461Y-130159572D02*
X46216461Y-130337614D01*
X46216461Y-130337614D02*
X46260971Y-130426635D01*
X46260971Y-130426635D02*
X46349992Y-130515656D01*
X46349992Y-130515656D02*
X46528034Y-130560166D01*
X46528034Y-130560166D02*
X46839608Y-130560166D01*
X46839608Y-130560166D02*
X47017650Y-130515656D01*
X47017650Y-130515656D02*
X47106671Y-130426635D01*
X47106671Y-130426635D02*
X47151181Y-130337614D01*
X47151181Y-130337614D02*
X47151181Y-130159572D01*
X47151181Y-130159572D02*
X47106671Y-130070551D01*
X47106671Y-130070551D02*
X47017650Y-129981530D01*
X47017650Y-129981530D02*
X46839608Y-129937019D01*
X46839608Y-129937019D02*
X46528034Y-129937019D01*
X46528034Y-129937019D02*
X46349992Y-129981530D01*
X46349992Y-129981530D02*
X46260971Y-130070551D01*
X46260971Y-130070551D02*
X46216461Y-130159572D01*
X47151181Y-131450375D02*
X47151181Y-130916249D01*
X47151181Y-131183312D02*
X46216461Y-131183312D01*
X46216461Y-131183312D02*
X46349992Y-131094291D01*
X46349992Y-131094291D02*
X46439013Y-131005270D01*
X46439013Y-131005270D02*
X46483524Y-130916249D01*
X46216461Y-132029012D02*
X46216461Y-132118033D01*
X46216461Y-132118033D02*
X46260971Y-132207054D01*
X46260971Y-132207054D02*
X46305482Y-132251564D01*
X46305482Y-132251564D02*
X46394503Y-132296075D01*
X46394503Y-132296075D02*
X46572545Y-132340585D01*
X46572545Y-132340585D02*
X46795097Y-132340585D01*
X46795097Y-132340585D02*
X46973139Y-132296075D01*
X46973139Y-132296075D02*
X47062160Y-132251564D01*
X47062160Y-132251564D02*
X47106671Y-132207054D01*
X47106671Y-132207054D02*
X47151181Y-132118033D01*
X47151181Y-132118033D02*
X47151181Y-132029012D01*
X47151181Y-132029012D02*
X47106671Y-131939991D01*
X47106671Y-131939991D02*
X47062160Y-131895480D01*
X47062160Y-131895480D02*
X46973139Y-131850970D01*
X46973139Y-131850970D02*
X46795097Y-131806459D01*
X46795097Y-131806459D02*
X46572545Y-131806459D01*
X46572545Y-131806459D02*
X46394503Y-131850970D01*
X46394503Y-131850970D02*
X46305482Y-131895480D01*
X46305482Y-131895480D02*
X46260971Y-131939991D01*
X46260971Y-131939991D02*
X46216461Y-132029012D01*
X59814485Y-23763471D02*
X59680953Y-23807981D01*
X59680953Y-23807981D02*
X59458401Y-23807981D01*
X59458401Y-23807981D02*
X59369380Y-23763471D01*
X59369380Y-23763471D02*
X59324869Y-23718960D01*
X59324869Y-23718960D02*
X59280359Y-23629939D01*
X59280359Y-23629939D02*
X59280359Y-23540918D01*
X59280359Y-23540918D02*
X59324869Y-23451897D01*
X59324869Y-23451897D02*
X59369380Y-23407387D01*
X59369380Y-23407387D02*
X59458401Y-23362876D01*
X59458401Y-23362876D02*
X59636443Y-23318366D01*
X59636443Y-23318366D02*
X59725464Y-23273855D01*
X59725464Y-23273855D02*
X59769974Y-23229345D01*
X59769974Y-23229345D02*
X59814485Y-23140324D01*
X59814485Y-23140324D02*
X59814485Y-23051303D01*
X59814485Y-23051303D02*
X59769974Y-22962282D01*
X59769974Y-22962282D02*
X59725464Y-22917771D01*
X59725464Y-22917771D02*
X59636443Y-22873261D01*
X59636443Y-22873261D02*
X59413890Y-22873261D01*
X59413890Y-22873261D02*
X59280359Y-22917771D01*
X58434659Y-22873261D02*
X58879764Y-22873261D01*
X58879764Y-22873261D02*
X58924275Y-23318366D01*
X58924275Y-23318366D02*
X58879764Y-23273855D01*
X58879764Y-23273855D02*
X58790743Y-23229345D01*
X58790743Y-23229345D02*
X58568191Y-23229345D01*
X58568191Y-23229345D02*
X58479170Y-23273855D01*
X58479170Y-23273855D02*
X58434659Y-23318366D01*
X58434659Y-23318366D02*
X58390149Y-23407387D01*
X58390149Y-23407387D02*
X58390149Y-23629939D01*
X58390149Y-23629939D02*
X58434659Y-23718960D01*
X58434659Y-23718960D02*
X58479170Y-23763471D01*
X58479170Y-23763471D02*
X58568191Y-23807981D01*
X58568191Y-23807981D02*
X58790743Y-23807981D01*
X58790743Y-23807981D02*
X58879764Y-23763471D01*
X58879764Y-23763471D02*
X58924275Y-23718960D01*
X79734640Y-29913828D02*
X79645619Y-29958338D01*
X79645619Y-29958338D02*
X79512088Y-29958338D01*
X79512088Y-29958338D02*
X79378556Y-29913828D01*
X79378556Y-29913828D02*
X79289535Y-29824807D01*
X79289535Y-29824807D02*
X79245025Y-29735786D01*
X79245025Y-29735786D02*
X79200514Y-29557744D01*
X79200514Y-29557744D02*
X79200514Y-29424212D01*
X79200514Y-29424212D02*
X79245025Y-29246170D01*
X79245025Y-29246170D02*
X79289535Y-29157149D01*
X79289535Y-29157149D02*
X79378556Y-29068129D01*
X79378556Y-29068129D02*
X79512088Y-29023618D01*
X79512088Y-29023618D02*
X79601109Y-29023618D01*
X79601109Y-29023618D02*
X79734640Y-29068129D01*
X79734640Y-29068129D02*
X79779151Y-29112639D01*
X79779151Y-29112639D02*
X79779151Y-29424212D01*
X79779151Y-29424212D02*
X79601109Y-29424212D01*
X80179745Y-29023618D02*
X80179745Y-29958338D01*
X80179745Y-29958338D02*
X80713871Y-29023618D01*
X80713871Y-29023618D02*
X80713871Y-29958338D01*
X81158975Y-29023618D02*
X81158975Y-29958338D01*
X81158975Y-29958338D02*
X81381527Y-29958338D01*
X81381527Y-29958338D02*
X81515059Y-29913828D01*
X81515059Y-29913828D02*
X81604080Y-29824807D01*
X81604080Y-29824807D02*
X81648590Y-29735786D01*
X81648590Y-29735786D02*
X81693101Y-29557744D01*
X81693101Y-29557744D02*
X81693101Y-29424212D01*
X81693101Y-29424212D02*
X81648590Y-29246170D01*
X81648590Y-29246170D02*
X81604080Y-29157149D01*
X81604080Y-29157149D02*
X81515059Y-29068129D01*
X81515059Y-29068129D02*
X81381527Y-29023618D01*
X81381527Y-29023618D02*
X81158975Y-29023618D01*
X73453328Y-23839671D02*
X73319796Y-23884181D01*
X73319796Y-23884181D02*
X73097244Y-23884181D01*
X73097244Y-23884181D02*
X73008223Y-23839671D01*
X73008223Y-23839671D02*
X72963712Y-23795160D01*
X72963712Y-23795160D02*
X72919202Y-23706139D01*
X72919202Y-23706139D02*
X72919202Y-23617118D01*
X72919202Y-23617118D02*
X72963712Y-23528097D01*
X72963712Y-23528097D02*
X73008223Y-23483587D01*
X73008223Y-23483587D02*
X73097244Y-23439076D01*
X73097244Y-23439076D02*
X73275286Y-23394566D01*
X73275286Y-23394566D02*
X73364307Y-23350055D01*
X73364307Y-23350055D02*
X73408817Y-23305545D01*
X73408817Y-23305545D02*
X73453328Y-23216524D01*
X73453328Y-23216524D02*
X73453328Y-23127503D01*
X73453328Y-23127503D02*
X73408817Y-23038482D01*
X73408817Y-23038482D02*
X73364307Y-22993971D01*
X73364307Y-22993971D02*
X73275286Y-22949461D01*
X73275286Y-22949461D02*
X73052733Y-22949461D01*
X73052733Y-22949461D02*
X72919202Y-22993971D01*
X72118013Y-23261034D02*
X72118013Y-23884181D01*
X72340565Y-22904951D02*
X72563118Y-23572608D01*
X72563118Y-23572608D02*
X71984481Y-23572608D01*
X110258885Y-23306271D02*
X110125353Y-23350781D01*
X110125353Y-23350781D02*
X109902801Y-23350781D01*
X109902801Y-23350781D02*
X109813780Y-23306271D01*
X109813780Y-23306271D02*
X109769269Y-23261760D01*
X109769269Y-23261760D02*
X109724759Y-23172739D01*
X109724759Y-23172739D02*
X109724759Y-23083718D01*
X109724759Y-23083718D02*
X109769269Y-22994697D01*
X109769269Y-22994697D02*
X109813780Y-22950187D01*
X109813780Y-22950187D02*
X109902801Y-22905676D01*
X109902801Y-22905676D02*
X110080843Y-22861166D01*
X110080843Y-22861166D02*
X110169864Y-22816655D01*
X110169864Y-22816655D02*
X110214374Y-22772145D01*
X110214374Y-22772145D02*
X110258885Y-22683124D01*
X110258885Y-22683124D02*
X110258885Y-22594103D01*
X110258885Y-22594103D02*
X110214374Y-22505082D01*
X110214374Y-22505082D02*
X110169864Y-22460571D01*
X110169864Y-22460571D02*
X110080843Y-22416061D01*
X110080843Y-22416061D02*
X109858290Y-22416061D01*
X109858290Y-22416061D02*
X109724759Y-22460571D01*
X108834549Y-23350781D02*
X109368675Y-23350781D01*
X109101612Y-23350781D02*
X109101612Y-22416061D01*
X109101612Y-22416061D02*
X109190633Y-22549592D01*
X109190633Y-22549592D02*
X109279654Y-22638613D01*
X109279654Y-22638613D02*
X109368675Y-22683124D01*
D11*
X133647489Y-170669367D02*
X133647489Y-170918626D01*
X133255797Y-170918626D02*
X134003573Y-170918626D01*
X134003573Y-170918626D02*
X134003573Y-170562542D01*
X133255797Y-170277675D02*
X134003573Y-170277675D01*
X133255797Y-169850374D02*
X133683098Y-170170849D01*
X134003573Y-169850374D02*
X133576273Y-170277675D01*
X133327014Y-169102598D02*
X133291406Y-169138206D01*
X133291406Y-169138206D02*
X133255797Y-169245032D01*
X133255797Y-169245032D02*
X133255797Y-169316248D01*
X133255797Y-169316248D02*
X133291406Y-169423073D01*
X133291406Y-169423073D02*
X133362622Y-169494290D01*
X133362622Y-169494290D02*
X133433839Y-169529899D01*
X133433839Y-169529899D02*
X133576273Y-169565507D01*
X133576273Y-169565507D02*
X133683098Y-169565507D01*
X133683098Y-169565507D02*
X133825531Y-169529899D01*
X133825531Y-169529899D02*
X133896748Y-169494290D01*
X133896748Y-169494290D02*
X133967965Y-169423073D01*
X133967965Y-169423073D02*
X134003573Y-169316248D01*
X134003573Y-169316248D02*
X134003573Y-169245032D01*
X134003573Y-169245032D02*
X133967965Y-169138206D01*
X133967965Y-169138206D02*
X133932356Y-169102598D01*
X133255797Y-168782123D02*
X134003573Y-168782123D01*
X133647489Y-168782123D02*
X133647489Y-168354822D01*
X133255797Y-168354822D02*
X134003573Y-168354822D01*
X133932356Y-168034347D02*
X133967965Y-167998739D01*
X133967965Y-167998739D02*
X134003573Y-167927522D01*
X134003573Y-167927522D02*
X134003573Y-167749480D01*
X134003573Y-167749480D02*
X133967965Y-167678263D01*
X133967965Y-167678263D02*
X133932356Y-167642655D01*
X133932356Y-167642655D02*
X133861140Y-167607046D01*
X133861140Y-167607046D02*
X133789923Y-167607046D01*
X133789923Y-167607046D02*
X133683098Y-167642655D01*
X133683098Y-167642655D02*
X133255797Y-168069955D01*
X133255797Y-168069955D02*
X133255797Y-167607046D01*
X134003573Y-167144137D02*
X134003573Y-167072920D01*
X134003573Y-167072920D02*
X133967965Y-167001704D01*
X133967965Y-167001704D02*
X133932356Y-166966095D01*
X133932356Y-166966095D02*
X133861140Y-166930487D01*
X133861140Y-166930487D02*
X133718706Y-166894878D01*
X133718706Y-166894878D02*
X133540664Y-166894878D01*
X133540664Y-166894878D02*
X133398231Y-166930487D01*
X133398231Y-166930487D02*
X133327014Y-166966095D01*
X133327014Y-166966095D02*
X133291406Y-167001704D01*
X133291406Y-167001704D02*
X133255797Y-167072920D01*
X133255797Y-167072920D02*
X133255797Y-167144137D01*
X133255797Y-167144137D02*
X133291406Y-167215354D01*
X133291406Y-167215354D02*
X133327014Y-167250962D01*
X133327014Y-167250962D02*
X133398231Y-167286571D01*
X133398231Y-167286571D02*
X133540664Y-167322179D01*
X133540664Y-167322179D02*
X133718706Y-167322179D01*
X133718706Y-167322179D02*
X133861140Y-167286571D01*
X133861140Y-167286571D02*
X133932356Y-167250962D01*
X133932356Y-167250962D02*
X133967965Y-167215354D01*
X133967965Y-167215354D02*
X134003573Y-167144137D01*
X133932356Y-166610011D02*
X133967965Y-166574403D01*
X133967965Y-166574403D02*
X134003573Y-166503186D01*
X134003573Y-166503186D02*
X134003573Y-166325144D01*
X134003573Y-166325144D02*
X133967965Y-166253927D01*
X133967965Y-166253927D02*
X133932356Y-166218319D01*
X133932356Y-166218319D02*
X133861140Y-166182710D01*
X133861140Y-166182710D02*
X133789923Y-166182710D01*
X133789923Y-166182710D02*
X133683098Y-166218319D01*
X133683098Y-166218319D02*
X133255797Y-166645619D01*
X133255797Y-166645619D02*
X133255797Y-166182710D01*
X133754314Y-165541759D02*
X133255797Y-165541759D01*
X134039182Y-165719801D02*
X133505056Y-165897843D01*
X133505056Y-165897843D02*
X133505056Y-165434934D01*
X120524638Y-129913019D02*
X120524638Y-130482754D01*
X120809505Y-130197886D02*
X120239771Y-130197886D01*
X120061729Y-131194921D02*
X120061729Y-130838837D01*
X120061729Y-130838837D02*
X120417813Y-130803229D01*
X120417813Y-130803229D02*
X120382204Y-130838837D01*
X120382204Y-130838837D02*
X120346596Y-130910054D01*
X120346596Y-130910054D02*
X120346596Y-131088096D01*
X120346596Y-131088096D02*
X120382204Y-131159313D01*
X120382204Y-131159313D02*
X120417813Y-131194921D01*
X120417813Y-131194921D02*
X120489029Y-131230530D01*
X120489029Y-131230530D02*
X120667071Y-131230530D01*
X120667071Y-131230530D02*
X120738288Y-131194921D01*
X120738288Y-131194921D02*
X120773897Y-131159313D01*
X120773897Y-131159313D02*
X120809505Y-131088096D01*
X120809505Y-131088096D02*
X120809505Y-130910054D01*
X120809505Y-130910054D02*
X120773897Y-130838837D01*
X120773897Y-130838837D02*
X120738288Y-130803229D01*
X120061729Y-131444180D02*
X120809505Y-131693439D01*
X120809505Y-131693439D02*
X120061729Y-131942698D01*
D10*
X86738485Y-29763918D02*
X86293380Y-29763918D01*
X86827506Y-30030981D02*
X86515932Y-29096261D01*
X86515932Y-29096261D02*
X86204359Y-30030981D01*
X85492191Y-29407834D02*
X85492191Y-30030981D01*
X85714743Y-29051751D02*
X85937296Y-29719408D01*
X85937296Y-29719408D02*
X85358659Y-29719408D01*
D11*
X87444819Y-29411761D02*
X88014554Y-29411761D01*
X87729686Y-29126894D02*
X87729686Y-29696628D01*
X88726721Y-29874670D02*
X88370637Y-29874670D01*
X88370637Y-29874670D02*
X88335029Y-29518586D01*
X88335029Y-29518586D02*
X88370637Y-29554195D01*
X88370637Y-29554195D02*
X88441854Y-29589803D01*
X88441854Y-29589803D02*
X88619896Y-29589803D01*
X88619896Y-29589803D02*
X88691113Y-29554195D01*
X88691113Y-29554195D02*
X88726721Y-29518586D01*
X88726721Y-29518586D02*
X88762330Y-29447370D01*
X88762330Y-29447370D02*
X88762330Y-29269328D01*
X88762330Y-29269328D02*
X88726721Y-29198111D01*
X88726721Y-29198111D02*
X88691113Y-29162503D01*
X88691113Y-29162503D02*
X88619896Y-29126894D01*
X88619896Y-29126894D02*
X88441854Y-29126894D01*
X88441854Y-29126894D02*
X88370637Y-29162503D01*
X88370637Y-29162503D02*
X88335029Y-29198111D01*
X88975980Y-29874670D02*
X89225239Y-29126894D01*
X89225239Y-29126894D02*
X89474498Y-29874670D01*
D10*
X51747371Y-130229240D02*
X51702861Y-130140219D01*
X51702861Y-130140219D02*
X51702861Y-130006688D01*
X51702861Y-130006688D02*
X51747371Y-129873156D01*
X51747371Y-129873156D02*
X51836392Y-129784135D01*
X51836392Y-129784135D02*
X51925413Y-129739625D01*
X51925413Y-129739625D02*
X52103455Y-129695114D01*
X52103455Y-129695114D02*
X52236987Y-129695114D01*
X52236987Y-129695114D02*
X52415029Y-129739625D01*
X52415029Y-129739625D02*
X52504050Y-129784135D01*
X52504050Y-129784135D02*
X52593071Y-129873156D01*
X52593071Y-129873156D02*
X52637581Y-130006688D01*
X52637581Y-130006688D02*
X52637581Y-130095709D01*
X52637581Y-130095709D02*
X52593071Y-130229240D01*
X52593071Y-130229240D02*
X52548560Y-130273751D01*
X52548560Y-130273751D02*
X52236987Y-130273751D01*
X52236987Y-130273751D02*
X52236987Y-130095709D01*
X52637581Y-130674345D02*
X51702861Y-130674345D01*
X51702861Y-130674345D02*
X52637581Y-131208471D01*
X52637581Y-131208471D02*
X51702861Y-131208471D01*
X52637581Y-131653575D02*
X51702861Y-131653575D01*
X51702861Y-131653575D02*
X51702861Y-131876127D01*
X51702861Y-131876127D02*
X51747371Y-132009659D01*
X51747371Y-132009659D02*
X51836392Y-132098680D01*
X51836392Y-132098680D02*
X51925413Y-132143190D01*
X51925413Y-132143190D02*
X52103455Y-132187701D01*
X52103455Y-132187701D02*
X52236987Y-132187701D01*
X52236987Y-132187701D02*
X52415029Y-132143190D01*
X52415029Y-132143190D02*
X52504050Y-132098680D01*
X52504050Y-132098680D02*
X52593071Y-132009659D01*
X52593071Y-132009659D02*
X52637581Y-131876127D01*
X52637581Y-131876127D02*
X52637581Y-131653575D01*
X83817485Y-29662318D02*
X83372380Y-29662318D01*
X83906506Y-29929381D02*
X83594932Y-28994661D01*
X83594932Y-28994661D02*
X83283359Y-29929381D01*
X82526680Y-28994661D02*
X82971785Y-28994661D01*
X82971785Y-28994661D02*
X83016296Y-29439766D01*
X83016296Y-29439766D02*
X82971785Y-29395255D01*
X82971785Y-29395255D02*
X82882764Y-29350745D01*
X82882764Y-29350745D02*
X82660212Y-29350745D01*
X82660212Y-29350745D02*
X82571191Y-29395255D01*
X82571191Y-29395255D02*
X82526680Y-29439766D01*
X82526680Y-29439766D02*
X82482170Y-29528787D01*
X82482170Y-29528787D02*
X82482170Y-29751339D01*
X82482170Y-29751339D02*
X82526680Y-29840360D01*
X82526680Y-29840360D02*
X82571191Y-29884871D01*
X82571191Y-29884871D02*
X82660212Y-29929381D01*
X82660212Y-29929381D02*
X82882764Y-29929381D01*
X82882764Y-29929381D02*
X82971785Y-29884871D01*
X82971785Y-29884871D02*
X83016296Y-29840360D01*
D11*
X49480838Y-129811419D02*
X49480838Y-130381154D01*
X49765705Y-130096286D02*
X49195971Y-130096286D01*
X49017929Y-131093321D02*
X49017929Y-130737237D01*
X49017929Y-130737237D02*
X49374013Y-130701629D01*
X49374013Y-130701629D02*
X49338404Y-130737237D01*
X49338404Y-130737237D02*
X49302796Y-130808454D01*
X49302796Y-130808454D02*
X49302796Y-130986496D01*
X49302796Y-130986496D02*
X49338404Y-131057713D01*
X49338404Y-131057713D02*
X49374013Y-131093321D01*
X49374013Y-131093321D02*
X49445229Y-131128930D01*
X49445229Y-131128930D02*
X49623271Y-131128930D01*
X49623271Y-131128930D02*
X49694488Y-131093321D01*
X49694488Y-131093321D02*
X49730097Y-131057713D01*
X49730097Y-131057713D02*
X49765705Y-130986496D01*
X49765705Y-130986496D02*
X49765705Y-130808454D01*
X49765705Y-130808454D02*
X49730097Y-130737237D01*
X49730097Y-130737237D02*
X49694488Y-130701629D01*
X49017929Y-131342580D02*
X49765705Y-131591839D01*
X49765705Y-131591839D02*
X49017929Y-131841098D01*
D10*
X84822643Y-23839671D02*
X84689111Y-23884181D01*
X84689111Y-23884181D02*
X84466559Y-23884181D01*
X84466559Y-23884181D02*
X84377538Y-23839671D01*
X84377538Y-23839671D02*
X84333027Y-23795160D01*
X84333027Y-23795160D02*
X84288517Y-23706139D01*
X84288517Y-23706139D02*
X84288517Y-23617118D01*
X84288517Y-23617118D02*
X84333027Y-23528097D01*
X84333027Y-23528097D02*
X84377538Y-23483587D01*
X84377538Y-23483587D02*
X84466559Y-23439076D01*
X84466559Y-23439076D02*
X84644601Y-23394566D01*
X84644601Y-23394566D02*
X84733622Y-23350055D01*
X84733622Y-23350055D02*
X84778132Y-23305545D01*
X84778132Y-23305545D02*
X84822643Y-23216524D01*
X84822643Y-23216524D02*
X84822643Y-23127503D01*
X84822643Y-23127503D02*
X84778132Y-23038482D01*
X84778132Y-23038482D02*
X84733622Y-22993971D01*
X84733622Y-22993971D02*
X84644601Y-22949461D01*
X84644601Y-22949461D02*
X84422048Y-22949461D01*
X84422048Y-22949461D02*
X84288517Y-22993971D01*
X83976943Y-22949461D02*
X83398307Y-22949461D01*
X83398307Y-22949461D02*
X83709880Y-23305545D01*
X83709880Y-23305545D02*
X83576349Y-23305545D01*
X83576349Y-23305545D02*
X83487328Y-23350055D01*
X83487328Y-23350055D02*
X83442817Y-23394566D01*
X83442817Y-23394566D02*
X83398307Y-23483587D01*
X83398307Y-23483587D02*
X83398307Y-23706139D01*
X83398307Y-23706139D02*
X83442817Y-23795160D01*
X83442817Y-23795160D02*
X83487328Y-23839671D01*
X83487328Y-23839671D02*
X83576349Y-23884181D01*
X83576349Y-23884181D02*
X83843412Y-23884181D01*
X83843412Y-23884181D02*
X83932433Y-23839671D01*
X83932433Y-23839671D02*
X83976943Y-23795160D01*
X97584285Y-23458671D02*
X97450753Y-23503181D01*
X97450753Y-23503181D02*
X97228201Y-23503181D01*
X97228201Y-23503181D02*
X97139180Y-23458671D01*
X97139180Y-23458671D02*
X97094669Y-23414160D01*
X97094669Y-23414160D02*
X97050159Y-23325139D01*
X97050159Y-23325139D02*
X97050159Y-23236118D01*
X97050159Y-23236118D02*
X97094669Y-23147097D01*
X97094669Y-23147097D02*
X97139180Y-23102587D01*
X97139180Y-23102587D02*
X97228201Y-23058076D01*
X97228201Y-23058076D02*
X97406243Y-23013566D01*
X97406243Y-23013566D02*
X97495264Y-22969055D01*
X97495264Y-22969055D02*
X97539774Y-22924545D01*
X97539774Y-22924545D02*
X97584285Y-22835524D01*
X97584285Y-22835524D02*
X97584285Y-22746503D01*
X97584285Y-22746503D02*
X97539774Y-22657482D01*
X97539774Y-22657482D02*
X97495264Y-22612971D01*
X97495264Y-22612971D02*
X97406243Y-22568461D01*
X97406243Y-22568461D02*
X97183690Y-22568461D01*
X97183690Y-22568461D02*
X97050159Y-22612971D01*
X96694075Y-22657482D02*
X96649564Y-22612971D01*
X96649564Y-22612971D02*
X96560543Y-22568461D01*
X96560543Y-22568461D02*
X96337991Y-22568461D01*
X96337991Y-22568461D02*
X96248970Y-22612971D01*
X96248970Y-22612971D02*
X96204459Y-22657482D01*
X96204459Y-22657482D02*
X96159949Y-22746503D01*
X96159949Y-22746503D02*
X96159949Y-22835524D01*
X96159949Y-22835524D02*
X96204459Y-22969055D01*
X96204459Y-22969055D02*
X96738585Y-23503181D01*
X96738585Y-23503181D02*
X96159949Y-23503181D01*
X118271181Y-129841225D02*
X117336461Y-129841225D01*
X117336461Y-130464372D02*
X117336461Y-130642414D01*
X117336461Y-130642414D02*
X117380971Y-130731435D01*
X117380971Y-130731435D02*
X117469992Y-130820456D01*
X117469992Y-130820456D02*
X117648034Y-130864966D01*
X117648034Y-130864966D02*
X117959608Y-130864966D01*
X117959608Y-130864966D02*
X118137650Y-130820456D01*
X118137650Y-130820456D02*
X118226671Y-130731435D01*
X118226671Y-130731435D02*
X118271181Y-130642414D01*
X118271181Y-130642414D02*
X118271181Y-130464372D01*
X118271181Y-130464372D02*
X118226671Y-130375351D01*
X118226671Y-130375351D02*
X118137650Y-130286330D01*
X118137650Y-130286330D02*
X117959608Y-130241819D01*
X117959608Y-130241819D02*
X117648034Y-130241819D01*
X117648034Y-130241819D02*
X117469992Y-130286330D01*
X117469992Y-130286330D02*
X117380971Y-130375351D01*
X117380971Y-130375351D02*
X117336461Y-130464372D01*
X118271181Y-131310070D02*
X118271181Y-131488112D01*
X118271181Y-131488112D02*
X118226671Y-131577133D01*
X118226671Y-131577133D02*
X118182160Y-131621644D01*
X118182160Y-131621644D02*
X118048629Y-131710665D01*
X118048629Y-131710665D02*
X117870587Y-131755175D01*
X117870587Y-131755175D02*
X117514503Y-131755175D01*
X117514503Y-131755175D02*
X117425482Y-131710665D01*
X117425482Y-131710665D02*
X117380971Y-131666154D01*
X117380971Y-131666154D02*
X117336461Y-131577133D01*
X117336461Y-131577133D02*
X117336461Y-131399091D01*
X117336461Y-131399091D02*
X117380971Y-131310070D01*
X117380971Y-131310070D02*
X117425482Y-131265560D01*
X117425482Y-131265560D02*
X117514503Y-131221049D01*
X117514503Y-131221049D02*
X117737055Y-131221049D01*
X117737055Y-131221049D02*
X117826076Y-131265560D01*
X117826076Y-131265560D02*
X117870587Y-131310070D01*
X117870587Y-131310070D02*
X117915097Y-131399091D01*
X117915097Y-131399091D02*
X117915097Y-131577133D01*
X117915097Y-131577133D02*
X117870587Y-131666154D01*
X117870587Y-131666154D02*
X117826076Y-131710665D01*
X117826076Y-131710665D02*
X117737055Y-131755175D01*
D12*
X76372649Y-126691689D02*
X76428288Y-126636051D01*
X76428288Y-126636051D02*
X76483926Y-126469137D01*
X76483926Y-126469137D02*
X76483926Y-126357861D01*
X76483926Y-126357861D02*
X76428288Y-126190946D01*
X76428288Y-126190946D02*
X76317011Y-126079670D01*
X76317011Y-126079670D02*
X76205735Y-126024032D01*
X76205735Y-126024032D02*
X75983183Y-125968394D01*
X75983183Y-125968394D02*
X75816268Y-125968394D01*
X75816268Y-125968394D02*
X75593716Y-126024032D01*
X75593716Y-126024032D02*
X75482440Y-126079670D01*
X75482440Y-126079670D02*
X75371164Y-126190946D01*
X75371164Y-126190946D02*
X75315526Y-126357861D01*
X75315526Y-126357861D02*
X75315526Y-126469137D01*
X75315526Y-126469137D02*
X75371164Y-126636051D01*
X75371164Y-126636051D02*
X75426802Y-126691689D01*
X75315526Y-127081156D02*
X75315526Y-127804451D01*
X75315526Y-127804451D02*
X75760630Y-127414984D01*
X75760630Y-127414984D02*
X75760630Y-127581899D01*
X75760630Y-127581899D02*
X75816268Y-127693175D01*
X75816268Y-127693175D02*
X75871907Y-127748813D01*
X75871907Y-127748813D02*
X75983183Y-127804451D01*
X75983183Y-127804451D02*
X76261373Y-127804451D01*
X76261373Y-127804451D02*
X76372649Y-127748813D01*
X76372649Y-127748813D02*
X76428288Y-127693175D01*
X76428288Y-127693175D02*
X76483926Y-127581899D01*
X76483926Y-127581899D02*
X76483926Y-127248070D01*
X76483926Y-127248070D02*
X76428288Y-127136794D01*
X76428288Y-127136794D02*
X76372649Y-127081156D01*
D13*
X85088376Y-175728248D02*
X84576312Y-175728248D01*
X84576312Y-175728248D02*
X84576312Y-175850168D01*
X84576312Y-175850168D02*
X84600696Y-175923320D01*
X84600696Y-175923320D02*
X84649464Y-175972088D01*
X84649464Y-175972088D02*
X84698232Y-175996472D01*
X84698232Y-175996472D02*
X84795768Y-176020856D01*
X84795768Y-176020856D02*
X84868920Y-176020856D01*
X84868920Y-176020856D02*
X84966456Y-175996472D01*
X84966456Y-175996472D02*
X85015224Y-175972088D01*
X85015224Y-175972088D02*
X85063992Y-175923320D01*
X85063992Y-175923320D02*
X85088376Y-175850168D01*
X85088376Y-175850168D02*
X85088376Y-175728248D01*
X84576312Y-176191544D02*
X84576312Y-176532920D01*
X84576312Y-176532920D02*
X85088376Y-176313464D01*
D14*
X58327508Y-147583977D02*
X58490068Y-147351749D01*
X58606182Y-147583977D02*
X58606182Y-147096297D01*
X58606182Y-147096297D02*
X58420399Y-147096297D01*
X58420399Y-147096297D02*
X58373954Y-147119520D01*
X58373954Y-147119520D02*
X58350731Y-147142743D01*
X58350731Y-147142743D02*
X58327508Y-147189189D01*
X58327508Y-147189189D02*
X58327508Y-147258857D01*
X58327508Y-147258857D02*
X58350731Y-147305303D01*
X58350731Y-147305303D02*
X58373954Y-147328526D01*
X58373954Y-147328526D02*
X58420399Y-147351749D01*
X58420399Y-147351749D02*
X58606182Y-147351749D01*
X57863051Y-147583977D02*
X58141725Y-147583977D01*
X58002388Y-147583977D02*
X58002388Y-147096297D01*
X58002388Y-147096297D02*
X58048834Y-147165966D01*
X58048834Y-147165966D02*
X58095279Y-147212412D01*
X58095279Y-147212412D02*
X58141725Y-147235635D01*
X57700491Y-147096297D02*
X57375371Y-147096297D01*
X57375371Y-147096297D02*
X57584377Y-147583977D01*
D15*
X75074003Y-36135619D02*
X75407336Y-35659428D01*
X75645431Y-36135619D02*
X75645431Y-35135619D01*
X75645431Y-35135619D02*
X75264479Y-35135619D01*
X75264479Y-35135619D02*
X75169241Y-35183238D01*
X75169241Y-35183238D02*
X75121622Y-35230857D01*
X75121622Y-35230857D02*
X75074003Y-35326095D01*
X75074003Y-35326095D02*
X75074003Y-35468952D01*
X75074003Y-35468952D02*
X75121622Y-35564190D01*
X75121622Y-35564190D02*
X75169241Y-35611809D01*
X75169241Y-35611809D02*
X75264479Y-35659428D01*
X75264479Y-35659428D02*
X75645431Y-35659428D01*
X74121622Y-36135619D02*
X74693050Y-36135619D01*
X74407336Y-36135619D02*
X74407336Y-35135619D01*
X74407336Y-35135619D02*
X74502574Y-35278476D01*
X74502574Y-35278476D02*
X74597812Y-35373714D01*
X74597812Y-35373714D02*
X74693050Y-35421333D01*
X73740669Y-35230857D02*
X73693050Y-35183238D01*
X73693050Y-35183238D02*
X73597812Y-35135619D01*
X73597812Y-35135619D02*
X73359717Y-35135619D01*
X73359717Y-35135619D02*
X73264479Y-35183238D01*
X73264479Y-35183238D02*
X73216860Y-35230857D01*
X73216860Y-35230857D02*
X73169241Y-35326095D01*
X73169241Y-35326095D02*
X73169241Y-35421333D01*
X73169241Y-35421333D02*
X73216860Y-35564190D01*
X73216860Y-35564190D02*
X73788288Y-36135619D01*
X73788288Y-36135619D02*
X73169241Y-36135619D01*
X87628380Y-148880333D02*
X87676000Y-148832714D01*
X87676000Y-148832714D02*
X87723619Y-148689857D01*
X87723619Y-148689857D02*
X87723619Y-148594619D01*
X87723619Y-148594619D02*
X87676000Y-148451762D01*
X87676000Y-148451762D02*
X87580761Y-148356524D01*
X87580761Y-148356524D02*
X87485523Y-148308905D01*
X87485523Y-148308905D02*
X87295047Y-148261286D01*
X87295047Y-148261286D02*
X87152190Y-148261286D01*
X87152190Y-148261286D02*
X86961714Y-148308905D01*
X86961714Y-148308905D02*
X86866476Y-148356524D01*
X86866476Y-148356524D02*
X86771238Y-148451762D01*
X86771238Y-148451762D02*
X86723619Y-148594619D01*
X86723619Y-148594619D02*
X86723619Y-148689857D01*
X86723619Y-148689857D02*
X86771238Y-148832714D01*
X86771238Y-148832714D02*
X86818857Y-148880333D01*
X86818857Y-149261286D02*
X86771238Y-149308905D01*
X86771238Y-149308905D02*
X86723619Y-149404143D01*
X86723619Y-149404143D02*
X86723619Y-149642238D01*
X86723619Y-149642238D02*
X86771238Y-149737476D01*
X86771238Y-149737476D02*
X86818857Y-149785095D01*
X86818857Y-149785095D02*
X86914095Y-149832714D01*
X86914095Y-149832714D02*
X87009333Y-149832714D01*
X87009333Y-149832714D02*
X87152190Y-149785095D01*
X87152190Y-149785095D02*
X87723619Y-149213667D01*
X87723619Y-149213667D02*
X87723619Y-149832714D01*
D16*
X58336904Y-171557021D02*
X58392930Y-171500996D01*
X58392930Y-171500996D02*
X58448955Y-171332920D01*
X58448955Y-171332920D02*
X58448955Y-171220870D01*
X58448955Y-171220870D02*
X58392930Y-171052795D01*
X58392930Y-171052795D02*
X58280879Y-170940744D01*
X58280879Y-170940744D02*
X58168829Y-170884719D01*
X58168829Y-170884719D02*
X57944728Y-170828694D01*
X57944728Y-170828694D02*
X57776653Y-170828694D01*
X57776653Y-170828694D02*
X57552552Y-170884719D01*
X57552552Y-170884719D02*
X57440502Y-170940744D01*
X57440502Y-170940744D02*
X57328452Y-171052795D01*
X57328452Y-171052795D02*
X57272427Y-171220870D01*
X57272427Y-171220870D02*
X57272427Y-171332920D01*
X57272427Y-171332920D02*
X57328452Y-171500996D01*
X57328452Y-171500996D02*
X57384477Y-171557021D01*
X57272427Y-172565474D02*
X57272427Y-172341373D01*
X57272427Y-172341373D02*
X57328452Y-172229323D01*
X57328452Y-172229323D02*
X57384477Y-172173298D01*
X57384477Y-172173298D02*
X57552552Y-172061247D01*
X57552552Y-172061247D02*
X57776653Y-172005222D01*
X57776653Y-172005222D02*
X58224854Y-172005222D01*
X58224854Y-172005222D02*
X58336904Y-172061247D01*
X58336904Y-172061247D02*
X58392930Y-172117272D01*
X58392930Y-172117272D02*
X58448955Y-172229323D01*
X58448955Y-172229323D02*
X58448955Y-172453423D01*
X58448955Y-172453423D02*
X58392930Y-172565474D01*
X58392930Y-172565474D02*
X58336904Y-172621499D01*
X58336904Y-172621499D02*
X58224854Y-172677524D01*
X58224854Y-172677524D02*
X57944728Y-172677524D01*
X57944728Y-172677524D02*
X57832678Y-172621499D01*
X57832678Y-172621499D02*
X57776653Y-172565474D01*
X57776653Y-172565474D02*
X57720628Y-172453423D01*
X57720628Y-172453423D02*
X57720628Y-172229323D01*
X57720628Y-172229323D02*
X57776653Y-172117272D01*
X57776653Y-172117272D02*
X57832678Y-172061247D01*
X57832678Y-172061247D02*
X57944728Y-172005222D01*
D17*
X78338063Y-121333320D02*
X79276399Y-121333320D01*
X79276399Y-121333320D02*
X79386791Y-121388516D01*
X79386791Y-121388516D02*
X79441988Y-121443712D01*
X79441988Y-121443712D02*
X79497184Y-121554105D01*
X79497184Y-121554105D02*
X79497184Y-121774890D01*
X79497184Y-121774890D02*
X79441988Y-121885282D01*
X79441988Y-121885282D02*
X79386791Y-121940478D01*
X79386791Y-121940478D02*
X79276399Y-121995675D01*
X79276399Y-121995675D02*
X78338063Y-121995675D01*
X78338063Y-122437244D02*
X78338063Y-123154795D01*
X78338063Y-123154795D02*
X78779633Y-122768422D01*
X78779633Y-122768422D02*
X78779633Y-122934010D01*
X78779633Y-122934010D02*
X78834829Y-123044403D01*
X78834829Y-123044403D02*
X78890025Y-123099599D01*
X78890025Y-123099599D02*
X79000418Y-123154795D01*
X79000418Y-123154795D02*
X79276399Y-123154795D01*
X79276399Y-123154795D02*
X79386791Y-123099599D01*
X79386791Y-123099599D02*
X79441988Y-123044403D01*
X79441988Y-123044403D02*
X79497184Y-122934010D01*
X79497184Y-122934010D02*
X79497184Y-122602833D01*
X79497184Y-122602833D02*
X79441988Y-122492440D01*
X79441988Y-122492440D02*
X79386791Y-122437244D01*
D15*
X112338857Y-150486619D02*
X112672190Y-150010428D01*
X112910285Y-150486619D02*
X112910285Y-149486619D01*
X112910285Y-149486619D02*
X112529333Y-149486619D01*
X112529333Y-149486619D02*
X112434095Y-149534238D01*
X112434095Y-149534238D02*
X112386476Y-149581857D01*
X112386476Y-149581857D02*
X112338857Y-149677095D01*
X112338857Y-149677095D02*
X112338857Y-149819952D01*
X112338857Y-149819952D02*
X112386476Y-149915190D01*
X112386476Y-149915190D02*
X112434095Y-149962809D01*
X112434095Y-149962809D02*
X112529333Y-150010428D01*
X112529333Y-150010428D02*
X112910285Y-150010428D01*
X111386476Y-150486619D02*
X111957904Y-150486619D01*
X111672190Y-150486619D02*
X111672190Y-149486619D01*
X111672190Y-149486619D02*
X111767428Y-149629476D01*
X111767428Y-149629476D02*
X111862666Y-149724714D01*
X111862666Y-149724714D02*
X111957904Y-149772333D01*
X110529333Y-149486619D02*
X110719809Y-149486619D01*
X110719809Y-149486619D02*
X110815047Y-149534238D01*
X110815047Y-149534238D02*
X110862666Y-149581857D01*
X110862666Y-149581857D02*
X110957904Y-149724714D01*
X110957904Y-149724714D02*
X111005523Y-149915190D01*
X111005523Y-149915190D02*
X111005523Y-150296142D01*
X111005523Y-150296142D02*
X110957904Y-150391380D01*
X110957904Y-150391380D02*
X110910285Y-150439000D01*
X110910285Y-150439000D02*
X110815047Y-150486619D01*
X110815047Y-150486619D02*
X110624571Y-150486619D01*
X110624571Y-150486619D02*
X110529333Y-150439000D01*
X110529333Y-150439000D02*
X110481714Y-150391380D01*
X110481714Y-150391380D02*
X110434095Y-150296142D01*
X110434095Y-150296142D02*
X110434095Y-150058047D01*
X110434095Y-150058047D02*
X110481714Y-149962809D01*
X110481714Y-149962809D02*
X110529333Y-149915190D01*
X110529333Y-149915190D02*
X110624571Y-149867571D01*
X110624571Y-149867571D02*
X110815047Y-149867571D01*
X110815047Y-149867571D02*
X110910285Y-149915190D01*
X110910285Y-149915190D02*
X110957904Y-149962809D01*
X110957904Y-149962809D02*
X111005523Y-150058047D01*
X75386711Y-41088619D02*
X75720044Y-40612428D01*
X75958139Y-41088619D02*
X75958139Y-40088619D01*
X75958139Y-40088619D02*
X75577187Y-40088619D01*
X75577187Y-40088619D02*
X75481949Y-40136238D01*
X75481949Y-40136238D02*
X75434330Y-40183857D01*
X75434330Y-40183857D02*
X75386711Y-40279095D01*
X75386711Y-40279095D02*
X75386711Y-40421952D01*
X75386711Y-40421952D02*
X75434330Y-40517190D01*
X75434330Y-40517190D02*
X75481949Y-40564809D01*
X75481949Y-40564809D02*
X75577187Y-40612428D01*
X75577187Y-40612428D02*
X75958139Y-40612428D01*
X74434330Y-41088619D02*
X75005758Y-41088619D01*
X74720044Y-41088619D02*
X74720044Y-40088619D01*
X74720044Y-40088619D02*
X74815282Y-40231476D01*
X74815282Y-40231476D02*
X74910520Y-40326714D01*
X74910520Y-40326714D02*
X75005758Y-40374333D01*
X74100996Y-40088619D02*
X73481949Y-40088619D01*
X73481949Y-40088619D02*
X73815282Y-40469571D01*
X73815282Y-40469571D02*
X73672425Y-40469571D01*
X73672425Y-40469571D02*
X73577187Y-40517190D01*
X73577187Y-40517190D02*
X73529568Y-40564809D01*
X73529568Y-40564809D02*
X73481949Y-40660047D01*
X73481949Y-40660047D02*
X73481949Y-40898142D01*
X73481949Y-40898142D02*
X73529568Y-40993380D01*
X73529568Y-40993380D02*
X73577187Y-41041000D01*
X73577187Y-41041000D02*
X73672425Y-41088619D01*
X73672425Y-41088619D02*
X73958139Y-41088619D01*
X73958139Y-41088619D02*
X74053377Y-41041000D01*
X74053377Y-41041000D02*
X74100996Y-40993380D01*
D18*
X86256565Y-155447771D02*
X86311477Y-155502684D01*
X86311477Y-155502684D02*
X86476215Y-155557596D01*
X86476215Y-155557596D02*
X86586039Y-155557596D01*
X86586039Y-155557596D02*
X86750776Y-155502684D01*
X86750776Y-155502684D02*
X86860601Y-155392859D01*
X86860601Y-155392859D02*
X86915514Y-155283034D01*
X86915514Y-155283034D02*
X86970426Y-155063384D01*
X86970426Y-155063384D02*
X86970426Y-154898647D01*
X86970426Y-154898647D02*
X86915514Y-154678998D01*
X86915514Y-154678998D02*
X86860601Y-154569173D01*
X86860601Y-154569173D02*
X86750776Y-154459348D01*
X86750776Y-154459348D02*
X86586039Y-154404436D01*
X86586039Y-154404436D02*
X86476215Y-154404436D01*
X86476215Y-154404436D02*
X86311477Y-154459348D01*
X86311477Y-154459348D02*
X86256565Y-154514261D01*
X85158317Y-155557596D02*
X85817266Y-155557596D01*
X85487792Y-155557596D02*
X85487792Y-154404436D01*
X85487792Y-154404436D02*
X85597616Y-154569173D01*
X85597616Y-154569173D02*
X85707441Y-154678998D01*
X85707441Y-154678998D02*
X85817266Y-154733910D01*
D15*
X87959711Y-40988619D02*
X88293044Y-40512428D01*
X88531139Y-40988619D02*
X88531139Y-39988619D01*
X88531139Y-39988619D02*
X88150187Y-39988619D01*
X88150187Y-39988619D02*
X88054949Y-40036238D01*
X88054949Y-40036238D02*
X88007330Y-40083857D01*
X88007330Y-40083857D02*
X87959711Y-40179095D01*
X87959711Y-40179095D02*
X87959711Y-40321952D01*
X87959711Y-40321952D02*
X88007330Y-40417190D01*
X88007330Y-40417190D02*
X88054949Y-40464809D01*
X88054949Y-40464809D02*
X88150187Y-40512428D01*
X88150187Y-40512428D02*
X88531139Y-40512428D01*
X87007330Y-40988619D02*
X87578758Y-40988619D01*
X87293044Y-40988619D02*
X87293044Y-39988619D01*
X87293044Y-39988619D02*
X87388282Y-40131476D01*
X87388282Y-40131476D02*
X87483520Y-40226714D01*
X87483520Y-40226714D02*
X87578758Y-40274333D01*
X86054949Y-40988619D02*
X86626377Y-40988619D01*
X86340663Y-40988619D02*
X86340663Y-39988619D01*
X86340663Y-39988619D02*
X86435901Y-40131476D01*
X86435901Y-40131476D02*
X86531139Y-40226714D01*
X86531139Y-40226714D02*
X86626377Y-40274333D01*
D19*
X85766730Y-141869789D02*
X85766730Y-140714089D01*
X84555997Y-141759722D02*
X84611030Y-141814756D01*
X84611030Y-141814756D02*
X84776130Y-141869789D01*
X84776130Y-141869789D02*
X84886197Y-141869789D01*
X84886197Y-141869789D02*
X85051297Y-141814756D01*
X85051297Y-141814756D02*
X85161364Y-141704689D01*
X85161364Y-141704689D02*
X85216397Y-141594622D01*
X85216397Y-141594622D02*
X85271430Y-141374489D01*
X85271430Y-141374489D02*
X85271430Y-141209389D01*
X85271430Y-141209389D02*
X85216397Y-140989256D01*
X85216397Y-140989256D02*
X85161364Y-140879189D01*
X85161364Y-140879189D02*
X85051297Y-140769122D01*
X85051297Y-140769122D02*
X84886197Y-140714089D01*
X84886197Y-140714089D02*
X84776130Y-140714089D01*
X84776130Y-140714089D02*
X84611030Y-140769122D01*
X84611030Y-140769122D02*
X84555997Y-140824156D01*
X84170764Y-140714089D02*
X83455330Y-140714089D01*
X83455330Y-140714089D02*
X83840564Y-141154356D01*
X83840564Y-141154356D02*
X83675464Y-141154356D01*
X83675464Y-141154356D02*
X83565397Y-141209389D01*
X83565397Y-141209389D02*
X83510364Y-141264422D01*
X83510364Y-141264422D02*
X83455330Y-141374489D01*
X83455330Y-141374489D02*
X83455330Y-141649656D01*
X83455330Y-141649656D02*
X83510364Y-141759722D01*
X83510364Y-141759722D02*
X83565397Y-141814756D01*
X83565397Y-141814756D02*
X83675464Y-141869789D01*
X83675464Y-141869789D02*
X84005664Y-141869789D01*
X84005664Y-141869789D02*
X84115730Y-141814756D01*
X84115730Y-141814756D02*
X84170764Y-141759722D01*
D15*
X62559711Y-40834619D02*
X62893044Y-40358428D01*
X63131139Y-40834619D02*
X63131139Y-39834619D01*
X63131139Y-39834619D02*
X62750187Y-39834619D01*
X62750187Y-39834619D02*
X62654949Y-39882238D01*
X62654949Y-39882238D02*
X62607330Y-39929857D01*
X62607330Y-39929857D02*
X62559711Y-40025095D01*
X62559711Y-40025095D02*
X62559711Y-40167952D01*
X62559711Y-40167952D02*
X62607330Y-40263190D01*
X62607330Y-40263190D02*
X62654949Y-40310809D01*
X62654949Y-40310809D02*
X62750187Y-40358428D01*
X62750187Y-40358428D02*
X63131139Y-40358428D01*
X61607330Y-40834619D02*
X62178758Y-40834619D01*
X61893044Y-40834619D02*
X61893044Y-39834619D01*
X61893044Y-39834619D02*
X61988282Y-39977476D01*
X61988282Y-39977476D02*
X62083520Y-40072714D01*
X62083520Y-40072714D02*
X62178758Y-40120333D01*
X60702568Y-39834619D02*
X61178758Y-39834619D01*
X61178758Y-39834619D02*
X61226377Y-40310809D01*
X61226377Y-40310809D02*
X61178758Y-40263190D01*
X61178758Y-40263190D02*
X61083520Y-40215571D01*
X61083520Y-40215571D02*
X60845425Y-40215571D01*
X60845425Y-40215571D02*
X60750187Y-40263190D01*
X60750187Y-40263190D02*
X60702568Y-40310809D01*
X60702568Y-40310809D02*
X60654949Y-40406047D01*
X60654949Y-40406047D02*
X60654949Y-40644142D01*
X60654949Y-40644142D02*
X60702568Y-40739380D01*
X60702568Y-40739380D02*
X60750187Y-40787000D01*
X60750187Y-40787000D02*
X60845425Y-40834619D01*
X60845425Y-40834619D02*
X61083520Y-40834619D01*
X61083520Y-40834619D02*
X61178758Y-40787000D01*
X61178758Y-40787000D02*
X61226377Y-40739380D01*
X87774003Y-36262619D02*
X88107336Y-35786428D01*
X88345431Y-36262619D02*
X88345431Y-35262619D01*
X88345431Y-35262619D02*
X87964479Y-35262619D01*
X87964479Y-35262619D02*
X87869241Y-35310238D01*
X87869241Y-35310238D02*
X87821622Y-35357857D01*
X87821622Y-35357857D02*
X87774003Y-35453095D01*
X87774003Y-35453095D02*
X87774003Y-35595952D01*
X87774003Y-35595952D02*
X87821622Y-35691190D01*
X87821622Y-35691190D02*
X87869241Y-35738809D01*
X87869241Y-35738809D02*
X87964479Y-35786428D01*
X87964479Y-35786428D02*
X88345431Y-35786428D01*
X86821622Y-36262619D02*
X87393050Y-36262619D01*
X87107336Y-36262619D02*
X87107336Y-35262619D01*
X87107336Y-35262619D02*
X87202574Y-35405476D01*
X87202574Y-35405476D02*
X87297812Y-35500714D01*
X87297812Y-35500714D02*
X87393050Y-35548333D01*
X86202574Y-35262619D02*
X86107336Y-35262619D01*
X86107336Y-35262619D02*
X86012098Y-35310238D01*
X86012098Y-35310238D02*
X85964479Y-35357857D01*
X85964479Y-35357857D02*
X85916860Y-35453095D01*
X85916860Y-35453095D02*
X85869241Y-35643571D01*
X85869241Y-35643571D02*
X85869241Y-35881666D01*
X85869241Y-35881666D02*
X85916860Y-36072142D01*
X85916860Y-36072142D02*
X85964479Y-36167380D01*
X85964479Y-36167380D02*
X86012098Y-36215000D01*
X86012098Y-36215000D02*
X86107336Y-36262619D01*
X86107336Y-36262619D02*
X86202574Y-36262619D01*
X86202574Y-36262619D02*
X86297812Y-36215000D01*
X86297812Y-36215000D02*
X86345431Y-36167380D01*
X86345431Y-36167380D02*
X86393050Y-36072142D01*
X86393050Y-36072142D02*
X86440669Y-35881666D01*
X86440669Y-35881666D02*
X86440669Y-35643571D01*
X86440669Y-35643571D02*
X86393050Y-35453095D01*
X86393050Y-35453095D02*
X86345431Y-35357857D01*
X86345431Y-35357857D02*
X86297812Y-35310238D01*
X86297812Y-35310238D02*
X86202574Y-35262619D01*
D16*
X111676904Y-171582421D02*
X111732930Y-171526396D01*
X111732930Y-171526396D02*
X111788955Y-171358320D01*
X111788955Y-171358320D02*
X111788955Y-171246270D01*
X111788955Y-171246270D02*
X111732930Y-171078195D01*
X111732930Y-171078195D02*
X111620879Y-170966144D01*
X111620879Y-170966144D02*
X111508829Y-170910119D01*
X111508829Y-170910119D02*
X111284728Y-170854094D01*
X111284728Y-170854094D02*
X111116653Y-170854094D01*
X111116653Y-170854094D02*
X110892552Y-170910119D01*
X110892552Y-170910119D02*
X110780502Y-170966144D01*
X110780502Y-170966144D02*
X110668452Y-171078195D01*
X110668452Y-171078195D02*
X110612427Y-171246270D01*
X110612427Y-171246270D02*
X110612427Y-171358320D01*
X110612427Y-171358320D02*
X110668452Y-171526396D01*
X110668452Y-171526396D02*
X110724477Y-171582421D01*
X110612427Y-171974597D02*
X110612427Y-172758949D01*
X110612427Y-172758949D02*
X111788955Y-172254723D01*
D15*
X112539003Y-41242619D02*
X112872336Y-40766428D01*
X113110431Y-41242619D02*
X113110431Y-40242619D01*
X113110431Y-40242619D02*
X112729479Y-40242619D01*
X112729479Y-40242619D02*
X112634241Y-40290238D01*
X112634241Y-40290238D02*
X112586622Y-40337857D01*
X112586622Y-40337857D02*
X112539003Y-40433095D01*
X112539003Y-40433095D02*
X112539003Y-40575952D01*
X112539003Y-40575952D02*
X112586622Y-40671190D01*
X112586622Y-40671190D02*
X112634241Y-40718809D01*
X112634241Y-40718809D02*
X112729479Y-40766428D01*
X112729479Y-40766428D02*
X113110431Y-40766428D01*
X112205669Y-40242619D02*
X111539003Y-40242619D01*
X111539003Y-40242619D02*
X111967574Y-41242619D01*
X62120003Y-36262619D02*
X62453336Y-35786428D01*
X62691431Y-36262619D02*
X62691431Y-35262619D01*
X62691431Y-35262619D02*
X62310479Y-35262619D01*
X62310479Y-35262619D02*
X62215241Y-35310238D01*
X62215241Y-35310238D02*
X62167622Y-35357857D01*
X62167622Y-35357857D02*
X62120003Y-35453095D01*
X62120003Y-35453095D02*
X62120003Y-35595952D01*
X62120003Y-35595952D02*
X62167622Y-35691190D01*
X62167622Y-35691190D02*
X62215241Y-35738809D01*
X62215241Y-35738809D02*
X62310479Y-35786428D01*
X62310479Y-35786428D02*
X62691431Y-35786428D01*
X61167622Y-36262619D02*
X61739050Y-36262619D01*
X61453336Y-36262619D02*
X61453336Y-35262619D01*
X61453336Y-35262619D02*
X61548574Y-35405476D01*
X61548574Y-35405476D02*
X61643812Y-35500714D01*
X61643812Y-35500714D02*
X61739050Y-35548333D01*
X60310479Y-35595952D02*
X60310479Y-36262619D01*
X60548574Y-35215000D02*
X60786669Y-35929285D01*
X60786669Y-35929285D02*
X60167622Y-35929285D01*
X99961330Y-40988619D02*
X100294663Y-40512428D01*
X100532758Y-40988619D02*
X100532758Y-39988619D01*
X100532758Y-39988619D02*
X100151806Y-39988619D01*
X100151806Y-39988619D02*
X100056568Y-40036238D01*
X100056568Y-40036238D02*
X100008949Y-40083857D01*
X100008949Y-40083857D02*
X99961330Y-40179095D01*
X99961330Y-40179095D02*
X99961330Y-40321952D01*
X99961330Y-40321952D02*
X100008949Y-40417190D01*
X100008949Y-40417190D02*
X100056568Y-40464809D01*
X100056568Y-40464809D02*
X100151806Y-40512428D01*
X100151806Y-40512428D02*
X100532758Y-40512428D01*
X99485139Y-40988619D02*
X99294663Y-40988619D01*
X99294663Y-40988619D02*
X99199425Y-40941000D01*
X99199425Y-40941000D02*
X99151806Y-40893380D01*
X99151806Y-40893380D02*
X99056568Y-40750523D01*
X99056568Y-40750523D02*
X99008949Y-40560047D01*
X99008949Y-40560047D02*
X99008949Y-40179095D01*
X99008949Y-40179095D02*
X99056568Y-40083857D01*
X99056568Y-40083857D02*
X99104187Y-40036238D01*
X99104187Y-40036238D02*
X99199425Y-39988619D01*
X99199425Y-39988619D02*
X99389901Y-39988619D01*
X99389901Y-39988619D02*
X99485139Y-40036238D01*
X99485139Y-40036238D02*
X99532758Y-40083857D01*
X99532758Y-40083857D02*
X99580377Y-40179095D01*
X99580377Y-40179095D02*
X99580377Y-40417190D01*
X99580377Y-40417190D02*
X99532758Y-40512428D01*
X99532758Y-40512428D02*
X99485139Y-40560047D01*
X99485139Y-40560047D02*
X99389901Y-40607666D01*
X99389901Y-40607666D02*
X99199425Y-40607666D01*
X99199425Y-40607666D02*
X99104187Y-40560047D01*
X99104187Y-40560047D02*
X99056568Y-40512428D01*
X99056568Y-40512428D02*
X99008949Y-40417190D01*
X99839003Y-36262619D02*
X100172336Y-35786428D01*
X100410431Y-36262619D02*
X100410431Y-35262619D01*
X100410431Y-35262619D02*
X100029479Y-35262619D01*
X100029479Y-35262619D02*
X99934241Y-35310238D01*
X99934241Y-35310238D02*
X99886622Y-35357857D01*
X99886622Y-35357857D02*
X99839003Y-35453095D01*
X99839003Y-35453095D02*
X99839003Y-35595952D01*
X99839003Y-35595952D02*
X99886622Y-35691190D01*
X99886622Y-35691190D02*
X99934241Y-35738809D01*
X99934241Y-35738809D02*
X100029479Y-35786428D01*
X100029479Y-35786428D02*
X100410431Y-35786428D01*
X99267574Y-35691190D02*
X99362812Y-35643571D01*
X99362812Y-35643571D02*
X99410431Y-35595952D01*
X99410431Y-35595952D02*
X99458050Y-35500714D01*
X99458050Y-35500714D02*
X99458050Y-35453095D01*
X99458050Y-35453095D02*
X99410431Y-35357857D01*
X99410431Y-35357857D02*
X99362812Y-35310238D01*
X99362812Y-35310238D02*
X99267574Y-35262619D01*
X99267574Y-35262619D02*
X99077098Y-35262619D01*
X99077098Y-35262619D02*
X98981860Y-35310238D01*
X98981860Y-35310238D02*
X98934241Y-35357857D01*
X98934241Y-35357857D02*
X98886622Y-35453095D01*
X98886622Y-35453095D02*
X98886622Y-35500714D01*
X98886622Y-35500714D02*
X98934241Y-35595952D01*
X98934241Y-35595952D02*
X98981860Y-35643571D01*
X98981860Y-35643571D02*
X99077098Y-35691190D01*
X99077098Y-35691190D02*
X99267574Y-35691190D01*
X99267574Y-35691190D02*
X99362812Y-35738809D01*
X99362812Y-35738809D02*
X99410431Y-35786428D01*
X99410431Y-35786428D02*
X99458050Y-35881666D01*
X99458050Y-35881666D02*
X99458050Y-36072142D01*
X99458050Y-36072142D02*
X99410431Y-36167380D01*
X99410431Y-36167380D02*
X99362812Y-36215000D01*
X99362812Y-36215000D02*
X99267574Y-36262619D01*
X99267574Y-36262619D02*
X99077098Y-36262619D01*
X99077098Y-36262619D02*
X98981860Y-36215000D01*
X98981860Y-36215000D02*
X98934241Y-36167380D01*
X98934241Y-36167380D02*
X98886622Y-36072142D01*
X98886622Y-36072142D02*
X98886622Y-35881666D01*
X98886622Y-35881666D02*
X98934241Y-35786428D01*
X98934241Y-35786428D02*
X98981860Y-35738809D01*
X98981860Y-35738809D02*
X99077098Y-35691190D01*
X112539003Y-36262619D02*
X112872336Y-35786428D01*
X113110431Y-36262619D02*
X113110431Y-35262619D01*
X113110431Y-35262619D02*
X112729479Y-35262619D01*
X112729479Y-35262619D02*
X112634241Y-35310238D01*
X112634241Y-35310238D02*
X112586622Y-35357857D01*
X112586622Y-35357857D02*
X112539003Y-35453095D01*
X112539003Y-35453095D02*
X112539003Y-35595952D01*
X112539003Y-35595952D02*
X112586622Y-35691190D01*
X112586622Y-35691190D02*
X112634241Y-35738809D01*
X112634241Y-35738809D02*
X112729479Y-35786428D01*
X112729479Y-35786428D02*
X113110431Y-35786428D01*
X111681860Y-35262619D02*
X111872336Y-35262619D01*
X111872336Y-35262619D02*
X111967574Y-35310238D01*
X111967574Y-35310238D02*
X112015193Y-35357857D01*
X112015193Y-35357857D02*
X112110431Y-35500714D01*
X112110431Y-35500714D02*
X112158050Y-35691190D01*
X112158050Y-35691190D02*
X112158050Y-36072142D01*
X112158050Y-36072142D02*
X112110431Y-36167380D01*
X112110431Y-36167380D02*
X112062812Y-36215000D01*
X112062812Y-36215000D02*
X111967574Y-36262619D01*
X111967574Y-36262619D02*
X111777098Y-36262619D01*
X111777098Y-36262619D02*
X111681860Y-36215000D01*
X111681860Y-36215000D02*
X111634241Y-36167380D01*
X111634241Y-36167380D02*
X111586622Y-36072142D01*
X111586622Y-36072142D02*
X111586622Y-35834047D01*
X111586622Y-35834047D02*
X111634241Y-35738809D01*
X111634241Y-35738809D02*
X111681860Y-35691190D01*
X111681860Y-35691190D02*
X111777098Y-35643571D01*
X111777098Y-35643571D02*
X111967574Y-35643571D01*
X111967574Y-35643571D02*
X112062812Y-35691190D01*
X112062812Y-35691190D02*
X112110431Y-35738809D01*
X112110431Y-35738809D02*
X112158050Y-35834047D01*
D20*
%TO.C,U2*%
X61092000Y-23518800D02*
X61092000Y-23445800D01*
X61092000Y-23445800D02*
X58265000Y-23445800D01*
X61035000Y-26569800D02*
X60765000Y-26845800D01*
X60765000Y-26845800D02*
X58265000Y-26845800D01*
X58265000Y-26845800D02*
X58265000Y-26772800D01*
X58265000Y-23445800D02*
X58265000Y-23491800D01*
%TO.C,U6*%
X86123700Y-23518800D02*
X86123700Y-23445800D01*
X86123700Y-23445800D02*
X83296700Y-23445800D01*
X86066700Y-26569800D02*
X85796700Y-26845800D01*
X85796700Y-26845800D02*
X83296700Y-26845800D01*
X83296700Y-26845800D02*
X83296700Y-26772800D01*
X83296700Y-23445800D02*
X83296700Y-23491800D01*
%TO.C,U8*%
X111155400Y-23518800D02*
X111155400Y-23445800D01*
X111155400Y-23445800D02*
X108328400Y-23445800D01*
X111098400Y-26569800D02*
X110828400Y-26845800D01*
X110828400Y-26845800D02*
X108328400Y-26845800D01*
X108328400Y-26845800D02*
X108328400Y-26772800D01*
X108328400Y-23445800D02*
X108328400Y-23491800D01*
%TO.C,D7*%
X87658000Y-173806200D02*
X87208000Y-173806200D01*
X85208000Y-173806200D02*
X84758000Y-173806200D01*
X84758000Y-173806200D02*
X84758000Y-178406200D01*
X87658000Y-178406200D02*
X87658000Y-173806200D01*
X87208000Y-178406200D02*
X87658000Y-178406200D01*
X84758000Y-178406200D02*
X85208000Y-178406200D01*
X85208000Y-179281200D02*
X87208000Y-179281200D01*
%TO.C,R12*%
G36*
X71550200Y-36143800D02*
G01*
X71093000Y-36143800D01*
X71093000Y-35381800D01*
X71550200Y-35381800D01*
X71550200Y-36143800D01*
G37*
%TO.C,U3*%
X88630000Y-123006000D02*
X88630000Y-128606000D01*
X80230000Y-128606000D02*
X80230000Y-123006000D01*
D21*
X80293500Y-121556000D02*
G75*
G03*
X80293500Y-121556000I-63500J0D01*
G01*
%TO.C,R13*%
G36*
X71693300Y-40995200D02*
G01*
X71236100Y-40995200D01*
X71236100Y-40233200D01*
X71693300Y-40233200D01*
X71693300Y-40995200D01*
G37*
D20*
%TO.C,U7*%
X98639600Y-23518800D02*
X98639600Y-23445800D01*
X98639600Y-23445800D02*
X95812600Y-23445800D01*
X98582600Y-26569800D02*
X98312600Y-26845800D01*
X98312600Y-26845800D02*
X95812600Y-26845800D01*
X95812600Y-26845800D02*
X95812600Y-26772800D01*
X95812600Y-23445800D02*
X95812600Y-23491800D01*
%TO.C,R11*%
G36*
X84488200Y-40995200D02*
G01*
X84031000Y-40995200D01*
X84031000Y-40233200D01*
X84488200Y-40233200D01*
X84488200Y-40995200D01*
G37*
D22*
%TO.C,IC3*%
X82829800Y-142697000D02*
X82829800Y-133807000D01*
D23*
X83922000Y-142697000D02*
X82855200Y-142697000D01*
X84938000Y-142697000D02*
X83922000Y-142697000D01*
X86004800Y-142697000D02*
X84938000Y-142697000D01*
X82855200Y-133807000D02*
X86004800Y-133807000D01*
X82474200Y-142316000D02*
G75*
G03*
X82855200Y-142697000I380999J-1D01*
G01*
X84938000Y-142697000D02*
G75*
G03*
X83922000Y-142697000I-508000J0D01*
G01*
X86004800Y-142697000D02*
G75*
G03*
X86385800Y-142316000I1J380999D01*
G01*
X82855200Y-133807000D02*
G75*
G03*
X82474200Y-134188000I0J-381000D01*
G01*
X86385800Y-134188000D02*
G75*
G03*
X86004800Y-133807000I-381000J0D01*
G01*
%TO.C,R15*%
G36*
X58898400Y-40995200D02*
G01*
X58441200Y-40995200D01*
X58441200Y-40233200D01*
X58898400Y-40233200D01*
X58898400Y-40995200D01*
G37*
%TO.C,R10*%
G36*
X84386600Y-36143800D02*
G01*
X83929400Y-36143800D01*
X83929400Y-35381800D01*
X84386600Y-35381800D01*
X84386600Y-36143800D01*
G37*
D20*
%TO.C,U5*%
X73607900Y-23518800D02*
X73607900Y-23445800D01*
X73607900Y-23445800D02*
X70780900Y-23445800D01*
X73550900Y-26569800D02*
X73280900Y-26845800D01*
X73280900Y-26845800D02*
X70780900Y-26845800D01*
X70780900Y-26845800D02*
X70780900Y-26772800D01*
X70780900Y-23445800D02*
X70780900Y-23491800D01*
%TO.C,R7*%
G36*
X110078000Y-40995200D02*
G01*
X109620800Y-40995200D01*
X109620800Y-40233200D01*
X110078000Y-40233200D01*
X110078000Y-40995200D01*
G37*
%TO.C,R14*%
G36*
X58713800Y-36143800D02*
G01*
X58256600Y-36143800D01*
X58256600Y-35381800D01*
X58713800Y-35381800D01*
X58713800Y-36143800D01*
G37*
%TO.C,R9*%
G36*
X97283100Y-40995200D02*
G01*
X96825900Y-40995200D01*
X96825900Y-40233200D01*
X97283100Y-40233200D01*
X97283100Y-40995200D01*
G37*
%TO.C,R8*%
G36*
X97223000Y-36143800D02*
G01*
X96765800Y-36143800D01*
X96765800Y-35381800D01*
X97223000Y-35381800D01*
X97223000Y-36143800D01*
G37*
%TO.C,R6*%
G36*
X110059400Y-36143800D02*
G01*
X109602200Y-36143800D01*
X109602200Y-35381800D01*
X110059400Y-35381800D01*
X110059400Y-36143800D01*
G37*
%TD*%
M02*
