%TF.GenerationSoftware,KiCad,Pcbnew,7.0.7*%
%TF.CreationDate,2024-02-03T16:57:13+08:00*%
%TF.ProjectId,lekirbot,6c656b69-7262-46f7-942e-6b696361645f,rev?*%
%TF.SameCoordinates,Original*%
%TF.FileFunction,Soldermask,Bot*%
%TF.FilePolarity,Negative*%
%FSLAX46Y46*%
G04 Gerber Fmt 4.6, Leading zero omitted, Abs format (unit mm)*
G04 Created by KiCad (PCBNEW 7.0.7) date 2024-02-03 16:57:13*
%MOMM*%
%LPD*%
G01*
G04 APERTURE LIST*
G04 Aperture macros list*
%AMRoundRect*
0 Rectangle with rounded corners*
0 $1 Rounding radius*
0 $2 $3 $4 $5 $6 $7 $8 $9 X,Y pos of 4 corners*
0 Add a 4 corners polygon primitive as box body*
4,1,4,$2,$3,$4,$5,$6,$7,$8,$9,$2,$3,0*
0 Add four circle primitives for the rounded corners*
1,1,$1+$1,$2,$3*
1,1,$1+$1,$4,$5*
1,1,$1+$1,$6,$7*
1,1,$1+$1,$8,$9*
0 Add four rect primitives between the rounded corners*
20,1,$1+$1,$2,$3,$4,$5,0*
20,1,$1+$1,$4,$5,$6,$7,0*
20,1,$1+$1,$6,$7,$8,$9,0*
20,1,$1+$1,$8,$9,$2,$3,0*%
%AMFreePoly0*
4,1,25,0.375350,0.844196,0.387473,0.833842,0.833842,0.387473,0.862349,0.331525,0.863600,0.315631,0.863600,-0.315631,0.844196,-0.375350,0.833842,-0.387473,0.387473,-0.833842,0.331525,-0.862349,0.315631,-0.863600,-0.315631,-0.863600,-0.375350,-0.844196,-0.387473,-0.833842,-0.833842,-0.387473,-0.862349,-0.331525,-0.863600,-0.315631,-0.863600,0.315631,-0.844196,0.375350,-0.833842,0.387473,
-0.387473,0.833842,-0.331525,0.862349,-0.315631,0.863600,0.315631,0.863600,0.375350,0.844196,0.375350,0.844196,$1*%
%AMFreePoly1*
4,1,25,0.501602,1.148996,0.513725,1.138642,1.138642,0.513725,1.167149,0.457777,1.168400,0.441883,1.168400,-0.441883,1.148996,-0.501602,1.138642,-0.513725,0.513725,-1.138642,0.457777,-1.167149,0.441883,-1.168400,-0.441883,-1.168400,-0.501602,-1.148996,-0.513725,-1.138642,-1.138642,-0.513725,-1.167149,-0.457777,-1.168400,-0.441883,-1.168400,0.441883,-1.148996,0.501602,-1.138642,0.513725,
-0.513725,1.138642,-0.457777,1.167149,-0.441883,1.168400,0.441883,1.168400,0.501602,1.148996,0.501602,1.148996,$1*%
G04 Aperture macros list end*
%ADD10R,1.700000X1.700000*%
%ADD11O,1.700000X1.700000*%
%ADD12C,3.200000*%
%ADD13C,2.082800*%
%ADD14C,2.000000*%
%ADD15C,1.778000*%
%ADD16RoundRect,0.101600X0.654000X-0.654000X0.654000X0.654000X-0.654000X0.654000X-0.654000X-0.654000X0*%
%ADD17C,1.511200*%
%ADD18FreePoly0,90.000000*%
%ADD19FreePoly1,90.000000*%
%ADD20RoundRect,0.460960X0.190640X0.089840X-0.190640X0.089840X-0.190640X-0.089840X0.190640X-0.089840X0*%
%ADD21RoundRect,0.101600X0.609600X0.266700X-0.609600X0.266700X-0.609600X-0.266700X0.609600X-0.266700X0*%
%ADD22RoundRect,0.101600X0.735000X-0.635000X0.735000X0.635000X-0.735000X0.635000X-0.735000X-0.635000X0*%
%ADD23RoundRect,0.101600X-0.735000X0.635000X-0.735000X-0.635000X0.735000X-0.635000X0.735000X0.635000X0*%
%ADD24RoundRect,0.101600X0.550000X0.500000X-0.550000X0.500000X-0.550000X-0.500000X0.550000X-0.500000X0*%
%ADD25RoundRect,0.101600X-0.600000X0.400000X-0.600000X-0.400000X0.600000X-0.400000X0.600000X0.400000X0*%
%ADD26RoundRect,0.460960X-0.190640X-0.089840X0.190640X-0.089840X0.190640X0.089840X-0.190640X0.089840X0*%
%ADD27RoundRect,0.101600X-0.200000X-0.750000X0.200000X-0.750000X0.200000X0.750000X-0.200000X0.750000X0*%
%ADD28RoundRect,0.101600X-0.550000X-0.500000X0.550000X-0.500000X0.550000X0.500000X-0.550000X0.500000X0*%
%ADD29RoundRect,0.460960X-0.089840X0.190640X-0.089840X-0.190640X0.089840X-0.190640X0.089840X0.190640X0*%
%ADD30RoundRect,0.101600X1.016000X-0.330200X1.016000X0.330200X-1.016000X0.330200X-1.016000X-0.330200X0*%
G04 APERTURE END LIST*
D10*
%TO.C,J3*%
X80620000Y-32080000D03*
D11*
X83160000Y-32080000D03*
X85700000Y-32080000D03*
X88240000Y-32080000D03*
%TD*%
D12*
%TO.C,H3*%
X46240700Y-178734600D03*
%TD*%
D13*
%TO.C,J1*%
X122987200Y-127736400D03*
X120447200Y-127736400D03*
X117907200Y-127736400D03*
%TD*%
%TO.C,M1A0*%
X57912000Y-165945700D03*
%TD*%
%TO.C,J2*%
X51968800Y-127914200D03*
X49428800Y-127914200D03*
X46888800Y-127914200D03*
%TD*%
D12*
%TO.C,H4*%
X46240700Y-160776800D03*
%TD*%
D14*
%TO.C,SW1*%
X54308000Y-139086000D03*
X60808000Y-139086000D03*
X54308000Y-143586000D03*
X60808000Y-143586000D03*
%TD*%
D12*
%TO.C,H5*%
X127051200Y-31165600D03*
%TD*%
D13*
%TO.C,LDR0*%
X110084000Y-143078000D03*
X112624000Y-143078000D03*
%TD*%
%TO.C,BATT0*%
X86081000Y-171018000D03*
X83541000Y-171018000D03*
%TD*%
D15*
%TO.C,ARDUINO_NANO1*%
X76810000Y-185928000D03*
X92050000Y-185928000D03*
X76810000Y-145288000D03*
X92050000Y-145288000D03*
D16*
X92050000Y-183388000D03*
D17*
X92050000Y-180848000D03*
X92050000Y-178308000D03*
X92050000Y-175768000D03*
X92050000Y-173228000D03*
X92050000Y-170688000D03*
X92050000Y-168148000D03*
X92050000Y-165608000D03*
X92050000Y-163068000D03*
X92050000Y-160528000D03*
X92050000Y-157988000D03*
X92050000Y-155448000D03*
X92050000Y-152908000D03*
X92050000Y-150368000D03*
X92050000Y-147828000D03*
X76810000Y-147828000D03*
X76810000Y-150368000D03*
X76810000Y-152908000D03*
X76810000Y-155448000D03*
X76810000Y-157988000D03*
X76810000Y-160528000D03*
X76810000Y-163068000D03*
X76810000Y-165608000D03*
X76810000Y-168148000D03*
X76810000Y-170688000D03*
X76810000Y-173228000D03*
X76810000Y-175768000D03*
X76810000Y-178308000D03*
X76810000Y-180848000D03*
X76810000Y-183388000D03*
%TD*%
D12*
%TO.C,H8*%
X73812800Y-51358600D03*
%TD*%
D18*
%TO.C,S2X0*%
X82334500Y-184480000D03*
X84557000Y-184480000D03*
X86779500Y-184480000D03*
D19*
X79807000Y-184492500D03*
X89307000Y-184467500D03*
%TD*%
D13*
%TO.C,M1B0*%
X57912000Y-173692700D03*
%TD*%
D12*
%TO.C,H10*%
X94564600Y-114706200D03*
%TD*%
%TO.C,H7*%
X94488400Y-51409400D03*
%TD*%
%TO.C,H9*%
X73787400Y-114782400D03*
%TD*%
D13*
%TO.C,M2A0*%
X111252000Y-165945700D03*
%TD*%
%TO.C,M2B0*%
X111252000Y-173692700D03*
%TD*%
D12*
%TO.C,H6*%
X41910400Y-31241800D03*
%TD*%
%TO.C,H1*%
X122262900Y-178734600D03*
%TD*%
%TO.C,H2*%
X122262900Y-160776800D03*
%TD*%
D20*
%TO.C,C3*%
X77572000Y-125679000D03*
X77572000Y-127457000D03*
%TD*%
D21*
%TO.C,U2*%
X61773200Y-26034800D03*
X57556800Y-26034800D03*
X57556800Y-24256800D03*
X61773200Y-24256800D03*
%TD*%
%TO.C,U6*%
X86804900Y-26034800D03*
X82588500Y-26034800D03*
X82588500Y-24256800D03*
X86804900Y-24256800D03*
%TD*%
%TO.C,U8*%
X111836600Y-26034800D03*
X107620200Y-26034800D03*
X107620200Y-24256800D03*
X111836600Y-24256800D03*
%TD*%
D22*
%TO.C,D7*%
X86208000Y-173956200D03*
D23*
X86208000Y-178256200D03*
%TD*%
D24*
%TO.C,R17*%
X58864000Y-148412000D03*
X57164000Y-148412000D03*
%TD*%
%TO.C,R12*%
X72171600Y-35762800D03*
X70471600Y-35762800D03*
%TD*%
D25*
%TO.C,C2*%
X89637000Y-148147000D03*
X89637000Y-149947000D03*
%TD*%
D26*
%TO.C,C6*%
X57835800Y-170543100D03*
X57835800Y-168765100D03*
%TD*%
D27*
%TO.C,U3*%
X80855000Y-122181000D03*
X81505000Y-122181000D03*
X82155000Y-122181000D03*
X82805000Y-122181000D03*
X83455000Y-122181000D03*
X84105000Y-122181000D03*
X84755000Y-122181000D03*
X85405000Y-122181000D03*
X86055000Y-122181000D03*
X86705000Y-122181000D03*
X87355000Y-122181000D03*
X88005000Y-122181000D03*
X88005000Y-129431000D03*
X87355000Y-129431000D03*
X86705000Y-129431000D03*
X86055000Y-129431000D03*
X85405000Y-129431000D03*
X84755000Y-129431000D03*
X84105000Y-129431000D03*
X83455000Y-129431000D03*
X82805000Y-129431000D03*
X82155000Y-129431000D03*
X81505000Y-129431000D03*
X80855000Y-129431000D03*
%TD*%
D24*
%TO.C,R16*%
X112546000Y-149682000D03*
X110846000Y-149682000D03*
%TD*%
D28*
%TO.C,R13*%
X70614700Y-40614200D03*
X72314700Y-40614200D03*
%TD*%
D29*
%TO.C,C1*%
X87909800Y-155371600D03*
X89687800Y-155371600D03*
%TD*%
D21*
%TO.C,U7*%
X99320800Y-26034800D03*
X95104400Y-26034800D03*
X95104400Y-24256800D03*
X99320800Y-24256800D03*
%TD*%
D28*
%TO.C,R11*%
X83409600Y-40614200D03*
X85109600Y-40614200D03*
%TD*%
D30*
%TO.C,IC3*%
X81356600Y-142062000D03*
X81356600Y-140792000D03*
X81356600Y-139522000D03*
X81356600Y-138252000D03*
X81356600Y-136982000D03*
X81356600Y-135712000D03*
X81356600Y-134442000D03*
X87503400Y-134442000D03*
X87503400Y-135712000D03*
X87503400Y-136982000D03*
X87503400Y-138252000D03*
X87503400Y-139522000D03*
X87503400Y-140792000D03*
X87503400Y-142062000D03*
%TD*%
D28*
%TO.C,R15*%
X57819800Y-40614200D03*
X59519800Y-40614200D03*
%TD*%
D24*
%TO.C,R10*%
X85008000Y-35762800D03*
X83308000Y-35762800D03*
%TD*%
D26*
%TO.C,C7*%
X111175800Y-170568500D03*
X111175800Y-168790500D03*
%TD*%
D21*
%TO.C,U5*%
X74289100Y-26034800D03*
X70072700Y-26034800D03*
X70072700Y-24256800D03*
X74289100Y-24256800D03*
%TD*%
D28*
%TO.C,R7*%
X108999400Y-40614200D03*
X110699400Y-40614200D03*
%TD*%
D24*
%TO.C,R14*%
X59335200Y-35762800D03*
X57635200Y-35762800D03*
%TD*%
D28*
%TO.C,R9*%
X96204500Y-40614200D03*
X97904500Y-40614200D03*
%TD*%
D24*
%TO.C,R8*%
X97844400Y-35762800D03*
X96144400Y-35762800D03*
%TD*%
%TO.C,R6*%
X110680800Y-35762800D03*
X108980800Y-35762800D03*
%TD*%
M02*
