M48
; DRILL file {KiCad 7.0.7} date 2024 February 04, Sunday 10:16:07
; FORMAT={-:-/ absolute / inch / decimal}
; #@! TF.CreationDate,2024-02-04T10:16:07+08:00
; #@! TF.GenerationSoftware,Kicad,Pcbnew,7.0.7
; #@! TF.FileFunction,Plated,1,2,PTH
FMAT,2
INCH
; #@! TA.AperFunction,Plated,PTH,ViaDrill
T1C0.0118
; #@! TA.AperFunction,Plated,PTH,ViaDrill
T2C0.0197
; #@! TA.AperFunction,Plated,PTH,ComponentDrill
T3C0.0315
; #@! TA.AperFunction,Plated,PTH,ComponentDrill
T4C0.0394
; #@! TA.AperFunction,Plated,PTH,ComponentDrill
T5C0.0400
; #@! TA.AperFunction,Plated,PTH,ComponentDrill
T6C0.0433
; #@! TA.AperFunction,Plated,PTH,ComponentDrill
T7C0.0560
%
G90
G05
T1
X3.029Y-5.238
X3.059Y-1.618
X3.059Y-4.748
X3.114Y-5.268
X3.174Y-4.948
X3.229Y-1.903
X3.259Y-5.018
X3.339Y-5.028
X3.424Y-1.638
X3.424Y-5.193
X3.484Y-7.113
X3.489Y-1.638
X3.574Y-5.593
X3.994Y-1.768
X4.059Y-1.763
X4.179Y-4.918
T2
X2.169Y-1.368
X2.374Y-1.213
X2.694Y-1.348
X2.739Y-1.873
X2.784Y-4.838
X2.844Y-1.768
X2.864Y-1.233
X3.099Y-1.388
X3.684Y-1.353
X3.854Y-1.223
X4.194Y-1.343
X4.354Y-1.223
T3
X3.024Y-5.82
X3.024Y-5.92
X3.024Y-6.02
X3.024Y-6.12
X3.024Y-6.22
X3.024Y-6.32
X3.024Y-6.42
X3.024Y-6.52
X3.024Y-6.62
X3.024Y-6.72
X3.024Y-6.82
X3.024Y-6.92
X3.024Y-7.02
X3.024Y-7.12
X3.024Y-7.22
X3.624Y-5.82
X3.624Y-5.92
X3.624Y-6.02
X3.624Y-6.12
X3.624Y-6.22
X3.624Y-6.32
X3.624Y-6.42
X3.624Y-6.52
X3.624Y-6.62
X3.624Y-6.72
X3.624Y-6.82
X3.624Y-6.92
X3.624Y-7.02
X3.624Y-7.12
X3.624Y-7.22
T4
X3.174Y-1.263
X3.274Y-1.263
X3.374Y-1.263
X3.474Y-1.263
T5
X1.846Y-5.036
X1.946Y-5.036
X2.046Y-5.036
X2.28Y-6.5333
X2.28Y-6.8383
X3.2415Y-7.263
X3.289Y-6.733
X3.329Y-7.263
X3.389Y-6.733
X3.4165Y-7.263
X4.334Y-5.633
X4.38Y-6.5333
X4.38Y-6.8383
X4.434Y-5.633
X4.642Y-5.029
X4.742Y-5.029
X4.842Y-5.029
T6
X2.1381Y-5.4758
X2.1381Y-5.653
X2.394Y-5.4758
X2.394Y-5.653
T7
X3.142Y-7.2635
X3.516Y-7.2625
T0
M30
